<?xml version="1.0" standalone="no"?>
<!DOCTYPE svg PUBLIC "-//W3C//DTD SVG 1.1//EN" "http://www.w3.org/Graphics/SVG/1.1/DTD/svg11.dtd" >
<svg xmlns="http://www.w3.org/2000/svg" xmlns:xlink="http://www.w3.org/1999/xlink" version="1.1">
<metadata>
Created by FontForge 20161003 at Mon Mar 20 18:55:18 2017
 By www-data
Pangram Pangram 2015
</metadata>
<defs>
<font id="Pangram-ExtraLight" horiz-adv-x="688" >
  <font-face 
    font-family="Pangram ExtraLight"
    font-weight="250"
    font-stretch="normal"
    units-per-em="1000"
    panose-1="0 0 3 0 0 0 0 0 0 0"
    ascent="800"
    descent="-200"
    x-height="506"
    cap-height="710"
    bbox="-691 -250 1279 990"
    underline-thickness="50"
    underline-position="-150"
    unicode-range="U+0020-25CA"
  />
<missing-glyph horiz-adv-x="490" 
d="M402 750v-980h-311v980h311zM326 684h-161v-32h63v-36h-64v-33h162v33h-64v36h64v32zM262 558h-98v-102h162v33h-64v69zM228 525v-36h-32v36h32zM326 430h-162v-33h64v-36h-64v-32h98v68h64v33zM326 371h-32v-65h-130v-33h162v98zM326 251h-98v-55h34v23h32v-46h-98v78
h-32v-111h162v111zM326 82h-162v-111h162v111zM294 49v-46h-98v46h98zM326 -52h-162v-32h68l-68 -46v-32h162v32h-100l69 46h31v32z" />
    <glyph glyph-name=".notdef" horiz-adv-x="490" 
d="M402 750v-980h-311v980h311zM326 684h-161v-32h63v-36h-64v-33h162v33h-64v36h64v32zM262 558h-98v-102h162v33h-64v69zM228 525v-36h-32v36h32zM326 430h-162v-33h64v-36h-64v-32h98v68h64v33zM326 371h-32v-65h-130v-33h162v98zM326 251h-98v-55h34v23h32v-46h-98v78
h-32v-111h162v111zM326 82h-162v-111h162v111zM294 49v-46h-98v46h98zM326 -52h-162v-32h68l-68 -46v-32h162v32h-100l69 46h31v32z" />
    <glyph glyph-name=".null" horiz-adv-x="0" 
 />
    <glyph glyph-name="nonmarkingreturn" horiz-adv-x="333" 
 />
    <glyph glyph-name="space" unicode=" " horiz-adv-x="280" 
 />
    <glyph glyph-name="exclam" unicode="!" horiz-adv-x="170" 
d="M84 177v533h20v-533h-20zM95 -10q-11 0 -18 7t-7 18t7 18t18 7t18 -7t7 -18t-7 -18t-18 -7z" />
    <glyph glyph-name="quotedbl" unicode="&#x22;" horiz-adv-x="240" 
d="M110 710h20v-150h-20v150zM180 710h20v-150h-20v150z" />
    <glyph glyph-name="numbersign" unicode="#" horiz-adv-x="706" 
d="M646 450h-127l-25 -232h122v-20h-124l-21 -198h-20l21 198h-232l-21 -198h-20l21 198h-140v20h142l25 232h-137v20h139l26 240h20l-26 -240h232l26 240h20l-26 -240h125v-20zM474 218l25 232h-232l-25 -232h232z" />
    <glyph glyph-name="dollar" unicode="$" horiz-adv-x="610" 
d="M530 157q0 -73 -53.5 -119t-141.5 -48v-70h-20v70q-75 4 -131.5 50t-63.5 127h20q7 -72 57.5 -112.5t117.5 -44.5v351q-38 17 -54 25t-46 27t-43.5 36.5t-25 46t-11.5 63.5q0 68 52 113.5t128 47.5v70h20v-70q66 -4 111.5 -48.5t53.5 -106.5h-20q-8 54 -47.5 92.5
t-97.5 42.5v-326q93 -42 144 -90.5t51 -126.5zM155 559q0 -30 9.5 -55t22 -41t37.5 -32.5t42 -25t49 -22.5v317q-68 -2 -114 -41.5t-46 -99.5zM335 10q79 2 127 42t48 105q0 69 -46.5 113.5t-128.5 81.5v-342z" />
    <glyph glyph-name="percent" unicode="%" horiz-adv-x="974" 
d="M265 390q-69 0 -117 48t-48 117t48 117t117 48t117 -48t48 -117t-48 -117t-117 -48zM777 710l-536 -710h-25l536 710h25zM265 410q61 0 103 42t42 103t-42 103t-103 42t-103 -42t-42 -103t42 -103t103 -42zM729 -10q-69 0 -117 48t-48 117t48 117t117 48t117 -48t48 -117
t-48 -117t-117 -48zM729 10q61 0 103 42t42 103t-42 103t-103 42t-103 -42t-42 -103t42 -103t103 -42z" />
    <glyph glyph-name="ampersand" unicode="&#x26;" horiz-adv-x="686" 
d="M606 313q0 -148 -73 -236l73 -77h-27l-59 63q-71 -73 -187 -73q-106 0 -169.5 65.5t-63.5 157.5q0 61 33 108t78 71l-4 4q-57 62 -57 141q0 77 52.5 130t135.5 53q80 0 129 -52.5t49 -130.5h-20q0 70 -43 116.5t-115 46.5q-75 0 -121.5 -47t-46.5 -116q0 -74 64 -141
l286 -304q64 77 64 201h-48v20h70zM333 10q106 0 173 67l-280 299q-43 -20 -74.5 -62.5t-31.5 -100.5q0 -86 59 -144.5t154 -58.5z" />
    <glyph glyph-name="quotesingle" unicode="'" horiz-adv-x="170" 
d="M110 710h20v-150h-20v150z" />
    <glyph glyph-name="parenleft" unicode="(" horiz-adv-x="300" 
d="M220 710v-20q-46 0 -83 -34t-37 -103v-476q0 -69 37 -103t83 -34v-20q-54 0 -97 40t-43 117v476q0 77 43 117t97 40z" />
    <glyph glyph-name="parenright" unicode=")" horiz-adv-x="290" 
d="M70 710q54 0 97 -40t43 -117v-476q0 -77 -43 -117t-97 -40v20q46 0 83 34t37 103v476q0 69 -37 103t-83 34v20z" />
    <glyph glyph-name="asterisk" unicode="*" horiz-adv-x="470" 
d="M316 424l-66 115l-66 -114l-18 10l66 114h-132v20h133l-67 115l18 10l66 -114l66 115l18 -10l-67 -116h133v-20h-132l66 -115z" />
    <glyph glyph-name="plus" unicode="+" horiz-adv-x="500" 
d="M400 300v-20h-140v-140h-20v140h-140v20h140v140h20v-140h140z" />
    <glyph glyph-name="comma" unicode="," horiz-adv-x="140" 
d="M59 44h31l-39 -150h-21z" />
    <glyph glyph-name="hyphen" unicode="-" horiz-adv-x="440" 
d="M80 285h300v-20h-300v20z" />
    <glyph glyph-name="period" unicode="." horiz-adv-x="130" 
d="M55 -10q-11 0 -18 7t-7 18t7 18t18 7t18 -7t7 -18t-7 -18t-18 -7z" />
    <glyph glyph-name="slash" unicode="/" horiz-adv-x="367" 
d="M337 710l-266 -710h-21l266 710h21z" />
    <glyph glyph-name="zero" unicode="0" horiz-adv-x="616" 
d="M318 720q100 0 169 -69t69 -169v-254q0 -100 -69 -169t-169 -69t-169 69t-69 169v254q0 100 69 169t169 69zM318 10q92 0 155 63t63 155v254q0 92 -63 155t-155 63t-155 -63t-63 -155v-254q0 -92 63 -155t155 -63z" />
    <glyph glyph-name="one" unicode="1" horiz-adv-x="510" 
d="M275 20h185v-20h-390v20h185v663l-135 -44v21l155 50v-690z" />
    <glyph glyph-name="two" unicode="2" horiz-adv-x="636" 
d="M566 505q0 -69 -47 -129t-114 -102t-134 -81t-114 -83t-47 -90h456v-20h-476v20q0 51 47 98t114 86t134 80.5t114 98.5t47 122q0 86 -58 140.5t-143 54.5q-105 0 -170 -60t-65 -150h-20q0 99 69.5 164.5t185.5 65.5q96 0 158.5 -60t62.5 -155z" />
    <glyph glyph-name="three" unicode="3" horiz-adv-x="636" 
d="M412 368q69 -16 111.5 -60t42.5 -117q0 -85 -61 -143t-167 -58q-109 0 -178.5 67.5t-69.5 165.5h20q0 -91 64.5 -152t163.5 -61q95 0 151.5 53t56.5 128q0 45 -19.5 78.5t-52 52t-69 27t-76.5 8.5h-59v20h59q84 0 135.5 39t51.5 115q0 73 -52.5 121t-135.5 48
q-98 0 -158 -60.5t-60 -152.5h-20q0 99 65 166t173 67q94 0 151 -53.5t57 -135.5q0 -64 -33 -105.5t-91 -57.5z" />
    <glyph glyph-name="four" unicode="4" horiz-adv-x="633" 
d="M583 179v-20h-95v-159h-20v159h-398v20l398 531h20v-531h95zM95 179h373v498z" />
    <glyph glyph-name="five" unicode="5" horiz-adv-x="636" 
d="M329 473q100 0 168.5 -65t68.5 -179q0 -101 -70.5 -170t-167.5 -69q-108 0 -173 67t-65 166h20q0 -92 59.5 -152.5t158.5 -60.5q89 0 153.5 63t64.5 156q0 106 -62.5 165t-154.5 59q-67 0 -127.5 -32t-81.5 -99h-20l60 388h356v-20h-339l-47 -306q33 45 88 67t111 22z
" />
    <glyph glyph-name="six" unicode="6" horiz-adv-x="656" 
d="M339 466q97 0 167 -70t70 -168t-69.5 -168t-167.5 -70q-99 0 -169 70t-70 168q0 73 42 134l228 348h24l-186 -283q59 39 131 39zM339 10q89 0 153 64t64 154q0 89 -64 153.5t-153 64.5q-91 0 -155 -64t-64 -154t64 -154t155 -64z" />
    <glyph glyph-name="seven" unicode="7" horiz-adv-x="569" 
d="M80 710h439v-20l-326 -690h-22l326 690h-417v20z" />
    <glyph glyph-name="eight" unicode="8" horiz-adv-x="636" 
d="M403 384q74 -17 118.5 -68t44.5 -121q0 -88 -67 -143t-171 -55t-171 55t-67 143q0 70 44.5 121t118.5 68q-55 18 -89 58.5t-34 100.5q0 80 59 125t139 45t139 -45t59 -125q0 -60 -34 -100.5t-89 -58.5zM150 543q0 -71 54.5 -110.5t123.5 -39.5t123.5 39.5t54.5 110.5
t-54.5 110.5t-123.5 39.5t-123.5 -39.5t-54.5 -110.5zM328 17q93 0 155.5 49.5t62.5 128.5t-62.5 128.5t-155.5 49.5t-155.5 -49.5t-62.5 -128.5t62.5 -128.5t155.5 -49.5z" />
    <glyph glyph-name="nine" unicode="9" horiz-adv-x="656" 
d="M576 482q0 -73 -42 -134l-228 -348h-24l186 283q-59 -39 -131 -39q-97 0 -167 70t-70 168t69.5 168t167.5 70q99 0 169 -70t70 -168zM120 482q0 -89 64 -153.5t153 -64.5q91 0 155 64t64 154t-64 154t-155 64q-89 0 -153 -64t-64 -154z" />
    <glyph glyph-name="colon" unicode=":" horiz-adv-x="170" 
d="M95 416q-11 0 -18 7t-7 18t7 18t18 7t18 -7t7 -18t-7 -18t-18 -7zM95 -10q-11 0 -18 7t-7 18t7 18t18 7t18 -7t7 -18t-7 -18t-18 -7z" />
    <glyph glyph-name="semicolon" unicode=";" horiz-adv-x="143" 
d="M68 416q-10 0 -17.5 7t-7.5 18t7.5 18t17.5 7t17.5 -7t7.5 -18t-7.5 -18t-17.5 -7zM59 44h31l-39 -150h-21z" />
    <glyph glyph-name="less" unicode="&#x3c;" horiz-adv-x="500" 
d="M400 440v-22l-276 -127l276 -127v-22l-300 138v22z" />
    <glyph glyph-name="equal" unicode="=" horiz-adv-x="500" 
d="M100 345h300v-20h-300v20zM100 255h300v-20h-300v20z" />
    <glyph glyph-name="greater" unicode="&#x3e;" horiz-adv-x="500" 
d="M100 440l300 -138v-22l-300 -138v22l276 127l-276 127v22z" />
    <glyph glyph-name="question" unicode="?" horiz-adv-x="506" 
d="M268 720q89 0 138.5 -51t49.5 -121q0 -81 -52 -129.5t-135 -53.5v-188h-20v207q83 0 135 43t52 121q0 64 -45 108t-123 44q-74 0 -126 -50t-52 -136h-20q0 93 57 149.5t141 56.5zM259 40q11 0 18 -7t7 -18t-7 -18t-18 -7t-18 7t-7 18t7 18t18 7z" />
    <glyph glyph-name="at" unicode="@" horiz-adv-x="970" 
d="M100 345q0 165 114 275t271 110q169 0 277 -108t108 -277q0 -105 -44.5 -173.5t-106.5 -68.5q-49 0 -69 38.5t-20 119.5q-24 -46 -68 -73.5t-97 -27.5q-77 0 -131 54t-54 131t54 131t131 54q53 0 97 -27.5t68 -73.5v98h20v-279q0 -26 2 -45.5t9 -39.5t21.5 -30.5
t36.5 -10.5q51 0 91 63t40 160q0 161 -102 263t-263 102q-149 0 -257 -104t-108 -261q0 -69 21.5 -128.5t56.5 -100t79.5 -70t89.5 -43t88 -13.5q105 0 193 48l19 -11q-94 -57 -212 -57q-60 0 -121.5 25t-114 70t-86 118.5t-33.5 161.5zM300 345q0 -68 48.5 -116.5
t116.5 -48.5t116.5 48.5t48.5 116.5t-48.5 116.5t-116.5 48.5t-116.5 -48.5t-48.5 -116.5z" />
    <glyph glyph-name="A" unicode="A" horiz-adv-x="673" 
d="M592 0l-75 208h-341l-75 -208h-21l256 710h21l256 -710h-21zM183 228h327l-163 453z" />
    <glyph glyph-name="B" unicode="B" horiz-adv-x="573" 
d="M360 378q74 -18 113.5 -70t39.5 -125q0 -89 -60 -136t-178 -47h-195v710h185q106 0 157 -47t51 -125q0 -127 -113 -160zM100 690v-304h165q96 0 142 37t46 115q0 73 -47 112.5t-141 39.5h-165zM275 20q218 0 218 163q0 83 -54 133t-154 50h-185v-346h175z" />
    <glyph glyph-name="C" unicode="C" horiz-adv-x="724" 
d="M654 624q-87 76 -211 76q-138 0 -235.5 -102t-97.5 -243t97.5 -243t235.5 -102q124 0 211 76v-23q-82 -73 -211 -73q-150 0 -251.5 107t-101.5 258t101.5 258t251.5 107q129 0 211 -73v-23z" />
    <glyph glyph-name="D" unicode="D" horiz-adv-x="671" 
d="M283 710q148 0 238 -101t90 -254t-90 -254t-238 -101h-203v710h203zM283 20q136 0 222 96t86 239t-86 239t-222 96h-183v-670h183z" />
    <glyph glyph-name="E" unicode="E" horiz-adv-x="490" 
d="M430 690h-330v-304h250v-20h-250v-346h330v-20h-350v710h350v-20z" />
    <glyph glyph-name="F" unicode="F" horiz-adv-x="470" 
d="M420 690h-330v-299h270v-20h-270v-371h-20v710h350v-20z" />
    <glyph glyph-name="G" unicode="G" horiz-adv-x="856" 
d="M786 355q0 -153 -96.5 -259t-251.5 -106q-151 0 -249.5 106.5t-98.5 258.5t98.5 258.5t249.5 106.5q177 0 284 -153l-17 -13q-103 146 -267 146q-139 0 -233.5 -101t-94.5 -244t94.5 -244t233.5 -101q138 0 229 94t98 231h-327v20h348z" />
    <glyph glyph-name="H" unicode="H" horiz-adv-x="630" 
d="M550 710h20v-710h-20v357h-450v-357h-20v710h20v-333h450v333z" />
    <glyph glyph-name="I" unicode="I" horiz-adv-x="160" 
d="M80 0v710h20v-710h-20z" />
    <glyph glyph-name="J" unicode="J" horiz-adv-x="399" 
d="M100 115q0 -43 30.5 -74t74.5 -31q43 0 73.5 29.5t30.5 104.5v566h20v-566q0 -81 -35.5 -117.5t-88.5 -36.5q-52 0 -88.5 37t-36.5 88h20z" />
    <glyph glyph-name="K" unicode="K" horiz-adv-x="576" 
d="M516 710l-299 -346l299 -364h-25l-287 350l-104 -120v-230h-20v710h20v-450l390 450h26z" />
    <glyph glyph-name="L" unicode="L" horiz-adv-x="470" 
d="M110 20h290v-20h-310v710h20v-690z" />
    <glyph glyph-name="M" unicode="M" horiz-adv-x="814" 
d="M734 710h20v-710h-20v672l-306 -506h-22l-306 506v-672h-20v710h20l317 -523z" />
    <glyph glyph-name="N" unicode="N" horiz-adv-x="657" 
d="M577 710h20v-710h-20l-477 675v-675h-20v710h20l477 -675v675z" />
    <glyph glyph-name="O" unicode="O" horiz-adv-x="866" 
d="M443 -10q-150 0 -251.5 107t-101.5 258t101.5 258t251.5 107t251.5 -107t101.5 -258t-101.5 -258t-251.5 -107zM443 10q138 0 235.5 102t97.5 243t-97.5 243t-235.5 102t-235.5 -102t-97.5 -243t97.5 -243t235.5 -102z" />
    <glyph glyph-name="P" unicode="P" horiz-adv-x="573" 
d="M275 710q108 0 173 -55.5t65 -162.5t-65 -162.5t-173 -55.5h-175v-274h-20v710h195zM275 294q99 0 158.5 49.5t59.5 148.5t-59.5 148.5t-158.5 49.5h-175v-396h175z" />
    <glyph glyph-name="Q" unicode="Q" horiz-adv-x="866" 
d="M796 355q0 -160 -111 -268l111 -111l-15 -15l-111 112q-97 -83 -227 -83q-150 0 -251.5 107t-101.5 258t101.5 258t251.5 107t251.5 -107t101.5 -258zM443 10q119 0 211 79l-104 105l14 14l105 -105q107 102 107 252q0 141 -97.5 243t-235.5 102t-235.5 -102t-97.5 -243
t97.5 -243t235.5 -102z" />
    <glyph glyph-name="R" unicode="R" horiz-adv-x="573" 
d="M513 487q0 -93 -52 -153t-129 -69l181 -265h-24l-180 264h-1h-208v-264h-20v710h228q84 0 144.5 -61.5t60.5 -161.5zM100 690v-406h208q76 0 130.5 55.5t54.5 147.5t-54.5 147.5t-130.5 55.5h-208z" />
    <glyph glyph-name="S" unicode="S" horiz-adv-x="590" 
d="M110 167h20q7 -75 62 -116t125 -41q83 0 133 40.5t50 106.5q0 38 -14.5 69.5t-43.5 55.5t-57.5 40.5t-69.5 34.5q-92 41 -123 65q-67 51 -67 137q0 70 54.5 115.5t133.5 45.5q70 0 119.5 -45t57.5 -110h-20q-8 57 -51.5 96t-105.5 39q-71 0 -119.5 -40t-48.5 -101
q0 -22 5.5 -41t11.5 -32.5t21 -28t24 -22t31.5 -20t31.5 -16.5l36 -16q7 -3 11 -5q46 -21 77.5 -39t63 -44.5t47 -61t15.5 -76.5q0 -74 -56 -120.5t-147 -46.5q-78 0 -139 46.5t-68 130.5z" />
    <glyph glyph-name="T" unicode="T" horiz-adv-x="510" 
d="M460 710v-20h-185v-690h-20v690h-185v20h390z" />
    <glyph glyph-name="U" unicode="U" horiz-adv-x="656" 
d="M596 270q0 -138 -70.5 -209t-187.5 -71t-187.5 71t-70.5 209v440h20v-440q0 -131 65.5 -195.5t172.5 -64.5t172.5 64.5t65.5 195.5v440h20v-440z" />
    <glyph glyph-name="V" unicode="V" horiz-adv-x="673" 
d="M602 710h21l-266 -710h-21l-266 710h21l256 -682z" />
    <glyph glyph-name="W" unicode="W" horiz-adv-x="1085" 
d="M1014 710h21l-236 -710h-21l-225 678l-226 -678h-21l-236 710h21l226 -678l225 678h21l226 -678z" />
    <glyph glyph-name="X" unicode="X" horiz-adv-x="681" 
d="M631 710l-268 -355l268 -355h-25l-255 338l-256 -338h-25l268 355l-268 355h25l256 -338l255 338h25z" />
    <glyph glyph-name="Y" unicode="Y" horiz-adv-x="630" 
d="M557 710h23l-245 -396v-314h-20v314l-245 396h23l232 -374z" />
    <glyph glyph-name="Z" unicode="Z" horiz-adv-x="659" 
d="M599 710v-20l-485 -670h485v-20h-509v20l485 670h-485v20h509z" />
    <glyph glyph-name="bracketleft" unicode="[" horiz-adv-x="300" 
d="M220 690h-120v-750h120v-20h-140v790h140v-20z" />
    <glyph glyph-name="backslash" unicode="\" horiz-adv-x="367" 
d="M50 710h21l266 -710h-21z" />
    <glyph glyph-name="bracketright" unicode="]" horiz-adv-x="290" 
d="M210 710v-790h-140v20h120v750h-120v20h140z" />
    <glyph glyph-name="asciicircum" unicode="^" horiz-adv-x="470" 
d="M440 310h-22l-173 376l-173 -376h-22l184 400h22z" />
    <glyph glyph-name="underscore" unicode="_" horiz-adv-x="650" 
d="M30 -40h610v-20h-610v20z" />
    <glyph glyph-name="grave" unicode="`" horiz-adv-x="319" 
d="M130 710l89 -130h-20l-99 130h30z" />
    <glyph glyph-name="a" unicode="a" 
d="M90 254q0 108 78 185t187 77q81 0 147 -45t96 -117v152h20v-506h-20v153q-30 -73 -96 -118t-147 -45q-109 0 -187 77.5t-78 186.5zM110 254q0 -101 72 -172.5t173 -71.5q100 0 171.5 71.5t71.5 172.5q0 100 -71.5 171t-171.5 71q-101 0 -173 -71t-72 -171z" />
    <glyph glyph-name="b" unicode="b" 
d="M618 254q0 -109 -78 -186.5t-187 -77.5q-81 0 -147 45t-96 118v-153h-20v750h20v-396q30 72 96 117t147 45q109 0 187 -77t78 -185zM598 254q0 100 -72 171t-173 71q-100 0 -171.5 -71t-71.5 -171q0 -101 71.5 -172.5t171.5 -71.5q101 0 173 71.5t72 172.5z" />
    <glyph glyph-name="c" unicode="c" horiz-adv-x="598" 
d="M528 416q-75 80 -173 80q-101 0 -173 -71t-72 -171q0 -101 72 -172.5t173 -71.5q98 0 173 80v-25q-69 -75 -173 -75q-109 0 -187 77.5t-78 186.5q0 108 78 185t187 77q104 0 173 -75v-25z" />
    <glyph glyph-name="d" unicode="d" 
d="M90 254q0 108 78 185t187 77q81 0 147 -45t96 -117v396h20v-750h-20v153q-30 -73 -96 -118t-147 -45q-109 0 -187 77.5t-78 186.5zM110 254q0 -101 72 -172.5t173 -71.5q100 0 171.5 71.5t71.5 172.5q0 100 -71.5 171t-171.5 71q-101 0 -173 -71t-72 -171z" />
    <glyph glyph-name="e" unicode="e" horiz-adv-x="666" 
d="M596 250v-4h-486q3 -107 71 -171.5t169 -64.5q79 0 132 37.5t75 90.5l19 -5q-22 -59 -81.5 -101t-144.5 -42q-112 0 -186 73.5t-74 192.5q0 108 72.5 184t180.5 76q112 0 182.5 -79t70.5 -187zM343 496q-97 0 -163 -66.5t-70 -163.5h466q-5 95 -69.5 162.5t-163.5 67.5z
" />
    <glyph glyph-name="f" unicode="f" horiz-adv-x="300" 
d="M185 700q-64 0 -64 -94v-100h119v-20h-119v-486h-20v486h-41v20h41v104q0 52 21 81t63 29q38 0 65 -24v-22q-30 26 -65 26z" />
    <glyph glyph-name="g" unicode="g" horiz-adv-x="580" 
d="M270 60q106 0 173 -37.5t67 -112.5q0 -70 -58 -110t-152 -40t-152 40t-58 110q0 45 28 82t66 57q-53 16 -53 54q0 20 16.5 36.5t39.5 23.5q-45 25 -71 68.5t-26 94.5q0 79 57.5 134.5t142.5 55.5q50 0 92 -20l118 10v-20l-89 -7q79 -56 79 -153q0 -79 -57.5 -134.5
t-142.5 -55.5q-41 0 -81 16q-26 -8 -42 -21.5t-16 -27.5q0 -43 119 -43zM110 326q0 -70 52 -120t128 -50q77 0 128.5 49.5t51.5 120.5t-51.5 120.5t-128.5 49.5t-128.5 -49.5t-51.5 -120.5zM300 -220q84 0 137 34t53 96q0 66 -61.5 98t-158.5 32q-32 0 -57 3
q-37 -16 -70 -54t-33 -79q0 -62 53 -96t137 -34z" />
    <glyph glyph-name="h" unicode="h" horiz-adv-x="578" 
d="M327 516q85 0 138 -58t53 -167v-291h-20v291q0 102 -47.5 153.5t-123.5 51.5q-61 0 -107 -26t-68 -64t-32 -70.5t-10 -55.5v-280h-20v750h20v-383q25 64 78 106.5t139 42.5z" />
    <glyph glyph-name="i" unicode="i" horiz-adv-x="170" 
d="M85 613q-11 0 -18 7.5t-7 17.5t7 17.5t18 7.5t18 -7.5t7 -17.5t-7 -17.5t-18 -7.5zM95 506v-506h-20v506h20z" />
    <glyph glyph-name="j" unicode="j" horiz-adv-x="178" 
d="M113 613q-11 0 -18 7.5t-7 17.5t7 17.5t18 7.5t18 -7.5t7 -17.5t-7 -17.5t-18 -7.5zM125 506v-506l-74 -230h-21l75 233v503h20z" />
    <glyph glyph-name="k" unicode="k" horiz-adv-x="521" 
d="M461 506l-237 -220l237 -286h-26l-226 272l-99 -92v-180h-20v750h20v-543l322 299h29z" />
    <glyph glyph-name="l" unicode="l" horiz-adv-x="170" 
d="M110 750v-750h-20v750h20z" />
    <glyph glyph-name="m" unicode="m" horiz-adv-x="916" 
d="M675 516q80 0 125.5 -56.5t45.5 -148.5v-311h-20v311q0 84 -40 134.5t-111 50.5q-80 0 -134 -64t-63 -152v-280h-20v311q0 84 -40 134.5t-111 50.5q-80 0 -134 -64t-63 -152v-280h-20v506h19l1 -141q25 64 75.5 107.5t121.5 43.5q69 0 113 -43.5t55 -116.5
q25 67 76 113.5t124 46.5z" />
    <glyph glyph-name="n" unicode="n" horiz-adv-x="578" 
d="M327 516q85 0 138 -58t53 -167v-291h-20v291q0 102 -47.5 153.5t-123.5 51.5q-61 0 -107 -26t-68 -64t-32 -70.5t-10 -55.5v-280h-20v506h19l1 -139q25 64 78 106.5t139 42.5z" />
    <glyph glyph-name="o" unicode="o" 
d="M355 -10q-109 0 -187 77.5t-78 186.5q0 108 78 185t187 77q108 0 185.5 -77t77.5 -185q0 -109 -77.5 -186.5t-185.5 -77.5zM355 10q100 0 171.5 71.5t71.5 172.5q0 100 -71.5 171t-171.5 71q-101 0 -173 -71t-72 -171q0 -101 72 -172.5t173 -71.5z" />
    <glyph glyph-name="p" unicode="p" 
d="M90 -230v736h19l1 -152q30 72 96 117t147 45q109 0 187 -77t78 -185q0 -109 -78 -186.5t-187 -77.5q-81 0 -147 45t-96 118v-383h-20zM110 254q0 -101 71.5 -172.5t171.5 -71.5q101 0 173 71.5t72 172.5q0 100 -72 171t-173 71q-100 0 -171.5 -71t-71.5 -171z" />
    <glyph glyph-name="q" unicode="q" 
d="M618 -230h-20v383q-30 -73 -96 -118t-147 -45q-109 0 -187 77.5t-78 186.5q0 108 78 185t187 77q81 0 147 -45t96 -117l1 152h19v-736zM598 254q0 100 -71.5 171t-171.5 71q-101 0 -173 -71t-72 -171q0 -101 72 -172.5t173 -71.5q100 0 171.5 71.5t71.5 172.5z" />
    <glyph glyph-name="r" unicode="r" horiz-adv-x="337" 
d="M239 516q39 0 68 -23l-9 -17q-26 20 -59 20q-46 0 -77 -35t-41.5 -76.5t-10.5 -83.5v-301h-20v506h19l1 -95q38 105 129 105z" />
    <glyph glyph-name="s" unicode="s" horiz-adv-x="510" 
d="M90 117h20q40 -107 165 -107q68 0 106.5 28.5t38.5 73.5q0 16 -4 29.5t-8.5 24t-16.5 21t-20.5 17t-28 16.5t-30 15t-37 16.5t-39.5 17.5q-70 32 -93 53q-35 33 -35 78q0 52 43.5 84t98.5 32q60 0 101.5 -33t48.5 -88h-20q-7 46 -42.5 73.5t-87.5 27.5q-47 0 -84.5 -26
t-37.5 -70q0 -17 7 -32t15 -25t28.5 -22t32.5 -18t42 -19.5t43 -19.5q4 -2 21.5 -10t23 -10.5t21 -11t21.5 -13.5t17.5 -14.5t16.5 -18t11.5 -20.5t9 -25.5t2.5 -28.5q0 -53 -44.5 -87.5t-120.5 -34.5q-70 0 -119 34.5t-66 92.5z" />
    <glyph glyph-name="t" unicode="t" horiz-adv-x="280" 
d="M230 506v-20h-90v-486h-20v486h-60v20h60v150h20v-150h90z" />
    <glyph glyph-name="u" unicode="u" horiz-adv-x="578" 
d="M488 506h20v-506h-19l-1 139q-25 -64 -78 -106.5t-139 -42.5q-85 0 -138 58t-53 167v291h20v-291q0 -102 47.5 -153.5t123.5 -51.5q61 0 107 26t68 64t32 70.5t10 55.5v280z" />
    <glyph glyph-name="v" unicode="v" horiz-adv-x="594" 
d="M512 506h22l-216 -506h-22l-216 506h22l205 -480z" />
    <glyph glyph-name="w" unicode="w" horiz-adv-x="893" 
d="M812 506h21l-183 -506h-21l-172 477l-173 -477h-21l-183 506h21l173 -477l172 477h21l173 -477z" />
    <glyph glyph-name="x" unicode="x" horiz-adv-x="583" 
d="M80 0l209 253l-209 253h25l197 -238l196 238h25l-209 -253l209 -253h-25l-196 238l-197 -238h-25z" />
    <glyph glyph-name="y" unicode="y" horiz-adv-x="614" 
d="M80 506h22l218 -480l212 480h22l-325 -736h-22l102 232z" />
    <glyph glyph-name="z" unicode="z" horiz-adv-x="520" 
d="M460 506v-20l-345 -466h345v-20h-370v20l345 466h-345v20h370z" />
    <glyph glyph-name="braceleft" unicode="{" horiz-adv-x="346" 
d="M266 710v-20q-23 0 -32.5 -0.5t-30 -5t-30.5 -14t-18.5 -29t-8.5 -48.5q0 -39 14.5 -117.5t14.5 -107.5q0 -28 -5.5 -40.5t-23.5 -12.5q18 0 23.5 -12.5t5.5 -40.5q0 -30 -14.5 -108t-14.5 -117q0 -29 8.5 -48.5t18.5 -29t30.5 -14t30 -5t32.5 -0.5v-20q-30 0 -49.5 3
t-43 13.5t-35.5 36t-12 64.5q0 40 15 122.5t15 113.5q0 32 -46 32v20q46 0 46 32q0 31 -15 113.5t-15 122.5q0 39 12 64.5t35.5 36t43 13.5t49.5 3z" />
    <glyph glyph-name="bar" unicode="|" horiz-adv-x="100" 
d="M50 -80v870h20v-870h-20z" />
    <glyph glyph-name="braceright" unicode="}" horiz-adv-x="326" 
d="M60 710q30 0 49.5 -3t43 -13.5t35.5 -36t12 -64.5q0 -40 -15 -122.5t-15 -113.5q0 -32 46 -32v-20q-46 0 -46 -32q0 -31 15 -113.5t15 -122.5q0 -39 -12 -64.5t-35.5 -36t-43 -13.5t-49.5 -3v20q23 0 32.5 0.5t30 5t30.5 14t18.5 29t8.5 48.5q0 39 -14.5 117t-14.5 108
q0 28 5.5 40.5t23.5 12.5q-18 0 -23.5 12.5t-5.5 40.5q0 29 14.5 107.5t14.5 117.5q0 29 -8.5 48.5t-18.5 29t-30.5 14t-30 5t-32.5 0.5v20z" />
    <glyph glyph-name="asciitilde" unicode="~" horiz-adv-x="548" 
d="M100 219q0 29 23 52.5t64 23.5q32 0 61.5 -20t57 -40t55.5 -20q33 0 50 17.5t17 38.5h20q0 -29 -23 -52.5t-64 -23.5q-32 0 -61.5 20t-57 40t-55.5 20q-33 0 -50 -17.5t-17 -38.5h-20z" />
    <glyph glyph-name="exclamdown" unicode="&#xa1;" horiz-adv-x="170" 
d="M95 480q11 0 18 -7t7 -18t-7 -18t-18 -7t-18 7t-7 18t7 18t18 7zM84 293h20v-533h-20v533z" />
    <glyph glyph-name="cent" unicode="&#xa2;" horiz-adv-x="638" 
d="M365 496h-6v-486h6q98 0 173 80v-25q-69 -75 -173 -75h-6v-62h-20v63q-100 10 -169.5 85.5t-69.5 177.5q0 101 69.5 176t169.5 85v63h20v-62h6q104 0 173 -75v-25q-75 80 -173 80zM339 11v484q-92 -10 -155.5 -79t-63.5 -162q0 -94 63.5 -163.5t155.5 -79.5z" />
    <glyph glyph-name="sterling" unicode="&#xa3;" horiz-adv-x="656" 
d="M440 10q59 0 116 32v-22q-56 -30 -116 -30q-43 0 -113 20t-111 20q-59 0 -116 -32v22q56 30 116 30q28 0 63 -7q-1 91 -16.5 144t-52.5 102h-110v20h94q-47 60 -70.5 108.5t-23.5 107.5q0 82 60.5 138.5t154.5 56.5q100 0 155.5 -65t55.5 -165h-20q0 93 -50.5 151.5
t-140.5 58.5q-85 0 -140 -50t-55 -125q0 -56 24.5 -105.5t74.5 -110.5h206v-20h-190q35 -49 49.5 -106t14.5 -145q10 -2 41.5 -11t53.5 -13t46 -4z" />
    <glyph glyph-name="currency" unicode="&#xa4;" horiz-adv-x="561" 
d="M409 421q43 -48 42 -112.5t-47 -110.5l57 -57l-14 -15l-58 58q-46 -38 -106 -37t-106 42l-62 -63l-15 15l63 62q-41 46 -42.5 106t36.5 107l-57 57l15 14l56 -56q46 46 111 47t113 -43l52 52l14 -14zM183 210q43 -44 102.5 -44t102.5 44q43 43 43 102.5t-43 102.5
t-102.5 43t-102.5 -43t-43 -102.5t43 -102.5z" />
    <glyph glyph-name="yen" unicode="&#xa5;" horiz-adv-x="710" 
d="M365 314v-49h218v-20h-218v-50h218v-20h-218v-175h-20v175h-217v20h217v50h-217v20h217v49l-245 396h23l232 -374l232 374h23z" />
    <glyph glyph-name="brokenbar" unicode="&#xa6;" horiz-adv-x="100" 
d="M50 500v290h20v-290h-20zM50 -80v290h20v-290h-20z" />
    <glyph glyph-name="section" unicode="&#xa7;" horiz-adv-x="490" 
d="M268 228q137 -43 137 -124q0 -53 -40.5 -83.5t-99.5 -30.5q-68 0 -107.5 35t-47.5 93h20q8 -50 41.5 -79t93.5 -29q50 0 85 25t35 69q0 23 -12.5 41.5t-35.5 31.5t-40.5 20t-42.5 14q-2 1 -21.5 6.5t-25 7.5t-23.5 8.5t-25 11t-21 12.5t-20 16.5t-14 20t-11 25t-3 29.5
q0 49 42.5 88t109.5 46q-137 43 -137 124q0 53 40.5 83.5t99.5 30.5q68 0 107.5 -35t47.5 -93h-20q-8 50 -41.5 79t-93.5 29q-50 0 -85 -25t-35 -69q0 -23 12.5 -41.5t35.5 -31.5t40.5 -20t42.5 -14q2 -1 21.5 -6.5t25 -7.5t23.5 -8.5t25 -11t21 -12.5t20 -16.5t14 -20
t11 -25t3 -29.5q0 -49 -42.5 -88t-109.5 -46zM110 348q0 -54 52 -84q34 -17 83 -17q67 0 111 35t44 80q0 52 -46 80q-35 21 -89 21q-67 0 -111 -35t-44 -80z" />
    <glyph glyph-name="dieresis" unicode="&#xa8;" horiz-adv-x="380" 
d="M125 613q-11 0 -18 7.5t-7 17.5t7 17.5t18 7.5t18 -7.5t7 -17.5t-7 -17.5t-18 -7.5zM255 613q-11 0 -18 7.5t-7 17.5t7 17.5t18 7.5t18 -7.5t7 -17.5t-7 -17.5t-18 -7.5z" />
    <glyph glyph-name="copyright" unicode="&#xa9;" horiz-adv-x="960" 
d="M484 -10q-159 0 -271.5 112.5t-112.5 272.5t112.5 272.5t271.5 112.5q160 0 273 -112.5t113 -272.5t-113 -272.5t-273 -112.5zM485 10q151 0 258 107t107 258t-107 258t-258 107t-258 -107t-107 -258t107 -258t258 -107zM646 555q-73 63 -163 63q-101 0 -173 -71
t-72 -171q0 -101 72 -172.5t173 -71.5q90 0 163 63l10 -18q-75 -65 -173 -65q-109 0 -187 77.5t-78 186.5q0 108 78 185t187 77q98 0 173 -65z" />
    <glyph glyph-name="guillemotleft" unicode="&#xab;" horiz-adv-x="418" 
d="M248 384l-123 -149l123 -149h-25l-123 149l123 149h25zM338 384l-123 -149l123 -149h-25l-123 149l123 149h25z" />
    <glyph glyph-name="logicalnot" unicode="&#xac;" horiz-adv-x="500" 
d="M100 300h300v-101h-20v81h-280v20z" />
    <glyph glyph-name="registered" unicode="&#xae;" horiz-adv-x="960" 
d="M484 760q160 0 273 -112.5t113 -272.5t-113 -272.5t-273 -112.5q-159 0 -271.5 112.5t-112.5 272.5t112.5 272.5t271.5 112.5zM485 10q151 0 258 107t107 258t-107 258t-258 107t-258 -107t-107 -258t107 -258t258 -107zM633 467q0 -57 -30 -91t-81 -40l111 -166h-24
l-110 164h-1h-108v-164h-20v430h128q61 0 98 -34.5t37 -98.5zM498 354q52 0 83.5 28.5t31.5 84.5t-31.5 84.5t-83.5 28.5h-108v-226h108z" />
    <glyph glyph-name="macron" unicode="&#xaf;" horiz-adv-x="380" 
d="M100 655h180v-20h-180v20z" />
    <glyph glyph-name="degree" unicode="&#xb0;" horiz-adv-x="460" 
d="M245 390q-69 0 -117 48t-48 117t48 117t117 48t117 -48t48 -117t-48 -117t-117 -48zM245 410q61 0 103 42t42 103t-42 103t-103 42t-103 -42t-42 -103t42 -103t103 -42z" />
    <glyph glyph-name="plusminus" unicode="&#xb1;" horiz-adv-x="500" 
d="M260 345h140v-20h-140v-140h-20v140h-140v20h140v140h20v-140zM100 95v20h300v-20h-300z" />
    <glyph glyph-name="acute" unicode="&#xb4;" horiz-adv-x="319" 
d="M189 710h30l-99 -130h-20z" />
    <glyph glyph-name="paragraph" unicode="&#xb6;" horiz-adv-x="548" 
d="M100 492q0 107 65 162.5t173 55.5h20v-710h-20v274q-108 0 -173 55.5t-65 162.5zM428 710h20v-710h-20v710z" />
    <glyph glyph-name="periodcentered" unicode="&#xb7;" horiz-adv-x="130" 
d="M55 225q-11 0 -18 7.5t-7 17.5t7 17.5t18 7.5t18 -7.5t7 -17.5t-7 -17.5t-18 -7.5z" />
    <glyph glyph-name="cedilla" unicode="&#xb8;" horiz-adv-x="323" 
d="M152 -49q30 -2 50.5 -16.5t20.5 -39.5q0 -67 -123 -67l6 20q97 0 97 47q0 36 -67 36h-7l22 69h20z" />
    <glyph glyph-name="guillemotright" unicode="&#xbb;" horiz-adv-x="398" 
d="M105 384l123 -149l-123 -149h-25l123 149l-123 149h25zM195 384l123 -149l-123 -149h-25l123 149l-123 149h25z" />
    <glyph glyph-name="questiondown" unicode="&#xbf;" horiz-adv-x="486" 
d="M267 430q-11 0 -18 7t-7 18t7 18t18 7t18 -7t7 -18t-7 -18t-18 -7zM436 -44h20q0 -93 -57 -149.5t-141 -56.5q-89 0 -138.5 51t-49.5 121q0 81 52 129.5t135 53.5v188h20v-207q-83 0 -135 -43t-52 -121q0 -64 45 -108t123 -44q74 0 126 50t52 136z" />
    <glyph glyph-name="Agrave" unicode="&#xc0;" horiz-adv-x="673" 
d="M356 820h-20l-99 130h30zM592 0l-75 208h-341l-75 -208h-21l256 710h21l256 -710h-21zM183 228h327l-163 453z" />
    <glyph glyph-name="Aacute" unicode="&#xc1;" horiz-adv-x="673" 
d="M456 950l-99 -130h-20l89 130h30zM592 0l-75 208h-341l-75 -208h-21l256 710h21l256 -710h-21zM183 228h327l-163 453z" />
    <glyph glyph-name="Acircumflex" unicode="&#xc2;" horiz-adv-x="673" 
d="M348 934l-87 -114h-25l99 130h25l99 -130h-25zM592 0l-75 208h-341l-75 -208h-21l256 710h21l256 -710h-21zM183 228h327l-163 453z" />
    <glyph glyph-name="Atilde" unicode="&#xc3;" horiz-adv-x="673" 
d="M260 915q-32 0 -49.5 -17.5t-17.5 -38.5h-20q0 29 23 52.5t64 23.5q32 0 61.5 -20t57 -40t55.5 -20q32 0 49.5 17.5t17.5 38.5h20q0 -29 -23 -52.5t-64 -23.5q-32 0 -61.5 20t-57 40t-55.5 20zM592 0l-75 208h-341l-75 -208h-21l256 710h21l256 -710h-21zM183 228h327
l-163 453z" />
    <glyph glyph-name="Adieresis" unicode="&#xc4;" horiz-adv-x="673" 
d="M282 853q-10 0 -17.5 7.5t-7.5 17.5t7.5 17.5t17.5 7.5t17.5 -7.5t7.5 -17.5t-7.5 -17.5t-17.5 -7.5zM412 853q-10 0 -17.5 7.5t-7.5 17.5t7.5 17.5t17.5 7.5t17.5 -7.5t7.5 -17.5t-7.5 -17.5t-17.5 -7.5zM592 0l-75 208h-341l-75 -208h-21l256 710h21l256 -710h-21z
M183 228h327l-163 453z" />
    <glyph glyph-name="Aring" unicode="&#xc5;" horiz-adv-x="673" 
d="M347 830q-27 0 -46 19t-19 46t19 46t46 19t46 -19t19 -46t-19 -46t-46 -19zM347 940q-19 0 -32 -13t-13 -32t13 -32t32 -13t32 13t13 32t-13 32t-32 13zM592 0l-75 208h-341l-75 -208h-21l256 710h21l256 -710h-21zM183 228h327l-163 453z" />
    <glyph glyph-name="AE" unicode="&#xc6;" horiz-adv-x="945" 
d="M905 690h-330v-304h250v-20h-250v-346h330v-20h-350v208h-331l-121 -208h-23l414 710h411v-20zM555 690h-50l-269 -462h319v462z" />
    <glyph glyph-name="Ccedilla" unicode="&#xc7;" horiz-adv-x="724" 
d="M443 700q-138 0 -235.5 -102t-97.5 -243t97.5 -243t235.5 -102q124 0 211 76v-23q-82 -73 -210 -73l-15 -39q30 -2 50.5 -16.5t20.5 -39.5q0 -67 -123 -67l6 20q97 0 97 47q0 36 -67 36h-7l19 59q-144 7 -239.5 113t-95.5 252q0 151 101.5 258t251.5 107q129 0 211 -73
v-23q-87 76 -211 76z" />
    <glyph glyph-name="Egrave" unicode="&#xc8;" horiz-adv-x="490" 
d="M262 820h-20l-99 130h30zM430 690h-330v-304h250v-20h-250v-346h330v-20h-350v710h350v-20z" />
    <glyph glyph-name="Eacute" unicode="&#xc9;" horiz-adv-x="490" 
d="M362 950l-99 -130h-20l89 130h30zM430 690h-330v-304h250v-20h-250v-346h330v-20h-350v710h350v-20z" />
    <glyph glyph-name="Ecircumflex" unicode="&#xca;" horiz-adv-x="490" 
d="M254 934l-87 -114h-25l99 130h25l99 -130h-25zM430 690h-330v-304h250v-20h-250v-346h330v-20h-350v710h350v-20z" />
    <glyph glyph-name="Edieresis" unicode="&#xcb;" horiz-adv-x="490" 
d="M188 853q-10 0 -17.5 7.5t-7.5 17.5t7.5 17.5t17.5 7.5t17.5 -7.5t7.5 -17.5t-7.5 -17.5t-17.5 -7.5zM318 853q-10 0 -17.5 7.5t-7.5 17.5t7.5 17.5t17.5 7.5t17.5 -7.5t7.5 -17.5t-7.5 -17.5t-17.5 -7.5zM430 690h-330v-304h250v-20h-250v-346h330v-20h-350v710h350v-20
z" />
    <glyph glyph-name="Igrave" unicode="&#xcc;" horiz-adv-x="160" 
d="M10 950l89 -130h-20l-99 130h30zM80 0v710h20v-710h-20z" />
    <glyph glyph-name="Iacute" unicode="&#xcd;" horiz-adv-x="160" 
d="M169 950h30l-99 -130h-20zM80 0v710h20v-710h-20z" />
    <glyph glyph-name="Icircumflex" unicode="&#xce;" horiz-adv-x="160" 
d="M103 950l99 -130h-25l-86 114l-87 -114h-25l99 130h25zM80 0v710h20v-710h-20z" />
    <glyph glyph-name="Idieresis" unicode="&#xcf;" horiz-adv-x="160" 
d="M25 853q-11 0 -18 7.5t-7 17.5t7 17.5t18 7.5t18 -7.5t7 -17.5t-7 -17.5t-18 -7.5zM155 853q-11 0 -18 7.5t-7 17.5t7 17.5t18 7.5t18 -7.5t7 -17.5t-7 -17.5t-18 -7.5zM80 0v710h20v-710h-20z" />
    <glyph glyph-name="Eth" unicode="&#xd0;" horiz-adv-x="671" 
d="M283 710q148 0 238 -101t90 -254t-90 -254t-238 -101h-203v345h-100v20h100v345h203zM283 20q136 0 222 96t86 239t-86 239t-222 96h-183v-325h180v-20h-180v-325h183z" />
    <glyph glyph-name="Ntilde" unicode="&#xd1;" horiz-adv-x="657" 
d="M262 915q-32 0 -49.5 -17.5t-17.5 -38.5h-20q0 29 23 52.5t64 23.5q32 0 61.5 -20t57 -40t55.5 -20q32 0 49.5 17.5t17.5 38.5h20q0 -29 -23 -52.5t-64 -23.5q-32 0 -61.5 20t-57 40t-55.5 20zM577 710h20v-710h-20l-477 675v-675h-20v710h20l477 -675v675z" />
    <glyph glyph-name="Ograve" unicode="&#xd2;" horiz-adv-x="866" 
d="M363 950l89 -130h-20l-99 130h30zM443 -10q-150 0 -251.5 107t-101.5 258t101.5 258t251.5 107t251.5 -107t101.5 -258t-101.5 -258t-251.5 -107zM443 10q138 0 235.5 102t97.5 243t-97.5 243t-235.5 102t-235.5 -102t-97.5 -243t97.5 -243t235.5 -102z" />
    <glyph glyph-name="Oacute" unicode="&#xd3;" horiz-adv-x="866" 
d="M522 950h30l-99 -130h-20zM443 -10q-150 0 -251.5 107t-101.5 258t101.5 258t251.5 107t251.5 -107t101.5 -258t-101.5 -258t-251.5 -107zM443 10q138 0 235.5 102t97.5 243t-97.5 243t-235.5 102t-235.5 -102t-97.5 -243t97.5 -243t235.5 -102z" />
    <glyph glyph-name="Ocircumflex" unicode="&#xd4;" horiz-adv-x="866" 
d="M444 934l-87 -114h-25l99 130h25l99 -130h-25zM443 720q150 0 251.5 -107t101.5 -258t-101.5 -258t-251.5 -107t-251.5 107t-101.5 258t101.5 258t251.5 107zM443 10q138 0 235.5 102t97.5 243t-97.5 243t-235.5 102t-235.5 -102t-97.5 -243t97.5 -243t235.5 -102z" />
    <glyph glyph-name="Otilde" unicode="&#xd5;" horiz-adv-x="866" 
d="M269 859q0 29 23 52.5t64 23.5q32 0 61.5 -20t57 -40t55.5 -20q32 0 49.5 17.5t17.5 38.5h20q0 -29 -23 -52.5t-64 -23.5q-32 0 -61.5 20t-57 40t-55.5 20q-32 0 -49.5 -17.5t-17.5 -38.5h-20zM443 -10q-150 0 -251.5 107t-101.5 258t101.5 258t251.5 107t251.5 -107
t101.5 -258t-101.5 -258t-251.5 -107zM443 10q138 0 235.5 102t97.5 243t-97.5 243t-235.5 102t-235.5 -102t-97.5 -243t97.5 -243t235.5 -102z" />
    <glyph glyph-name="Odieresis" unicode="&#xd6;" horiz-adv-x="866" 
d="M378 853q-10 0 -17.5 7.5t-7.5 17.5t7.5 17.5t17.5 7.5t17.5 -7.5t7.5 -17.5t-7.5 -17.5t-17.5 -7.5zM508 853q-10 0 -17.5 7.5t-7.5 17.5t7.5 17.5t17.5 7.5t17.5 -7.5t7.5 -17.5t-7.5 -17.5t-17.5 -7.5zM443 -10q-150 0 -251.5 107t-101.5 258t101.5 258t251.5 107
t251.5 -107t101.5 -258t-101.5 -258t-251.5 -107zM443 10q138 0 235.5 102t97.5 243t-97.5 243t-235.5 102t-235.5 -102t-97.5 -243t97.5 -243t235.5 -102z" />
    <glyph glyph-name="multiply" unicode="&#xd7;" horiz-adv-x="426" 
d="M326 389l-99 -99l99 -99l-14 -14l-99 99l-99 -99l-14 14l99 99l-99 99l14 14l99 -99l99 99z" />
    <glyph glyph-name="Oslash" unicode="&#xd8;" horiz-adv-x="866" 
d="M668 638q60 -52 94 -125.5t34 -157.5q0 -151 -101.5 -258t-251.5 -107q-118 0 -210 70l-76 -100h-25l85 113q-60 51 -93.5 124.5t-33.5 157.5q0 151 101.5 258t251.5 107q118 0 210 -70l75 100h25zM110 355q0 -77 32 -146.5t88 -118.5l410 543q-89 67 -197 67
q-138 0 -235.5 -102t-97.5 -243zM443 10q138 0 235.5 102t97.5 243q0 78 -32 147t-89 118l-409 -542q87 -68 197 -68z" />
    <glyph glyph-name="Ugrave" unicode="&#xd9;" horiz-adv-x="656" 
d="M258 950l89 -130h-20l-99 130h30zM596 270q0 -138 -70.5 -209t-187.5 -71t-187.5 71t-70.5 209v440h20v-440q0 -131 65.5 -195.5t172.5 -64.5t172.5 64.5t65.5 195.5v440h20v-440z" />
    <glyph glyph-name="Uacute" unicode="&#xda;" horiz-adv-x="656" 
d="M417 950h30l-99 -130h-20zM596 270q0 -138 -70.5 -209t-187.5 -71t-187.5 71t-70.5 209v440h20v-440q0 -131 65.5 -195.5t172.5 -64.5t172.5 64.5t65.5 195.5v440h20v-440z" />
    <glyph glyph-name="Ucircumflex" unicode="&#xdb;" horiz-adv-x="656" 
d="M339 934l-87 -114h-25l99 130h25l99 -130h-25zM576 710h20v-440q0 -138 -70.5 -209t-187.5 -71t-187.5 71t-70.5 209v440h20v-440q0 -131 65.5 -195.5t172.5 -64.5t172.5 64.5t65.5 195.5v440z" />
    <glyph glyph-name="Udieresis" unicode="&#xdc;" horiz-adv-x="656" 
d="M273 853q-11 0 -18 7.5t-7 17.5t7 17.5t18 7.5t18 -7.5t7 -17.5t-7 -17.5t-18 -7.5zM403 853q-11 0 -18 7.5t-7 17.5t7 17.5t18 7.5t18 -7.5t7 -17.5t-7 -17.5t-18 -7.5zM596 270q0 -138 -70.5 -209t-187.5 -71t-187.5 71t-70.5 209v440h20v-440q0 -131 65.5 -195.5
t172.5 -64.5t172.5 64.5t65.5 195.5v440h20v-440z" />
    <glyph glyph-name="Yacute" unicode="&#xdd;" horiz-adv-x="630" 
d="M434 950l-99 -130h-20l89 130h30zM557 710h23l-245 -396v-314h-20v314l-245 396h23l232 -374z" />
    <glyph glyph-name="Thorn" unicode="&#xde;" horiz-adv-x="553" 
d="M265 573q108 0 173 -55.5t65 -162.5t-65 -162.5t-173 -55.5h-175v-137h-20v710h20v-137h175zM265 157q99 0 158.5 49.5t59.5 148.5t-59.5 148.5t-158.5 49.5h-175v-396h175z" />
    <glyph glyph-name="germandbls" unicode="&#xdf;" horiz-adv-x="586" 
d="M362 409q68 -18 111 -72.5t43 -134.5q0 -87 -50 -146t-148 -59q-77 0 -138 43v23q61 -46 138 -46q89 0 133.5 53t44.5 132q0 92 -57.5 143.5t-139.5 51.5h-29v20h29q36 0 60.5 13t36 34t16 39.5t4.5 37.5q0 63 -40 111t-108 48q-76 0 -117 -59.5t-41 -153.5v-487h-20v487
q0 101 46.5 167t131.5 66q77 0 122.5 -54.5t45.5 -124.5q0 -38 -16.5 -76t-57.5 -56z" />
    <glyph glyph-name="agrave" unicode="&#xe0;" 
d="M275 746l89 -130h-20l-99 130h30zM90 254q0 108 78 185t187 77q81 0 147 -45t96 -117v152h20v-506h-20v153q-30 -73 -96 -118t-147 -45q-109 0 -187 77.5t-78 186.5zM110 254q0 -101 72 -172.5t173 -71.5q100 0 171.5 71.5t71.5 172.5q0 100 -71.5 171t-171.5 71
q-101 0 -173 -71t-72 -171z" />
    <glyph glyph-name="aacute" unicode="&#xe1;" 
d="M434 746h30l-99 -130h-20zM90 254q0 108 78 185t187 77q81 0 147 -45t96 -117v152h20v-506h-20v153q-30 -73 -96 -118t-147 -45q-109 0 -187 77.5t-78 186.5zM110 254q0 -101 72 -172.5t173 -71.5q100 0 171.5 71.5t71.5 172.5q0 100 -71.5 171t-171.5 71
q-101 0 -173 -71t-72 -171z" />
    <glyph glyph-name="acircumflex" unicode="&#xe2;" 
d="M356 730l-87 -114h-25l99 130h25l99 -130h-25zM598 506h20v-506h-20v153q-30 -73 -96 -118t-147 -45q-109 0 -187 77.5t-78 186.5q0 108 78 185t187 77q81 0 147 -45t96 -117v152zM355 10q100 0 171.5 71.5t71.5 172.5q0 100 -71.5 171t-171.5 71q-101 0 -173 -71
t-72 -171q0 -101 72 -172.5t173 -71.5z" />
    <glyph glyph-name="atilde" unicode="&#xe3;" 
d="M181 655q0 29 23 52.5t64 23.5q32 0 61.5 -20t57 -40t55.5 -20q32 0 49.5 17.5t17.5 38.5h20q0 -29 -23 -52.5t-64 -23.5q-32 0 -61.5 20t-57 40t-55.5 20q-32 0 -49.5 -17.5t-17.5 -38.5h-20zM90 254q0 108 78 185t187 77q81 0 147 -45t96 -117v152h20v-506h-20v153
q-30 -73 -96 -118t-147 -45q-109 0 -187 77.5t-78 186.5zM110 254q0 -101 72 -172.5t173 -71.5q100 0 171.5 71.5t71.5 172.5q0 100 -71.5 171t-171.5 71q-101 0 -173 -71t-72 -171z" />
    <glyph glyph-name="adieresis" unicode="&#xe4;" 
d="M290 649q-10 0 -17.5 7.5t-7.5 17.5t7.5 17.5t17.5 7.5t17.5 -7.5t7.5 -17.5t-7.5 -17.5t-17.5 -7.5zM420 649q-10 0 -17.5 7.5t-7.5 17.5t7.5 17.5t17.5 7.5t17.5 -7.5t7.5 -17.5t-7.5 -17.5t-17.5 -7.5zM90 254q0 108 78 185t187 77q81 0 147 -45t96 -117v152h20v-506
h-20v153q-30 -73 -96 -118t-147 -45q-109 0 -187 77.5t-78 186.5zM110 254q0 -101 72 -172.5t173 -71.5q100 0 171.5 71.5t71.5 172.5q0 100 -71.5 171t-171.5 71q-101 0 -173 -71t-72 -171z" />
    <glyph glyph-name="aring" unicode="&#xe5;" 
d="M355 626q-27 0 -46 19t-19 46t19 46t46 19t46 -19t19 -46t-19 -46t-46 -19zM355 646q19 0 32 13t13 32t-13 32t-32 13t-32 -13t-13 -32t13 -32t32 -13zM90 254q0 108 78 185t187 77q81 0 147 -45t96 -117v152h20v-506h-20v153q-30 -73 -96 -118t-147 -45
q-109 0 -187 77.5t-78 186.5zM110 254q0 -101 72 -172.5t173 -71.5q100 0 171.5 71.5t71.5 172.5q0 100 -71.5 171t-171.5 71q-101 0 -173 -71t-72 -171z" />
    <glyph glyph-name="ae" unicode="&#xe6;" horiz-adv-x="1174" 
d="M1104 250v-4h-486q3 -107 71 -171.5t169 -64.5q79 0 132 37.5t75 90.5l19 -5q-22 -59 -81.5 -101t-144.5 -42q-83 0 -147 41.5t-93 114.5v-146h-20v153q-30 -73 -96 -118t-147 -45q-109 0 -187 77.5t-78 186.5q0 108 78 185t187 77q81 0 147 -45t96 -117v152h20v-147
q29 71 91 114t142 43q112 0 182.5 -79t70.5 -187zM355 10q100 0 171.5 71.5t71.5 172.5q0 100 -71.5 171t-171.5 71q-101 0 -173 -71t-72 -171q0 -101 72 -172.5t173 -71.5zM851 496q-97 0 -163 -66.5t-70 -163.5h466q-5 95 -69.5 162.5t-163.5 67.5z" />
    <glyph glyph-name="ccedilla" unicode="&#xe7;" horiz-adv-x="598" 
d="M355 496q-101 0 -173 -71t-72 -171q0 -101 72 -172.5t173 -71.5q98 0 173 80v-25q-69 -75 -173 -75h-14l-15 -39q30 -2 50.5 -16.5t20.5 -39.5q0 -67 -123 -67l6 20q97 0 97 47q0 36 -67 36h-7l19 61q-98 12 -165 86.5t-67 175.5q0 108 78 185t187 77q104 0 173 -75v-25
q-75 80 -173 80z" />
    <glyph glyph-name="egrave" unicode="&#xe8;" horiz-adv-x="666" 
d="M352 616h-20l-99 130h30zM596 250v-4h-486q3 -107 71 -171.5t169 -64.5q79 0 132 37.5t75 90.5l19 -5q-22 -59 -81.5 -101t-144.5 -42q-112 0 -186 73.5t-74 192.5q0 108 72.5 184t180.5 76q112 0 182.5 -79t70.5 -187zM343 496q-97 0 -163 -66.5t-70 -163.5h466
q-5 95 -69.5 162.5t-163.5 67.5z" />
    <glyph glyph-name="eacute" unicode="&#xe9;" horiz-adv-x="666" 
d="M452 746l-99 -130h-20l89 130h30zM596 250v-4h-486q3 -107 71 -171.5t169 -64.5q79 0 132 37.5t75 90.5l19 -5q-22 -59 -81.5 -101t-144.5 -42q-112 0 -186 73.5t-74 192.5q0 108 72.5 184t180.5 76q112 0 182.5 -79t70.5 -187zM343 496q-97 0 -163 -66.5t-70 -163.5h466
q-5 95 -69.5 162.5t-163.5 67.5z" />
    <glyph glyph-name="ecircumflex" unicode="&#xea;" horiz-adv-x="666" 
d="M344 730l-87 -114h-25l99 130h25l99 -130h-25zM596 250v-4h-486q3 -107 71 -171.5t169 -64.5q79 0 132 37.5t75 90.5l19 -5q-22 -59 -81.5 -101t-144.5 -42q-112 0 -186 73.5t-74 192.5q0 108 72.5 184t180.5 76q112 0 182.5 -79t70.5 -187zM343 496q-97 0 -163 -66.5
t-70 -163.5h466q-5 95 -69.5 162.5t-163.5 67.5z" />
    <glyph glyph-name="edieresis" unicode="&#xeb;" horiz-adv-x="666" 
d="M278 649q-10 0 -17.5 7.5t-7.5 17.5t7.5 17.5t17.5 7.5t17.5 -7.5t7.5 -17.5t-7.5 -17.5t-17.5 -7.5zM408 649q-10 0 -17.5 7.5t-7.5 17.5t7.5 17.5t17.5 7.5t17.5 -7.5t7.5 -17.5t-7.5 -17.5t-17.5 -7.5zM596 250v-4h-486q3 -107 71 -171.5t169 -64.5q79 0 132 37.5
t75 90.5l19 -5q-22 -59 -81.5 -101t-144.5 -42q-112 0 -186 73.5t-74 192.5q0 108 72.5 184t180.5 76q112 0 182.5 -79t70.5 -187zM343 496q-97 0 -163 -66.5t-70 -163.5h466q-5 95 -69.5 162.5t-163.5 67.5z" />
    <glyph glyph-name="igrave" unicode="&#xec;" horiz-adv-x="140" 
d="M-11 746l89 -130h-20l-99 130h30zM80 506v-506h-20v506h20z" />
    <glyph glyph-name="iacute" unicode="&#xed;" horiz-adv-x="140" 
d="M148 746h30l-99 -130h-20zM80 506v-506h-20v506h20z" />
    <glyph glyph-name="icircumflex" unicode="&#xee;" horiz-adv-x="140" 
d="M82 746l99 -130h-25l-86 114l-87 -114h-25l99 130h25zM60 0v506h20v-506h-20z" />
    <glyph glyph-name="idieresis" unicode="&#xef;" horiz-adv-x="140" 
d="M4 615q-10 0 -17.5 7.5t-7.5 17.5t7.5 17.5t17.5 7.5t17.5 -7.5t7.5 -17.5t-7.5 -17.5t-17.5 -7.5zM134 615q-10 0 -17.5 7.5t-7.5 17.5t7.5 17.5t17.5 7.5t17.5 -7.5t7.5 -17.5t-7.5 -17.5t-17.5 -7.5zM80 506v-506h-20v506h20z" />
    <glyph glyph-name="eth" unicode="&#xf0;" horiz-adv-x="636" 
d="M385 625q181 -140 181 -397q0 -98 -70 -168t-169 -70q-98 0 -167.5 70t-69.5 168t70 168t167 70q65 0 120.5 -33t87.5 -88q-35 168 -167 267l-126 -95v25l109 82q-69 47 -145 66v20q87 -21 162 -73l106 80v-25zM327 10q91 0 155 64t64 154t-64 154t-155 64
q-89 0 -153 -64.5t-64 -153.5q0 -90 64 -154t153 -64z" />
    <glyph glyph-name="ntilde" unicode="&#xf1;" horiz-adv-x="578" 
d="M215 711q-33 0 -50 -17.5t-17 -38.5h-20q0 29 23 52.5t64 23.5q32 0 61.5 -20t57 -40t55.5 -20q33 0 50 17.5t17 38.5h20q0 -29 -23 -52.5t-64 -23.5q-32 0 -61.5 20t-57 40t-55.5 20zM327 516q85 0 138 -58t53 -167v-291h-20v291q0 102 -47.5 153.5t-123.5 51.5
q-61 0 -107 -26t-68 -64t-32 -70.5t-10 -55.5v-280h-20v506h19l1 -139q25 64 78 106.5t139 42.5z" />
    <glyph glyph-name="ograve" unicode="&#xf2;" 
d="M275 746l89 -130h-20l-99 130h30zM355 -10q-109 0 -187 77.5t-78 186.5q0 108 78 185t187 77q108 0 185.5 -77t77.5 -185q0 -109 -77.5 -186.5t-185.5 -77.5zM355 10q100 0 171.5 71.5t71.5 172.5q0 100 -71.5 171t-171.5 71q-101 0 -173 -71t-72 -171q0 -101 72 -172.5
t173 -71.5z" />
    <glyph glyph-name="oacute" unicode="&#xf3;" 
d="M434 746h30l-99 -130h-20zM355 -10q-109 0 -187 77.5t-78 186.5q0 108 78 185t187 77q108 0 185.5 -77t77.5 -185q0 -109 -77.5 -186.5t-185.5 -77.5zM355 10q100 0 171.5 71.5t71.5 172.5q0 100 -71.5 171t-171.5 71q-101 0 -173 -71t-72 -171q0 -101 72 -172.5
t173 -71.5z" />
    <glyph glyph-name="ocircumflex" unicode="&#xf4;" 
d="M356 730l-87 -114h-25l99 130h25l99 -130h-25zM355 516q108 0 185.5 -77t77.5 -185q0 -109 -77.5 -186.5t-185.5 -77.5q-109 0 -187 77.5t-78 186.5q0 108 78 185t187 77zM355 10q100 0 171.5 71.5t71.5 172.5q0 100 -71.5 171t-171.5 71q-101 0 -173 -71t-72 -171
q0 -101 72 -172.5t173 -71.5z" />
    <glyph glyph-name="otilde" unicode="&#xf5;" 
d="M181 655q0 29 23 52.5t64 23.5q32 0 61.5 -20t57 -40t55.5 -20q32 0 49.5 17.5t17.5 38.5h20q0 -29 -23 -52.5t-64 -23.5q-32 0 -61.5 20t-57 40t-55.5 20q-32 0 -49.5 -17.5t-17.5 -38.5h-20zM355 -10q-109 0 -187 77.5t-78 186.5q0 108 78 185t187 77q108 0 185.5 -77
t77.5 -185q0 -109 -77.5 -186.5t-185.5 -77.5zM355 10q100 0 171.5 71.5t71.5 172.5q0 100 -71.5 171t-171.5 71q-101 0 -173 -71t-72 -171q0 -101 72 -172.5t173 -71.5z" />
    <glyph glyph-name="odieresis" unicode="&#xf6;" 
d="M290 649q-10 0 -17.5 7.5t-7.5 17.5t7.5 17.5t17.5 7.5t17.5 -7.5t7.5 -17.5t-7.5 -17.5t-17.5 -7.5zM420 649q-10 0 -17.5 7.5t-7.5 17.5t7.5 17.5t17.5 7.5t17.5 -7.5t7.5 -17.5t-7.5 -17.5t-17.5 -7.5zM355 -10q-109 0 -187 77.5t-78 186.5q0 108 78 185t187 77
q108 0 185.5 -77t77.5 -185q0 -109 -77.5 -186.5t-185.5 -77.5zM355 10q100 0 171.5 71.5t71.5 172.5q0 100 -71.5 171t-171.5 71q-101 0 -173 -71t-72 -171q0 -101 72 -172.5t173 -71.5z" />
    <glyph glyph-name="divide" unicode="&#xf7;" horiz-adv-x="500" 
d="M250 358q-10 0 -17.5 7t-7.5 18t7.5 18t17.5 7t17.5 -7t7.5 -18t-7.5 -18t-17.5 -7zM100 300h300v-20h-300v20zM250 158q-10 0 -17.5 7t-7.5 18t7.5 18t17.5 7t17.5 -7t7.5 -18t-7.5 -18t-17.5 -7z" />
    <glyph glyph-name="oslash" unicode="&#xf8;" 
d="M521 456q97 -79 97 -202q0 -109 -77.5 -186.5t-185.5 -77.5q-82 0 -151 48l-29 -38h-25l38 50q-46 37 -72 90t-26 114q0 108 78 185t187 77q83 0 150 -48l29 38h25zM110 254q0 -116 90 -188l293 386q-61 44 -138 44q-101 0 -173 -71t-72 -171zM355 10q100 0 171.5 71.5
t71.5 172.5q0 113 -89 186l-293 -386q61 -44 139 -44z" />
    <glyph glyph-name="ugrave" unicode="&#xf9;" horiz-adv-x="578" 
d="M313 616h-20l-99 130h30zM488 506h20v-506h-19l-1 139q-25 -64 -78 -106.5t-139 -42.5q-85 0 -138 58t-53 167v291h20v-291q0 -102 47.5 -153.5t123.5 -51.5q61 0 107 26t68 64t32 70.5t10 55.5v280z" />
    <glyph glyph-name="uacute" unicode="&#xfa;" horiz-adv-x="578" 
d="M413 746l-99 -130h-20l89 130h30zM488 506h20v-506h-19l-1 139q-25 -64 -78 -106.5t-139 -42.5q-85 0 -138 58t-53 167v291h20v-291q0 -102 47.5 -153.5t123.5 -51.5q61 0 107 26t68 64t32 70.5t10 55.5v280z" />
    <glyph glyph-name="ucircumflex" unicode="&#xfb;" horiz-adv-x="578" 
d="M305 730l-87 -114h-25l99 130h25l99 -130h-25zM488 506h20v-506h-19l-1 139q-25 -64 -78 -106.5t-139 -42.5q-85 0 -138 58t-53 167v291h20v-291q0 -102 47.5 -153.5t123.5 -51.5q61 0 107 26t68 64t32 70.5t10 55.5v280z" />
    <glyph glyph-name="udieresis" unicode="&#xfc;" horiz-adv-x="578" 
d="M239 649q-11 0 -18 7.5t-7 17.5t7 17.5t18 7.5t18 -7.5t7 -17.5t-7 -17.5t-18 -7.5zM369 649q-11 0 -18 7.5t-7 17.5t7 17.5t18 7.5t18 -7.5t7 -17.5t-7 -17.5t-18 -7.5zM488 506h20v-506h-19l-1 139q-25 -64 -78 -106.5t-139 -42.5q-85 0 -138 58t-53 167v291h20v-291
q0 -102 47.5 -153.5t123.5 -51.5q61 0 107 26t68 64t32 70.5t10 55.5v280z" />
    <glyph glyph-name="yacute" unicode="&#xfd;" horiz-adv-x="614" 
d="M399 746h30l-99 -130h-20zM80 506h22l218 -480l212 480h22l-325 -736h-22l102 232z" />
    <glyph glyph-name="thorn" unicode="&#xfe;" 
d="M90 -230v980h20v-396q30 72 96 117t147 45q109 0 187 -77t78 -185q0 -109 -78 -186.5t-187 -77.5q-81 0 -147 45t-96 118v-383h-20zM110 254q0 -101 71.5 -172.5t171.5 -71.5q101 0 173 71.5t72 172.5q0 100 -72 171t-173 71q-100 0 -171.5 -71t-71.5 -171z" />
    <glyph glyph-name="ydieresis" unicode="&#xff;" horiz-adv-x="614" 
d="M255 649q-11 0 -18 7.5t-7 17.5t7 17.5t18 7.5t18 -7.5t7 -17.5t-7 -17.5t-18 -7.5zM385 649q-11 0 -18 7.5t-7 17.5t7 17.5t18 7.5t18 -7.5t7 -17.5t-7 -17.5t-18 -7.5zM80 506h22l218 -480l212 480h22l-325 -736h-22l102 232z" />
    <glyph glyph-name="Amacron" unicode="&#x100;" horiz-adv-x="673" 
d="M438 895v-20h-180v20h180zM592 0l-75 208h-341l-75 -208h-21l256 710h21l256 -710h-21zM183 228h327l-163 453z" />
    <glyph glyph-name="amacron" unicode="&#x101;" 
d="M266 691h180v-20h-180v20zM90 254q0 108 78 185t187 77q81 0 147 -45t96 -117v152h20v-506h-20v153q-30 -73 -96 -118t-147 -45q-109 0 -187 77.5t-78 186.5zM110 254q0 -101 72 -172.5t173 -71.5q100 0 171.5 71.5t71.5 172.5q0 100 -71.5 171t-171.5 71
q-101 0 -173 -71t-72 -171z" />
    <glyph glyph-name="Abreve" unicode="&#x102;" horiz-adv-x="673" 
d="M347 820q-64 0 -100 40t-36 90h20q0 -41 29.5 -75.5t86.5 -34.5t86.5 34.5t29.5 75.5h20q0 -50 -36 -90t-100 -40zM592 0l-75 208h-341l-75 -208h-21l256 710h21l256 -710h-21zM183 228h327l-163 453z" />
    <glyph glyph-name="abreve" unicode="&#x103;" 
d="M491 746q0 -50 -36 -90t-100 -40t-100 40t-36 90h20q0 -41 29.5 -75.5t86.5 -34.5t86.5 34.5t29.5 75.5h20zM90 254q0 108 78 185t187 77q81 0 147 -45t96 -117v152h20v-506h-20v153q-30 -73 -96 -118t-147 -45q-109 0 -187 77.5t-78 186.5zM110 254q0 -101 72 -172.5
t173 -71.5q100 0 171.5 71.5t71.5 172.5q0 100 -71.5 171t-171.5 71q-101 0 -173 -71t-72 -171z" />
    <glyph glyph-name="Aogonek" unicode="&#x104;" horiz-adv-x="673" 
d="M610 -110q35 0 61 26v-23q-23 -23 -61 -23q-46 0 -54 42t36 88l-75 208h-341l-75 -208h-21l256 710h21l256 -710h-1q-28 -27 -35.5 -53.5t2.5 -41.5t31 -15zM183 228h327l-163 453z" />
    <glyph glyph-name="aogonek" unicode="&#x105;" 
d="M616 -110q35 0 61 26v-23q-23 -23 -61 -23q-46 0 -54 42t36 88v153q-30 -73 -96 -118t-147 -45q-109 0 -187 77.5t-78 186.5q0 108 78 185t187 77q81 0 147 -45t96 -117v152h20v-506q-28 -27 -35.5 -53.5t2.5 -41.5t31 -15zM355 10q100 0 171.5 71.5t71.5 172.5
q0 100 -71.5 171t-171.5 71q-101 0 -173 -71t-72 -171q0 -101 72 -172.5t173 -71.5z" />
    <glyph glyph-name="Cacute" unicode="&#x106;" horiz-adv-x="724" 
d="M517 950h30l-99 -130h-20zM654 624q-87 76 -211 76q-138 0 -235.5 -102t-97.5 -243t97.5 -243t235.5 -102q124 0 211 76v-23q-82 -73 -211 -73q-150 0 -251.5 107t-101.5 258t101.5 258t251.5 107q129 0 211 -73v-23z" />
    <glyph glyph-name="cacute" unicode="&#x107;" horiz-adv-x="598" 
d="M433 746h30l-99 -130h-20zM528 416q-75 80 -173 80q-101 0 -173 -71t-72 -171q0 -101 72 -172.5t173 -71.5q98 0 173 80v-25q-69 -75 -173 -75q-109 0 -187 77.5t-78 186.5q0 108 78 185t187 77q104 0 173 -75v-25z" />
    <glyph glyph-name="Cdotaccent" unicode="&#x10a;" horiz-adv-x="724" 
d="M438 853q-10 0 -17.5 7.5t-7.5 17.5t7.5 17.5t17.5 7.5t17.5 -7.5t7.5 -17.5t-7.5 -17.5t-17.5 -7.5zM654 624q-87 76 -211 76q-138 0 -235.5 -102t-97.5 -243t97.5 -243t235.5 -102q124 0 211 76v-23q-82 -73 -211 -73q-150 0 -251.5 107t-101.5 258t101.5 258
t251.5 107q129 0 211 -73v-23z" />
    <glyph glyph-name="cdotaccent" unicode="&#x10b;" horiz-adv-x="598" 
d="M354 649q-10 0 -17.5 7.5t-7.5 17.5t7.5 17.5t17.5 7.5t17.5 -7.5t7.5 -17.5t-7.5 -17.5t-17.5 -7.5zM528 416q-75 80 -173 80q-101 0 -173 -71t-72 -171q0 -101 72 -172.5t173 -71.5q98 0 173 80v-25q-69 -75 -173 -75q-109 0 -187 77.5t-78 186.5q0 108 78 185t187 77
q104 0 173 -75v-25z" />
    <glyph glyph-name="Ccaron" unicode="&#x10c;" horiz-adv-x="724" 
d="M448 820h-25l-99 130h25l87 -114l86 114h25zM443 700q-138 0 -235.5 -102t-97.5 -243t97.5 -243t235.5 -102q124 0 211 76v-23q-82 -73 -211 -73q-150 0 -251.5 107t-101.5 258t101.5 258t251.5 107q129 0 211 -73v-23q-87 76 -211 76z" />
    <glyph glyph-name="ccaron" unicode="&#x10d;" horiz-adv-x="598" 
d="M364 616h-25l-99 130h25l87 -114l86 114h25zM355 496q-101 0 -173 -71t-72 -171q0 -101 72 -172.5t173 -71.5q98 0 173 80v-25q-69 -75 -173 -75q-109 0 -187 77.5t-78 186.5q0 108 78 185t187 77q104 0 173 -75v-25q-75 80 -173 80z" />
    <glyph glyph-name="Dcaron" unicode="&#x10e;" horiz-adv-x="671" 
d="M313 820h-25l-99 130h25l87 -114l86 114h25zM283 710q148 0 238 -101t90 -254t-90 -254t-238 -101h-203v710h203zM283 20q136 0 222 96t86 239t-86 239t-222 96h-183v-670h183z" />
    <glyph glyph-name="dcaron" unicode="&#x10f;" horiz-adv-x="752" 
d="M90 254q0 108 78 185t187 77q81 0 147 -45t96 -117v396h20v-750h-20v153q-30 -73 -96 -118t-147 -45q-109 0 -187 77.5t-78 186.5zM691 710h31l-39 -150h-21zM110 254q0 -101 72 -172.5t173 -71.5q100 0 171.5 71.5t71.5 172.5q0 100 -71.5 171t-171.5 71
q-101 0 -173 -71t-72 -171z" />
    <glyph glyph-name="Dcroat" unicode="&#x110;" horiz-adv-x="671" 
d="M283 710q148 0 238 -101t90 -254t-90 -254t-238 -101h-203v345h-100v20h100v345h203zM283 20q136 0 222 96t86 239t-86 239t-222 96h-183v-325h180v-20h-180v-325h183z" />
    <glyph glyph-name="dcroat" unicode="&#x111;" 
d="M674 612v-20h-56v-592h-20v153q-30 -73 -96 -118t-147 -45q-109 0 -187 77.5t-78 186.5q0 108 78 185t187 77q81 0 147 -45t96 -117v238h-224v20h224v138h20v-138h56zM355 10q100 0 171.5 71.5t71.5 172.5q0 100 -71.5 171t-171.5 71q-101 0 -173 -71t-72 -171
q0 -101 72 -172.5t173 -71.5z" />
    <glyph glyph-name="Emacron" unicode="&#x112;" horiz-adv-x="490" 
d="M344 895v-20h-180v20h180zM430 690h-330v-304h250v-20h-250v-346h330v-20h-350v710h350v-20z" />
    <glyph glyph-name="emacron" unicode="&#x113;" horiz-adv-x="666" 
d="M434 691v-20h-180v20h180zM596 250v-4h-486q3 -107 71 -171.5t169 -64.5q79 0 132 37.5t75 90.5l19 -5q-22 -59 -81.5 -101t-144.5 -42q-112 0 -186 73.5t-74 192.5q0 108 72.5 184t180.5 76q112 0 182.5 -79t70.5 -187zM343 496q-97 0 -163 -66.5t-70 -163.5h466
q-5 95 -69.5 162.5t-163.5 67.5z" />
    <glyph glyph-name="Edotaccent" unicode="&#x116;" horiz-adv-x="490" 
d="M253 853q-11 0 -18 7.5t-7 17.5t7 17.5t18 7.5t18 -7.5t7 -17.5t-7 -17.5t-18 -7.5zM430 690h-330v-304h250v-20h-250v-346h330v-20h-350v710h350v-20z" />
    <glyph glyph-name="edotaccent" unicode="&#x117;" horiz-adv-x="666" 
d="M343 649q-11 0 -18 7.5t-7 17.5t7 17.5t18 7.5t18 -7.5t7 -17.5t-7 -17.5t-18 -7.5zM596 250v-4h-486q3 -107 71 -171.5t169 -64.5q79 0 132 37.5t75 90.5l19 -5q-22 -59 -81.5 -101t-144.5 -42q-112 0 -186 73.5t-74 192.5q0 108 72.5 184t180.5 76q112 0 182.5 -79
t70.5 -187zM343 496q-97 0 -163 -66.5t-70 -163.5h466q-5 95 -69.5 162.5t-163.5 67.5z" />
    <glyph glyph-name="Eogonek" unicode="&#x118;" horiz-adv-x="490" 
d="M430 690h-330v-304h250v-20h-250v-346h330v-20h-108q-28 -27 -35.5 -53.5t2.5 -41.5t31 -15q35 0 61 26v-23q-23 -23 -61 -23q-46 0 -54 42t36 88h-222v710h350v-20z" />
    <glyph glyph-name="eogonek" unicode="&#x119;" horiz-adv-x="666" 
d="M596 250v-4h-486q3 -107 71 -171.5t169 -64.5q79 0 132 37.5t75 90.5l19 -5q-23 -58 -81 -100t-141 -43q-34 -40 -29 -70t36 -30q35 0 61 26v-23q-23 -23 -61 -23q-43 0 -53 38t26 82q-106 6 -175 78.5t-69 187.5q0 108 72.5 184t180.5 76q112 0 182.5 -79t70.5 -187z
M343 496q-97 0 -163 -66.5t-70 -163.5h466q-5 95 -69.5 162.5t-163.5 67.5z" />
    <glyph glyph-name="Ecaron" unicode="&#x11a;" horiz-adv-x="490" 
d="M263 820h-25l-99 130h25l87 -114l86 114h25zM430 690h-330v-304h250v-20h-250v-346h330v-20h-350v710h350v-20z" />
    <glyph glyph-name="ecaron" unicode="&#x11b;" horiz-adv-x="666" 
d="M353 616h-25l-99 130h25l87 -114l86 114h25zM596 250v-4h-486q3 -107 71 -171.5t169 -64.5q79 0 132 37.5t75 90.5l19 -5q-22 -59 -81.5 -101t-144.5 -42q-112 0 -186 73.5t-74 192.5q0 108 72.5 184t180.5 76q112 0 182.5 -79t70.5 -187zM343 496q-97 0 -163 -66.5
t-70 -163.5h466q-5 95 -69.5 162.5t-163.5 67.5z" />
    <glyph glyph-name="Gbreve" unicode="&#x11e;" horiz-adv-x="856" 
d="M438 820q-64 0 -100 40t-36 90h20q0 -41 29.5 -75.5t86.5 -34.5t86.5 34.5t29.5 75.5h20q0 -50 -36 -90t-100 -40zM786 355q0 -153 -96.5 -259t-251.5 -106q-151 0 -249.5 106.5t-98.5 258.5t98.5 258.5t249.5 106.5q177 0 284 -153l-17 -13q-103 146 -267 146
q-139 0 -233.5 -101t-94.5 -244t94.5 -244t233.5 -101q138 0 229 94t98 231h-327v20h348z" />
    <glyph glyph-name="gbreve" unicode="&#x11f;" horiz-adv-x="580" 
d="M290 616q-64 0 -100 40t-36 90h20q0 -41 29.5 -75.5t86.5 -34.5t86.5 34.5t29.5 75.5h20q0 -50 -36 -90t-100 -40zM270 60q106 0 173 -37.5t67 -112.5q0 -70 -58 -110t-152 -40t-152 40t-58 110q0 45 28 82t66 57q-53 16 -53 54q0 20 16.5 36.5t39.5 23.5
q-45 25 -71 68.5t-26 94.5q0 79 57.5 134.5t142.5 55.5q50 0 92 -20l118 10v-20l-89 -7q79 -56 79 -153q0 -79 -57.5 -134.5t-142.5 -55.5q-41 0 -81 16q-26 -8 -42 -21.5t-16 -27.5q0 -43 119 -43zM110 326q0 -70 52 -120t128 -50q77 0 128.5 49.5t51.5 120.5t-51.5 120.5
t-128.5 49.5t-128.5 -49.5t-51.5 -120.5zM300 -220q84 0 137 34t53 96q0 66 -61.5 98t-158.5 32q-32 0 -57 3q-37 -16 -70 -54t-33 -79q0 -62 53 -96t137 -34z" />
    <glyph glyph-name="Gdotaccent" unicode="&#x120;" horiz-adv-x="856" 
d="M438 853q-10 0 -17.5 7.5t-7.5 17.5t7.5 17.5t17.5 7.5t17.5 -7.5t7.5 -17.5t-7.5 -17.5t-17.5 -7.5zM786 355q0 -153 -96.5 -259t-251.5 -106q-151 0 -249.5 106.5t-98.5 258.5t98.5 258.5t249.5 106.5q177 0 284 -153l-17 -13q-103 146 -267 146q-139 0 -233.5 -101
t-94.5 -244t94.5 -244t233.5 -101q138 0 229 94t98 231h-327v20h348z" />
    <glyph glyph-name="gdotaccent" unicode="&#x121;" horiz-adv-x="580" 
d="M290 649q-10 0 -17.5 7.5t-7.5 17.5t7.5 17.5t17.5 7.5t17.5 -7.5t7.5 -17.5t-7.5 -17.5t-17.5 -7.5zM270 60q106 0 173 -37.5t67 -112.5q0 -70 -58 -110t-152 -40t-152 40t-58 110q0 45 28 82t66 57q-53 16 -53 54q0 20 16.5 36.5t39.5 23.5q-45 25 -71 68.5t-26 94.5
q0 79 57.5 134.5t142.5 55.5q50 0 92 -20l118 10v-20l-89 -7q79 -56 79 -153q0 -79 -57.5 -134.5t-142.5 -55.5q-41 0 -81 16q-26 -8 -42 -21.5t-16 -27.5q0 -43 119 -43zM110 326q0 -70 52 -120t128 -50q77 0 128.5 49.5t51.5 120.5t-51.5 120.5t-128.5 49.5t-128.5 -49.5
t-51.5 -120.5zM300 -220q84 0 137 34t53 96q0 66 -61.5 98t-158.5 32q-32 0 -57 3q-37 -16 -70 -54t-33 -79q0 -62 53 -96t137 -34z" />
    <glyph glyph-name="Gcommaaccent" unicode="&#x122;" horiz-adv-x="856" 
d="M786 355q0 -153 -96.5 -259t-251.5 -106q-151 0 -249.5 106.5t-98.5 258.5t98.5 258.5t249.5 106.5q177 0 284 -153l-17 -13q-103 146 -267 146q-139 0 -233.5 -101t-94.5 -244t94.5 -244t233.5 -101q138 0 229 94t98 231h-327v20h348zM394 -210l29 150h31l-39 -150h-21z
" />
    <glyph glyph-name="gcommaaccent" unicode="&#x123;" horiz-adv-x="580" 
d="M334 766l-29 -150h-31l39 150h21zM270 60q106 0 173 -37.5t67 -112.5q0 -70 -58 -110t-152 -40t-152 40t-58 110q0 45 28 82t66 57q-53 16 -53 54q0 20 16.5 36.5t39.5 23.5q-45 25 -71 68.5t-26 94.5q0 79 57.5 134.5t142.5 55.5q50 0 92 -20l118 10v-20l-89 -7
q79 -56 79 -153q0 -79 -57.5 -134.5t-142.5 -55.5q-41 0 -81 16q-26 -8 -42 -21.5t-16 -27.5q0 -43 119 -43zM110 326q0 -70 52 -120t128 -50q77 0 128.5 49.5t51.5 120.5t-51.5 120.5t-128.5 49.5t-128.5 -49.5t-51.5 -120.5zM300 -220q84 0 137 34t53 96q0 66 -61.5 98
t-158.5 32q-32 0 -57 3q-37 -16 -70 -54t-33 -79q0 -62 53 -96t137 -34z" />
    <glyph glyph-name="Hbar" unicode="&#x126;" horiz-adv-x="630" 
d="M667 575v-20h-97v-555h-20v357h-450v-357h-20v555h-88v20h88v135h20v-135h450v135h20v-135h97zM550 377v178h-450v-178h450z" />
    <glyph glyph-name="hbar" unicode="&#x127;" horiz-adv-x="578" 
d="M327 516q85 0 138 -58t53 -167v-291h-20v291q0 102 -47.5 153.5t-123.5 51.5q-61 0 -107 -26t-68 -64t-32 -70.5t-10 -55.5v-280h-20v568h-56v20h56v162h20v-162h224v-20h-224v-201q25 64 78 106.5t139 42.5z" />
    <glyph glyph-name="Imacron" unicode="&#x12a;" horiz-adv-x="160" 
d="M1 895h180v-20h-180v20zM80 0v710h20v-710h-20z" />
    <glyph glyph-name="imacron" unicode="&#x12b;" horiz-adv-x="140" 
d="M-20 691h180v-20h-180v20zM80 506v-506h-20v506h20z" />
    <glyph glyph-name="Iogonek" unicode="&#x12e;" horiz-adv-x="160" 
d="M98 -110q35 0 61 26v-23q-23 -23 -61 -23q-46 0 -54 42t36 88v710h20v-710q-28 -27 -35.5 -53.5t2.5 -41.5t31 -15z" />
    <glyph glyph-name="iogonek" unicode="&#x12f;" horiz-adv-x="140" 
d="M69 616q-11 0 -18 7t-7 18t7 18t18 7t18 -7t7 -18t-7 -18t-18 -7zM78 -110q35 0 61 26v-23q-23 -23 -61 -23q-46 0 -54 42t36 88v506h20v-506q-28 -27 -35.5 -53.5t2.5 -41.5t31 -15z" />
    <glyph glyph-name="Idotaccent" unicode="&#x130;" horiz-adv-x="160" 
d="M90 853q-10 0 -17.5 7.5t-7.5 17.5t7.5 17.5t17.5 7.5t17.5 -7.5t7.5 -17.5t-7.5 -17.5t-17.5 -7.5zM80 0v710h20v-710h-20z" />
    <glyph glyph-name="dotlessi" unicode="&#x131;" horiz-adv-x="140" 
d="M80 506v-506h-20v506h20z" />
    <glyph glyph-name="Kcommaaccent" unicode="&#x136;" horiz-adv-x="576" 
d="M516 710l-299 -346l299 -364h-25l-287 350l-104 -120v-230h-20v710h20v-450l390 450h26zM244 -210l29 150h31l-39 -150h-21z" />
    <glyph glyph-name="kcommaaccent" unicode="&#x137;" horiz-adv-x="521" 
d="M461 506l-237 -220l237 -286h-26l-226 272l-99 -92v-180h-20v750h20v-543l322 299h29zM216 -210l29 150h31l-39 -150h-21z" />
    <glyph glyph-name="Lacute" unicode="&#x139;" horiz-adv-x="470" 
d="M209 950l-99 -130h-20l89 130h30zM110 20h290v-20h-310v710h20v-690z" />
    <glyph glyph-name="lacute" unicode="&#x13a;" horiz-adv-x="170" 
d="M179 990h30l-99 -130h-20zM110 750v-750h-20v750h20z" />
    <glyph glyph-name="Lcommaaccent" unicode="&#x13b;" horiz-adv-x="470" 
d="M110 20h290v-20h-310v710h20v-690zM171 -210l29 150h31l-39 -150h-21z" />
    <glyph glyph-name="lcommaaccent" unicode="&#x13c;" horiz-adv-x="170" 
d="M110 750v-750h-20v750h20zM85 -60h31l-39 -150h-21z" />
    <glyph glyph-name="Lcaron" unicode="&#x13d;" horiz-adv-x="470" 
d="M209 950l-99 -130h-25l-99 130h25l87 -114l86 114h25zM110 20h290v-20h-310v710h20v-690z" />
    <glyph glyph-name="lcaron" unicode="&#x13e;" horiz-adv-x="304" 
d="M110 750v-750h-20v750h20zM190 710h31l-39 -150h-21z" />
    <glyph glyph-name="Lslash" unicode="&#x141;" horiz-adv-x="470" 
d="M110 20h290v-20h-310v335l-106 -80v25l106 80v350h20v-335l106 80v-25l-106 -80v-330z" />
    <glyph glyph-name="lslash" unicode="&#x142;" horiz-adv-x="170" 
d="M216 415v-25l-106 -80v-310h-20v295l-106 -80v25l106 80v430h20v-415z" />
    <glyph glyph-name="Nacute" unicode="&#x143;" horiz-adv-x="657" 
d="M458 950l-99 -130h-20l89 130h30zM577 710h20v-710h-20l-477 675v-675h-20v710h20l477 -675v675z" />
    <glyph glyph-name="nacute" unicode="&#x144;" horiz-adv-x="578" 
d="M411 746l-99 -130h-20l89 130h30zM327 516q85 0 138 -58t53 -167v-291h-20v291q0 102 -47.5 153.5t-123.5 51.5q-61 0 -107 -26t-68 -64t-32 -70.5t-10 -55.5v-280h-20v506h19l1 -139q25 64 78 106.5t139 42.5z" />
    <glyph glyph-name="Ncommaaccent" unicode="&#x145;" horiz-adv-x="657" 
d="M577 710h20v-710h-20l-477 675v-675h-20v710h20l477 -675v675zM305 -210l29 150h31l-39 -150h-21z" />
    <glyph glyph-name="ncommaaccent" unicode="&#x146;" horiz-adv-x="578" 
d="M327 516q85 0 138 -58t53 -167v-291h-20v291q0 102 -47.5 153.5t-123.5 51.5q-61 0 -107 -26t-68 -64t-32 -70.5t-10 -55.5v-280h-20v506h19l1 -139q25 64 78 106.5t139 42.5zM258 -210l29 150h31l-39 -150h-21z" />
    <glyph glyph-name="Ncaron" unicode="&#x147;" horiz-adv-x="657" 
d="M359 820h-25l-99 130h25l87 -114l86 114h25zM577 710h20v-710h-20l-477 675v-675h-20v710h20l477 -675v675z" />
    <glyph glyph-name="ncaron" unicode="&#x148;" horiz-adv-x="578" 
d="M312 616h-25l-99 130h25l87 -114l86 114h25zM327 516q85 0 138 -58t53 -167v-291h-20v291q0 102 -47.5 153.5t-123.5 51.5q-61 0 -107 -26t-68 -64t-32 -70.5t-10 -55.5v-280h-20v506h19l1 -139q25 64 78 106.5t139 42.5z" />
    <glyph glyph-name="Eng" unicode="&#x14a;" horiz-adv-x="697" 
d="M577 710h20v-780q0 -52 -21 -81t-63 -29q-38 0 -65 24v22q30 -26 65 -26q64 0 64 94v66l-477 675v-675h-20v710h20l477 -675v675z" />
    <glyph glyph-name="eng" unicode="&#x14b;" horiz-adv-x="568" 
d="M327 516q85 0 138 -58t53 -167v-321q0 -52 -21 -81t-63 -29q-38 0 -65 24v22q30 -26 65 -26q64 0 64 94v317q0 102 -47.5 153.5t-123.5 51.5q-61 0 -107 -26t-68 -64t-32 -70.5t-10 -55.5v-280h-20v506h19l1 -139q25 64 78 106.5t139 42.5z" />
    <glyph glyph-name="Omacron" unicode="&#x14c;" horiz-adv-x="866" 
d="M354 895h180v-20h-180v20zM443 -10q-150 0 -251.5 107t-101.5 258t101.5 258t251.5 107t251.5 -107t101.5 -258t-101.5 -258t-251.5 -107zM443 10q138 0 235.5 102t97.5 243t-97.5 243t-235.5 102t-235.5 -102t-97.5 -243t97.5 -243t235.5 -102z" />
    <glyph glyph-name="omacron" unicode="&#x14d;" 
d="M266 691h180v-20h-180v20zM355 -10q-109 0 -187 77.5t-78 186.5q0 108 78 185t187 77q108 0 185.5 -77t77.5 -185q0 -109 -77.5 -186.5t-185.5 -77.5zM355 10q100 0 171.5 71.5t71.5 172.5q0 100 -71.5 171t-171.5 71q-101 0 -173 -71t-72 -171q0 -101 72 -172.5
t173 -71.5z" />
    <glyph glyph-name="Ohungarumlaut" unicode="&#x150;" horiz-adv-x="866" 
d="M498 950h30l-99 -130h-20zM588 950h30l-99 -130h-20zM443 -10q-150 0 -251.5 107t-101.5 258t101.5 258t251.5 107t251.5 -107t101.5 -258t-101.5 -258t-251.5 -107zM443 10q138 0 235.5 102t97.5 243t-97.5 243t-235.5 102t-235.5 -102t-97.5 -243t97.5 -243t235.5 -102
z" />
    <glyph glyph-name="ohungarumlaut" unicode="&#x151;" 
d="M410 746h30l-99 -130h-20zM500 746h30l-99 -130h-20zM355 -10q-109 0 -187 77.5t-78 186.5q0 108 78 185t187 77q108 0 185.5 -77t77.5 -185q0 -109 -77.5 -186.5t-185.5 -77.5zM355 10q100 0 171.5 71.5t71.5 172.5q0 100 -71.5 171t-171.5 71q-101 0 -173 -71t-72 -171
q0 -101 72 -172.5t173 -71.5z" />
    <glyph glyph-name="OE" unicode="&#x152;" horiz-adv-x="1176" 
d="M1136 690h-330v-304h250v-20h-250v-346h330v-20h-350v268q-28 -121 -122.5 -199.5t-220.5 -78.5q-150 0 -251.5 107t-101.5 258t101.5 258t251.5 107q126 0 220.5 -78.5t122.5 -199.5v268h350v-20zM443 10q138 0 235.5 102t97.5 243t-97.5 243t-235.5 102t-235.5 -102
t-97.5 -243t97.5 -243t235.5 -102z" />
    <glyph glyph-name="oe" unicode="&#x153;" horiz-adv-x="1134" 
d="M838 516q106 0 166 -78.5t60 -187.5v-4h-446q3 -112 68 -174t161 -62q56 0 106.5 21t84.5 55v-26q-30 -28 -80.5 -49t-110.5 -21q-88 0 -153.5 49.5t-86.5 138.5q-25 -83 -94.5 -135.5t-157.5 -52.5q-109 0 -187 77.5t-78 186.5q0 108 78 185t187 77q87 0 157 -52.5
t95 -133.5q21 84 82.5 135t148.5 51zM355 10q100 0 171.5 71.5t71.5 172.5q0 100 -71.5 171t-171.5 71q-101 0 -173 -71t-72 -171q0 -101 72 -172.5t173 -71.5zM618 266h425q-5 98 -58.5 164t-146.5 66q-95 0 -156 -64.5t-64 -165.5z" />
    <glyph glyph-name="Racute" unicode="&#x154;" horiz-adv-x="573" 
d="M386 950l-99 -130h-20l89 130h30zM513 487q0 -93 -52 -153t-129 -69l181 -265h-24l-180 264h-1h-208v-264h-20v710h228q84 0 144.5 -61.5t60.5 -161.5zM100 690v-406h208q76 0 130.5 55.5t54.5 147.5t-54.5 147.5t-130.5 55.5h-208z" />
    <glyph glyph-name="racute" unicode="&#x155;" horiz-adv-x="337" 
d="M318 746l-99 -130h-20l89 130h30zM110 411q38 105 129 105q39 0 68 -23l-9 -17q-26 20 -59 20q-46 0 -77 -35t-41.5 -76.5t-10.5 -83.5v-301h-20v506h19z" />
    <glyph glyph-name="Rcommaaccent" unicode="&#x156;" horiz-adv-x="573" 
d="M513 487q0 -93 -52 -153t-129 -69l181 -265h-24l-180 264h-1h-208v-264h-20v710h228q84 0 144.5 -61.5t60.5 -161.5zM100 690v-406h208q76 0 130.5 55.5t54.5 147.5t-54.5 147.5t-130.5 55.5h-208zM233 -210l29 150h31l-39 -150h-21z" />
    <glyph glyph-name="rcommaaccent" unicode="&#x157;" horiz-adv-x="337" 
d="M239 516q39 0 68 -23l-9 -17q-26 20 -59 20q-46 0 -77 -35t-41.5 -76.5t-10.5 -83.5v-301h-20v506h19l1 -95q38 105 129 105zM55 -210l29 150h31l-39 -150h-21z" />
    <glyph glyph-name="Rcaron" unicode="&#x158;" horiz-adv-x="573" 
d="M287 820h-25l-99 130h25l87 -114l86 114h25zM513 487q0 -93 -52 -153t-129 -69l181 -265h-24l-180 264h-1h-208v-264h-20v710h228q84 0 144.5 -61.5t60.5 -161.5zM100 690v-406h208q76 0 130.5 55.5t54.5 147.5t-54.5 147.5t-130.5 55.5h-208z" />
    <glyph glyph-name="rcaron" unicode="&#x159;" horiz-adv-x="337" 
d="M219 616h-25l-99 130h25l87 -114l86 114h25zM110 411q38 105 129 105q39 0 68 -23l-9 -17q-26 20 -59 20q-46 0 -77 -35t-41.5 -76.5t-10.5 -83.5v-301h-20v506h19z" />
    <glyph glyph-name="Sacute" unicode="&#x15a;" horiz-adv-x="590" 
d="M404 950h30l-99 -130h-20zM110 167h20q7 -75 62 -116t125 -41q83 0 133 40.5t50 106.5q0 38 -14.5 69.5t-43.5 55.5t-57.5 40.5t-69.5 34.5q-92 41 -123 65q-67 51 -67 137q0 70 54.5 115.5t133.5 45.5q70 0 119.5 -45t57.5 -110h-20q-8 57 -51.5 96t-105.5 39
q-71 0 -119.5 -40t-48.5 -101q0 -22 5.5 -41t11.5 -32.5t21 -28t24 -22t31.5 -20t31.5 -16.5l36 -16q7 -3 11 -5q46 -21 77.5 -39t63 -44.5t47 -61t15.5 -76.5q0 -74 -56 -120.5t-147 -46.5q-78 0 -139 46.5t-68 130.5z" />
    <glyph glyph-name="sacute" unicode="&#x15b;" horiz-adv-x="510" 
d="M336 746h30l-99 -130h-20zM90 117h20q40 -107 165 -107q68 0 106.5 28.5t38.5 73.5q0 16 -4 29.5t-8.5 24t-16.5 21t-20.5 17t-28 16.5t-30 15t-37 16.5t-39.5 17.5q-70 32 -93 53q-35 33 -35 78q0 52 43.5 84t98.5 32q60 0 101.5 -33t48.5 -88h-20q-7 46 -42.5 73.5
t-87.5 27.5q-47 0 -84.5 -26t-37.5 -70q0 -17 7 -32t15 -25t28.5 -22t32.5 -18t42 -19.5t43 -19.5q4 -2 21.5 -10t23 -10.5t21 -11t21.5 -13.5t17.5 -14.5t16.5 -18t11.5 -20.5t9 -25.5t2.5 -28.5q0 -53 -44.5 -87.5t-120.5 -34.5q-70 0 -119 34.5t-66 92.5z" />
    <glyph glyph-name="Scedilla" unicode="&#x15e;" horiz-adv-x="590" 
d="M520 157q0 -71 -52 -117t-137 -50l-15 -39q30 -2 50.5 -16.5t20.5 -39.5q0 -67 -123 -67l6 20q97 0 97 47q0 36 -67 36h-7l19 59q-77 2 -136 48t-66 129h20q7 -75 62 -116t125 -41q83 0 133 40.5t50 106.5q0 38 -14.5 69.5t-43.5 55.5t-57.5 40.5t-69.5 34.5
q-92 41 -123 65q-67 51 -67 137q0 70 54.5 115.5t133.5 45.5q70 0 119.5 -45t57.5 -110h-20q-8 57 -51.5 96t-105.5 39q-71 0 -119.5 -40t-48.5 -101q0 -22 5.5 -41t11.5 -32.5t21 -28t24 -22t31.5 -20t31.5 -16.5l36 -16q7 -3 11 -5q46 -21 77.5 -39t63 -44.5t47 -61
t15.5 -76.5z" />
    <glyph glyph-name="scedilla" unicode="&#x15f;" horiz-adv-x="510" 
d="M440 112q0 -52 -43 -86.5t-116 -35.5l-15 -39q30 -2 50.5 -16.5t20.5 -39.5q0 -67 -123 -67l6 20q97 0 97 47q0 36 -67 36h-7l19 59q-65 4 -110.5 38t-61.5 89h20q40 -107 165 -107q68 0 106.5 28.5t38.5 73.5q0 16 -4 29.5t-8.5 24t-16.5 21t-20.5 17t-28 16.5t-30 15
t-37 16.5t-39.5 17.5q-70 32 -93 53q-35 33 -35 78q0 52 43.5 84t98.5 32q60 0 101.5 -33t48.5 -88h-20q-7 46 -42.5 73.5t-87.5 27.5q-47 0 -84.5 -26t-37.5 -70q0 -17 7 -32t15 -25t28.5 -22t32.5 -18t42 -19.5t43 -19.5q4 -2 21.5 -10t23 -10.5t21 -11t21.5 -13.5
t17.5 -14.5t16.5 -18t11.5 -20.5t9 -25.5t2.5 -28.5z" />
    <glyph glyph-name="Scaron" unicode="&#x160;" horiz-adv-x="590" 
d="M335 820h-25l-99 130h25l87 -114l86 114h25zM317 378q46 -21 77.5 -39t63 -44.5t47 -61t15.5 -76.5q0 -74 -56 -120.5t-147 -46.5q-78 0 -139 46.5t-68 130.5h20q7 -75 62 -116t125 -41q83 0 133 40.5t50 106.5q0 38 -14.5 69.5t-43.5 55.5t-57.5 40.5t-69.5 34.5
q-92 41 -123 65q-67 51 -67 137q0 70 54.5 115.5t133.5 45.5q70 0 119.5 -45t57.5 -110h-20q-8 57 -51.5 96t-105.5 39q-71 0 -119.5 -40t-48.5 -101q0 -22 5.5 -41t11.5 -32.5t21 -28t24 -22t31.5 -20t31.5 -16.5l36 -16q7 -3 11 -5z" />
    <glyph glyph-name="scaron" unicode="&#x161;" horiz-adv-x="510" 
d="M267 616h-25l-99 130h25l87 -114l86 114h25zM296 264q4 -2 21.5 -10t23 -10.5t21 -11t21.5 -13.5t17.5 -14.5t16.5 -18t11.5 -20.5t9 -25.5t2.5 -28.5q0 -53 -44.5 -87.5t-120.5 -34.5q-70 0 -119 34.5t-66 92.5h20q40 -107 165 -107q68 0 106.5 28.5t38.5 73.5
q0 16 -4 29.5t-8.5 24t-16.5 21t-20.5 17t-28 16.5t-30 15t-37 16.5t-39.5 17.5q-70 32 -93 53q-35 33 -35 78q0 52 43.5 84t98.5 32q60 0 101.5 -33t48.5 -88h-20q-7 46 -42.5 73.5t-87.5 27.5q-47 0 -84.5 -26t-37.5 -70q0 -17 7 -32t15 -25t28.5 -22t32.5 -18t42 -19.5
t43 -19.5z" />
    <glyph glyph-name="uni0162" unicode="&#x162;" horiz-adv-x="510" 
d="M275 690v-690l-19 -49q30 -2 50.5 -16.5t20.5 -39.5q0 -67 -123 -67l6 20q97 0 97 47q0 36 -67 36h-7l22 69v690h-185v20h390v-20h-185z" />
    <glyph glyph-name="uni0163" unicode="&#x163;" horiz-adv-x="280" 
d="M140 486v-486l-19 -49q30 -2 50.5 -16.5t20.5 -39.5q0 -67 -123 -67l6 20q97 0 97 47q0 36 -67 36h-7l22 69v486h-60v20h60v150h20v-150h90v-20h-90z" />
    <glyph glyph-name="Tcaron" unicode="&#x164;" horiz-adv-x="510" 
d="M275 820h-25l-99 130h25l87 -114l86 114h25zM460 710v-20h-185v-690h-20v690h-185v20h390z" />
    <glyph glyph-name="tcaron" unicode="&#x165;" horiz-adv-x="280" 
d="M243 710h31l-39 -150h-21zM140 656v-150h90v-20h-90v-486h-20v486h-60v20h60v150h20z" />
    <glyph glyph-name="Tbar" unicode="&#x166;" horiz-adv-x="510" 
d="M460 690h-185v-325h142v-20h-142v-345h-20v345h-138v20h138v325h-185v20h390v-20z" />
    <glyph glyph-name="tbar" unicode="&#x167;" horiz-adv-x="280" 
d="M230 486h-90v-163h79v-20h-79v-303h-20v303h-51v20h51v163h-60v20h60v150h20v-150h90v-20z" />
    <glyph glyph-name="Utilde" unicode="&#x168;" horiz-adv-x="656" 
d="M164 859q0 29 23 52.5t64 23.5q32 0 61.5 -20t57 -40t55.5 -20q33 0 50 17.5t17 38.5h20q0 -29 -23 -52.5t-64 -23.5q-32 0 -61.5 20t-57 40t-55.5 20q-33 0 -50 -17.5t-17 -38.5h-20zM596 270q0 -138 -70.5 -209t-187.5 -71t-187.5 71t-70.5 209v440h20v-440
q0 -131 65.5 -195.5t172.5 -64.5t172.5 64.5t65.5 195.5v440h20v-440z" />
    <glyph glyph-name="utilde" unicode="&#x169;" horiz-adv-x="578" 
d="M217 711q-33 0 -50 -17.5t-17 -38.5h-20q0 29 23 52.5t64 23.5q32 0 61.5 -20t57 -40t55.5 -20q33 0 50 17.5t17 38.5h20q0 -29 -23 -52.5t-64 -23.5q-32 0 -61.5 20t-57 40t-55.5 20zM488 506h20v-506h-19l-1 139q-25 -64 -78 -106.5t-139 -42.5q-85 0 -138 58t-53 167
v291h20v-291q0 -102 47.5 -153.5t123.5 -51.5q61 0 107 26t68 64t32 70.5t10 55.5v280z" />
    <glyph glyph-name="Umacron" unicode="&#x16a;" horiz-adv-x="656" 
d="M249 895h180v-20h-180v20zM596 270q0 -138 -70.5 -209t-187.5 -71t-187.5 71t-70.5 209v440h20v-440q0 -131 65.5 -195.5t172.5 -64.5t172.5 64.5t65.5 195.5v440h20v-440z" />
    <glyph glyph-name="umacron" unicode="&#x16b;" horiz-adv-x="578" 
d="M395 691v-20h-180v20h180zM488 506h20v-506h-19l-1 139q-25 -64 -78 -106.5t-139 -42.5q-85 0 -138 58t-53 167v291h20v-291q0 -102 47.5 -153.5t123.5 -51.5q61 0 107 26t68 64t32 70.5t10 55.5v280z" />
    <glyph glyph-name="Uring" unicode="&#x16e;" horiz-adv-x="656" 
d="M338 830q-27 0 -46 19t-19 46t19 46t46 19t46 -19t19 -46t-19 -46t-46 -19zM338 850q19 0 32 13t13 32t-13 32t-32 13t-32 -13t-13 -32t13 -32t32 -13zM596 270q0 -138 -70.5 -209t-187.5 -71t-187.5 71t-70.5 209v440h20v-440q0 -131 65.5 -195.5t172.5 -64.5
t172.5 64.5t65.5 195.5v440h20v-440z" />
    <glyph glyph-name="uring" unicode="&#x16f;" horiz-adv-x="578" 
d="M304 626q-27 0 -46 19t-19 46t19 46t46 19t46 -19t19 -46t-19 -46t-46 -19zM304 736q-19 0 -32 -13t-13 -32t13 -32t32 -13t32 13t13 32t-13 32t-32 13zM488 506h20v-506h-19l-1 139q-25 -64 -78 -106.5t-139 -42.5q-85 0 -138 58t-53 167v291h20v-291
q0 -102 47.5 -153.5t123.5 -51.5q61 0 107 26t68 64t32 70.5t10 55.5v280z" />
    <glyph glyph-name="Uhungarumlaut" unicode="&#x170;" horiz-adv-x="656" 
d="M393 950h30l-99 -130h-20zM483 950h30l-99 -130h-20zM596 270q0 -138 -70.5 -209t-187.5 -71t-187.5 71t-70.5 209v440h20v-440q0 -131 65.5 -195.5t172.5 -64.5t172.5 64.5t65.5 195.5v440h20v-440z" />
    <glyph glyph-name="uhungarumlaut" unicode="&#x171;" horiz-adv-x="578" 
d="M389 746l-99 -130h-20l89 130h30zM380 616h-20l89 130h30zM488 506h20v-506h-19l-1 139q-25 -64 -78 -106.5t-139 -42.5q-85 0 -138 58t-53 167v291h20v-291q0 -102 47.5 -153.5t123.5 -51.5q61 0 107 26t68 64t32 70.5t10 55.5v280z" />
    <glyph glyph-name="Uogonek" unicode="&#x172;" horiz-adv-x="656" 
d="M576 710h20v-440q0 -138 -70.5 -209t-187.5 -71h-8q-26 -37 -19.5 -63.5t35.5 -26.5q35 0 61 26v-23q-23 -23 -61 -23q-41 0 -52.5 34.5t18.5 76.5q-106 8 -169 78.5t-63 200.5v440h20v-440q0 -131 65.5 -195.5t172.5 -64.5t172.5 64.5t65.5 195.5v440z" />
    <glyph glyph-name="uogonek" unicode="&#x173;" horiz-adv-x="578" 
d="M506 -110q35 0 61 26v-23q-23 -23 -61 -23q-46 0 -54 42t36 88h1l-1 139q-25 -64 -78 -106.5t-139 -42.5q-85 0 -138 58t-53 167v291h20v-291q0 -102 47.5 -153.5t123.5 -51.5q61 0 107 26t68 64t32 70.5t10 55.5v280h20v-506q-28 -27 -35.5 -53.5t2.5 -41.5t31 -15z" />
    <glyph glyph-name="Wcircumflex" unicode="&#x174;" horiz-adv-x="1085" 
d="M554 934l-87 -114h-25l99 130h25l99 -130h-25zM1014 710h21l-236 -710h-21l-225 678l-226 -678h-21l-236 710h21l226 -678l225 678h21l226 -678z" />
    <glyph glyph-name="wcircumflex" unicode="&#x175;" horiz-adv-x="893" 
d="M458 730l-87 -114h-25l99 130h25l99 -130h-25zM812 506h21l-183 -506h-21l-172 477l-173 -477h-21l-183 506h21l173 -477l172 477h21l173 -477z" />
    <glyph glyph-name="Ycircumflex" unicode="&#x176;" horiz-adv-x="630" 
d="M326 934l-87 -114h-25l99 130h25l99 -130h-25zM557 710h23l-245 -396v-314h-20v314l-245 396h23l232 -374z" />
    <glyph glyph-name="ycircumflex" unicode="&#x177;" horiz-adv-x="614" 
d="M321 730l-87 -114h-25l99 130h25l99 -130h-25zM532 506h22l-325 -736h-22l102 232l-229 504h22l218 -480z" />
    <glyph glyph-name="Ydieresis" unicode="&#x178;" horiz-adv-x="630" 
d="M260 853q-10 0 -17.5 7.5t-7.5 17.5t7.5 17.5t17.5 7.5t17.5 -7.5t7.5 -17.5t-7.5 -17.5t-17.5 -7.5zM390 853q-10 0 -17.5 7.5t-7.5 17.5t7.5 17.5t17.5 7.5t17.5 -7.5t7.5 -17.5t-7.5 -17.5t-17.5 -7.5zM557 710h23l-245 -396v-314h-20v314l-245 396h23l232 -374z" />
    <glyph glyph-name="Zacute" unicode="&#x179;" horiz-adv-x="659" 
d="M459 950l-99 -130h-20l89 130h30zM599 710v-20l-485 -670h485v-20h-509v20l485 670h-485v20h509z" />
    <glyph glyph-name="zacute" unicode="&#x17a;" horiz-adv-x="520" 
d="M379 746l-99 -130h-20l89 130h30zM460 506v-20l-345 -466h345v-20h-370v20l345 466h-345v20h370z" />
    <glyph glyph-name="Zdotaccent" unicode="&#x17b;" horiz-adv-x="659" 
d="M350 853q-10 0 -17.5 7.5t-7.5 17.5t7.5 17.5t17.5 7.5t17.5 -7.5t7.5 -17.5t-7.5 -17.5t-17.5 -7.5zM599 710v-20l-485 -670h485v-20h-509v20l485 670h-485v20h509z" />
    <glyph glyph-name="zdotaccent" unicode="&#x17c;" horiz-adv-x="520" 
d="M270 649q-10 0 -17.5 7.5t-7.5 17.5t7.5 17.5t17.5 7.5t17.5 -7.5t7.5 -17.5t-7.5 -17.5t-17.5 -7.5zM460 506v-20l-345 -466h345v-20h-370v20l345 466h-345v20h370z" />
    <glyph glyph-name="Zcaron" unicode="&#x17d;" horiz-adv-x="659" 
d="M360 820h-25l-99 130h25l87 -114l86 114h25zM599 710v-20l-485 -670h485v-20h-509v20l485 670h-485v20h509z" />
    <glyph glyph-name="zcaron" unicode="&#x17e;" horiz-adv-x="520" 
d="M280 616h-25l-99 130h25l87 -114l86 114h25zM460 506v-20l-345 -466h345v-20h-370v20l345 466h-345v20h370z" />
    <glyph glyph-name="Scommaaccent" unicode="&#x218;" horiz-adv-x="590" 
d="M110 167h20q7 -75 62 -116t125 -41q83 0 133 40.5t50 106.5q0 38 -14.5 69.5t-43.5 55.5t-57.5 40.5t-69.5 34.5q-92 41 -123 65q-67 51 -67 137q0 70 54.5 115.5t133.5 45.5q70 0 119.5 -45t57.5 -110h-20q-8 57 -51.5 96t-105.5 39q-71 0 -119.5 -40t-48.5 -101
q0 -22 5.5 -41t11.5 -32.5t21 -28t24 -22t31.5 -20t31.5 -16.5l36 -16q7 -3 11 -5q46 -21 77.5 -39t63 -44.5t47 -61t15.5 -76.5q0 -74 -56 -120.5t-147 -46.5q-78 0 -139 46.5t-68 130.5zM310 -60h31l-39 -150h-21z" />
    <glyph glyph-name="scommaaccent" unicode="&#x219;" horiz-adv-x="510" 
d="M90 117h20q40 -107 165 -107q68 0 106.5 28.5t38.5 73.5q0 16 -4 29.5t-8.5 24t-16.5 21t-20.5 17t-28 16.5t-30 15t-37 16.5t-39.5 17.5q-70 32 -93 53q-35 33 -35 78q0 52 43.5 84t98.5 32q60 0 101.5 -33t48.5 -88h-20q-7 46 -42.5 73.5t-87.5 27.5q-47 0 -84.5 -26
t-37.5 -70q0 -17 7 -32t15 -25t28.5 -22t32.5 -18t42 -19.5t43 -19.5q4 -2 21.5 -10t23 -10.5t21 -11t21.5 -13.5t17.5 -14.5t16.5 -18t11.5 -20.5t9 -25.5t2.5 -28.5q0 -53 -44.5 -87.5t-120.5 -34.5q-70 0 -119 34.5t-66 92.5zM260 -60h31l-39 -150h-21z" />
    <glyph glyph-name="uni021A" unicode="&#x21a;" horiz-adv-x="510" 
d="M460 710v-20h-185v-690h-20v690h-185v20h390zM221 -210l29 150h31l-39 -150h-21z" />
    <glyph glyph-name="uni021B" unicode="&#x21b;" horiz-adv-x="280" 
d="M140 506h90v-20h-90v-486h-20v486h-60v20h60v150h20v-150zM86 -210l29 150h31l-39 -150h-21z" />
    <glyph glyph-name="circumflex" unicode="&#x2c6;" horiz-adv-x="423" 
d="M323 580h-25l-86 114l-87 -114h-25l99 130h25z" />
    <glyph glyph-name="caron" unicode="&#x2c7;" horiz-adv-x="423" 
d="M298 710h25l-99 -130h-25l-99 130h25l87 -114z" />
    <glyph glyph-name="breve" unicode="&#x2d8;" horiz-adv-x="472" 
d="M372 710q0 -50 -36 -90t-100 -40t-100 40t-36 90h20q0 -41 29.5 -75.5t86.5 -34.5t86.5 34.5t29.5 75.5h20z" />
    <glyph glyph-name="dotaccent" unicode="&#x2d9;" horiz-adv-x="250" 
d="M125 613q-11 0 -18 7.5t-7 17.5t7 17.5t18 7.5t18 -7.5t7 -17.5t-7 -17.5t-18 -7.5z" />
    <glyph glyph-name="ring" unicode="&#x2da;" horiz-adv-x="330" 
d="M165 590q-27 0 -46 19t-19 46t19 46t46 19t46 -19t19 -46t-19 -46t-46 -19zM165 610q19 0 32 13t13 32t-13 32t-32 13t-32 -13t-13 -32t13 -32t32 -13z" />
    <glyph glyph-name="ogonek" unicode="&#x2db;" horiz-adv-x="317" 
d="M217 -84v-23q-23 -23 -61 -23q-46 0 -54 42t36 88h20q-28 -27 -35.5 -53.5t2.5 -41.5t31 -15q35 0 61 26z" />
    <glyph glyph-name="tilde" unicode="&#x2dc;" horiz-adv-x="548" 
d="M100 619q0 29 23 52.5t64 23.5q32 0 61.5 -20t57 -40t55.5 -20q33 0 50 17.5t17 38.5h20q0 -29 -23 -52.5t-64 -23.5q-32 0 -61.5 20t-57 40t-55.5 20q-33 0 -50 -17.5t-17 -38.5h-20z" />
    <glyph glyph-name="hungarumlaut" unicode="&#x2dd;" horiz-adv-x="409" 
d="M189 710h30l-99 -130h-20zM279 710h30l-99 -130h-20z" />
    <glyph glyph-name="gravecomb" unicode="&#x300;" horiz-adv-x="0" 
d="M-189 710l89 -130h-20l-99 130h30z" />
    <glyph glyph-name="acutecomb" unicode="&#x301;" horiz-adv-x="0" 
d="M-130 710h30l-99 -130h-20z" />
    <glyph glyph-name="uni0302" unicode="&#x302;" horiz-adv-x="0" 
d="M-100 580h-25l-86 114l-87 -114h-25l99 130h25z" />
    <glyph glyph-name="tildecomb" unicode="&#x303;" horiz-adv-x="0" 
d="M-448 619q0 29 23 52.5t64 23.5q32 0 61.5 -20t57 -40t55.5 -20q33 0 50 17.5t17 38.5h20q0 -29 -23 -52.5t-64 -23.5q-32 0 -61.5 20t-57 40t-55.5 20q-33 0 -50 -17.5t-17 -38.5h-20z" />
    <glyph glyph-name="uni0304" unicode="&#x304;" horiz-adv-x="0" 
d="M-280 655h180v-20h-180v20z" />
    <glyph glyph-name="uni0306" unicode="&#x306;" horiz-adv-x="0" 
d="M-100 710q0 -50 -36 -90t-100 -40t-100 40t-36 90h20q0 -41 29.5 -75.5t86.5 -34.5t86.5 34.5t29.5 75.5h20z" />
    <glyph glyph-name="uni0307" unicode="&#x307;" horiz-adv-x="0" 
d="M-125 613q-11 0 -18 7.5t-7 17.5t7 17.5t18 7.5t18 -7.5t7 -17.5t-7 -17.5t-18 -7.5z" />
    <glyph glyph-name="uni0308" unicode="&#x308;" horiz-adv-x="0" 
d="M-255 613q-11 0 -18 7.5t-7 17.5t7 17.5t18 7.5t18 -7.5t7 -17.5t-7 -17.5t-18 -7.5zM-125 613q-11 0 -18 7.5t-7 17.5t7 17.5t18 7.5t18 -7.5t7 -17.5t-7 -17.5t-18 -7.5z" />
    <glyph glyph-name="uni030A" unicode="&#x30a;" horiz-adv-x="0" 
d="M-165 590q-27 0 -46 19t-19 46t19 46t46 19t46 -19t19 -46t-19 -46t-46 -19zM-165 610q19 0 32 13t13 32t-13 32t-32 13t-32 -13t-13 -32t13 -32t32 -13z" />
    <glyph glyph-name="uni030B" unicode="&#x30b;" horiz-adv-x="0" 
d="M-200 710h30l-99 -130h-20zM-110 710h30l-99 -130h-20z" />
    <glyph glyph-name="uni030C" unicode="&#x30c;" horiz-adv-x="0" 
d="M-125 710h25l-99 -130h-25l-99 130h25l87 -114z" />
    <glyph glyph-name="uni0312" unicode="&#x312;" horiz-adv-x="0" 
d="M-129 580h-31l39 150h21z" />
    <glyph glyph-name="uni0326" unicode="&#x326;" horiz-adv-x="0" 
d="M-131 -60h31l-39 -150h-21z" />
    <glyph glyph-name="uni0327" unicode="&#x327;" horiz-adv-x="0" 
d="M-171 -49q30 -2 50.5 -16.5t20.5 -39.5q0 -67 -123 -67l6 20q97 0 97 47q0 36 -67 36h-7l22 69h20z" />
    <glyph glyph-name="uni0328" unicode="&#x328;" horiz-adv-x="0" 
d="M-130 -84v-23q-23 -23 -61 -23q-46 0 -54 42t36 88h20q-28 -27 -35.5 -53.5t2.5 -41.5t31 -15q35 0 61 26z" />
    <glyph glyph-name="uni0335" unicode="&#x335;" horiz-adv-x="0" 
d="M-400 245h300v-20h-300v20z" />
    <glyph glyph-name="uni0336" unicode="&#x336;" horiz-adv-x="0" 
d="M-685 245h675v-20h-675v20z" />
    <glyph glyph-name="uni0337" unicode="&#x337;" horiz-adv-x="0" 
d="M-332 135v25l232 175v-25z" />
    <glyph glyph-name="uni0338" unicode="&#x338;" horiz-adv-x="0" 
d="M-70 750l-596 -790h-25l596 790h25z" />
    <glyph glyph-name="Wgrave" unicode="&#x1e80;" horiz-adv-x="1085" 
d="M562 820h-20l-99 130h30zM1014 710h21l-236 -710h-21l-225 678l-226 -678h-21l-236 710h21l226 -678l225 678h21l226 -678z" />
    <glyph glyph-name="wgrave" unicode="&#x1e81;" horiz-adv-x="893" 
d="M466 616h-20l-99 130h30zM812 506h21l-183 -506h-21l-172 477l-173 -477h-21l-183 506h21l173 -477l172 477h21l173 -477z" />
    <glyph glyph-name="Wacute" unicode="&#x1e82;" horiz-adv-x="1085" 
d="M662 950l-99 -130h-20l89 130h30zM1014 710h21l-236 -710h-21l-225 678l-226 -678h-21l-236 710h21l226 -678l225 678h21l226 -678z" />
    <glyph glyph-name="wacute" unicode="&#x1e83;" horiz-adv-x="893" 
d="M566 746l-99 -130h-20l89 130h30zM812 506h21l-183 -506h-21l-172 477l-173 -477h-21l-183 506h21l173 -477l172 477h21l173 -477z" />
    <glyph glyph-name="Wdieresis" unicode="&#x1e84;" horiz-adv-x="1085" 
d="M488 853q-10 0 -17.5 7.5t-7.5 17.5t7.5 17.5t17.5 7.5t17.5 -7.5t7.5 -17.5t-7.5 -17.5t-17.5 -7.5zM618 853q-10 0 -17.5 7.5t-7.5 17.5t7.5 17.5t17.5 7.5t17.5 -7.5t7.5 -17.5t-7.5 -17.5t-17.5 -7.5zM1014 710h21l-236 -710h-21l-225 678l-226 -678h-21l-236 710h21
l226 -678l225 678h21l226 -678z" />
    <glyph glyph-name="wdieresis" unicode="&#x1e85;" horiz-adv-x="893" 
d="M392 649q-10 0 -17.5 7.5t-7.5 17.5t7.5 17.5t17.5 7.5t17.5 -7.5t7.5 -17.5t-7.5 -17.5t-17.5 -7.5zM522 649q-10 0 -17.5 7.5t-7.5 17.5t7.5 17.5t17.5 7.5t17.5 -7.5t7.5 -17.5t-7.5 -17.5t-17.5 -7.5zM812 506h21l-183 -506h-21l-172 477l-173 -477h-21l-183 506h21
l173 -477l172 477h21l173 -477z" />
    <glyph glyph-name="uni1EBC" unicode="&#x1ebc;" horiz-adv-x="490" 
d="M166 915q-32 0 -49.5 -17.5t-17.5 -38.5h-20q0 29 23 52.5t64 23.5q32 0 61.5 -20t57 -40t55.5 -20q32 0 49.5 17.5t17.5 38.5h20q0 -29 -23 -52.5t-64 -23.5q-32 0 -61.5 20t-57 40t-55.5 20zM430 690h-330v-304h250v-20h-250v-346h330v-20h-350v710h350v-20z" />
    <glyph glyph-name="uni1EBD" unicode="&#x1ebd;" horiz-adv-x="666" 
d="M256 711q-32 0 -49.5 -17.5t-17.5 -38.5h-20q0 29 23 52.5t64 23.5q32 0 61.5 -20t57 -40t55.5 -20q32 0 49.5 17.5t17.5 38.5h20q0 -29 -23 -52.5t-64 -23.5q-32 0 -61.5 20t-57 40t-55.5 20zM596 250v-4h-486q3 -107 71 -171.5t169 -64.5q79 0 132 37.5t75 90.5l19 -5
q-22 -59 -81.5 -101t-144.5 -42q-112 0 -186 73.5t-74 192.5q0 108 72.5 184t180.5 76q112 0 182.5 -79t70.5 -187zM343 496q-97 0 -163 -66.5t-70 -163.5h466q-5 95 -69.5 162.5t-163.5 67.5z" />
    <glyph glyph-name="Ygrave" unicode="&#x1ef2;" horiz-adv-x="630" 
d="M334 820h-20l-99 130h30zM557 710h23l-245 -396v-314h-20v314l-245 396h23l232 -374z" />
    <glyph glyph-name="ygrave" unicode="&#x1ef3;" horiz-adv-x="614" 
d="M240 746l89 -130h-20l-99 130h30zM80 506h22l218 -480l212 480h22l-325 -736h-22l102 232z" />
    <glyph glyph-name="uni1EF8" unicode="&#x1ef8;" horiz-adv-x="630" 
d="M238 915q-32 0 -49.5 -17.5t-17.5 -38.5h-20q0 29 23 52.5t64 23.5q32 0 61.5 -20t57 -40t55.5 -20q32 0 49.5 17.5t17.5 38.5h20q0 -29 -23 -52.5t-64 -23.5q-32 0 -61.5 20t-57 40t-55.5 20zM557 710h23l-245 -396v-314h-20v314l-245 396h23l232 -374z" />
    <glyph glyph-name="uni1EF9" unicode="&#x1ef9;" horiz-adv-x="614" 
d="M146 655q0 29 23 52.5t64 23.5q32 0 61.5 -20t57 -40t55.5 -20q33 0 50 17.5t17 38.5h20q0 -29 -23 -52.5t-64 -23.5q-32 0 -61.5 20t-57 40t-55.5 20q-33 0 -50 -17.5t-17 -38.5h-20zM80 506h22l218 -480l212 480h22l-325 -736h-22l102 232z" />
    <glyph glyph-name="endash" unicode="&#x2013;" horiz-adv-x="725" 
d="M30 285h675v-20h-675v20z" />
    <glyph glyph-name="emdash" unicode="&#x2014;" horiz-adv-x="950" 
d="M30 285h900v-20h-900v20z" />
    <glyph glyph-name="quoteleft" unicode="&#x2018;" horiz-adv-x="160" 
d="M81 560h-31l39 150h21z" />
    <glyph glyph-name="quoteright" unicode="&#x2019;" horiz-adv-x="160" 
d="M79 710h31l-39 -150h-21z" />
    <glyph glyph-name="quotesinglbase" unicode="&#x201a;" horiz-adv-x="140" 
d="M59 44h31l-39 -150h-21z" />
    <glyph glyph-name="quotedblleft" unicode="&#x201c;" horiz-adv-x="230" 
d="M81 560h-31l39 150h21zM151 560h-31l39 150h21z" />
    <glyph glyph-name="quotedblright" unicode="&#x201d;" horiz-adv-x="230" 
d="M79 710h31l-39 -150h-21zM149 710h31l-39 -150h-21z" />
    <glyph glyph-name="quotedblbase" unicode="&#x201e;" horiz-adv-x="140" 
d="M59 44h31l-39 -150h-21z" />
    <glyph glyph-name="dagger" unicode="&#x2020;" horiz-adv-x="500" 
d="M400 510v-20h-140v-570h-20v570h-140v20h140v280h20v-280h140z" />
    <glyph glyph-name="daggerdbl" unicode="&#x2021;" horiz-adv-x="500" 
d="M400 490h-140v-260h140v-20h-140v-290h-20v290h-140v20h140v260h-140v20h140v280h20v-280h140v-20z" />
    <glyph glyph-name="bullet" unicode="&#x2022;" horiz-adv-x="155" 
d="M68 258q-16 0 -27 10.5t-11 26.5t11 27t27 11t26.5 -11t10.5 -27t-10.5 -26.5t-26.5 -10.5z" />
    <glyph glyph-name="ellipsis" unicode="&#x2026;" horiz-adv-x="330" 
d="M55 -10q-11 0 -18 7t-7 18t7 18t18 7t18 -7t7 -18t-7 -18t-18 -7zM155 -10q-11 0 -18 7t-7 18t7 18t18 7t18 -7t7 -18t-7 -18t-18 -7zM255 -10q-11 0 -18 7t-7 18t7 18t18 7t18 -7t7 -18t-7 -18t-18 -7z" />
    <glyph glyph-name="perthousand" unicode="&#x2030;" horiz-adv-x="1359" 
d="M265 390q-69 0 -117 48t-48 117t48 117t117 48t117 -48t48 -117t-48 -117t-117 -48zM777 710l-536 -710h-25l536 710h25zM265 410q61 0 103 42t42 103t-42 103t-103 42t-103 -42t-42 -103t42 -103t103 -42zM729 -10q-69 0 -117 48t-48 117t48 117t117 48t117 -48t48 -117
t-48 -117t-117 -48zM1114 -10q-69 0 -117 48t-48 117t48 117t117 48t117 -48t48 -117t-48 -117t-117 -48zM729 10q61 0 103 42t42 103t-42 103t-103 42t-103 -42t-42 -103t42 -103t103 -42zM1114 10q61 0 103 42t42 103t-42 103t-103 42t-103 -42t-42 -103t42 -103t103 -42z
" />
    <glyph glyph-name="guilsinglleft" unicode="&#x2039;" horiz-adv-x="328" 
d="M248 384l-123 -149l123 -149h-25l-123 149l123 149h25z" />
    <glyph glyph-name="guilsinglright" unicode="&#x203a;" horiz-adv-x="328" 
d="M125 384l123 -149l-123 -149h-25l123 149l-123 149h25z" />
    <glyph glyph-name="fraction" unicode="&#x2044;" horiz-adv-x="641" 
d="M611 710l-536 -710h-25l536 710h25z" />
    <glyph glyph-name="Euro" unicode="&#x20ac;" horiz-adv-x="880" 
d="M579 700q-138 0 -235.5 -102t-97.5 -243q0 -20 1 -30h339l-7 -20h-329q2 -19 10 -50h302l-7 -20h-288q36 -99 121 -162t191 -63q124 0 211 76v-23q-82 -73 -211 -73q-117 0 -207.5 68t-126.5 177h-145l7 20h132q-8 31 -10 50h-105l7 20h96q-1 10 -1 30q0 151 101.5 258
t251.5 107q129 0 211 -73v-23q-87 76 -211 76z" />
    <glyph glyph-name="trademark" unicode="&#x2122;" horiz-adv-x="828" 
d="M350 710v-20h-125v-280h-20v280h-125v20h270zM728 710h20v-300h-20v258l-138 -258h-22l-138 258v-258h-20v300h20l149 -279z" />
    <glyph glyph-name="arrowleft" unicode="&#x2190;" horiz-adv-x="820" 
d="M720 369v-20h-576l154 -71v-22l-198 91v22l198 91v-22l-150 -69h572z" />
    <glyph glyph-name="arrowup" unicode="&#x2191;" horiz-adv-x="404" 
d="M304 552h-22l-70 152v-704h-20v704l-70 -152h-22l91 198h22z" />
    <glyph glyph-name="arrowright" unicode="&#x2192;" horiz-adv-x="820" 
d="M522 460l198 -91v-22l-198 -91v22l154 71h-576v20h572l-150 69v22z" />
    <glyph glyph-name="arrowdown" unicode="&#x2193;" horiz-adv-x="404" 
d="M282 198h22l-91 -198h-22l-91 198h22l70 -152v704h20v-704z" />
    <glyph glyph-name="arrowboth" unicode="&#x2194;" horiz-adv-x="950" 
d="M652 460l198 -91v-22l-198 -91v22l154 71h-662l154 -71v-22l-198 91v22l198 91v-22l-150 -69h654l-150 69v22z" />
    <glyph glyph-name="arrowupdn" unicode="&#x2195;" horiz-adv-x="404" 
d="M213 48l69 150h22l-91 -198h-22l-91 198h22l71 -154v662l-71 -154h-22l91 198h22l91 -198h-22l-69 150v-654z" />
    <glyph glyph-name="uni2196" unicode="&#x2196;" horiz-adv-x="745" 
d="M645 161l-14 -14l-498 498l58 -157l-15 -16l-76 205l15 15h1l204 -75l-16 -16l-156 58z" />
    <glyph glyph-name="uni2197" unicode="&#x2197;" horiz-adv-x="745" 
d="M645 677l-76 -205l-15 16l58 157l-498 -498l-14 14l497 498l-156 -58l-16 16l204 75h1z" />
    <glyph glyph-name="uni2198" unicode="&#x2198;" horiz-adv-x="745" 
d="M637 87l-7 -8h-1l-204 75l16 16l156 -58l-497 498l14 14l498 -498l-58 157l15 16l76 -205z" />
    <glyph glyph-name="uni2199" unicode="&#x2199;" horiz-adv-x="745" 
d="M148 112l156 58l16 -16l-204 -75h-1l-7 8l-8 7l76 205l15 -16l-58 -157l498 498l14 -14z" />
    <glyph glyph-name="minus" unicode="&#x2212;" horiz-adv-x="500" 
d="M100 300h300v-20h-300v20z" />
    <glyph glyph-name="approxequal" unicode="&#x2248;" horiz-adv-x="548" 
d="M100 314q0 29 23 52.5t64 23.5q32 0 61.5 -20t57 -40t55.5 -20q33 0 50 17t17 39h20q0 -29 -23 -52.5t-64 -23.5q-32 0 -61.5 20t-57 40t-55.5 20q-33 0 -50 -17t-17 -39h-20zM100 224q0 29 23 52.5t64 23.5q32 0 61.5 -20t57 -40t55.5 -20q33 0 50 17t17 39h20
q0 -29 -23 -52.5t-64 -23.5q-32 0 -61.5 20t-57 40t-55.5 20q-33 0 -50 -17t-17 -39h-20z" />
    <glyph glyph-name="notequal" unicode="&#x2260;" horiz-adv-x="500" 
d="M400 325h-126l-27 -70h153v-20h-160l-47 -125h-21l47 125h-119v20h126l27 70h-153v20h160l47 125h21l-47 -125h119v-20z" />
    <glyph glyph-name="lessequal" unicode="&#x2264;" horiz-adv-x="500" 
d="M400 483v-22l-276 -127l276 -127v-22l-300 138v22zM100 55v20h300v-20h-300z" />
    <glyph glyph-name="greaterequal" unicode="&#x2265;" horiz-adv-x="500" 
d="M100 483l300 -138v-22l-300 -138v22l276 127l-276 127v22zM100 55v20h300v-20h-300z" />
    <glyph glyph-name="lozenge" unicode="&#x25ca;" horiz-adv-x="590" 
d="M306 710l184 -400l-184 -400h-22l-184 400l184 400h22zM295 -66l173 376l-173 376l-173 -376z" />
    <glyph glyph-name="i.loclTRK" horiz-adv-x="140" 
d="M69 616q-11 0 -18 7t-7 18t7 18t18 7t18 -7t7 -18t-7 -18t-18 -7zM80 506v-506h-20v506h20z" />
    <glyph glyph-name="a.ss01" horiz-adv-x="558" 
d="M319 516q55 0 90.5 -17.5t51.5 -51t21.5 -66.5t5.5 -81v-300h-20v42q-82 -52 -183 -52q-45 0 -86.5 12t-75 46t-33.5 84q0 38 19 66.5t49.5 43.5t62 21.5t64.5 6.5q101 0 183 -52v82q0 47 -4.5 77.5t-19 60t-45.5 44t-80 14.5q-58 0 -116 -24t-85 -45v24q111 65 201 65z
M468 62v136q-27 17 -77 34.5t-106 17.5q-29 0 -56.5 -5.5t-56 -17.5t-45.5 -36.5t-17 -58.5t17.5 -59t45 -38t56 -19t56.5 -6q56 0 106 17.5t77 34.5z" />
    <glyph glyph-name="aacute.ss01" horiz-adv-x="558" 
d="M407 746l-99 -130h-20l89 130h30zM319 516q55 0 90.5 -17.5t51.5 -51t21.5 -66.5t5.5 -81v-300h-20v42q-82 -52 -183 -52q-45 0 -86.5 12t-75 46t-33.5 84q0 38 19 66.5t49.5 43.5t62 21.5t64.5 6.5q101 0 183 -52v82q0 47 -4.5 77.5t-19 60t-45.5 44t-80 14.5
q-58 0 -116 -24t-85 -45v24q111 65 201 65zM468 62v136q-27 17 -77 34.5t-106 17.5q-29 0 -56.5 -5.5t-56 -17.5t-45.5 -36.5t-17 -58.5t17.5 -59t45 -38t56 -19t56.5 -6q56 0 106 17.5t77 34.5z" />
    <glyph glyph-name="abreve.ss01" horiz-adv-x="558" 
d="M298 616q-64 0 -100 40t-36 90h20q0 -41 29.5 -75.5t86.5 -34.5t86.5 34.5t29.5 75.5h20q0 -50 -36 -90t-100 -40zM319 516q55 0 90.5 -17.5t51.5 -51t21.5 -66.5t5.5 -81v-300h-20v42q-82 -52 -183 -52q-45 0 -86.5 12t-75 46t-33.5 84q0 38 19 66.5t49.5 43.5t62 21.5
t64.5 6.5q101 0 183 -52v82q0 47 -4.5 77.5t-19 60t-45.5 44t-80 14.5q-58 0 -116 -24t-85 -45v24q111 65 201 65zM468 62v136q-27 17 -77 34.5t-106 17.5q-29 0 -56.5 -5.5t-56 -17.5t-45.5 -36.5t-17 -58.5t17.5 -59t45 -38t56 -19t56.5 -6q56 0 106 17.5t77 34.5z" />
    <glyph glyph-name="acircumflex.ss01" horiz-adv-x="558" 
d="M299 730l-87 -114h-25l99 130h25l99 -130h-25zM319 516q55 0 90.5 -17.5t51.5 -51t21.5 -66.5t5.5 -81v-300h-20v42q-82 -52 -183 -52q-45 0 -86.5 12t-75 46t-33.5 84q0 38 19 66.5t49.5 43.5t62 21.5t64.5 6.5q101 0 183 -52v82q0 47 -4.5 77.5t-19 60t-45.5 44
t-80 14.5q-58 0 -116 -24t-85 -45v24q111 65 201 65zM468 62v136q-27 17 -77 34.5t-106 17.5q-29 0 -56.5 -5.5t-56 -17.5t-45.5 -36.5t-17 -58.5t17.5 -59t45 -38t56 -19t56.5 -6q56 0 106 17.5t77 34.5z" />
    <glyph glyph-name="adieresis.ss01" horiz-adv-x="558" 
d="M233 649q-11 0 -18 7.5t-7 17.5t7 17.5t18 7.5t18 -7.5t7 -17.5t-7 -17.5t-18 -7.5zM363 649q-11 0 -18 7.5t-7 17.5t7 17.5t18 7.5t18 -7.5t7 -17.5t-7 -17.5t-18 -7.5zM319 516q55 0 90.5 -17.5t51.5 -51t21.5 -66.5t5.5 -81v-300h-20v42q-82 -52 -183 -52
q-45 0 -86.5 12t-75 46t-33.5 84q0 38 19 66.5t49.5 43.5t62 21.5t64.5 6.5q101 0 183 -52v82q0 47 -4.5 77.5t-19 60t-45.5 44t-80 14.5q-58 0 -116 -24t-85 -45v24q111 65 201 65zM468 62v136q-27 17 -77 34.5t-106 17.5q-29 0 -56.5 -5.5t-56 -17.5t-45.5 -36.5
t-17 -58.5t17.5 -59t45 -38t56 -19t56.5 -6q56 0 106 17.5t77 34.5z" />
    <glyph glyph-name="agrave.ss01" horiz-adv-x="558" 
d="M307 616h-20l-99 130h30zM319 516q55 0 90.5 -17.5t51.5 -51t21.5 -66.5t5.5 -81v-300h-20v42q-82 -52 -183 -52q-45 0 -86.5 12t-75 46t-33.5 84q0 38 19 66.5t49.5 43.5t62 21.5t64.5 6.5q101 0 183 -52v82q0 47 -4.5 77.5t-19 60t-45.5 44t-80 14.5q-58 0 -116 -24
t-85 -45v24q111 65 201 65zM468 62v136q-27 17 -77 34.5t-106 17.5q-29 0 -56.5 -5.5t-56 -17.5t-45.5 -36.5t-17 -58.5t17.5 -59t45 -38t56 -19t56.5 -6q56 0 106 17.5t77 34.5z" />
    <glyph glyph-name="amacron.ss01" horiz-adv-x="558" 
d="M389 691v-20h-180v20h180zM319 516q55 0 90.5 -17.5t51.5 -51t21.5 -66.5t5.5 -81v-300h-20v42q-82 -52 -183 -52q-45 0 -86.5 12t-75 46t-33.5 84q0 38 19 66.5t49.5 43.5t62 21.5t64.5 6.5q101 0 183 -52v82q0 47 -4.5 77.5t-19 60t-45.5 44t-80 14.5q-58 0 -116 -24
t-85 -45v24q111 65 201 65zM468 62v136q-27 17 -77 34.5t-106 17.5q-29 0 -56.5 -5.5t-56 -17.5t-45.5 -36.5t-17 -58.5t17.5 -59t45 -38t56 -19t56.5 -6q56 0 106 17.5t77 34.5z" />
    <glyph glyph-name="aogonek.ss01" horiz-adv-x="558" 
d="M485 -110q35 0 61 26v-23q-23 -23 -61 -23q-46 0 -54 42t36 88h1v42q-82 -52 -183 -52q-45 0 -86.5 12t-75 46t-33.5 84q0 38 19 66.5t49.5 43.5t62 21.5t64.5 6.5q101 0 183 -52v82q0 47 -4.5 77.5t-19 60t-45.5 44t-80 14.5q-58 0 -116 -24t-85 -45v24q111 65 201 65
q55 0 90.5 -17.5t51.5 -51t21.5 -66.5t5.5 -81v-300h-1q-28 -27 -35.5 -53.5t2.5 -41.5t31 -15zM285 10q56 0 106 17.5t77 34.5v136q-27 17 -77 34.5t-106 17.5q-29 0 -56.5 -5.5t-56 -17.5t-45.5 -36.5t-17 -58.5t17.5 -59t45 -38t56 -19t56.5 -6z" />
    <glyph glyph-name="aring.ss01" horiz-adv-x="558" 
d="M298 626q-27 0 -46 19t-19 46t19 46t46 19t46 -19t19 -46t-19 -46t-46 -19zM298 736q-19 0 -32 -13t-13 -32t13 -32t32 -13t32 13t13 32t-13 32t-32 13zM319 516q55 0 90.5 -17.5t51.5 -51t21.5 -66.5t5.5 -81v-300h-20v42q-82 -52 -183 -52q-45 0 -86.5 12t-75 46
t-33.5 84q0 38 19 66.5t49.5 43.5t62 21.5t64.5 6.5q101 0 183 -52v82q0 47 -4.5 77.5t-19 60t-45.5 44t-80 14.5q-58 0 -116 -24t-85 -45v24q111 65 201 65zM468 62v136q-27 17 -77 34.5t-106 17.5q-29 0 -56.5 -5.5t-56 -17.5t-45.5 -36.5t-17 -58.5t17.5 -59t45 -38
t56 -19t56.5 -6q56 0 106 17.5t77 34.5z" />
    <glyph glyph-name="atilde.ss01" horiz-adv-x="558" 
d="M211 711q-33 0 -50 -17.5t-17 -38.5h-20q0 29 23 52.5t64 23.5q32 0 61.5 -20t57 -40t55.5 -20q33 0 50 17.5t17 38.5h20q0 -29 -23 -52.5t-64 -23.5q-32 0 -61.5 20t-57 40t-55.5 20zM319 516q55 0 90.5 -17.5t51.5 -51t21.5 -66.5t5.5 -81v-300h-20v42
q-82 -52 -183 -52q-45 0 -86.5 12t-75 46t-33.5 84q0 38 19 66.5t49.5 43.5t62 21.5t64.5 6.5q101 0 183 -52v82q0 47 -4.5 77.5t-19 60t-45.5 44t-80 14.5q-58 0 -116 -24t-85 -45v24q111 65 201 65zM468 62v136q-27 17 -77 34.5t-106 17.5q-29 0 -56.5 -5.5t-56 -17.5
t-45.5 -36.5t-17 -58.5t17.5 -59t45 -38t56 -19t56.5 -6q56 0 106 17.5t77 34.5z" />
    <glyph glyph-name="ae.ss01" horiz-adv-x="1004" 
d="M708 516q106 0 166 -78.5t60 -187.5v-4h-446q3 -112 68 -174t161 -62q56 0 106.5 21t84.5 55v-26q-30 -28 -80.5 -49t-110.5 -21q-78 0 -139.5 39.5t-89.5 111.5v-141h-20v42q-82 -52 -183 -52q-45 0 -86.5 12t-75 46t-33.5 84q0 38 19 66.5t49.5 43.5t62 21.5t64.5 6.5
q101 0 183 -52v82q0 47 -4.5 77.5t-19 60t-45.5 44t-80 14.5q-58 0 -116 -24t-85 -45v24q111 65 201 65q86 0 122.5 -41.5t44.5 -114.5q26 72 85 114t137 42zM488 266h425q-5 98 -58.5 164t-146.5 66q-95 0 -156 -64.5t-64 -165.5zM468 62v136q-27 17 -77 34.5t-106 17.5
q-29 0 -56.5 -5.5t-56 -17.5t-45.5 -36.5t-17 -58.5t17.5 -59t45 -38t56 -19t56.5 -6q56 0 106 17.5t77 34.5z" />
    <glyph glyph-name="e.ss01" horiz-adv-x="626" 
d="M330 516q106 0 166 -78.5t60 -187.5v-4h-446q3 -112 68 -174t161 -62q56 0 106.5 21t84.5 55v-26q-30 -28 -80.5 -49t-110.5 -21q-107 0 -178 71t-71 195q0 113 67.5 186.5t172.5 73.5zM110 266h425q-5 98 -58.5 164t-146.5 66q-95 0 -156 -64.5t-64 -165.5z" />
    <glyph glyph-name="eacute.ss01" horiz-adv-x="626" 
d="M438 746l-99 -130h-20l89 130h30zM330 516q106 0 166 -78.5t60 -187.5v-4h-446q3 -112 68 -174t161 -62q56 0 106.5 21t84.5 55v-26q-30 -28 -80.5 -49t-110.5 -21q-107 0 -178 71t-71 195q0 113 67.5 186.5t172.5 73.5zM110 266h425q-5 98 -58.5 164t-146.5 66
q-95 0 -156 -64.5t-64 -165.5z" />
    <glyph glyph-name="ecaron.ss01" horiz-adv-x="626" 
d="M339 616h-25l-99 130h25l87 -114l86 114h25zM330 516q106 0 166 -78.5t60 -187.5v-4h-446q3 -112 68 -174t161 -62q56 0 106.5 21t84.5 55v-26q-30 -28 -80.5 -49t-110.5 -21q-107 0 -178 71t-71 195q0 113 67.5 186.5t172.5 73.5zM110 266h425q-5 98 -58.5 164
t-146.5 66q-95 0 -156 -64.5t-64 -165.5z" />
    <glyph glyph-name="ecircumflex.ss01" horiz-adv-x="626" 
d="M330 730l-87 -114h-25l99 130h25l99 -130h-25zM330 516q106 0 166 -78.5t60 -187.5v-4h-446q3 -112 68 -174t161 -62q56 0 106.5 21t84.5 55v-26q-30 -28 -80.5 -49t-110.5 -21q-107 0 -178 71t-71 195q0 113 67.5 186.5t172.5 73.5zM110 266h425q-5 98 -58.5 164
t-146.5 66q-95 0 -156 -64.5t-64 -165.5z" />
    <glyph glyph-name="edieresis.ss01" horiz-adv-x="626" 
d="M264 649q-10 0 -17.5 7.5t-7.5 17.5t7.5 17.5t17.5 7.5t17.5 -7.5t7.5 -17.5t-7.5 -17.5t-17.5 -7.5zM394 649q-10 0 -17.5 7.5t-7.5 17.5t7.5 17.5t17.5 7.5t17.5 -7.5t7.5 -17.5t-7.5 -17.5t-17.5 -7.5zM330 516q106 0 166 -78.5t60 -187.5v-4h-446q3 -112 68 -174
t161 -62q56 0 106.5 21t84.5 55v-26q-30 -28 -80.5 -49t-110.5 -21q-107 0 -178 71t-71 195q0 113 67.5 186.5t172.5 73.5zM110 266h425q-5 98 -58.5 164t-146.5 66q-95 0 -156 -64.5t-64 -165.5z" />
    <glyph glyph-name="edotaccent.ss01" horiz-adv-x="626" 
d="M329 649q-11 0 -18 7.5t-7 17.5t7 17.5t18 7.5t18 -7.5t7 -17.5t-7 -17.5t-18 -7.5zM330 516q106 0 166 -78.5t60 -187.5v-4h-446q3 -112 68 -174t161 -62q56 0 106.5 21t84.5 55v-26q-30 -28 -80.5 -49t-110.5 -21q-107 0 -178 71t-71 195q0 113 67.5 186.5t172.5 73.5z
M110 266h425q-5 98 -58.5 164t-146.5 66q-95 0 -156 -64.5t-64 -165.5z" />
    <glyph glyph-name="egrave.ss01" horiz-adv-x="626" 
d="M338 616h-20l-99 130h30zM330 516q106 0 166 -78.5t60 -187.5v-4h-446q3 -112 68 -174t161 -62q56 0 106.5 21t84.5 55v-26q-30 -28 -80.5 -49t-110.5 -21q-107 0 -178 71t-71 195q0 113 67.5 186.5t172.5 73.5zM110 266h425q-5 98 -58.5 164t-146.5 66q-95 0 -156 -64.5
t-64 -165.5z" />
    <glyph glyph-name="emacron.ss01" horiz-adv-x="626" 
d="M420 691v-20h-180v20h180zM330 516q106 0 166 -78.5t60 -187.5v-4h-446q3 -112 68 -174t161 -62q56 0 106.5 21t84.5 55v-26q-30 -28 -80.5 -49t-110.5 -21q-107 0 -178 71t-71 195q0 113 67.5 186.5t172.5 73.5zM110 266h425q-5 98 -58.5 164t-146.5 66
q-95 0 -156 -64.5t-64 -165.5z" />
    <glyph glyph-name="eogonek.ss01" horiz-adv-x="626" 
d="M330 516q106 0 166 -78.5t60 -187.5v-4h-446q3 -112 68 -174t161 -62q56 0 106.5 21t84.5 55v-26q-30 -28 -80.5 -49t-110.5 -21h-4q-34 -40 -29 -70t36 -30q35 0 61 26v-23q-23 -23 -61 -23q-43 0 -53 38.5t27 82.5q-99 8 -162.5 78t-63.5 187q0 113 67.5 186.5
t172.5 73.5zM110 266h425q-5 98 -58.5 164t-146.5 66q-95 0 -156 -64.5t-64 -165.5z" />
    <glyph glyph-name="uni1EBD.ss01" horiz-adv-x="626" 
d="M242 711q-32 0 -49.5 -17.5t-17.5 -38.5h-20q0 29 23 52.5t64 23.5q32 0 61.5 -20t57 -40t55.5 -20q32 0 49.5 17.5t17.5 38.5h20q0 -29 -23 -52.5t-64 -23.5q-32 0 -61.5 20t-57 40t-55.5 20zM330 516q106 0 166 -78.5t60 -187.5v-4h-446q3 -112 68 -174t161 -62
q56 0 106.5 21t84.5 55v-26q-30 -28 -80.5 -49t-110.5 -21q-107 0 -178 71t-71 195q0 113 67.5 186.5t172.5 73.5zM110 266h425q-5 98 -58.5 164t-146.5 66q-95 0 -156 -64.5t-64 -165.5z" />
    <glyph glyph-name="g.ss01" 
d="M599 506h19v-470q0 -139 -67 -207.5t-182 -68.5q-21 0 -42 2.5t-38 6.5t-35 10t-30 11t-26.5 12t-21 11t-17 10t-11.5 7v24q30 -24 90.5 -49t130.5 -25q106 0 167.5 63t61.5 193v117q-30 -73 -96 -118t-147 -45q-109 0 -187 77.5t-78 186.5q0 108 78 185t187 77
q81 0 147 -45t96 -117zM355 10q100 0 171.5 71.5t71.5 172.5q0 100 -71.5 171t-171.5 71q-101 0 -173 -71t-72 -171q0 -101 72 -172.5t173 -71.5z" />
    <glyph glyph-name="gbreve.ss01" 
d="M365 616q-64 0 -100 40t-36 90h20q0 -41 29.5 -75.5t86.5 -34.5t86.5 34.5t29.5 75.5h20q0 -50 -36 -90t-100 -40zM599 506h19v-470q0 -139 -67 -207.5t-182 -68.5q-21 0 -42 2.5t-38 6.5t-35 10t-30 11t-26.5 12t-21 11t-17 10t-11.5 7v24q30 -24 90.5 -49t130.5 -25
q106 0 167.5 63t61.5 193v117q-30 -73 -96 -118t-147 -45q-109 0 -187 77.5t-78 186.5q0 108 78 185t187 77q81 0 147 -45t96 -117zM355 10q100 0 171.5 71.5t71.5 172.5q0 100 -71.5 171t-171.5 71q-101 0 -173 -71t-72 -171q0 -101 72 -172.5t173 -71.5z" />
    <glyph glyph-name="gcommaaccent.ss01" 
d="M409 766l-29 -150h-31l39 150h21zM599 506h19v-470q0 -139 -67 -207.5t-182 -68.5q-21 0 -42 2.5t-38 6.5t-35 10t-30 11t-26.5 12t-21 11t-17 10t-11.5 7v24q30 -24 90.5 -49t130.5 -25q106 0 167.5 63t61.5 193v117q-30 -73 -96 -118t-147 -45q-109 0 -187 77.5
t-78 186.5q0 108 78 185t187 77q81 0 147 -45t96 -117zM355 10q100 0 171.5 71.5t71.5 172.5q0 100 -71.5 171t-171.5 71q-101 0 -173 -71t-72 -171q0 -101 72 -172.5t173 -71.5z" />
    <glyph glyph-name="gdotaccent.ss01" 
d="M365 649q-11 0 -18 7.5t-7 17.5t7 17.5t18 7.5t18 -7.5t7 -17.5t-7 -17.5t-18 -7.5zM599 506h19v-470q0 -139 -67 -207.5t-182 -68.5q-21 0 -42 2.5t-38 6.5t-35 10t-30 11t-26.5 12t-21 11t-17 10t-11.5 7v24q30 -24 90.5 -49t130.5 -25q106 0 167.5 63t61.5 193v117
q-30 -73 -96 -118t-147 -45q-109 0 -187 77.5t-78 186.5q0 108 78 185t187 77q81 0 147 -45t96 -117zM355 10q100 0 171.5 71.5t71.5 172.5q0 100 -71.5 171t-171.5 71q-101 0 -173 -71t-72 -171q0 -101 72 -172.5t173 -71.5z" />
    <glyph glyph-name="i.ss01" horiz-adv-x="170" 
d="M92 616q-10 0 -17.5 7t-7.5 18t7.5 18t17.5 7t17.5 -7t7.5 -18t-7.5 -18t-17.5 -7zM110 506v-506h-20v486h-30v20h50z" />
    <glyph glyph-name="dotlessi.ss01" horiz-adv-x="170" 
d="M110 506v-506h-20v486h-30v20h50z" />
    <glyph glyph-name="iacute.ss01" horiz-adv-x="170" 
d="M171 746h30l-99 -130h-20zM110 506v-506h-20v486h-30v20h50z" />
    <glyph glyph-name="icircumflex.ss01" horiz-adv-x="170" 
d="M105 746l99 -130h-25l-86 114l-87 -114h-25l99 130h25zM60 486v20h50v-506h-20v486h-30z" />
    <glyph glyph-name="idieresis.ss01" horiz-adv-x="170" 
d="M27 615q-11 0 -18 7.5t-7 17.5t7 17.5t18 7.5t18 -7.5t7 -17.5t-7 -17.5t-18 -7.5zM157 615q-11 0 -18 7.5t-7 17.5t7 17.5t18 7.5t18 -7.5t7 -17.5t-7 -17.5t-18 -7.5zM110 506v-506h-20v486h-30v20h50z" />
    <glyph glyph-name="i.loclTRK.ss01" horiz-adv-x="170" 
d="M92 615q-10 0 -17.5 7.5t-7.5 17.5t7.5 17.5t17.5 7.5t17.5 -7.5t7.5 -17.5t-7.5 -17.5t-17.5 -7.5zM110 506v-506h-20v486h-30v20h50z" />
    <glyph glyph-name="igrave.ss01" horiz-adv-x="170" 
d="M12 746l89 -130h-20l-99 130h30zM110 506v-506h-20v486h-30v20h50z" />
    <glyph glyph-name="imacron.ss01" horiz-adv-x="170" 
d="M3 691h180v-20h-180v20zM110 506v-506h-20v486h-30v20h50z" />
    <glyph glyph-name="iogonek.ss01" horiz-adv-x="170" 
d="M92 616q-10 0 -17.5 7t-7.5 18t7.5 18t17.5 7t17.5 -7t7.5 -18t-7.5 -18t-17.5 -7zM108 -110q35 0 61 26v-23q-23 -23 -61 -23q-46 0 -54 42t36 88v486h-30v20h50v-506q-28 -27 -35.5 -53.5t2.5 -41.5t31 -15z" />
    <glyph glyph-name="j.ss01" horiz-adv-x="166" 
d="M101 613q-11 0 -18 7.5t-7 17.5t7 17.5t18 7.5t18 -7.5t7 -17.5t-7 -17.5t-18 -7.5zM125 506v-506l-74 -230h-21l75 233v483h-30v20h50z" />
    <glyph glyph-name="l.ss01" horiz-adv-x="180" 
d="M120 750v-750h-20v730h-30v20h50z" />
    <glyph glyph-name="lacute.ss01" horiz-adv-x="180" 
d="M179 990h30l-99 -130h-20zM120 750v-750h-20v730h-30v20h50z" />
    <glyph glyph-name="lcaron.ss01" horiz-adv-x="180" 
d="M120 750v-750h-20v730h-30v20h50zM198 710h31l-39 -150h-21z" />
    <glyph glyph-name="lcommaaccent.ss01" horiz-adv-x="180" 
d="M120 750v-750h-20v730h-30v20h50zM95 -60h31l-39 -150h-21z" />
    <glyph glyph-name="lslash.ss01" horiz-adv-x="180" 
d="M226 415v-25l-106 -80v-310h-20v295l-106 -80v25l106 80v410h-30v20h50v-415z" />
    </font>
</defs>
</svg>
