<svg width="87" height="128" viewBox="26 15 87 128" xmlns="http://www.w3.org/2000/svg" xmlns:xlink="http://www.w3.org/1999/xlink">
	<defs>
		<path id="a" d="M20.586.018H.094V27.96h20.492V.02z"/>
		<path id="c" d="M.435 24.387h11.573V.267H.435z"/>
	</defs>
	<g fill="none" fill-rule="evenodd">
		<path d="M37.025 39.114c-3.207 0-5.49-2.464-5.49-5.405 0-2.943 2.283-5.406 5.49-5.406 3.17 0 5.418 2.463 5.418 5.405 0 2.94-2.248 5.404-5.418 5.404zm5.897-11.25c-.958-2.133-3.465-3.825-6.67-3.825-5.345 0-9.252 4.337-9.252 9.67 0 5.33 3.907 9.668 9.25 9.668 3.207 0 5.714-1.69 6.672-3.823l.258 3.456h4.312V24.408H43.18l-.258 3.456z" fill="#000"/>
		<g transform="translate(59.3 15.42)">
			<path d="M10.56 12.887c3.17 0 5.493 2.463 5.493 5.404 0 2.943-2.322 5.406-5.492 5.406s-5.416-2.463-5.416-5.405c0-2.94 2.247-5.403 5.417-5.403zm-5.933 11.25c.995 2.133 3.502 3.824 6.708 3.824 5.344 0 9.25-4.338 9.25-9.67 0-5.33-3.906-9.67-9.25-9.67-3.206 0-5.713 1.693-6.708 3.825V.018H.094v27.575h4.312l.22-3.456z" fill="#000"/>
		</g>
		<path d="M70.05 88.463c-3.206 0-5.49-2.463-5.49-5.405 0-2.94 2.284-5.404 5.49-5.404 3.17 0 5.418 2.463 5.418 5.404 0 2.942-2.248 5.405-5.418 5.405m0-15.074c-5.86 0-10.025 4.337-10.025 9.668 0 5.33 4.165 9.67 10.025 9.67 5.824 0 9.95-4.34 9.95-9.67s-4.126-9.67-9.95-9.67M108.236 73.756V82.8c0 3.126-1.917 5.663-5.16 5.663-2.506 0-4.09-1.47-4.09-5.81v-8.897H94.45V84.75c0 5.074 2.36 7.978 6.857 7.978 2.838 0 5.16-1.324 6.966-3.125l.22 2.757h4.276V73.756h-4.534z" fill="#000"/>
		<g transform="translate(34.86 117.32)">
			<path fill="#000" d="M7.88.268H3.346v5.515H.436v4.265h2.91v14.34H7.88v-14.34h4.128V5.783H7.88"/>
		</g>
	</g>
</svg>