<svg class="svg-logo" width="179px" height="33px" viewBox="0 0 179 33" version="1.1" xmlns="http://www.w3.org/2000/svg" xmlns:xlink="http://www.w3.org/1999/xlink">
    <defs>
        <polygon id="path-1" points="0 32.5506366 178.693143 32.5506366 178.693143 -0.000241463415 0 -0.000241463415"></polygon>
    </defs>
    <g id="Page-1" stroke="none" stroke-width="1" fill="none" fill-rule="evenodd">
        <g id="HOME" transform="translate(-87.000000, -135.000000)">
            <g id="LOGO" transform="translate(87.000000, 135.000000)">
                <path d="M49.9399612,7.66308293 C52.7680013,7.66308293 54.9791308,9.16900976 55.8245862,11.068522 L56.0515326,7.99066829 L59.8560817,7.99066829 L59.8560817,24.5606927 L56.0515326,24.5606927 L55.8245862,21.4820341 C54.9791308,23.3815463 52.7680013,24.8874732 49.9399612,24.8874732 C45.225229,24.8874732 41.779479,21.0232537 41.779479,16.275278 C41.779479,11.5273024 45.225229,7.66308293 49.9399612,7.66308293 L49.9399612,7.66308293 Z M50.6223987,21.0892537 C53.4184746,21.0892537 55.4018585,18.8951561 55.4018585,16.275278 C55.4018585,13.6554 53.4184746,11.4613024 50.6223987,11.4613024 C47.7943585,11.4613024 45.7782112,13.6554 45.7782112,16.275278 C45.7782112,18.8951561 47.7943585,21.0892537 50.6223987,21.0892537 L50.6223987,21.0892537 Z" id="Fill-1" fill="#221F20"></path>
                <path d="M65.5462839,19.5500049 C65.7740295,20.7283463 67.0414134,21.5147122 68.992833,21.5147122 C70.357708,21.5147122 71.5931277,21.0237366 71.5931277,20.0087854 C71.5931277,18.6984439 70.2929804,18.4368585 66.9766857,17.3559073 C64.1806098,16.5043463 62.0669714,15.1296146 62.0669714,12.4437366 C62.0669714,9.46407805 65.0260652,7.66276098 68.1473777,7.66276098 C72.2108375,7.66276098 74.6497125,9.95585854 74.7472036,12.738322 L70.7484714,12.738322 C70.6509804,11.5269805 69.3500339,11.0030049 68.276833,11.0030049 C67.2691589,11.0030049 66.0665027,11.4939805 66.0665027,12.4437366 C66.0665027,13.4916878 67.2363955,13.721078 70.715708,14.9324195 C74.3564402,16.1775659 75.6246232,17.978078 75.6246232,20.1069805 C75.6246232,23.1848341 72.6335652,24.8879561 68.8945429,24.8879561 C64.733592,24.8879561 61.7744982,23.119639 61.5467527,19.5500049 L65.5462839,19.5500049 Z" id="Fill-3" fill="#221F20"></path>
                <path d="M80.0152375,19.5500049 C80.242983,20.7283463 81.510367,21.5147122 83.4617866,21.5147122 C84.8266616,21.5147122 86.0620812,21.0237366 86.0620812,20.0087854 C86.0620812,18.6984439 84.7619339,18.4368585 81.4456393,17.3559073 C78.6495634,16.5043463 76.535925,15.1296146 76.535925,12.4437366 C76.535925,9.46407805 79.4950187,7.66276098 82.6163312,7.66276098 C86.6805902,7.66276098 89.1186661,9.95585854 89.2161571,12.738322 L85.217425,12.738322 C85.1199339,11.5269805 83.8189875,11.0030049 82.7457866,11.0030049 C81.7381125,11.0030049 80.5354562,11.4939805 80.5354562,12.4437366 C80.5354562,13.4916878 81.7053491,13.721078 85.1846616,14.9324195 C88.8253937,16.1775659 90.0935768,17.978078 90.0935768,20.1069805 C90.0935768,23.1848341 87.1025187,24.8879561 83.3634964,24.8879561 C79.2025455,24.8879561 76.2434518,23.119639 76.0157062,19.5500049 L80.0152375,19.5500049 Z" id="Fill-5" fill="#221F20"></path>
                <path d="M107.357967,17.519861 L94.9062795,17.519861 C95.0029714,19.5497634 96.5316634,21.3180805 99.4252304,21.3180805 C101.506105,21.3180805 102.839016,20.2049341 103.489489,19.0587878 L107.000766,19.4515683 C106.512512,21.7116659 103.944181,24.8877146 99.392467,24.8877146 C94.3205339,24.8877146 90.9067482,21.0234951 90.9067482,16.1773244 C90.9067482,11.559739 94.1583152,7.66332439 99.1327571,7.66332439 C104.20469,7.66332439 107.357967,11.7239341 107.357967,16.4719098 L107.357967,17.519861 Z M94.9062795,14.7357878 L103.359235,14.7357878 C103.22898,12.9022756 101.635561,11.2321537 99.1327571,11.2321537 C96.6938821,11.2321537 95.0029714,12.8370805 94.9062795,14.7357878 L94.9062795,14.7357878 Z" id="Fill-7" fill="#221F20"></path>
                <path d="M134.409022,14.1470195 L134.409022,24.5605317 L130.41029,24.5605317 L130.41029,15.5225561 C130.41029,13.0990683 129.402616,11.4619463 127.48396,11.4619463 C125.110612,11.4619463 123.68021,14.0158244 123.582719,17.4212634 L123.582719,24.5605317 L119.583188,24.5605317 L119.583188,15.5225561 C119.583188,13.0990683 118.575513,11.4619463 116.657656,11.4619463 C114.284308,11.4619463 112.853906,14.0158244 112.723652,17.4212634 L112.723652,24.5605317 L108.72492,24.5605317 L108.72492,7.99050732 L112.495906,7.99050732 L112.690888,10.3158 C114.12129,8.77606829 115.975219,7.66292195 118.185549,7.66292195 C120.591661,7.66292195 122.217045,8.90726341 122.996973,10.9049707 C124.525665,9.07065366 126.541013,7.66292195 129.044616,7.66292195 C132.555893,7.66292195 134.409022,10.3479951 134.409022,14.1470195" id="Fill-9" fill="#221F20"></path>
                <path d="M146.114823,24.8877146 C143.286783,24.8877146 141.075654,23.3817878 140.197435,21.4822756 L140.002453,24.5601293 L136.198703,24.5601293 L136.198703,8.04878049e-05 L140.197435,8.04878049e-05 L140.197435,11.0687634 C141.075654,9.16925122 143.286783,7.66332439 146.114823,7.66332439 C150.828756,7.66332439 154.275305,11.5275439 154.275305,16.2755195 C154.275305,21.0234951 150.828756,24.8877146 146.114823,24.8877146 M145.431587,11.4615439 C142.63631,11.4615439 140.652926,13.6556415 140.652926,16.2755195 C140.652926,18.8953976 142.63631,21.0894951 145.431587,21.0894951 C148.227663,21.0894951 150.276573,18.8953976 150.276573,16.2755195 C150.276573,13.6556415 148.227663,11.4615439 145.431587,11.4615439" id="Fill-11" fill="#221F20"></path>
                <mask id="mask-2" fill="white">
                    <use xlink:href="#path-1"></use>
                </mask>
                <g id="Clip-14"></g>
                <polygon id="Fill-13" fill="#221F20" mask="url(#mask-2)" points="155.414353 24.5598073 159.413884 24.5598073 159.413884 -0.000241463415 155.414353 -0.000241463415"></polygon>
                <polygon id="Fill-15" fill="#221F20" mask="url(#mask-2)" points="164.745846 7.9905878 169.590034 19.5502463 174.402257 7.9905878 178.693462 7.9905878 168.290686 32.5506366 164.065806 32.5506366 167.444431 24.5276122 160.454641 7.9905878"></polygon>
                <path d="M12.8296652,0.0132 L0,12.2248098 L0,19.4429561 L12.8248705,32.5503951 L33.846183,19.5500049 L33.846183,12.1193707 L12.8296652,0.0132 Z M32.4341607,18.2477122 L13.6399598,13.7323463 L13.6399598,2.1179561 L32.4341607,12.9443707 L32.4341607,18.2477122 Z M12.2279375,29.9144195 L1.95941071,19.4204195 L12.2279375,15.3662488 L12.2279375,29.9144195 Z M13.6399598,15.1948098 L31.3218036,19.4421512 L13.6399598,30.3780293 L13.6399598,15.1948098 Z M12.2279375,2.54212683 L12.2279375,13.8393951 L1.41122321,18.1092732 L1.41122321,12.8381268 L12.2279375,2.54212683 Z" id="Fill-16" fill="#221F20" mask="url(#mask-2)"></path>
            </g>
        </g>
    </g>
</svg>