<svg class="menu-icon" version="1.1" xmlns="http://www.w3.org/2000/svg" xmlns:xlink="http://www.w3.org/1999/xlink" x="0px" y="0px"
	 viewBox="0 0 63 63" xml:space="preserve">
<style type="text/css">
	.st0_menu{fill:#979797;}
	.st1_menu{fill:#979797;}
</style>
<g class="menu-rectangle" id="Layer_1">
	<g id="path-1_1_">
		<path class="st0_menu" d="M64,64H-1V-1h65V64z M1.1,61.9h60.9V1.1H1.1V61.9z"/>
	</g>
</g>
<g id="Layer_2">
	<path class="st1_menu menu-letter letter-m" d="M23.1,17.4h-0.9V8.5l-3.1,8.9h-0.8l-3-8.8v8.8h-0.9V8h1.6l2.7,7.9L21.5,8h1.6V17.4z"/>
	<path class="st1_menu menu-letter letter-e" d="M33.8,17.4H28V8.1h5.8v0.9h-4.9v3.4h4.9v0.9h-4.9v3.4h4.9V17.4z"/>
	<path class="st1_menu menu-letter letter-n" d="M36.6,35.1h-1.4l-4.4-8.5v8.5h-0.9v-9.3h1.4l4.4,8.5v-8.5h0.9V35.1z"/>
	<path class="st1_menu menu-letter letter-u" d="M47.7,50.6l-1.2,1.2c-0.2,0.2-0.4,0.3-0.7,0.3h-2.4c-0.3,0-0.5-0.1-0.7-0.3l-1.1-1.2c-0.2-0.2-0.3-0.4-0.3-0.7
		v-7.2h0.9v7.1c0,0.1,0,0.1,0.1,0.2l1.1,1.1c0.1,0.1,0.1,0.1,0.2,0.1h2.2c0.1,0,0.1,0,0.2-0.1l1.1-1.1c0.1-0.1,0.1-0.1,0.1-0.2v-7.1
		H48v7.2C48,50.2,47.9,50.4,47.7,50.6z"/>
</g>
</svg>
