<svg width="61px" height="61px" viewBox="0 0 61 61" version="1.1" xmlns="http://www.w3.org/2000/svg" xmlns:xlink="http://www.w3.org/1999/xlink">
    <defs>
        <rect id="menu-path-1" x="0" y="0" width="61" height="61"></rect>
        <mask id="menu-mask" maskContentUnits="userSpaceOnUse" maskUnits="objectBoundingBox" x="0" y="0" width="61" height="61" fill="white">
            <use xlink:href="#menu-path-1"></use>
        </mask>
    </defs>
    <g stroke="none" stroke-width="1" fill="none" fill-rule="evenodd">
        <g id="LANDING" transform="translate(-1330.000000, -107.000000)">
            <g id="Menu" transform="translate(1330.000000, 107.000000)">
                <use id="menu-rectangle" stroke="#FFFFFF" mask="url(#menu-mask)" stroke-width="2" xlink:href="#menu-path-1"></use>
                <polygon class="menu-letter letter-m" fill="#FFFFFF" points="22.1197647 18.3823529 22.1197647 9.04435294 20.5237647 9.04435294 17.8077647 16.9263529 15.1477647 9.04435294 13.5657647 9.04435294 13.5657647 18.3823529 14.4337647 18.3823529 14.4337647 9.60435294 17.3877647 18.3823529 18.2137647 18.3823529 21.2657647 9.50635294 21.2657647 18.3823529"></polygon>
                <polygon class="menu-letter letter-e" fill="#FFFFFF" points="32.8006878 18.3823529 32.8006878 17.5143529 27.8726878 17.5143529 27.8726878 14.1543529 32.8006878 14.1543529 32.8006878 13.2863529 27.8726878 13.2863529 27.8726878 9.91235294 32.8006878 9.91235294 32.8006878 9.04435294 27.0046878 9.04435294 27.0046878 18.3823529"></polygon>
                <polygon class="menu-letter letter-n" fill="#FFFFFF" points="35.5967059 36.1176471 35.5967059 26.7796471 34.7287059 26.7796471 34.7287059 35.2916471 30.3467059 26.7796471 28.9187059 26.7796471 28.9187059 36.1176471 29.7867059 36.1176471 29.7867059 27.6196471 34.1827059 36.1176471"></polygon>
                <path class="menu-letter letter-u" d="M47.0204706,50.9168235 L47.0204706,43.7208235 L46.1384706,43.7208235 L46.1384706,50.8328235 C46.1384706,50.9074906 46.1104709,50.9728232 46.0544706,51.0288235 L44.9624706,52.1068235 C44.9064703,52.1628238 44.8411376,52.1908235 44.7664706,52.1908235 L42.5404706,52.1908235 C42.4658035,52.1908235 42.4004709,52.1628238 42.3444706,52.1068235 L41.2944706,51.0288235 C41.2384703,50.9728232 41.2104706,50.9074906 41.2104706,50.8328235 L41.2104706,43.7208235 L40.3284706,43.7208235 L40.3284706,50.9028235 C40.3284706,51.1548248 40.421803,51.3834892 40.6084706,51.5888235 L41.7564706,52.7648235 C41.9524716,52.9608245 42.1858026,53.0588235 42.4564706,53.0588235 L44.8644706,53.0588235 C45.1351386,53.0588235 45.363803,52.9654911 45.5504706,52.7788235 L46.7264706,51.6168235 C46.9224716,51.4208225 47.0204706,51.1874915 47.0204706,50.9168235 Z" fill="#FFFFFF"></path>
            </g>
        </g>
    </g>
</svg>