<svg xmlns="http://www.w3.org/2000/svg" viewBox="0 0 629.61 363.5">
  <defs>
    <style>
      .csl5-1,.csl5-5,.csl5-6{fill:none;}.csl5-1{stroke:#90d4d9;}.csl5-1,.csl5-3,.csl5-5,.csl5-6{stroke-linecap:round;stroke-linejoin:round;}.csl5-2{fill:#5e5e5e;}.csl5-3,.csl5-4{fill:#fff;}.csl5-3,.csl5-5,.csl5-6{stroke:#000;}.csl5-3,.csl5-5{stroke-width:0.5px;}.csl5-6{stroke-width:0.25px;}
    </style>
  </defs>
  <title>
    Asset 5
  </title>
  <g id="Layer_2" data-name="Layer 2">
    <g id="Layer_1-2" data-name="Layer 1">
      <path class="csl5-1" d="M446.53 157.32l-78.37-45.25M190.03 141.73l35.06-20.25"/>
      <path class="csl5-2" d="M628.13 181.91c.24.35.52.31.87.26s.81-.16.53-.58-.52-.31-.87-.26-.82.16-.53.58zM617.3 188.16c.24.35.52.31.87.26s.81-.16.53-.58-.52-.31-.87-.26-.83.16-.53.58zM606.47 194.41c.24.35.52.31.87.26s.81-.16.53-.58-.52-.31-.87-.26-.82.17-.53.58zM595.64 200.66c.24.35.52.31.87.26s.81-.16.53-.58-.52-.31-.87-.26-.81.16-.53.58zM584.81 206.91c.24.35.52.31.87.26s.81-.16.53-.58-.52-.31-.87-.26-.81.16-.53.58zM574 213.17c.24.35.52.31.87.26s.81-.16.53-.58-.52-.31-.87-.26-.83.15-.53.58zM563.16 219.42c.24.35.52.31.87.26s.81-.16.53-.58-.52-.31-.87-.26-.82.16-.53.58zM552.33 225.67c.24.35.52.31.87.26s.81-.16.53-.58-.52-.31-.87-.26-.86.16-.53.58zM541.5 231.92c.24.35.52.31.87.26s.81-.16.53-.58-.52-.31-.87-.26-.82.16-.53.58zM530.67 238.17c.24.35.52.31.87.26s.81-.16.53-.58-.52-.31-.87-.26-.81.16-.53.58zM519.84 244.42c.24.35.52.31.87.26s.81-.16.53-.58-.52-.31-.87-.26-.81.16-.53.58zM509 250.68c.24.35.52.31.87.26s.81-.16.53-.58-.52-.31-.87-.26-.8.15-.53.58zM498.19 256.93c.24.35.52.31.87.26s.81-.16.53-.58-.52-.31-.87-.26-.82.16-.53.58zM487.36 263.18c.24.35.52.31.87.26s.81-.16.53-.58-.52-.31-.87-.26-.82.16-.53.58zM476.53 269.43c.24.35.52.31.87.26s.81-.16.53-.58-.52-.31-.87-.26-.81.15-.53.58zM465.7 275.68c.24.35.52.31.87.26s.81-.16.53-.58-.52-.31-.87-.26-.81.16-.53.58zM454.87 281.93c.24.35.52.31.87.26s.81-.16.53-.58-.52-.31-.87-.26-.81.16-.53.58zM444 288.19c.24.35.52.31.87.26s.81-.16.53-.58-.52-.31-.87-.26-.77.15-.53.58zM433.22 294.44c.24.35.52.31.87.26s.81-.16.53-.58-.52-.31-.87-.26-.82.14-.53.58zM422.39 300.69c.24.35.52.31.87.26s.81-.16.53-.58-.52-.31-.87-.26-.82.16-.53.58zM411.56 306.94c.24.35.52.31.87.26s.81-.16.53-.58-.52-.31-.87-.26-.81.16-.53.58zM400.73 313.19c.24.35.52.31.87.26s.81-.16.53-.58-.52-.31-.87-.26-.81.16-.53.58zM389.91 319.44c.24.35.52.31.87.26s.81-.16.53-.58-.52-.31-.87-.26-.82.14-.53.58zM379.08 325.7c.24.35.52.31.87.26s.81-.16.53-.58-.52-.31-.87-.26-.82.15-.53.58zM368.25 331.95c.24.35.52.31.87.26s.81-.16.53-.58-.52-.31-.87-.26-.78.16-.53.58zM357.42 338.2c.24.35.52.31.87.26s.81-.16.53-.58-.52-.31-.87-.26-.82.16-.53.58zM346.59 344.45c.24.35.52.31.87.26s.81-.16.53-.58-.52-.31-.87-.26-.81.13-.53.58zM335.76 350.7c.24.35.52.31.87.26s.81-.16.53-.58-.52-.31-.87-.26-.81.16-.53.58zM324.94 357c.24.35.52.31.87.26s.81-.16.53-.58-.52-.31-.87-.26-.82.11-.53.58zM314.11 363.21c.24.35.52.31.87.26s.81-.16.53-.58-.52-.31-.87-.26-.82.15-.53.58zM617.3 175.66c.24.35.52.31.87.26s.81-.16.53-.58-.52-.31-.87-.26-.83.15-.53.58zM606.47 181.91c.24.35.52.31.87.26s.81-.16.53-.58-.52-.31-.87-.26-.82.16-.53.58zM595.64 188.16c.24.35.52.31.87.26s.81-.16.53-.58-.52-.31-.87-.26-.81.16-.53.58zM584.81 194.41c.24.35.52.31.87.26s.81-.16.53-.58-.52-.31-.87-.26-.81.17-.53.58zM574 200.66c.24.35.52.31.87.26s.81-.16.53-.58-.52-.31-.87-.26-.83.16-.53.58zM563.16 206.91c.24.35.52.31.87.26s.81-.16.53-.58-.52-.31-.87-.26-.82.16-.53.58zM552.33 213.17c.24.35.52.31.87.26s.81-.16.53-.58-.52-.31-.87-.26-.86.15-.53.58zM541.5 219.42c.24.35.52.31.87.26s.81-.16.53-.58-.52-.31-.87-.26-.82.16-.53.58zM530.67 225.67c.24.35.52.31.87.26s.81-.16.53-.58-.52-.31-.87-.26-.81.16-.53.58zM519.84 231.92c.24.35.52.31.87.26s.81-.16.53-.58-.52-.31-.87-.26-.81.16-.53.58zM509 238.17c.24.35.52.31.87.26s.81-.16.53-.58-.52-.31-.87-.26-.8.16-.53.58zM498.19 244.42c.24.35.52.31.87.26s.81-.16.53-.58-.52-.31-.87-.26-.82.16-.53.58zM487.36 250.68c.24.35.52.31.87.26s.81-.16.53-.58-.52-.31-.87-.26-.82.15-.53.58zM476.53 256.93c.24.35.52.31.87.26s.81-.16.53-.58-.52-.31-.87-.26-.81.16-.53.58zM465.7 263.18c.24.35.52.31.87.26s.81-.16.53-.58-.52-.31-.87-.26-.81.16-.53.58zM454.87 269.43c.24.35.52.31.87.26s.81-.16.53-.58-.52-.31-.87-.26-.81.15-.53.58zM444 275.68c.24.35.52.31.87.26s.81-.16.53-.58-.52-.31-.87-.26-.77.16-.53.58zM433.22 281.93c.24.35.52.31.87.26s.81-.16.53-.58-.52-.31-.87-.26-.82.16-.53.58zM422.39 288.19c.24.35.52.31.87.26s.81-.16.53-.58-.52-.31-.87-.26-.82.15-.53.58zM411.56 294.44c.24.35.52.31.87.26s.81-.16.53-.58-.52-.31-.87-.26-.81.14-.53.58zM400.73 300.69c.24.35.52.31.87.26s.81-.16.53-.58-.52-.31-.87-.26-.81.16-.53.58zM389.91 306.94c.24.35.52.31.87.26s.81-.16.53-.58-.52-.31-.87-.26-.82.16-.53.58zM379.08 313.19c.24.35.52.31.87.26s.81-.16.53-.58-.52-.31-.87-.26-.82.16-.53.58zM368.25 319.44c.24.35.52.31.87.26s.81-.16.53-.58-.52-.31-.87-.26-.78.14-.53.58zM357.42 325.7c.24.35.52.31.87.26s.81-.16.53-.58-.52-.31-.87-.26-.82.15-.53.58zM346.59 331.95c.24.35.52.31.87.26s.81-.16.53-.58-.52-.31-.87-.26-.81.16-.53.58zM335.76 338.2c.24.35.52.31.87.26s.81-.16.53-.58-.52-.31-.87-.26-.81.16-.53.58zM324.94 344.45c.24.35.52.31.87.26s.81-.16.53-.58-.52-.31-.87-.26-.82.13-.53.58zM314.11 350.7c.24.35.52.31.87.26s.81-.16.53-.58-.52-.31-.87-.26-.82.16-.53.58zM303.28 357c.24.35.52.31.87.26s.81-.16.53-.58-.52-.31-.87-.26-.81.11-.53.58zM606.47 169.4c.24.35.52.31.87.26s.81-.16.53-.58-.52-.31-.87-.26-.82.18-.53.58zM595.64 175.66c.24.35.52.31.87.26s.81-.16.53-.58-.52-.31-.87-.26-.81.15-.53.58zM584.81 181.91c.24.35.52.31.87.26s.81-.16.53-.58-.52-.31-.87-.26-.81.16-.53.58zM574 188.16c.24.35.52.31.87.26s.81-.16.53-.58-.52-.31-.87-.26-.83.16-.53.58zM563.16 194.41c.24.35.52.31.87.26s.81-.16.53-.58-.52-.31-.87-.26-.82.17-.53.58zM552.33 200.66c.24.35.52.31.87.26s.81-.16.53-.58-.52-.31-.87-.26-.86.16-.53.58zM541.5 206.91c.24.35.52.31.87.26s.81-.16.53-.58-.52-.31-.87-.26-.82.16-.53.58zM530.67 213.17c.24.35.52.31.87.26s.81-.16.53-.58-.52-.31-.87-.26-.81.15-.53.58zM519.84 219.42c.24.35.52.31.87.26s.81-.16.53-.58-.52-.31-.87-.26-.81.16-.53.58zM509 225.67c.24.35.52.31.87.26s.81-.16.53-.58-.52-.31-.87-.26-.8.16-.53.58zM498.19 231.92c.24.35.52.31.87.26s.81-.16.53-.58-.52-.31-.87-.26-.82.16-.53.58zM487.36 238.17c.24.35.52.31.87.26s.81-.16.53-.58-.52-.31-.87-.26-.82.16-.53.58zM476.53 244.42c.24.35.52.31.87.26s.81-.16.53-.58-.52-.31-.87-.26-.81.16-.53.58zM465.7 250.68c.24.35.52.31.87.26s.81-.16.53-.58-.52-.31-.87-.26-.81.15-.53.58zM454.87 256.93c.24.35.52.31.87.26s.81-.16.53-.58-.52-.31-.87-.26-.81.16-.53.58zM444 263.18c.24.35.52.31.87.26s.81-.16.53-.58-.52-.31-.87-.26-.77.16-.53.58zM433.22 269.43c.24.35.52.31.87.26s.81-.16.53-.58-.52-.31-.87-.26-.82.15-.53.58zM422.39 275.68c.24.35.52.31.87.26s.81-.16.53-.58-.52-.31-.87-.26-.82.16-.53.58zM411.56 281.93c.24.35.52.31.87.26s.81-.16.53-.58-.52-.31-.87-.26-.81.16-.53.58zM400.73 288.19c.24.35.52.31.87.26s.81-.16.53-.58-.52-.31-.87-.26-.81.15-.53.58zM389.91 294.44c.24.35.52.31.87.26s.81-.16.53-.58-.52-.31-.87-.26-.82.14-.53.58zM379.08 300.69c.24.35.52.31.87.26s.81-.16.53-.58-.52-.31-.87-.26-.82.16-.53.58zM368.25 306.94c.24.35.52.31.87.26s.81-.16.53-.58-.52-.31-.87-.26-.78.16-.53.58zM357.42 313.19c.24.35.52.31.87.26s.81-.16.53-.58-.52-.31-.87-.26-.82.16-.53.58zM346.59 319.44c.24.35.52.31.87.26s.81-.16.53-.58-.52-.31-.87-.26-.81.14-.53.58zM335.76 325.7c.24.35.52.31.87.26s.81-.16.53-.58-.52-.31-.87-.26-.81.15-.53.58zM324.94 331.95c.24.35.52.31.87.26s.81-.16.53-.58-.52-.31-.87-.26-.82.16-.53.58zM314.11 338.2c.24.35.52.31.87.26s.81-.16.53-.58-.52-.31-.87-.26-.82.16-.53.58zM303.28 344.45c.24.35.52.31.87.26s.81-.16.53-.58-.52-.31-.87-.26-.81.13-.53.58zM292.45 350.7c.24.35.52.31.87.26s.81-.16.53-.58-.52-.31-.87-.26-.81.16-.53.58zM595.64 163.15c.24.35.52.31.87.26s.81-.16.53-.58-.52-.31-.87-.26-.81.16-.53.58zM584.81 169.4c.24.35.52.31.87.26s.81-.16.53-.58-.52-.31-.87-.26-.81.18-.53.58zM574 175.66c.24.35.52.31.87.26s.81-.16.53-.58-.52-.31-.87-.26-.83.15-.53.58zM563.16 181.91c.24.35.52.31.87.26s.81-.16.53-.58-.52-.31-.87-.26-.82.16-.53.58zM552.33 188.16c.24.35.52.31.87.26s.81-.16.53-.58-.52-.31-.87-.26-.86.16-.53.58zM541.5 194.41c.24.35.52.31.87.26s.81-.16.53-.58-.52-.31-.87-.26-.82.17-.53.58zM530.67 200.66c.24.35.52.31.87.26s.81-.16.53-.58-.52-.31-.87-.26-.81.16-.53.58zM519.84 206.91c.24.35.52.31.87.26s.81-.16.53-.58-.52-.31-.87-.26-.81.16-.53.58zM509 213.17c.24.35.52.31.87.26s.81-.16.53-.58-.52-.31-.87-.26-.8.15-.53.58zM498.19 219.42c.24.35.52.31.87.26s.81-.16.53-.58-.52-.31-.87-.26-.82.16-.53.58zM487.36 225.67c.24.35.52.31.87.26s.81-.16.53-.58-.52-.31-.87-.26-.82.16-.53.58zM476.53 231.92c.24.35.52.31.87.26s.81-.16.53-.58-.52-.31-.87-.26-.81.16-.53.58zM465.7 238.17c.24.35.52.31.87.26s.81-.16.53-.58-.52-.31-.87-.26-.81.16-.53.58zM454.87 244.42c.24.35.52.31.87.26s.81-.16.53-.58-.52-.31-.87-.26-.81.16-.53.58zM444 250.68c.24.35.52.31.87.26s.81-.16.53-.58-.52-.31-.87-.26-.77.15-.53.58zM433.22 256.93c.24.35.52.31.87.26s.81-.16.53-.58-.52-.31-.87-.26-.82.16-.53.58zM422.39 263.18c.24.35.52.31.87.26s.81-.16.53-.58-.52-.31-.87-.26-.82.16-.53.58zM411.56 269.43c.24.35.52.31.87.26s.81-.16.53-.58-.52-.31-.87-.26-.81.15-.53.58zM400.73 275.68c.24.35.52.31.87.26s.81-.16.53-.58-.52-.31-.87-.26-.81.16-.53.58zM389.91 281.93c.24.35.52.31.87.26s.81-.16.53-.58-.52-.31-.87-.26-.82.16-.53.58zM379.08 288.19c.24.35.52.31.87.26s.81-.16.53-.58-.52-.31-.87-.26-.82.15-.53.58zM368.25 294.44c.24.35.52.31.87.26s.81-.16.53-.58-.52-.31-.87-.26-.78.14-.53.58zM357.42 300.69c.24.35.52.31.87.26s.81-.16.53-.58-.52-.31-.87-.26-.82.16-.53.58zM346.59 306.94c.24.35.52.31.87.26s.81-.16.53-.58-.52-.31-.87-.26-.81.16-.53.58zM335.76 313.19c.24.35.52.31.87.26s.81-.16.53-.58-.52-.31-.87-.26-.81.16-.53.58zM324.94 319.44c.24.35.52.31.87.26s.81-.16.53-.58-.52-.31-.87-.26-.82.14-.53.58zM314.11 325.7c.24.35.52.31.87.26s.81-.16.53-.58-.52-.31-.87-.26-.82.15-.53.58zM303.28 331.95c.24.35.52.31.87.26s.81-.16.53-.58-.52-.31-.87-.26-.81.16-.53.58zM292.45 338.2c.24.35.52.31.87.26s.81-.16.53-.58-.52-.31-.87-.26-.81.16-.53.58zM281.62 344.45c.24.35.52.31.87.26s.81-.16.53-.58-.52-.31-.87-.26-.81.13-.53.58zM584.81 156.9c.24.35.52.31.87.26s.81-.16.53-.58-.52-.31-.87-.26-.81.16-.53.58zM574 163.15c.24.35.52.31.87.26s.81-.16.53-.58-.52-.31-.87-.26-.83.16-.53.58zM563.16 169.4c.24.35.52.31.87.26s.81-.16.53-.58-.52-.31-.87-.26-.82.18-.53.58zM552.33 175.66c.24.35.52.31.87.26s.81-.16.53-.58-.52-.31-.87-.26-.86.15-.53.58zM541.5 181.91c.24.35.52.31.87.26s.81-.16.53-.58-.52-.31-.87-.26-.82.16-.53.58zM530.67 188.16c.24.35.52.31.87.26s.81-.16.53-.58-.52-.31-.87-.26-.81.16-.53.58zM519.84 194.41c.24.35.52.31.87.26s.81-.16.53-.58-.52-.31-.87-.26-.81.17-.53.58zM509 200.66c.24.35.52.31.87.26s.81-.16.53-.58-.52-.31-.87-.26-.8.16-.53.58zM498.19 206.91c.24.35.52.31.87.26s.81-.16.53-.58-.52-.31-.87-.26-.82.16-.53.58zM487.36 213.17c.24.35.52.31.87.26s.81-.16.53-.58-.52-.31-.87-.26-.82.15-.53.58zM476.53 219.42c.24.35.52.31.87.26s.81-.16.53-.58-.52-.31-.87-.26-.81.16-.53.58zM465.7 225.67c.24.35.52.31.87.26s.81-.16.53-.58-.52-.31-.87-.26-.81.16-.53.58zM454.87 231.92c.24.35.52.31.87.26s.81-.16.53-.58-.52-.31-.87-.26-.81.16-.53.58zM444 238.17c.24.35.52.31.87.26s.81-.16.53-.58-.52-.31-.87-.26-.77.16-.53.58zM433.22 244.42c.24.35.52.31.87.26s.81-.16.53-.58-.52-.31-.87-.26-.82.16-.53.58zM422.39 250.68c.24.35.52.31.87.26s.81-.16.53-.58-.52-.31-.87-.26-.82.15-.53.58zM411.56 256.93c.24.35.52.31.87.26s.81-.16.53-.58-.52-.31-.87-.26-.81.16-.53.58zM400.73 263.18c.24.35.52.31.87.26s.81-.16.53-.58-.52-.31-.87-.26-.81.16-.53.58zM389.91 269.43c.24.35.52.31.87.26s.81-.16.53-.58-.52-.31-.87-.26-.82.15-.53.58zM379.08 275.68c.24.35.52.31.87.26s.81-.16.53-.58-.52-.31-.87-.26-.82.16-.53.58zM368.25 281.93c.24.35.52.31.87.26s.81-.16.53-.58-.52-.31-.87-.26-.78.16-.53.58zM357.42 288.19c.24.35.52.31.87.26s.81-.16.53-.58-.52-.31-.87-.26-.82.15-.53.58zM346.59 294.44c.24.35.52.31.87.26s.81-.16.53-.58-.52-.31-.87-.26-.81.14-.53.58zM335.76 300.69c.24.35.52.31.87.26s.81-.16.53-.58-.52-.31-.87-.26-.81.16-.53.58zM324.94 306.94c.24.35.52.31.87.26s.81-.16.53-.58-.52-.31-.87-.26-.82.16-.53.58zM314.11 313.19c.24.35.52.31.87.26s.81-.16.53-.58-.52-.31-.87-.26-.82.16-.53.58zM303.28 319.44c.24.35.52.31.87.26s.81-.16.53-.58-.52-.31-.87-.26-.81.14-.53.58zM292.45 325.7c.24.35.52.31.87.26s.81-.16.53-.58-.52-.31-.87-.26-.81.15-.53.58zM281.62 331.95c.24.35.52.31.87.26s.81-.16.53-.58-.52-.31-.87-.26-.81.16-.53.58zM270.8 338.2c.24.35.52.31.87.26s.81-.16.53-.58-.52-.31-.87-.26-.82.16-.53.58zM574 150.65c.24.35.52.31.87.26s.81-.16.53-.58-.52-.31-.87-.26-.83.16-.53.58zM563.16 156.9c.24.35.52.31.87.26s.81-.16.53-.58-.52-.31-.87-.26-.82.16-.53.58zM552.33 163.15c.24.35.52.31.87.26s.81-.16.53-.58-.52-.31-.87-.26-.86.16-.53.58zM541.5 169.4c.24.35.52.31.87.26s.81-.16.53-.58-.52-.31-.87-.26-.82.18-.53.58zM530.67 175.66c.24.35.52.31.87.26s.81-.16.53-.58-.52-.31-.87-.26-.81.15-.53.58zM519.84 181.91c.24.35.52.31.87.26s.81-.16.53-.58-.52-.31-.87-.26-.81.16-.53.58zM509 188.16c.24.35.52.31.87.26s.81-.16.53-.58-.52-.31-.87-.26-.8.16-.53.58zM498.19 194.41c.24.35.52.31.87.26s.81-.16.53-.58-.52-.31-.87-.26-.82.17-.53.58zM487.36 200.66c.24.35.52.31.87.26s.81-.16.53-.58-.52-.31-.87-.26-.82.16-.53.58zM476.53 206.91c.24.35.52.31.87.26s.81-.16.53-.58-.52-.31-.87-.26-.81.16-.53.58zM465.7 213.17c.24.35.52.31.87.26s.81-.16.53-.58-.52-.31-.87-.26-.81.15-.53.58zM454.87 219.42c.24.35.52.31.87.26s.81-.16.53-.58-.52-.31-.87-.26-.81.16-.53.58zM444 225.67c.24.35.52.31.87.26s.81-.16.53-.58-.52-.31-.87-.26-.77.16-.53.58zM433.22 231.92c.24.35.52.31.87.26s.81-.16.53-.58-.52-.31-.87-.26-.82.16-.53.58zM422.39 238.17c.24.35.52.31.87.26s.81-.16.53-.58-.52-.31-.87-.26-.82.16-.53.58zM411.56 244.42c.24.35.52.31.87.26s.81-.16.53-.58-.52-.31-.87-.26-.81.16-.53.58zM400.73 250.68c.24.35.52.31.87.26s.81-.16.53-.58-.52-.31-.87-.26-.81.15-.53.58zM389.91 256.93c.24.35.52.31.87.26s.81-.16.53-.58-.52-.31-.87-.26-.82.16-.53.58zM379.08 263.18c.24.35.52.31.87.26s.81-.16.53-.58-.52-.31-.87-.26-.82.16-.53.58zM368.25 269.43c.24.35.52.31.87.26s.81-.16.53-.58-.52-.31-.87-.26-.78.15-.53.58zM357.42 275.68c.24.35.52.31.87.26s.81-.16.53-.58-.52-.31-.87-.26-.82.16-.53.58zM346.59 281.93c.24.35.52.31.87.26s.81-.16.53-.58-.52-.31-.87-.26-.81.16-.53.58zM335.76 288.19c.24.35.52.31.87.26s.81-.16.53-.58-.52-.31-.87-.26-.81.15-.53.58zM324.94 294.44c.24.35.52.31.87.26s.81-.16.53-.58-.52-.31-.87-.26-.82.14-.53.58zM314.11 300.69c.24.35.52.31.87.26s.81-.16.53-.58-.52-.31-.87-.26-.82.16-.53.58zM303.28 306.94c.24.35.52.31.87.26s.81-.16.53-.58-.52-.31-.87-.26-.81.16-.53.58zM292.45 313.19c.24.35.52.31.87.26s.81-.16.53-.58-.52-.31-.87-.26-.81.16-.53.58zM281.62 319.44c.24.35.52.31.87.26s.81-.16.53-.58-.52-.31-.87-.26-.81.14-.53.58zM270.8 325.7c.24.35.52.31.87.26s.81-.16.53-.58-.52-.31-.87-.26-.82.15-.53.58zM260 331.95c.24.35.52.31.87.26s.81-.16.53-.58-.52-.31-.87-.26-.85.16-.53.58zM563.16 144.4c.24.35.52.31.87.26s.81-.16.53-.58-.52-.31-.87-.26-.82.18-.53.58zM552.33 150.65c.24.35.52.31.87.26s.81-.16.53-.58-.52-.31-.87-.26-.86.16-.53.58zM541.5 156.9c.24.35.52.31.87.26s.81-.16.53-.58-.52-.31-.87-.26-.82.16-.53.58zM530.67 163.15c.24.35.52.31.87.26s.81-.16.53-.58-.52-.31-.87-.26-.81.16-.53.58zM519.84 169.4c.24.35.52.31.87.26s.81-.16.53-.58-.52-.31-.87-.26-.81.18-.53.58zM509 175.66c.24.35.52.31.87.26s.81-.16.53-.58-.52-.31-.87-.26-.8.15-.53.58zM498.19 181.91c.24.35.52.31.87.26s.81-.16.53-.58-.52-.31-.87-.26-.82.16-.53.58zM487.36 188.16c.24.35.52.31.87.26s.81-.16.53-.58-.52-.31-.87-.26-.82.16-.53.58zM476.53 194.41c.24.35.52.31.87.26s.81-.16.53-.58-.52-.31-.87-.26-.81.17-.53.58zM465.7 200.66c.24.35.52.31.87.26s.81-.16.53-.58-.52-.31-.87-.26-.81.16-.53.58zM454.87 206.91c.24.35.52.31.87.26s.81-.16.53-.58-.52-.31-.87-.26-.81.16-.53.58zM444 213.17c.24.35.52.31.87.26s.81-.16.53-.58-.52-.31-.87-.26-.77.15-.53.58zM433.22 219.42c.24.35.52.31.87.26s.81-.16.53-.58-.52-.31-.87-.26-.82.16-.53.58zM422.39 225.67c.24.35.52.31.87.26s.81-.16.53-.58-.52-.31-.87-.26-.82.16-.53.58zM411.56 231.92c.24.35.52.31.87.26s.81-.16.53-.58-.52-.31-.87-.26-.81.16-.53.58zM400.73 238.17c.24.35.52.31.87.26s.81-.16.53-.58-.52-.31-.87-.26-.81.16-.53.58zM389.91 244.42c.24.35.52.31.87.26s.81-.16.53-.58-.52-.31-.87-.26-.82.16-.53.58zM379.08 250.68c.24.35.52.31.87.26s.81-.16.53-.58-.52-.31-.87-.26-.82.15-.53.58zM368.25 256.93c.24.35.52.31.87.26s.81-.16.53-.58-.52-.31-.87-.26-.78.16-.53.58zM357.42 263.18c.24.35.52.31.87.26s.81-.16.53-.58-.52-.31-.87-.26-.82.16-.53.58zM346.59 269.43c.24.35.52.31.87.26s.81-.16.53-.58-.52-.31-.87-.26-.81.15-.53.58zM335.76 275.68c.24.35.52.31.87.26s.81-.16.53-.58-.52-.31-.87-.26-.81.16-.53.58zM324.94 281.93c.24.35.52.31.87.26s.81-.16.53-.58-.52-.31-.87-.26-.82.16-.53.58zM314.11 288.19c.24.35.52.31.87.26s.81-.16.53-.58-.52-.31-.87-.26-.82.15-.53.58zM303.28 294.44c.24.35.52.31.87.26s.81-.16.53-.58-.52-.31-.87-.26-.81.14-.53.58zM292.45 300.69c.24.35.52.31.87.26s.81-.16.53-.58-.52-.31-.87-.26-.81.16-.53.58zM281.62 306.94c.24.35.52.31.87.26s.81-.16.53-.58-.52-.31-.87-.26-.81.16-.53.58zM270.8 313.19c.24.35.52.31.87.26s.81-.16.53-.58-.52-.31-.87-.26-.82.16-.53.58zM260 319.44c.24.35.52.31.87.26s.81-.16.53-.58-.52-.31-.87-.26-.85.14-.53.58zM249.14 325.7c.24.35.52.31.87.26s.81-.16.53-.58-.52-.31-.87-.26-.82.15-.53.58zM552.33 138.15c.24.35.52.31.87.26s.81-.16.53-.58-.52-.31-.87-.26-.86.15-.53.58zM541.5 144.4c.24.35.52.31.87.26s.81-.16.53-.58-.52-.31-.87-.26-.82.18-.53.58zM530.67 150.65c.24.35.52.31.87.26s.81-.16.53-.58-.52-.31-.87-.26-.81.16-.53.58zM519.84 156.9c.24.35.52.31.87.26s.81-.16.53-.58-.52-.31-.87-.26-.81.16-.53.58zM509 163.15c.24.35.52.31.87.26s.81-.16.53-.58-.52-.31-.87-.26-.8.16-.53.58zM498.19 169.4c.24.35.52.31.87.26s.81-.16.53-.58-.52-.31-.87-.26-.82.18-.53.58zM487.36 175.66c.24.35.52.31.87.26s.81-.16.53-.58-.52-.31-.87-.26-.82.15-.53.58zM476.53 181.91c.24.35.52.31.87.26s.81-.16.53-.58-.52-.31-.87-.26-.81.16-.53.58zM465.7 188.16c.24.35.52.31.87.26s.81-.16.53-.58-.52-.31-.87-.26-.81.16-.53.58zM454.87 194.41c.24.35.52.31.87.26s.81-.16.53-.58-.52-.31-.87-.26-.81.17-.53.58zM444 200.66c.24.35.52.31.87.26s.81-.16.53-.58-.52-.31-.87-.26-.77.16-.53.58zM433.22 206.91c.24.35.52.31.87.26s.81-.16.53-.58-.52-.31-.87-.26-.82.16-.53.58zM422.39 213.17c.24.35.52.31.87.26s.81-.16.53-.58-.52-.31-.87-.26-.82.15-.53.58zM411.56 219.42c.24.35.52.31.87.26s.81-.16.53-.58-.52-.31-.87-.26-.81.16-.53.58zM400.73 225.67c.24.35.52.31.87.26s.81-.16.53-.58-.52-.31-.87-.26-.81.16-.53.58zM389.91 231.92c.24.35.52.31.87.26s.81-.16.53-.58-.52-.31-.87-.26-.82.16-.53.58zM379.08 238.17c.24.35.52.31.87.26s.81-.16.53-.58-.52-.31-.87-.26-.82.16-.53.58zM368.25 244.42c.24.35.52.31.87.26s.81-.16.53-.58-.52-.31-.87-.26-.78.16-.53.58zM357.42 250.68c.24.35.52.31.87.26s.81-.16.53-.58-.52-.31-.87-.26-.82.15-.53.58zM346.59 256.93c.24.35.52.31.87.26s.81-.16.53-.58-.52-.31-.87-.26-.81.16-.53.58zM335.76 263.18c.24.35.52.31.87.26s.81-.16.53-.58-.52-.31-.87-.26-.81.16-.53.58zM324.94 269.43c.24.35.52.31.87.26s.81-.16.53-.58-.52-.31-.87-.26-.82.15-.53.58zM314.11 275.68c.24.35.52.31.87.26s.81-.16.53-.58-.52-.31-.87-.26-.82.16-.53.58zM303.28 281.93c.24.35.52.31.87.26s.81-.16.53-.58-.52-.31-.87-.26-.81.16-.53.58zM292.45 288.19c.24.35.52.31.87.26s.81-.16.53-.58-.52-.31-.87-.26-.81.15-.53.58zM281.62 294.44c.24.35.52.31.87.26s.81-.16.53-.58-.52-.31-.87-.26-.81.14-.53.58zM270.8 300.69c.24.35.52.31.87.26s.81-.16.53-.58-.52-.31-.87-.26-.82.16-.53.58zM260 306.94c.24.35.52.31.87.26s.81-.16.53-.58-.52-.31-.87-.26-.85.16-.53.58zM249.14 313.19c.24.35.52.31.87.26s.81-.16.53-.58-.52-.31-.87-.26-.82.16-.53.58zM238.31 319.44c.24.35.52.31.87.26s.81-.16.53-.58-.52-.31-.87-.26-.84.14-.53.58zM541.5 131.89c.24.35.52.31.87.26s.81-.16.53-.58-.52-.31-.87-.26-.82.16-.53.58zM530.67 138.15c.24.35.52.31.87.26s.81-.16.53-.58-.52-.31-.87-.26-.81.15-.53.58zM519.84 144.4c.24.35.52.31.87.26s.81-.16.53-.58-.52-.31-.87-.26-.81.18-.53.58zM509 150.65c.24.35.52.31.87.26s.81-.16.53-.58-.52-.31-.87-.26-.8.16-.53.58zM498.19 156.9c.24.35.52.31.87.26s.81-.16.53-.58-.52-.31-.87-.26-.82.16-.53.58zM487.36 163.15c.24.35.52.31.87.26s.81-.16.53-.58-.52-.31-.87-.26-.82.16-.53.58zM476.53 169.4c.24.35.52.31.87.26s.81-.16.53-.58-.52-.31-.87-.26-.81.18-.53.58zM465.7 175.66c.24.35.52.31.87.26s.81-.16.53-.58-.52-.31-.87-.26-.81.15-.53.58zM454.87 181.91c.24.35.52.31.87.26s.81-.16.53-.58-.52-.31-.87-.26-.81.16-.53.58zM444 188.16c.24.35.52.31.87.26s.81-.16.53-.58-.52-.31-.87-.26-.77.16-.53.58zM433.22 194.41c.24.35.52.31.87.26s.81-.16.53-.58-.52-.31-.87-.26-.82.17-.53.58zM422.39 200.66c.24.35.52.31.87.26s.81-.16.53-.58-.52-.31-.87-.26-.82.16-.53.58zM411.56 206.91c.24.35.52.31.87.26s.81-.16.53-.58-.52-.31-.87-.26-.81.16-.53.58zM400.73 213.17c.24.35.52.31.87.26s.81-.16.53-.58-.52-.31-.87-.26-.81.15-.53.58zM389.91 219.42c.24.35.52.31.87.26s.81-.16.53-.58-.52-.31-.87-.26-.82.16-.53.58zM379.08 225.67c.24.35.52.31.87.26s.81-.16.53-.58-.52-.31-.87-.26-.82.16-.53.58zM368.25 231.92c.24.35.52.31.87.26s.81-.16.53-.58-.52-.31-.87-.26-.78.16-.53.58zM357.42 238.17c.24.35.52.31.87.26s.81-.16.53-.58-.52-.31-.87-.26-.82.16-.53.58zM346.59 244.42c.24.35.52.31.87.26s.81-.16.53-.58-.52-.31-.87-.26-.81.16-.53.58zM335.76 250.68c.24.35.52.31.87.26s.81-.16.53-.58-.52-.31-.87-.26-.81.15-.53.58zM324.94 256.93c.24.35.52.31.87.26s.81-.16.53-.58-.52-.31-.87-.26-.82.16-.53.58zM314.11 263.18c.24.35.52.31.87.26s.81-.16.53-.58-.52-.31-.87-.26-.82.16-.53.58zM303.28 269.43c.24.35.52.31.87.26s.81-.16.53-.58-.52-.31-.87-.26-.81.15-.53.58zM292.45 275.68c.24.35.52.31.87.26s.81-.16.53-.58-.52-.31-.87-.26-.81.16-.53.58zM281.62 281.93c.24.35.52.31.87.26s.81-.16.53-.58-.52-.31-.87-.26-.81.16-.53.58zM270.8 288.19c.24.35.52.31.87.26s.81-.16.53-.58-.52-.31-.87-.26-.82.15-.53.58zM260 294.44c.24.35.52.31.87.26s.81-.16.53-.58-.52-.31-.87-.26-.85.14-.53.58zM249.14 300.69c.24.35.52.31.87.26s.81-.16.53-.58-.52-.31-.87-.26-.82.16-.53.58zM238.31 306.94c.24.35.52.31.87.26s.81-.16.53-.58-.52-.31-.87-.26-.84.16-.53.58zM227.48 313.19c.24.35.52.31.87.26s.81-.16.53-.58-.52-.31-.87-.26-.81.16-.53.58zM530.67 125.64c.24.35.52.31.87.26s.81-.16.53-.58-.52-.31-.87-.26-.81.16-.53.58zM519.84 131.89c.24.35.52.31.87.26s.81-.16.53-.58-.52-.31-.87-.26-.81.16-.53.58zM509 138.15c.24.35.52.31.87.26s.81-.16.53-.58-.52-.31-.87-.26-.8.15-.53.58zM498.19 144.4c.24.35.52.31.87.26s.81-.16.53-.58-.52-.31-.87-.26-.82.18-.53.58zM487.36 150.65c.24.35.52.31.87.26s.81-.16.53-.58-.52-.31-.87-.26-.82.16-.53.58zM476.53 156.9c.24.35.52.31.87.26s.81-.16.53-.58-.52-.31-.87-.26-.81.16-.53.58zM465.7 163.15c.24.35.52.31.87.26s.81-.16.53-.58-.52-.31-.87-.26-.81.16-.53.58zM454.87 169.4c.24.35.52.31.87.26s.81-.16.53-.58-.52-.31-.87-.26-.81.18-.53.58zM444 175.66c.24.35.52.31.87.26s.81-.16.53-.58-.52-.31-.87-.26-.77.15-.53.58zM433.22 181.91c.24.35.52.31.87.26s.81-.16.53-.58-.52-.31-.87-.26-.82.16-.53.58zM422.39 188.16c.24.35.52.31.87.26s.81-.16.53-.58-.52-.31-.87-.26-.82.16-.53.58zM411.56 194.41c.24.35.52.31.87.26s.81-.16.53-.58-.52-.31-.87-.26-.81.17-.53.58zM400.73 200.66c.24.35.52.31.87.26s.81-.16.53-.58-.52-.31-.87-.26-.81.16-.53.58zM389.91 206.91c.24.35.52.31.87.26s.81-.16.53-.58-.52-.31-.87-.26-.82.16-.53.58zM379.08 213.17c.24.35.52.31.87.26s.81-.16.53-.58-.52-.31-.87-.26-.82.15-.53.58zM368.25 219.42c.24.35.52.31.87.26s.81-.16.53-.58-.52-.31-.87-.26-.78.16-.53.58zM357.42 225.67c.24.35.52.31.87.26s.81-.16.53-.58-.52-.31-.87-.26-.82.16-.53.58zM346.59 231.92c.24.35.52.31.87.26s.81-.16.53-.58-.52-.31-.87-.26-.81.16-.53.58zM335.76 238.17c.24.35.52.31.87.26s.81-.16.53-.58-.52-.31-.87-.26-.81.16-.53.58zM324.94 244.42c.24.35.52.31.87.26s.81-.16.53-.58-.52-.31-.87-.26-.82.16-.53.58zM314.11 250.68c.24.35.52.31.87.26s.81-.16.53-.58-.52-.31-.87-.26-.82.15-.53.58zM303.28 256.93c.24.35.52.31.87.26s.81-.16.53-.58-.52-.31-.87-.26-.81.16-.53.58zM292.45 263.18c.24.35.52.31.87.26s.81-.16.53-.58-.52-.31-.87-.26-.81.16-.53.58zM281.62 269.43c.24.35.52.31.87.26s.81-.16.53-.58-.52-.31-.87-.26-.81.15-.53.58zM270.8 275.68c.24.35.52.31.87.26s.81-.16.53-.58-.52-.31-.87-.26-.82.16-.53.58zM260 281.93c.24.35.52.31.87.26s.81-.16.53-.58-.52-.31-.87-.26-.85.16-.53.58zM249.14 288.19c.24.35.52.31.87.26s.81-.16.53-.58-.52-.31-.87-.26-.82.15-.53.58zM238.31 294.44c.24.35.52.31.87.26s.81-.16.53-.58-.52-.31-.87-.26-.84.14-.53.58zM227.48 300.69c.24.35.52.31.87.26s.81-.16.53-.58-.52-.31-.87-.26-.81.16-.53.58zM216.65 306.94c.24.35.52.31.87.26s.81-.16.53-.58-.52-.31-.87-.26-.81.16-.53.58zM519.84 119.39c.24.35.52.31.87.26s.81-.16.53-.58-.52-.31-.87-.26-.81.19-.53.58zM509 125.64c.24.35.52.31.87.26s.81-.16.53-.58-.52-.31-.87-.26-.8.16-.53.58zM498.19 131.89c.24.35.52.31.87.26s.81-.16.53-.58-.52-.31-.87-.26-.82.16-.53.58zM487.36 138.15c.24.35.52.31.87.26s.81-.16.53-.58-.52-.31-.87-.26-.82.15-.53.58zM476.53 144.4c.24.35.52.31.87.26s.81-.16.53-.58-.52-.31-.87-.26-.81.18-.53.58zM465.7 150.65c.24.35.52.31.87.26s.81-.16.53-.58-.52-.31-.87-.26-.81.16-.53.58zM454.87 156.9c.24.35.52.31.87.26s.81-.16.53-.58-.52-.31-.87-.26-.81.16-.53.58zM444 163.15c.24.35.52.31.87.26s.81-.16.53-.58-.52-.31-.87-.26-.77.16-.53.58zM433.22 169.4c.24.35.52.31.87.26s.81-.16.53-.58-.52-.31-.87-.26-.82.18-.53.58zM422.39 175.66c.24.35.52.31.87.26s.81-.16.53-.58-.52-.31-.87-.26-.82.15-.53.58zM411.56 181.91c.24.35.52.31.87.26s.81-.16.53-.58-.52-.31-.87-.26-.81.16-.53.58zM400.73 188.16c.24.35.52.31.87.26s.81-.16.53-.58-.52-.31-.87-.26-.81.16-.53.58zM389.91 194.41c.24.35.52.31.87.26s.81-.16.53-.58-.52-.31-.87-.26-.82.17-.53.58zM379.08 200.66c.24.35.52.31.87.26s.81-.16.53-.58-.52-.31-.87-.26-.82.16-.53.58zM368.25 206.91c.24.35.52.31.87.26s.81-.16.53-.58-.52-.31-.87-.26-.78.16-.53.58zM357.42 213.17c.24.35.52.31.87.26s.81-.16.53-.58-.52-.31-.87-.26-.82.15-.53.58zM346.59 219.42c.24.35.52.31.87.26s.81-.16.53-.58-.52-.31-.87-.26-.81.16-.53.58zM335.76 225.67c.24.35.52.31.87.26s.81-.16.53-.58-.52-.31-.87-.26-.81.16-.53.58zM324.94 231.92c.24.35.52.31.87.26s.81-.16.53-.58-.52-.31-.87-.26-.82.16-.53.58zM314.11 238.17c.24.35.52.31.87.26s.81-.16.53-.58-.52-.31-.87-.26-.82.16-.53.58zM303.28 244.42c.24.35.52.31.87.26s.81-.16.53-.58-.52-.31-.87-.26-.81.16-.53.58zM292.45 250.68c.24.35.52.31.87.26s.81-.16.53-.58-.52-.31-.87-.26-.81.15-.53.58zM281.62 256.93c.24.35.52.31.87.26s.81-.16.53-.58-.52-.31-.87-.26-.81.16-.53.58zM270.8 263.18c.24.35.52.31.87.26s.81-.16.53-.58-.52-.31-.87-.26-.82.16-.53.58zM260 269.43c.24.35.52.31.87.26s.81-.16.53-.58-.52-.31-.87-.26-.85.15-.53.58zM249.14 275.68c.24.35.52.31.87.26s.81-.16.53-.58-.52-.31-.87-.26-.82.16-.53.58zM238.31 281.93c.24.35.52.31.87.26s.81-.16.53-.58-.52-.31-.87-.26-.84.16-.53.58zM227.48 288.19c.24.35.52.31.87.26s.81-.16.53-.58-.52-.31-.87-.26-.81.15-.53.58zM216.65 294.44c.24.35.52.31.87.26s.81-.16.53-.58-.52-.31-.87-.26-.81.14-.53.58zM205.83 300.69c.24.35.52.31.87.26s.81-.16.53-.58-.52-.31-.87-.26-.82.16-.53.58zM509 113.14c.24.35.52.31.87.26s.81-.16.53-.58-.52-.31-.87-.26-.8.16-.53.58zM498.19 119.39c.24.35.52.31.87.26s.81-.16.53-.58-.52-.31-.87-.26-.82.19-.53.58zM487.36 125.64c.24.35.52.31.87.26s.81-.16.53-.58-.52-.31-.87-.26-.82.16-.53.58zM476.53 131.89c.24.35.52.31.87.26s.81-.16.53-.58-.52-.31-.87-.26-.81.16-.53.58zM465.7 138.15c.24.35.52.31.87.26s.81-.16.53-.58-.52-.31-.87-.26-.81.15-.53.58zM454.87 144.4c.24.35.52.31.87.26s.81-.16.53-.58-.52-.31-.87-.26-.81.18-.53.58zM444 150.65c.24.35.52.31.87.26s.81-.16.53-.58-.52-.31-.87-.26-.77.16-.53.58zM433.22 156.9c.24.35.52.31.87.26s.81-.16.53-.58-.52-.31-.87-.26-.82.16-.53.58zM422.39 163.15c.24.35.52.31.87.26s.81-.16.53-.58-.52-.31-.87-.26-.82.16-.53.58zM411.56 169.4c.24.35.52.31.87.26s.81-.16.53-.58-.52-.31-.87-.26-.81.18-.53.58zM400.73 175.66c.24.35.52.31.87.26s.81-.16.53-.58-.52-.31-.87-.26-.81.15-.53.58zM389.91 181.91c.24.35.52.31.87.26s.81-.16.53-.58-.52-.31-.87-.26-.82.16-.53.58zM379.08 188.16c.24.35.52.31.87.26s.81-.16.53-.58-.52-.31-.87-.26-.82.16-.53.58zM368.25 194.41c.24.35.52.31.87.26s.81-.16.53-.58-.52-.31-.87-.26-.78.17-.53.58zM357.42 200.66c.24.35.52.31.87.26s.81-.16.53-.58-.52-.31-.87-.26-.82.16-.53.58zM346.59 206.91c.24.35.52.31.87.26s.81-.16.53-.58-.52-.31-.87-.26-.81.16-.53.58zM335.76 213.17c.24.35.52.31.87.26s.81-.16.53-.58-.52-.31-.87-.26-.81.15-.53.58zM324.94 219.42c.24.35.52.31.87.26s.81-.16.53-.58-.52-.31-.87-.26-.82.16-.53.58zM314.11 225.67c.24.35.52.31.87.26s.81-.16.53-.58-.52-.31-.87-.26-.82.16-.53.58zM303.28 231.92c.24.35.52.31.87.26s.81-.16.53-.58-.52-.31-.87-.26-.81.16-.53.58zM292.45 238.17c.24.35.52.31.87.26s.81-.16.53-.58-.52-.31-.87-.26-.81.16-.53.58zM281.62 244.42c.24.35.52.31.87.26s.81-.16.53-.58-.52-.31-.87-.26-.81.16-.53.58zM270.8 250.68c.24.35.52.31.87.26s.81-.16.53-.58-.52-.31-.87-.26-.82.15-.53.58zM260 256.93c.24.35.52.31.87.26s.81-.16.53-.58-.52-.31-.87-.26-.85.16-.53.58zM249.14 263.18c.24.35.52.31.87.26s.81-.16.53-.58-.52-.31-.87-.26-.82.16-.53.58zM238.31 269.43c.24.35.52.31.87.26s.81-.16.53-.58-.52-.31-.87-.26-.84.15-.53.58zM227.48 275.68c.24.35.52.31.87.26s.81-.16.53-.58-.52-.31-.87-.26-.81.16-.53.58zM216.65 281.93c.24.35.52.31.87.26s.81-.16.53-.58-.52-.31-.87-.26-.81.16-.53.58zM205.83 288.19c.24.35.52.31.87.26s.81-.16.53-.58-.52-.31-.87-.26-.82.15-.53.58zM195 294.44c.24.35.52.31.87.26s.81-.16.53-.58-.52-.31-.87-.26-.82.14-.53.58zM498.19 106.89c.24.35.52.31.87.26s.81-.16.53-.58-.52-.31-.87-.26-.82.16-.53.58zM487.36 113.14c.24.35.52.31.87.26s.81-.16.53-.58-.52-.31-.87-.26-.82.16-.53.58zM476.53 119.39c.24.35.52.31.87.26s.81-.16.53-.58-.52-.31-.87-.26-.81.19-.53.58zM465.7 125.64c.24.35.52.31.87.26s.81-.16.53-.58-.52-.31-.87-.26-.81.16-.53.58zM454.87 131.89c.24.35.52.31.87.26s.81-.16.53-.58-.52-.31-.87-.26-.81.16-.53.58zM444 138.15c.24.35.52.31.87.26s.81-.16.53-.58-.52-.31-.87-.26-.77.15-.53.58zM433.22 144.4c.24.35.52.31.87.26s.81-.16.53-.58-.52-.31-.87-.26-.82.18-.53.58zM422.39 150.65c.24.35.52.31.87.26s.81-.16.53-.58-.52-.31-.87-.26-.82.16-.53.58zM411.56 156.9c.24.35.52.31.87.26s.81-.16.53-.58-.52-.31-.87-.26-.81.16-.53.58zM400.73 163.15c.24.35.52.31.87.26s.81-.16.53-.58-.52-.31-.87-.26-.81.16-.53.58zM389.91 169.4c.24.35.52.31.87.26s.81-.16.53-.58-.52-.31-.87-.26-.82.18-.53.58zM379.08 175.66c.24.35.52.31.87.26s.81-.16.53-.58-.52-.31-.87-.26-.82.15-.53.58zM368.25 181.91c.24.35.52.31.87.26s.81-.16.53-.58-.52-.31-.87-.26-.78.16-.53.58zM357.42 188.16c.24.35.52.31.87.26s.81-.16.53-.58-.52-.31-.87-.26-.82.16-.53.58zM346.59 194.41c.24.35.52.31.87.26s.81-.16.53-.58-.52-.31-.87-.26-.81.17-.53.58zM335.76 200.66c.24.35.52.31.87.26s.81-.16.53-.58-.52-.31-.87-.26-.81.16-.53.58zM324.94 206.91c.24.35.52.31.87.26s.81-.16.53-.58-.52-.31-.87-.26-.82.16-.53.58zM314.11 213.17c.24.35.52.31.87.26s.81-.16.53-.58-.52-.31-.87-.26-.82.15-.53.58zM303.28 219.42c.24.35.52.31.87.26s.81-.16.53-.58-.52-.31-.87-.26-.81.16-.53.58zM292.45 225.67c.24.35.52.31.87.26s.81-.16.53-.58-.52-.31-.87-.26-.81.16-.53.58zM281.62 231.92c.24.35.52.31.87.26s.81-.16.53-.58-.52-.31-.87-.26-.81.16-.53.58zM270.8 238.17c.24.35.52.31.87.26s.81-.16.53-.58-.52-.31-.87-.26-.82.16-.53.58zM260 244.42c.24.35.52.31.87.26s.81-.16.53-.58-.52-.31-.87-.26-.85.16-.53.58zM249.14 250.68c.24.35.52.31.87.26s.81-.16.53-.58-.52-.31-.87-.26-.82.15-.53.58zM238.31 256.93c.24.35.52.31.87.26s.81-.16.53-.58-.52-.31-.87-.26-.84.16-.53.58zM227.48 263.18c.24.35.52.31.87.26s.81-.16.53-.58-.52-.31-.87-.26-.81.16-.53.58zM216.65 269.43c.24.35.52.31.87.26s.81-.16.53-.58-.52-.31-.87-.26-.81.15-.53.58zM205.83 275.68c.24.35.52.31.87.26s.81-.16.53-.58-.52-.31-.87-.26-.82.16-.53.58zM195 281.93c.24.35.52.31.87.26s.81-.16.53-.58-.52-.31-.87-.26-.82.16-.53.58zM184.17 288.19c.24.35.52.31.87.26s.81-.16.53-.58-.52-.31-.87-.26-.82.15-.53.58zM487.36 100.64c.24.35.52.31.87.26s.81-.16.53-.58-.52-.31-.87-.26-.82.15-.53.58zM476.53 106.89c.24.35.52.31.87.26s.81-.16.53-.58-.52-.31-.87-.26-.81.16-.53.58zM465.7 113.14c.24.35.52.31.87.26s.81-.16.53-.58-.52-.31-.87-.26-.81.16-.53.58zM454.87 119.39c.24.35.52.31.87.26s.81-.16.53-.58-.52-.31-.87-.26-.81.19-.53.58zM444 125.64c.24.35.52.31.87.26s.81-.16.53-.58-.52-.31-.87-.26-.77.16-.53.58zM433.22 131.89c.24.35.52.31.87.26s.81-.16.53-.58-.52-.31-.87-.26-.82.16-.53.58zM422.39 138.15c.24.35.52.31.87.26s.81-.16.53-.58-.52-.31-.87-.26-.82.15-.53.58zM411.56 144.4c.24.35.52.31.87.26s.81-.16.53-.58-.52-.31-.87-.26-.81.18-.53.58zM400.73 150.65c.24.35.52.31.87.26s.81-.16.53-.58-.52-.31-.87-.26-.81.16-.53.58zM389.91 156.9c.24.35.52.31.87.26s.81-.16.53-.58-.52-.31-.87-.26-.82.16-.53.58zM379.08 163.15c.24.35.52.31.87.26s.81-.16.53-.58-.52-.31-.87-.26-.82.16-.53.58zM368.25 169.4c.24.35.52.31.87.26s.81-.16.53-.58-.52-.31-.87-.26-.78.18-.53.58zM357.42 175.66c.24.35.52.31.87.26s.81-.16.53-.58-.52-.31-.87-.26-.82.15-.53.58zM346.59 181.91c.24.35.52.31.87.26s.81-.16.53-.58-.52-.31-.87-.26-.81.16-.53.58zM335.76 188.16c.24.35.52.31.87.26s.81-.16.53-.58-.52-.31-.87-.26-.81.16-.53.58zM324.94 194.41c.24.35.52.31.87.26s.81-.16.53-.58-.52-.31-.87-.26-.82.17-.53.58zM314.11 200.66c.24.35.52.31.87.26s.81-.16.53-.58-.52-.31-.87-.26-.82.16-.53.58zM303.28 206.91c.24.35.52.31.87.26s.81-.16.53-.58-.52-.31-.87-.26-.81.16-.53.58zM292.45 213.17c.24.35.52.31.87.26s.81-.16.53-.58-.52-.31-.87-.26-.81.15-.53.58zM281.62 219.42c.24.35.52.31.87.26s.81-.16.53-.58-.52-.31-.87-.26-.81.16-.53.58zM270.8 225.67c.24.35.52.31.87.26s.81-.16.53-.58-.52-.31-.87-.26-.82.16-.53.58zM260 231.92c.24.35.52.31.87.26s.81-.16.53-.58-.52-.31-.87-.26-.85.16-.53.58zM249.14 238.17c.24.35.52.31.87.26s.81-.16.53-.58-.52-.31-.87-.26-.82.16-.53.58zM238.31 244.42c.24.35.52.31.87.26s.81-.16.53-.58-.52-.31-.87-.26-.84.16-.53.58zM227.48 250.68c.24.35.52.31.87.26s.81-.16.53-.58-.52-.31-.87-.26-.81.15-.53.58zM216.65 256.93c.24.35.52.31.87.26s.81-.16.53-.58-.52-.31-.87-.26-.81.16-.53.58zM205.83 263.18c.24.35.52.31.87.26s.81-.16.53-.58-.52-.31-.87-.26-.82.16-.53.58zM195 269.43c.24.35.52.31.87.26s.81-.16.53-.58-.52-.31-.87-.26-.82.15-.53.58zM184.17 275.68c.24.35.52.31.87.26s.81-.16.53-.58-.52-.31-.87-.26-.82.16-.53.58zM173.34 281.93c.24.35.52.31.87.26s.81-.16.53-.58-.52-.31-.87-.26-.81.16-.53.58zM476.53 94.38c.24.35.52.31.87.26s.81-.16.53-.58-.52-.31-.87-.26-.81.2-.53.58zM465.7 100.64c.24.35.52.31.87.26s.81-.16.53-.58-.52-.31-.87-.26-.81.15-.53.58zM454.87 106.89c.24.35.52.31.87.26s.81-.16.53-.58-.52-.31-.87-.26-.81.16-.53.58zM444 113.14c.24.35.52.31.87.26s.81-.16.53-.58-.52-.31-.87-.26-.77.16-.53.58zM433.22 119.39c.24.35.52.31.87.26s.81-.16.53-.58-.52-.31-.87-.26-.82.19-.53.58zM422.39 125.64c.24.35.52.31.87.26s.81-.16.53-.58-.52-.31-.87-.26-.82.16-.53.58zM411.56 131.89c.24.35.52.31.87.26s.81-.16.53-.58-.52-.31-.87-.26-.81.16-.53.58zM400.73 138.15c.24.35.52.31.87.26s.81-.16.53-.58-.52-.31-.87-.26-.81.15-.53.58zM389.91 144.4c.24.35.52.31.87.26s.81-.16.53-.58-.52-.31-.87-.26-.82.18-.53.58zM379.08 150.65c.24.35.52.31.87.26s.81-.16.53-.58-.52-.31-.87-.26-.82.16-.53.58zM368.25 156.9c.24.35.52.31.87.26s.81-.16.53-.58-.52-.31-.87-.26-.78.16-.53.58zM357.42 163.15c.24.35.52.31.87.26s.81-.16.53-.58-.52-.31-.87-.26-.82.16-.53.58zM346.59 169.4c.24.35.52.31.87.26s.81-.16.53-.58-.52-.31-.87-.26-.81.18-.53.58zM335.76 175.66c.24.35.52.31.87.26s.81-.16.53-.58-.52-.31-.87-.26-.81.15-.53.58zM324.94 181.91c.24.35.52.31.87.26s.81-.16.53-.58-.52-.31-.87-.26-.82.16-.53.58zM314.11 188.16c.24.35.52.31.87.26s.81-.16.53-.58-.52-.31-.87-.26-.82.16-.53.58zM303.28 194.41c.24.35.52.31.87.26s.81-.16.53-.58-.52-.31-.87-.26-.81.17-.53.58zM292.45 200.66c.24.35.52.31.87.26s.81-.16.53-.58-.52-.31-.87-.26-.81.16-.53.58zM281.62 206.91c.24.35.52.31.87.26s.81-.16.53-.58-.52-.31-.87-.26-.81.16-.53.58zM270.8 213.17c.24.35.52.31.87.26s.81-.16.53-.58-.52-.31-.87-.26-.82.15-.53.58zM260 219.42c.24.35.52.31.87.26s.81-.16.53-.58-.52-.31-.87-.26-.85.16-.53.58zM249.14 225.67c.24.35.52.31.87.26s.81-.16.53-.58-.52-.31-.87-.26-.82.16-.53.58zM238.31 231.92c.24.35.52.31.87.26s.81-.16.53-.58-.52-.31-.87-.26-.84.16-.53.58zM227.48 238.17c.24.35.52.31.87.26s.81-.16.53-.58-.52-.31-.87-.26-.81.16-.53.58zM216.65 244.42c.24.35.52.31.87.26s.81-.16.53-.58-.52-.31-.87-.26-.81.16-.53.58zM205.83 250.68c.24.35.52.31.87.26s.81-.16.53-.58-.52-.31-.87-.26-.82.15-.53.58zM195 256.93c.24.35.52.31.87.26s.81-.16.53-.58-.52-.31-.87-.26-.82.16-.53.58zM184.17 263.18c.24.35.52.31.87.26s.81-.16.53-.58-.52-.31-.87-.26-.82.16-.53.58zM173.34 269.43c.24.35.52.31.87.26s.81-.16.53-.58-.52-.31-.87-.26-.81.15-.53.58zM162.51 275.68c.24.35.52.31.87.26s.81-.16.53-.58-.52-.31-.87-.26-.81.16-.53.58zM465.7 88.13c.24.35.52.31.87.26s.81-.16.53-.58-.52-.31-.87-.26-.81.16-.53.58zM454.87 94.38c.24.35.52.31.87.26s.81-.16.53-.58-.52-.31-.87-.26-.81.2-.53.58zM444 100.64c.24.35.52.31.87.26s.81-.16.53-.58-.52-.31-.87-.26-.77.15-.53.58zM433.22 106.89c.24.35.52.31.87.26s.81-.16.53-.58-.52-.31-.87-.26-.82.16-.53.58zM422.39 113.14c.24.35.52.31.87.26s.81-.16.53-.58-.52-.31-.87-.26-.82.16-.53.58zM411.56 119.39c.24.35.52.31.87.26s.81-.16.53-.58-.52-.31-.87-.26-.81.19-.53.58zM400.73 125.64c.24.35.52.31.87.26s.81-.16.53-.58-.52-.31-.87-.26-.81.16-.53.58zM389.91 131.89c.24.35.52.31.87.26s.81-.16.53-.58-.52-.31-.87-.26-.82.16-.53.58zM379.08 138.15c.24.35.52.31.87.26s.81-.16.53-.58-.52-.31-.87-.26-.82.15-.53.58zM368.25 144.4c.24.35.52.31.87.26s.81-.16.53-.58-.52-.31-.87-.26-.78.18-.53.58zM357.42 150.65c.24.35.52.31.87.26s.81-.16.53-.58-.52-.31-.87-.26-.82.16-.53.58zM346.59 156.9c.24.35.52.31.87.26s.81-.16.53-.58-.52-.31-.87-.26-.81.16-.53.58zM335.76 163.15c.24.35.52.31.87.26s.81-.16.53-.58-.52-.31-.87-.26-.81.16-.53.58zM324.94 169.4c.24.35.52.31.87.26s.81-.16.53-.58-.52-.31-.87-.26-.82.18-.53.58zM314.11 175.66c.24.35.52.31.87.26s.81-.16.53-.58-.52-.31-.87-.26-.82.15-.53.58zM303.28 181.91c.24.35.52.31.87.26s.81-.16.53-.58-.52-.31-.87-.26-.81.16-.53.58zM292.45 188.16c.24.35.52.31.87.26s.81-.16.53-.58-.52-.31-.87-.26-.81.16-.53.58zM281.62 194.41c.24.35.52.31.87.26s.81-.16.53-.58-.52-.31-.87-.26-.81.17-.53.58zM270.8 200.66c.24.35.52.31.87.26s.81-.16.53-.58-.52-.31-.87-.26-.82.16-.53.58zM260 206.91c.24.35.52.31.87.26s.81-.16.53-.58-.52-.31-.87-.26-.85.16-.53.58zM249.14 213.17c.24.35.52.31.87.26s.81-.16.53-.58-.52-.31-.87-.26-.82.15-.53.58zM238.31 219.42c.24.35.52.31.87.26s.81-.16.53-.58-.52-.31-.87-.26-.84.16-.53.58zM227.48 225.67c.24.35.52.31.87.26s.81-.16.53-.58-.52-.31-.87-.26-.81.16-.53.58zM216.65 231.92c.24.35.52.31.87.26s.81-.16.53-.58-.52-.31-.87-.26-.81.16-.53.58zM205.83 238.17c.24.35.52.31.87.26s.81-.16.53-.58-.52-.31-.87-.26-.82.16-.53.58zM195 244.42c.24.35.52.31.87.26s.81-.16.53-.58-.52-.31-.87-.26-.82.16-.53.58zM184.17 250.68c.24.35.52.31.87.26s.81-.16.53-.58-.52-.31-.87-.26-.82.15-.53.58zM173.34 256.93c.24.35.52.31.87.26s.81-.16.53-.58-.52-.31-.87-.26-.81.16-.53.58zM162.51 263.18c.24.35.52.31.87.26s.81-.16.53-.58-.52-.31-.87-.26-.81.16-.53.58zM151.69 269.43c.24.35.52.31.87.26s.81-.16.53-.58-.52-.31-.87-.26-.82.15-.53.58zM454.87 81.88c.24.35.52.31.87.26s.81-.16.53-.58-.52-.31-.87-.26-.81.16-.53.58zM444 88.13c.24.35.52.31.87.26s.81-.16.53-.58-.52-.31-.87-.26-.77.16-.53.58zM433.22 94.38c.24.35.52.31.87.26s.81-.16.53-.58-.52-.31-.87-.26-.82.2-.53.58zM422.39 100.64c.24.35.52.31.87.26s.81-.16.53-.58-.52-.31-.87-.26-.82.15-.53.58zM411.56 106.89c.24.35.52.31.87.26s.81-.16.53-.58-.52-.31-.87-.26-.81.16-.53.58zM400.73 113.14c.24.35.52.31.87.26s.81-.16.53-.58-.52-.31-.87-.26-.81.16-.53.58zM389.91 119.39c.24.35.52.31.87.26s.81-.16.53-.58-.52-.31-.87-.26-.82.19-.53.58zM379.08 125.64c.24.35.52.31.87.26s.81-.16.53-.58-.52-.31-.87-.26-.82.16-.53.58zM368.25 131.89c.24.35.52.31.87.26s.81-.16.53-.58-.52-.31-.87-.26-.78.16-.53.58zM357.42 138.15c.24.35.52.31.87.26s.81-.16.53-.58-.52-.31-.87-.26-.82.15-.53.58zM346.59 144.4c.24.35.52.31.87.26s.81-.16.53-.58-.52-.31-.87-.26-.81.18-.53.58zM335.76 150.65c.24.35.52.31.87.26s.81-.16.53-.58-.52-.31-.87-.26-.81.16-.53.58zM324.94 156.9c.24.35.52.31.87.26s.81-.16.53-.58-.52-.31-.87-.26-.82.16-.53.58zM314.11 163.15c.24.35.52.31.87.26s.81-.16.53-.58-.52-.31-.87-.26-.82.16-.53.58zM303.28 169.4c.24.35.52.31.87.26s.81-.16.53-.58-.52-.31-.87-.26-.81.18-.53.58zM292.45 175.66c.24.35.52.31.87.26s.81-.16.53-.58-.52-.31-.87-.26-.81.15-.53.58zM281.62 181.91c.24.35.52.31.87.26s.81-.16.53-.58-.52-.31-.87-.26-.81.16-.53.58zM270.8 188.16c.24.35.52.31.87.26s.81-.16.53-.58-.52-.31-.87-.26-.82.16-.53.58zM260 194.41c.24.35.52.31.87.26s.81-.16.53-.58-.52-.31-.87-.26-.85.17-.53.58zM249.14 200.66c.24.35.52.31.87.26s.81-.16.53-.58-.52-.31-.87-.26-.82.16-.53.58zM238.31 206.91c.24.35.52.31.87.26s.81-.16.53-.58-.52-.31-.87-.26-.84.16-.53.58zM227.48 213.17c.24.35.52.31.87.26s.81-.16.53-.58-.52-.31-.87-.26-.81.15-.53.58zM216.65 219.42c.24.35.52.31.87.26s.81-.16.53-.58-.52-.31-.87-.26-.81.16-.53.58zM205.83 225.67c.24.35.52.31.87.26s.81-.16.53-.58-.52-.31-.87-.26-.82.16-.53.58zM195 231.92c.24.35.52.31.87.26s.81-.16.53-.58-.52-.31-.87-.26-.82.16-.53.58zM184.17 238.17c.24.35.52.31.87.26s.81-.16.53-.58-.52-.31-.87-.26-.82.16-.53.58zM173.34 244.42c.24.35.52.31.87.26s.81-.16.53-.58-.52-.31-.87-.26-.81.16-.53.58zM162.51 250.68c.24.35.52.31.87.26s.81-.16.53-.58-.52-.31-.87-.26-.81.15-.53.58zM151.69 256.93c.24.35.52.31.87.26s.81-.16.53-.58-.52-.31-.87-.26-.82.16-.53.58zM140.86 263.18c.24.35.52.31.87.26s.81-.16.53-.58-.52-.31-.87-.26-.82.16-.53.58zM444 75.63c.24.35.52.31.87.26s.81-.16.53-.58-.52-.31-.87-.26-.77.16-.53.58zM433.22 81.88c.24.35.52.31.87.26s.81-.16.53-.58-.52-.31-.87-.26-.82.16-.53.58zM422.39 88.13c.24.35.52.31.87.26s.81-.16.53-.58-.52-.31-.87-.26-.82.16-.53.58zM411.56 94.38c.24.35.52.31.87.26s.81-.16.53-.58-.52-.31-.87-.26-.81.2-.53.58zM400.73 100.64c.24.35.52.31.87.26s.81-.16.53-.58-.52-.31-.87-.26-.81.15-.53.58zM389.91 106.89c.24.35.52.31.87.26s.81-.16.53-.58-.52-.31-.87-.26-.82.16-.53.58zM379.08 113.14c.24.35.52.31.87.26s.81-.16.53-.58-.52-.31-.87-.26-.82.16-.53.58zM368.25 119.39c.24.35.52.31.87.26s.81-.16.53-.58-.52-.31-.87-.26-.78.19-.53.58zM357.42 125.64c.24.35.52.31.87.26s.81-.16.53-.58-.52-.31-.87-.26-.82.16-.53.58zM346.59 131.89c.24.35.52.31.87.26s.81-.16.53-.58-.52-.31-.87-.26-.81.16-.53.58zM335.76 138.15c.24.35.52.31.87.26s.81-.16.53-.58-.52-.31-.87-.26-.81.15-.53.58zM324.94 144.4c.24.35.52.31.87.26s.81-.16.53-.58-.52-.31-.87-.26-.82.18-.53.58zM314.11 150.65c.24.35.52.31.87.26s.81-.16.53-.58-.52-.31-.87-.26-.82.16-.53.58zM303.28 156.9c.24.35.52.31.87.26s.81-.16.53-.58-.52-.31-.87-.26-.81.16-.53.58zM292.45 163.15c.24.35.52.31.87.26s.81-.16.53-.58-.52-.31-.87-.26-.81.16-.53.58zM281.62 169.4c.24.35.52.31.87.26s.81-.16.53-.58-.52-.31-.87-.26-.81.18-.53.58zM270.8 175.66c.24.35.52.31.87.26s.81-.16.53-.58-.52-.31-.87-.26-.82.15-.53.58zM260 181.91c.24.35.52.31.87.26s.81-.16.53-.58-.52-.31-.87-.26-.85.16-.53.58zM249.14 188.16c.24.35.52.31.87.26s.81-.16.53-.58-.52-.31-.87-.26-.82.16-.53.58zM238.31 194.41c.24.35.52.31.87.26s.81-.16.53-.58-.52-.31-.87-.26-.84.17-.53.58zM227.48 200.66c.24.35.52.31.87.26s.81-.16.53-.58-.52-.31-.87-.26-.81.16-.53.58zM216.65 206.91c.24.35.52.31.87.26s.81-.16.53-.58-.52-.31-.87-.26-.81.16-.53.58zM205.83 213.17c.24.35.52.31.87.26s.81-.16.53-.58-.52-.31-.87-.26-.82.15-.53.58zM195 219.42c.24.35.52.31.87.26s.81-.16.53-.58-.52-.31-.87-.26-.82.16-.53.58zM184.17 225.67c.24.35.52.31.87.26s.81-.16.53-.58-.52-.31-.87-.26-.82.16-.53.58zM173.34 231.92c.24.35.52.31.87.26s.81-.16.53-.58-.52-.31-.87-.26-.81.16-.53.58zM162.51 238.17c.24.35.52.31.87.26s.81-.16.53-.58-.52-.31-.87-.26-.81.16-.53.58zM151.69 244.42c.24.35.52.31.87.26s.81-.16.53-.58-.52-.31-.87-.26-.82.16-.53.58zM140.86 250.68c.24.35.52.31.87.26s.81-.16.53-.58-.52-.31-.87-.26-.82.15-.53.58zM130 256.93c.24.35.52.31.87.26s.81-.16.53-.58-.52-.31-.87-.26-.79.16-.53.58zM433.22 69.38c.24.35.52.31.87.26s.81-.16.53-.58-.52-.31-.87-.26-.82.2-.53.58zM422.39 75.63c.24.35.52.31.87.26s.81-.16.53-.58-.52-.31-.87-.26-.82.16-.53.58zM411.56 81.88c.24.35.52.31.87.26s.81-.16.53-.58-.52-.31-.87-.26-.81.16-.53.58zM400.73 88.13c.24.35.52.31.87.26s.81-.16.53-.58-.52-.31-.87-.26-.81.16-.53.58zM389.91 94.38c.24.35.52.31.87.26s.81-.16.53-.58-.52-.31-.87-.26-.82.2-.53.58zM379.08 100.64c.24.35.52.31.87.26s.81-.16.53-.58-.52-.31-.87-.26-.82.15-.53.58zM368.25 106.89c.24.35.52.31.87.26s.81-.16.53-.58-.52-.31-.87-.26-.78.16-.53.58zM357.42 113.14c.24.35.52.31.87.26s.81-.16.53-.58-.52-.31-.87-.26-.82.16-.53.58zM346.59 119.39c.24.35.52.31.87.26s.81-.16.53-.58-.52-.31-.87-.26-.81.19-.53.58zM335.76 125.64c.24.35.52.31.87.26s.81-.16.53-.58-.52-.31-.87-.26-.81.16-.53.58zM324.94 131.89c.24.35.52.31.87.26s.81-.16.53-.58-.52-.31-.87-.26-.82.16-.53.58zM314.11 138.15c.24.35.52.31.87.26s.81-.16.53-.58-.52-.31-.87-.26-.82.15-.53.58zM303.28 144.4c.24.35.52.31.87.26s.81-.16.53-.58-.52-.31-.87-.26-.81.18-.53.58zM292.45 150.65c.24.35.52.31.87.26s.81-.16.53-.58-.52-.31-.87-.26-.81.16-.53.58zM281.62 156.9c.24.35.52.31.87.26s.81-.16.53-.58-.52-.31-.87-.26-.81.16-.53.58zM270.8 163.15c.24.35.52.31.87.26s.81-.16.53-.58-.52-.31-.87-.26-.82.16-.53.58zM260 169.4c.24.35.52.31.87.26s.81-.16.53-.58-.52-.31-.87-.26-.85.18-.53.58zM249.14 175.66c.24.35.52.31.87.26s.81-.16.53-.58-.52-.31-.87-.26-.82.15-.53.58zM238.31 181.91c.24.35.52.31.87.26s.81-.16.53-.58-.52-.31-.87-.26-.84.16-.53.58zM227.48 188.16c.24.35.52.31.87.26s.81-.16.53-.58-.52-.31-.87-.26-.81.16-.53.58zM216.65 194.41c.24.35.52.31.87.26s.81-.16.53-.58-.52-.31-.87-.26-.81.17-.53.58zM205.83 200.66c.24.35.52.31.87.26s.81-.16.53-.58-.52-.31-.87-.26-.82.16-.53.58zM195 206.91c.24.35.52.31.87.26s.81-.16.53-.58-.52-.31-.87-.26-.82.16-.53.58zM184.17 213.17c.24.35.52.31.87.26s.81-.16.53-.58-.52-.31-.87-.26-.82.15-.53.58zM173.34 219.42c.24.35.52.31.87.26s.81-.16.53-.58-.52-.31-.87-.26-.81.16-.53.58zM162.51 225.67c.24.35.52.31.87.26s.81-.16.53-.58-.52-.31-.87-.26-.81.16-.53.58zM151.69 231.92c.24.35.52.31.87.26s.81-.16.53-.58-.52-.31-.87-.26-.82.16-.53.58zM140.86 238.17c.24.35.52.31.87.26s.81-.16.53-.58-.52-.31-.87-.26-.82.16-.53.58zM130 244.42c.24.35.52.31.87.26s.81-.16.53-.58-.52-.31-.87-.26-.79.16-.53.58zM119.2 250.68c.24.35.52.31.87.26s.81-.16.53-.58-.52-.31-.87-.26-.82.15-.53.58zM422.39 63.13c.24.35.52.31.87.26s.81-.16.53-.58-.52-.31-.87-.26-.82.15-.53.58zM411.56 69.38c.24.35.52.31.87.26s.81-.16.53-.58-.52-.31-.87-.26-.81.2-.53.58zM400.73 75.63c.24.35.52.31.87.26s.81-.16.53-.58-.52-.31-.87-.26-.81.16-.53.58zM389.91 81.88c.24.35.52.31.87.26s.81-.16.53-.58-.52-.31-.87-.26-.82.16-.53.58zM379.08 88.13c.24.35.52.31.87.26s.81-.16.53-.58-.52-.31-.87-.26-.82.16-.53.58zM368.25 94.38c.24.35.52.31.87.26s.81-.16.53-.58-.52-.31-.87-.26-.78.2-.53.58zM357.42 100.64c.24.35.52.31.87.26s.81-.16.53-.58-.52-.31-.87-.26-.82.15-.53.58zM346.59 106.89c.24.35.52.31.87.26s.81-.16.53-.58-.52-.31-.87-.26-.81.16-.53.58zM335.76 113.14c.24.35.52.31.87.26s.81-.16.53-.58-.52-.31-.87-.26-.81.16-.53.58zM324.94 119.39c.24.35.52.31.87.26s.81-.16.53-.58-.52-.31-.87-.26-.82.19-.53.58zM314.11 125.64c.24.35.52.31.87.26s.81-.16.53-.58-.52-.31-.87-.26-.82.16-.53.58zM303.28 131.89c.24.35.52.31.87.26s.81-.16.53-.58-.52-.31-.87-.26-.81.16-.53.58zM292.45 138.15c.24.35.52.31.87.26s.81-.16.53-.58-.52-.31-.87-.26-.81.15-.53.58zM281.62 144.4c.24.35.52.31.87.26s.81-.16.53-.58-.52-.31-.87-.26-.81.18-.53.58zM270.8 150.65c.24.35.52.31.87.26s.81-.16.53-.58-.52-.31-.87-.26-.82.16-.53.58zM260 156.9c.24.35.52.31.87.26s.81-.16.53-.58-.52-.31-.87-.26-.85.16-.53.58zM249.14 163.15c.24.35.52.31.87.26s.81-.16.53-.58-.52-.31-.87-.26-.82.16-.53.58zM238.31 169.4c.24.35.52.31.87.26s.81-.16.53-.58-.52-.31-.87-.26-.84.18-.53.58zM227.48 175.66c.24.35.52.31.87.26s.81-.16.53-.58-.52-.31-.87-.26-.81.15-.53.58zM216.65 181.91c.24.35.52.31.87.26s.81-.16.53-.58-.52-.31-.87-.26-.81.16-.53.58zM205.83 188.16c.24.35.52.31.87.26s.81-.16.53-.58-.52-.31-.87-.26-.82.16-.53.58zM195 194.41c.24.35.52.31.87.26s.81-.16.53-.58-.52-.31-.87-.26-.82.17-.53.58zM184.17 200.66c.24.35.52.31.87.26s.81-.16.53-.58-.52-.31-.87-.26-.82.16-.53.58zM173.34 206.91c.24.35.52.31.87.26s.81-.16.53-.58-.52-.31-.87-.26-.81.16-.53.58zM162.51 213.17c.24.35.52.31.87.26s.81-.16.53-.58-.52-.31-.87-.26-.81.15-.53.58zM151.69 219.42c.24.35.52.31.87.26s.81-.16.53-.58-.52-.31-.87-.26-.82.16-.53.58zM140.86 225.67c.24.35.52.31.87.26s.81-.16.53-.58-.52-.31-.87-.26-.82.16-.53.58zM130 231.92c.24.35.52.31.87.26s.81-.16.53-.58-.52-.31-.87-.26-.79.16-.53.58zM119.2 238.17c.24.35.52.31.87.26s.81-.16.53-.58-.52-.31-.87-.26-.82.16-.53.58zM108.37 244.42c.24.35.52.31.87.26s.81-.16.53-.58-.52-.31-.87-.26-.81.16-.53.58zM411.56 56.87c.24.35.52.31.87.26s.81-.16.53-.58-.52-.31-.87-.26-.81.16-.53.58zM400.73 63.13c.24.35.52.31.87.26s.81-.16.53-.58-.52-.31-.87-.26-.81.15-.53.58zM389.91 69.38c.24.35.52.31.87.26s.81-.16.53-.58-.52-.31-.87-.26-.82.2-.53.58zM379.08 75.63c.24.35.52.31.87.26s.81-.16.53-.58-.48-.31-.87-.31-.82.21-.53.63zM368.25 81.88c.24.35.52.31.87.26s.81-.16.53-.58-.52-.31-.87-.26-.78.16-.53.58zM357.42 88.13c.24.35.52.31.87.26s.81-.16.53-.58-.52-.31-.87-.26-.82.16-.53.58zM346.59 94.38c.24.35.52.31.87.26s.81-.16.53-.58-.52-.31-.87-.26-.81.2-.53.58zM335.76 100.64c.24.35.52.31.87.26s.81-.16.53-.58-.52-.31-.87-.26-.81.15-.53.58zM324.94 106.89c.24.35.52.31.87.26s.81-.16.53-.58-.52-.31-.87-.26-.82.16-.53.58zM314.11 113.14c.24.35.52.31.87.26s.81-.16.53-.58-.52-.31-.87-.26-.82.16-.53.58zM303.28 119.39c.24.35.52.31.87.26s.81-.16.53-.58-.52-.31-.87-.26-.81.19-.53.58zM292.45 125.64c.24.35.52.31.87.26s.81-.16.53-.58-.52-.31-.87-.26-.81.16-.53.58zM281.62 131.89c.24.35.52.31.87.26s.81-.16.53-.58-.52-.31-.87-.26-.81.16-.53.58zM270.8 138.15c.24.35.52.31.87.26s.81-.16.53-.58-.52-.31-.87-.26-.82.15-.53.58zM260 144.4c.24.35.52.31.87.26s.81-.16.53-.58-.52-.31-.87-.26-.85.18-.53.58zM249.14 150.65c.24.35.52.31.87.26s.81-.16.53-.58-.52-.31-.87-.26-.82.16-.53.58zM238.31 156.9c.24.35.52.31.87.26s.81-.16.53-.58-.52-.31-.87-.26-.84.16-.53.58zM227.48 163.15c.24.35.52.31.87.26s.81-.16.53-.58-.52-.31-.87-.26-.81.16-.53.58zM216.65 169.4c.24.35.52.31.87.26s.81-.16.53-.58-.52-.31-.87-.26-.81.18-.53.58zM205.83 175.66c.24.35.52.31.87.26s.81-.16.53-.58-.52-.31-.87-.26-.82.15-.53.58zM195 181.91c.24.35.52.31.87.26s.81-.16.53-.58-.52-.31-.87-.26-.82.16-.53.58zM184.17 188.16c.24.35.52.31.87.26s.81-.16.53-.58-.52-.31-.87-.26-.82.16-.53.58zM173.34 194.41c.24.35.52.31.87.26s.81-.16.53-.58-.52-.31-.87-.26-.81.17-.53.58zM162.51 200.66c.24.35.52.31.87.26s.81-.16.53-.58-.52-.31-.87-.26-.81.16-.53.58zM151.69 206.91c.24.35.52.31.87.26s.81-.16.53-.58-.52-.31-.87-.26-.82.16-.53.58zM140.86 213.17c.24.35.52.31.87.26s.81-.16.53-.58-.52-.31-.87-.26-.82.15-.53.58zM130 219.42c.24.35.52.31.87.26s.81-.16.53-.58-.52-.31-.87-.26-.79.16-.53.58zM119.2 225.67c.24.35.52.31.87.26s.81-.16.53-.58-.52-.31-.87-.26-.82.16-.53.58zM108.37 231.92c.24.35.52.31.87.26s.81-.16.53-.58-.52-.31-.87-.26-.81.16-.53.58zM97.54 238.17c.24.35.52.31.87.26s.81-.16.53-.58-.52-.31-.87-.26-.81.16-.53.58zM400.73 50.62c.24.35.52.31.87.26s.81-.16.53-.58-.52-.31-.87-.26-.81.16-.53.58zM389.91 56.87c.24.35.52.31.87.26s.81-.16.53-.58-.52-.31-.87-.26-.82.16-.53.58zM379.08 63.13c.24.35.52.31.87.26s.81-.16.53-.58-.52-.31-.87-.26-.82.15-.53.58zM368.25 69.38c.24.35.52.31.87.26s.81-.16.53-.58-.52-.31-.87-.26-.78.2-.53.58zM357.42 75.63c.24.35.52.31.87.26s.81-.16.53-.58-.52-.31-.87-.26-.82.16-.53.58zM346.59 81.88c.24.35.52.31.87.26s.81-.16.53-.58-.52-.31-.87-.26-.81.16-.53.58zM335.76 88.13c.24.35.52.31.87.26s.81-.16.53-.58-.52-.31-.87-.26-.81.16-.53.58zM324.94 94.38c.24.35.52.31.87.26s.81-.16.53-.58-.52-.31-.87-.26-.82.2-.53.58zM314.11 100.64c.24.35.52.31.87.26s.81-.16.53-.58-.52-.31-.87-.26-.82.15-.53.58zM303.28 106.89c.24.35.52.31.87.26s.81-.16.53-.58-.52-.31-.87-.26-.81.16-.53.58zM292.45 113.14c.24.35.52.31.87.26s.81-.16.53-.58-.52-.31-.87-.26-.81.16-.53.58zM281.62 119.39c.24.35.52.31.87.26s.81-.16.53-.58-.52-.31-.87-.26-.81.19-.53.58zM270.8 125.64c.24.35.52.31.87.26s.81-.16.53-.58-.52-.31-.87-.26-.82.16-.53.58zM260 131.89c.24.35.52.31.87.26s.81-.16.53-.58-.52-.31-.87-.26-.85.16-.53.58zM249.14 138.15c.24.35.52.31.87.26s.81-.16.53-.58-.52-.31-.87-.26-.82.15-.53.58zM238.31 144.4c.24.35.52.31.87.26s.81-.16.53-.58-.52-.31-.87-.26-.84.18-.53.58zM227.48 150.65c.24.35.52.31.87.26s.81-.16.53-.58-.52-.31-.87-.26-.81.16-.53.58zM216.65 156.9c.24.35.52.31.87.26s.81-.16.53-.58-.52-.31-.87-.26-.81.16-.53.58zM205.83 163.15c.24.35.52.31.87.26s.81-.16.53-.58-.52-.31-.87-.26-.82.16-.53.58zM195 169.4c.24.35.52.31.87.26s.81-.16.53-.58-.52-.31-.87-.26-.82.18-.53.58zM184.17 175.66c.24.35.52.31.87.26s.81-.16.53-.58-.52-.31-.87-.26-.82.15-.53.58zM173.34 181.91c.24.35.52.31.87.26s.81-.16.53-.58-.52-.31-.87-.26-.81.16-.53.58zM162.51 188.16c.24.35.52.31.87.26s.81-.16.53-.58-.52-.31-.87-.26-.81.16-.53.58zM151.69 194.41c.24.35.52.31.87.26s.81-.16.53-.58-.52-.31-.87-.26-.82.17-.53.58zM140.86 200.66c.24.35.52.31.87.26s.81-.16.53-.58-.52-.31-.87-.26-.82.16-.53.58zM130 206.91c.24.35.52.31.87.26s.81-.16.53-.58-.52-.31-.87-.26-.79.16-.53.58zM119.2 213.17c.24.35.52.31.87.26s.81-.16.53-.58-.52-.31-.87-.26-.82.15-.53.58zM108.37 219.42c.24.35.52.31.87.26s.81-.16.53-.58-.52-.31-.87-.26-.81.16-.53.58zM97.54 225.67c.24.35.52.31.87.26s.81-.16.53-.58-.52-.31-.87-.26-.81.16-.53.58zM86.72 231.92c.24.35.52.31.87.26s.81-.16.53-.58-.52-.31-.87-.26-.82.16-.53.58zM389.91 44.37c.24.35.52.31.87.26s.81-.16.53-.58-.52-.31-.87-.26-.82.16-.53.58zM379.08 50.62c.24.35.52.31.87.26s.81-.16.53-.58-.48-.3-.87-.3-.82.2-.53.62zM368.25 56.87c.24.35.52.31.87.26s.81-.16.53-.58-.52-.31-.87-.26-.78.16-.53.58zM357.42 63.13c.24.35.52.31.87.26s.81-.16.53-.58-.52-.31-.87-.26-.82.15-.53.58zM346.59 69.38c.24.35.52.31.87.26s.81-.16.53-.58-.52-.31-.87-.26-.81.2-.53.58zM335.76 75.63c.24.35.52.31.87.26s.81-.16.53-.58-.52-.31-.87-.26-.81.16-.53.58zM324.94 81.88c.24.35.52.31.87.26s.81-.16.53-.58-.52-.31-.87-.26-.82.16-.53.58zM314.11 88.13c.24.35.52.31.87.26s.81-.16.53-.58-.52-.31-.87-.26-.82.16-.53.58zM303.28 94.38c.24.35.52.31.87.26s.81-.16.53-.58-.52-.31-.87-.26-.81.2-.53.58zM292.45 100.64c.24.35.52.31.87.26s.81-.16.53-.58-.52-.31-.87-.26-.81.15-.53.58zM281.62 106.89c.24.35.52.31.87.26s.81-.16.53-.58-.52-.31-.87-.26-.81.16-.53.58zM270.8 113.14c.24.35.52.31.87.26s.81-.16.53-.58-.52-.31-.87-.26-.82.16-.53.58zM260 119.39c.24.35.52.31.87.26s.81-.16.53-.58-.52-.31-.87-.26-.85.19-.53.58zM249.14 125.64c.24.35.52.31.87.26s.81-.16.53-.58-.52-.31-.87-.26-.82.16-.53.58zM238.31 131.89c.24.35.52.31.87.26s.81-.16.53-.58-.52-.31-.87-.26-.84.16-.53.58zM227.48 138.15c.24.35.52.31.87.26s.81-.16.53-.58-.52-.31-.87-.26-.81.15-.53.58zM216.65 144.4c.24.35.52.31.87.26s.81-.16.53-.58-.52-.31-.87-.26-.81.18-.53.58zM205.83 150.65c.24.35.52.31.87.26s.81-.16.53-.58-.52-.31-.87-.26-.82.16-.53.58zM195 156.9c.24.35.52.31.87.26s.81-.16.53-.58-.52-.31-.87-.26-.82.16-.53.58zM184.17 163.15c.24.35.52.31.87.26s.81-.16.53-.58-.52-.31-.87-.26-.82.16-.53.58zM173.34 169.4c.24.35.52.31.87.26s.81-.16.53-.58-.52-.31-.87-.26-.81.18-.53.58zM162.51 175.66c.24.35.52.31.87.26s.81-.16.53-.58-.52-.31-.87-.26-.81.15-.53.58zM151.69 181.91c.24.35.52.31.87.26s.81-.16.53-.58-.52-.31-.87-.26-.82.16-.53.58zM140.86 188.16c.24.35.52.31.87.26s.81-.16.53-.58-.52-.31-.87-.26-.82.16-.53.58zM130 194.41c.24.35.52.31.87.26s.81-.16.53-.58-.52-.31-.87-.26-.79.17-.53.58zM119.2 200.66c.24.35.52.31.87.26s.81-.16.53-.58-.52-.31-.87-.26-.82.16-.53.58zM108.37 206.91c.24.35.52.31.87.26s.81-.16.53-.58-.52-.31-.87-.26-.81.16-.53.58zM97.54 213.17c.24.35.52.31.87.26s.81-.16.53-.58-.52-.31-.87-.26-.81.15-.53.58zM86.72 219.42c.24.35.52.31.87.26s.81-.16.53-.58-.52-.31-.87-.26-.82.16-.53.58zM75.89 225.67c.24.35.52.31.87.26s.81-.16.53-.58-.52-.31-.87-.26-.82.16-.53.58zM379.08 38.12c.24.35.52.31.87.26s.81-.16.53-.58-.52-.31-.87-.26-.82.16-.53.58zM368.25 44.37c.24.35.52.31.87.26s.81-.16.53-.58-.52-.31-.87-.26-.78.16-.53.58zM357.42 50.62c.24.35.52.31.87.26s.81-.16.53-.58-.52-.31-.87-.26-.82.16-.53.58zM346.59 56.87c.24.35.52.31.87.26s.81-.16.53-.58-.52-.31-.87-.26-.81.16-.53.58zM335.76 63.13c.24.35.52.31.87.26s.81-.16.53-.58-.52-.31-.87-.26-.81.15-.53.58zM324.94 69.38c.24.35.52.31.87.26s.81-.16.53-.58-.52-.31-.87-.26-.82.2-.53.58zM314.11 75.63c.24.35.52.31.87.26s.81-.16.53-.58-.51-.31-.87-.31-.82.21-.53.63zM303.28 81.88c.24.35.52.31.87.26s.81-.16.53-.58-.52-.31-.87-.26-.81.16-.53.58zM292.45 88.13c.24.35.52.31.87.26s.81-.16.53-.58-.52-.31-.87-.26-.81.16-.53.58zM281.62 94.38c.24.35.52.31.87.26s.81-.16.53-.58-.52-.31-.87-.26-.81.2-.53.58zM270.8 100.64c.24.35.52.31.87.26s.81-.16.53-.58-.52-.31-.87-.26-.82.15-.53.58zM260 106.89c.24.35.52.31.87.26s.81-.16.53-.58-.52-.31-.87-.26-.85.16-.53.58zM249.14 113.14c.24.35.52.31.87.26s.81-.16.53-.58-.52-.31-.87-.26-.82.16-.53.58zM238.31 119.39c.24.35.52.31.87.26s.81-.16.53-.58-.52-.31-.87-.26-.84.19-.53.58zM227.48 125.64c.24.35.52.31.87.26s.81-.16.53-.58-.52-.31-.87-.26-.81.16-.53.58zM216.65 131.89c.24.35.52.31.87.26s.81-.16.53-.58-.52-.31-.87-.26-.81.16-.53.58zM205.83 138.15c.24.35.52.31.87.26s.81-.16.53-.58-.52-.31-.87-.26-.82.15-.53.58zM195 144.4c.24.35.52.31.87.26s.81-.16.53-.58-.52-.31-.87-.26-.82.18-.53.58zM184.17 150.65c.24.35.52.31.87.26s.81-.16.53-.58-.52-.31-.87-.26-.82.16-.53.58zM173.34 156.9c.24.35.52.31.87.26s.81-.16.53-.58-.52-.31-.87-.26-.81.16-.53.58zM162.51 163.15c.24.35.52.31.87.26s.81-.16.53-.58-.52-.31-.87-.26-.81.16-.53.58zM151.69 169.4c.24.35.52.31.87.26s.81-.16.53-.58-.52-.31-.87-.26-.82.18-.53.58zM140.86 175.66c.24.35.52.31.87.26s.81-.16.53-.58-.52-.31-.87-.26-.82.15-.53.58zM130 181.91c.24.35.52.31.87.26s.81-.16.53-.58-.52-.31-.87-.26-.79.16-.53.58zM119.2 188.16c.24.35.52.31.87.26s.81-.16.53-.58-.52-.31-.87-.26-.82.16-.53.58zM108.37 194.41c.24.35.52.31.87.26s.81-.16.53-.58-.52-.31-.87-.26-.81.17-.53.58zM97.54 200.66c.24.35.52.31.87.26s.81-.16.53-.58-.52-.31-.87-.26-.81.16-.53.58zM86.72 206.91c.24.35.52.31.87.26s.81-.16.53-.58-.52-.31-.87-.26-.82.16-.53.58zM75.89 213.17c.24.35.52.31.87.26s.81-.16.53-.58-.52-.31-.87-.26-.82.15-.53.58zM65.06 219.42c.24.35.52.31.87.26s.81-.16.53-.58-.52-.31-.87-.26-.82.16-.53.58zM368.25 31.87c.24.35.52.31.87.26s.81-.16.53-.58-.52-.31-.87-.26-.78.16-.53.58zM357.42 38.12c.24.35.52.31.87.26s.81-.16.53-.58-.52-.31-.87-.26-.82.16-.53.58zM346.59 44.37c.24.35.52.31.87.26s.81-.16.53-.58-.52-.31-.87-.26-.81.16-.53.58zM335.76 50.62c.24.35.52.31.87.26s.81-.16.53-.58-.52-.31-.87-.26-.81.16-.53.58zM324.94 56.87c.24.35.52.31.87.26s.81-.16.53-.58-.52-.31-.87-.26-.82.16-.53.58zM314.11 63.13c.24.35.52.31.87.26s.81-.16.53-.58-.52-.31-.87-.26-.82.15-.53.58zM303.28 69.38c.24.35.52.31.87.26s.81-.16.53-.58-.52-.31-.87-.26-.81.2-.53.58zM292.45 75.63c.24.35.52.31.87.26s.81-.16.53-.58-.52-.31-.85-.31-.83.21-.55.63zM281.62 81.88c.24.35.52.31.87.26s.81-.16.53-.58-.52-.31-.87-.26-.81.16-.53.58zM270.8 88.13c.24.35.52.31.87.26s.81-.16.53-.58-.52-.31-.87-.26-.82.16-.53.58zM260 94.38c.24.35.52.31.87.26s.81-.16.53-.58-.52-.31-.87-.26-.85.2-.53.58zM249.14 100.64c.24.35.52.31.87.26s.81-.16.53-.58-.52-.31-.87-.26-.82.15-.53.58zM238.31 106.89c.24.35.52.31.87.26s.81-.16.53-.58-.52-.31-.87-.26-.84.16-.53.58zM227.48 113.14c.24.35.52.31.87.26s.81-.16.53-.58-.52-.31-.87-.26-.81.16-.53.58zM216.65 119.39c.24.35.52.31.87.26s.81-.16.53-.58-.52-.31-.87-.26-.81.19-.53.58zM205.83 125.64c.24.35.52.31.87.26s.81-.16.53-.58-.52-.31-.87-.26-.82.16-.53.58zM195 131.89c.24.35.52.31.87.26s.81-.16.53-.58-.52-.31-.87-.26-.82.16-.53.58zM184.17 138.15c.24.35.52.31.87.26s.81-.16.53-.58-.52-.31-.87-.26-.82.15-.53.58zM173.34 144.4c.24.35.52.31.87.26s.81-.16.53-.58-.52-.31-.87-.26-.81.18-.53.58zM162.51 150.65c.24.35.52.31.87.26s.81-.16.53-.58-.52-.31-.87-.26-.81.16-.53.58zM151.69 156.9c.24.35.52.31.87.26s.81-.16.53-.58-.52-.31-.87-.26-.82.16-.53.58zM140.86 163.15c.24.35.52.31.87.26s.81-.16.53-.58-.52-.31-.87-.26-.82.16-.53.58zM130 169.4c.24.35.52.31.87.26s.81-.16.53-.58-.52-.31-.87-.26-.79.18-.53.58zM119.2 175.66c.24.35.52.31.87.26s.81-.16.53-.58-.52-.31-.87-.26-.82.15-.53.58zM108.37 181.91c.24.35.52.31.87.26s.81-.16.53-.58-.52-.31-.87-.26-.81.16-.53.58zM97.54 188.16c.24.35.52.31.87.26s.81-.16.53-.58-.52-.31-.87-.26-.81.16-.53.58zM86.72 194.41c.24.35.52.31.87.26s.81-.16.53-.58-.52-.31-.87-.26-.82.17-.53.58zM75.89 200.66c.24.35.52.31.87.26s.81-.16.53-.58-.52-.31-.87-.26-.82.16-.53.58zM65.06 206.91c.24.35.52.31.87.26s.81-.16.53-.58-.52-.31-.87-.26-.82.16-.53.58zM54.23 213.17c.24.35.52.31.87.26s.81-.16.53-.58-.52-.31-.87-.26-.81.15-.53.58zM357.42 25.62c.24.35.52.31.87.26s.81-.16.53-.58-.52-.31-.87-.26-.82.15-.53.58zM346.59 31.87c.24.35.52.31.87.26s.81-.16.53-.58-.52-.31-.87-.26-.81.16-.53.58zM335.76 38.12c.24.35.52.31.87.26s.81-.16.53-.58-.52-.31-.87-.26-.81.16-.53.58zM324.94 44.37c.24.35.52.31.87.26s.81-.16.53-.58-.52-.31-.87-.26-.82.16-.53.58zM314.11 50.62c.24.35.52.31.87.26s.81-.16.53-.58-.51-.3-.87-.3-.82.2-.53.62zM303.28 56.87c.24.35.52.31.87.26s.81-.16.53-.58-.52-.31-.87-.26-.81.16-.53.58zM292.45 63.13c.24.35.52.31.87.26s.81-.16.53-.58-.52-.31-.87-.26-.81.15-.53.58zM281.62 69.38c.24.35.52.31.87.26s.81-.16.53-.58-.52-.31-.87-.26-.81.2-.53.58zM270.8 75.63c.24.35.52.31.87.26s.81-.16.53-.58-.52-.31-.87-.26-.82.16-.53.58zM260 81.88c.24.35.52.31.87.26s.81-.16.53-.58-.52-.31-.87-.26-.85.16-.53.58zM249.14 88.13c.24.35.52.31.87.26s.81-.16.53-.58-.52-.31-.87-.26-.82.16-.53.58zM238.31 94.38c.24.35.52.31.87.26s.81-.16.53-.58-.52-.31-.87-.26-.84.2-.53.58zM227.48 100.64c.24.35.52.31.87.26s.81-.16.53-.58-.52-.31-.87-.26-.81.15-.53.58zM216.65 106.89c.24.35.52.31.87.26s.81-.16.53-.58-.52-.31-.87-.26-.81.16-.53.58zM205.83 113.14c.24.35.52.31.87.26s.81-.16.53-.58-.52-.31-.87-.26-.82.16-.53.58zM195 119.39c.24.35.52.31.87.26s.81-.16.53-.58-.52-.31-.87-.26-.82.19-.53.58zM184.17 125.64c.24.35.52.31.87.26s.81-.16.53-.58-.52-.31-.87-.26-.82.16-.53.58zM173.34 131.89c.24.35.52.31.87.26s.81-.16.53-.58-.52-.31-.87-.26-.81.16-.53.58zM162.51 138.15c.24.35.52.31.87.26s.81-.16.53-.58-.52-.31-.87-.26-.81.15-.53.58zM151.69 144.4c.24.35.52.31.87.26s.81-.16.53-.58-.52-.31-.87-.26-.82.18-.53.58zM140.86 150.65c.24.35.52.31.87.26s.81-.16.53-.58-.52-.31-.87-.26-.82.16-.53.58zM130 156.9c.24.35.52.31.87.26s.81-.16.53-.58-.52-.31-.87-.26-.79.16-.53.58zM119.2 163.15c.24.35.52.31.87.26s.81-.16.53-.58-.52-.31-.87-.26-.82.16-.53.58zM108.37 169.4c.24.35.52.31.87.26s.81-.16.53-.58-.52-.31-.87-.26-.81.18-.53.58zM97.54 175.66c.24.35.52.31.87.26s.81-.16.53-.58-.52-.31-.87-.26-.81.15-.53.58zM86.72 181.91c.24.35.52.31.87.26s.81-.16.53-.58-.52-.31-.87-.26-.82.16-.53.58zM75.89 188.16c.24.35.52.31.87.26s.81-.16.53-.58-.52-.31-.87-.26-.82.16-.53.58zM65.06 194.41c.24.35.52.31.87.26s.81-.16.53-.58-.52-.31-.87-.26-.82.17-.53.58zM54.23 200.66c.24.35.52.31.87.26s.81-.16.53-.58-.52-.31-.87-.26-.81.16-.53.58zM43.4 206.91c.24.35.52.31.87.26s.81-.16.53-.58-.52-.31-.87-.26-.81.16-.53.58zM346.59 19.36c.24.35.52.31.87.26s.81-.16.53-.58-.52-.31-.87-.26-.81.16-.53.58zM335.76 25.62c.24.35.52.31.87.26s.81-.16.53-.58-.52-.31-.87-.26-.81.15-.53.58zM324.94 31.87c.24.35.52.31.87.26s.81-.16.53-.58-.52-.31-.87-.26-.82.16-.53.58zM314.11 38.12c.24.35.52.31.87.26s.81-.16.53-.58-.52-.31-.87-.26-.82.16-.53.58zM303.28 44.37c.24.35.52.31.87.26s.81-.16.53-.58-.52-.31-.87-.26-.81.16-.53.58zM292.45 50.62c.24.35.52.31.87.26s.81-.16.53-.58-.52-.3-.85-.3-.83.2-.55.62zM281.62 56.87c.24.35.52.31.87.26s.81-.16.53-.58-.52-.31-.87-.26-.81.16-.53.58zM270.8 63.13c.24.35.52.31.87.26s.81-.16.53-.58-.52-.31-.87-.26-.82.15-.53.58zM260 69.38c.24.35.52.31.87.26s.81-.16.53-.58-.52-.31-.87-.26-.85.2-.53.58zM249.14 75.63c.24.35.52.31.87.26s.81-.16.53-.58-.54-.31-.87-.31-.82.21-.53.63zM238.31 81.88c.24.35.52.31.87.26s.81-.16.53-.58-.52-.31-.87-.26-.84.16-.53.58zM227.48 88.13c.24.35.52.31.87.26s.81-.16.53-.58-.52-.31-.87-.26-.81.16-.53.58zM216.65 94.38c.24.35.52.31.87.26s.81-.16.53-.58-.52-.31-.87-.26-.81.2-.53.58zM205.83 100.64c.24.35.52.31.87.26s.81-.16.53-.58-.52-.31-.87-.26-.82.15-.53.58zM195 106.89c.24.35.52.31.87.26s.81-.16.53-.58-.52-.31-.87-.26-.82.16-.53.58zM184.17 113.14c.24.35.52.31.87.26s.81-.16.53-.58-.52-.31-.87-.26-.82.16-.53.58zM173.34 119.39c.24.35.52.31.87.26s.81-.16.53-.58-.52-.31-.87-.26-.81.19-.53.58zM162.51 125.64c.24.35.52.31.87.26s.81-.16.53-.58-.52-.31-.87-.26-.81.16-.53.58zM151.69 131.89c.24.35.52.31.87.26s.81-.16.53-.58-.52-.31-.87-.26-.82.16-.53.58zM140.86 138.15c.24.35.52.31.87.26s.81-.16.53-.58-.52-.31-.87-.26-.82.15-.53.58zM130 144.4c.24.35.52.31.87.26s.81-.16.53-.58-.52-.31-.87-.26-.79.18-.53.58zM119.2 150.65c.24.35.52.31.87.26s.81-.16.53-.58-.52-.31-.87-.26-.82.16-.53.58zM108.37 156.9c.24.35.52.31.87.26s.81-.16.53-.58-.52-.31-.87-.26-.81.16-.53.58zM97.54 163.15c.24.35.52.31.87.26s.81-.16.53-.58-.52-.31-.87-.26-.81.16-.53.58zM86.72 169.4c.24.35.52.31.87.26s.81-.16.53-.58-.52-.31-.87-.26-.82.18-.53.58zM75.89 175.66c.24.35.52.31.87.26s.81-.16.53-.58-.52-.31-.87-.26-.82.15-.53.58zM65.06 181.91c.24.35.52.31.87.26s.81-.16.53-.58-.52-.31-.87-.26-.82.16-.53.58zM54.23 188.16c.24.35.52.31.87.26s.81-.16.53-.58-.52-.31-.87-.26-.81.16-.53.58zM43.4 194.41c.24.35.52.31.87.26s.81-.16.53-.58-.52-.31-.87-.26-.81.17-.53.58zM32.58 200.66c.24.35.52.31.87.26s.81-.16.53-.58-.52-.31-.87-.26-.82.16-.53.58zM335.76 13.11c.24.35.52.31.87.26s.81-.16.53-.58-.52-.31-.87-.26-.81.16-.53.58zM324.94 19.36c.24.35.52.31.87.26s.81-.16.53-.58-.52-.31-.87-.26-.82.16-.53.58zM314.11 25.62c.24.35.52.31.87.26s.81-.16.53-.58-.51-.3-.87-.3-.82.19-.53.62zM303.28 31.87c.24.35.52.31.87.26s.81-.16.53-.58-.52-.31-.87-.26-.81.16-.53.58zM292.45 38.12c.24.35.52.31.87.26s.81-.16.53-.58-.52-.31-.87-.26-.81.16-.53.58zM281.62 44.37c.24.35.52.31.87.26s.81-.16.53-.58-.52-.31-.87-.26-.81.16-.53.58zM270.8 50.62c.24.35.52.31.87.26s.81-.16.53-.58-.52-.31-.87-.26-.82.16-.53.58zM260 56.87c.24.35.52.31.87.26s.81-.16.53-.58-.52-.31-.87-.26-.85.16-.53.58zM249.14 63.13c.24.35.52.31.87.26s.81-.16.53-.58-.52-.31-.87-.26-.82.15-.53.58zM238.31 69.38c.24.35.52.31.87.26s.81-.16.53-.58-.52-.31-.87-.26-.84.2-.53.58zM227.48 75.63c.24.35.52.31.87.26s.81-.16.53-.58-.52-.31-.88-.31-.8.21-.52.63zM216.65 81.88c.24.35.52.31.87.26s.81-.16.53-.58-.52-.31-.87-.26-.81.16-.53.58zM205.83 88.13c.24.35.52.31.87.26s.81-.16.53-.58-.52-.31-.87-.26-.82.16-.53.58zM195 94.38c.24.35.52.31.87.26s.81-.16.53-.58-.52-.31-.87-.26-.82.2-.53.58zM184.17 100.64c.24.35.52.31.87.26s.81-.16.53-.58-.52-.31-.87-.26-.82.15-.53.58zM173.34 106.89c.24.35.52.31.87.26s.81-.16.53-.58-.52-.31-.87-.26-.81.16-.53.58zM162.51 113.14c.24.35.52.31.87.26s.81-.16.53-.58-.52-.31-.87-.26-.81.16-.53.58zM151.69 119.39c.24.35.52.31.87.26s.81-.16.53-.58-.52-.31-.87-.26-.82.19-.53.58zM140.86 125.64c.24.35.52.31.87.26s.81-.16.53-.58-.52-.31-.87-.26-.82.16-.53.58zM130 131.89c.24.35.52.31.87.26s.81-.16.53-.58-.52-.31-.87-.26-.79.16-.53.58zM119.2 138.15c.24.35.52.31.87.26s.81-.16.53-.58-.52-.31-.87-.26-.82.15-.53.58zM108.37 144.4c.24.35.52.31.87.26s.81-.16.53-.58-.52-.31-.87-.26-.81.18-.53.58zM97.54 150.65c.24.35.52.31.87.26s.81-.16.53-.58-.52-.31-.87-.26-.81.16-.53.58zM86.72 156.9c.24.35.52.31.87.26s.81-.16.53-.58-.52-.31-.87-.26-.82.16-.53.58zM75.89 163.15c.24.35.52.31.87.26s.81-.16.53-.58-.52-.31-.87-.26-.82.16-.53.58zM65.06 169.4c.24.35.52.31.87.26s.81-.16.53-.58-.52-.31-.87-.26-.82.18-.53.58zM54.23 175.66c.24.35.52.31.87.26s.81-.16.53-.58-.52-.31-.87-.26-.81.15-.53.58zM43.4 181.91c.24.35.52.31.87.26s.81-.16.53-.58-.52-.31-.87-.26-.81.16-.53.58zM32.58 188.16c.24.35.52.31.87.26s.81-.16.53-.58-.52-.31-.87-.26-.82.16-.53.58zM21.75 194.41c.24.35.52.31.87.26s.81-.16.53-.58-.52-.31-.87-.26-.82.17-.53.58zM324.94 6.86c.24.35.52.31.87.26s.81-.16.53-.58-.52-.31-.87-.26-.82.16-.53.58zM314.11 13.11c.24.35.52.31.87.26s.81-.16.53-.58-.52-.31-.87-.26-.82.16-.53.58zM303.28 19.36c.24.35.52.31.87.26s.81-.16.53-.58-.52-.31-.87-.26-.81.16-.53.58zM292.45 25.62c.24.35.52.31.87.26s.81-.16.53-.58-.52-.3-.85-.3-.83.19-.55.62zM281.62 31.87c.24.35.52.31.87.26s.81-.16.53-.58-.52-.31-.87-.26-.81.16-.53.58zM270.8 38.12c.24.35.52.31.87.26s.81-.16.53-.58-.52-.31-.87-.26-.82.16-.53.58zM260 44.37c.24.35.52.31.87.26s.81-.16.53-.58-.52-.31-.87-.26-.85.16-.53.58zM249.14 50.62c.24.35.52.31.87.26s.81-.16.53-.58-.54-.3-.87-.3-.82.2-.53.62zM238.31 56.87c.24.35.52.31.87.26s.81-.16.53-.58-.52-.31-.87-.26-.84.16-.53.58zM227.48 63.13c.24.35.52.31.87.26s.81-.16.53-.58-.52-.31-.87-.26-.81.15-.53.58zM216.65 69.38c.24.35.52.31.87.26s.81-.16.53-.58-.52-.31-.87-.26-.81.2-.53.58zM205.83 75.63c.24.35.52.31.87.26s.81-.16.53-.58-.52-.31-.87-.26-.82.16-.53.58zM195 81.88c.24.35.52.31.87.26s.81-.16.53-.58-.52-.31-.87-.26-.82.16-.53.58zM184.17 88.13c.24.35.52.31.87.26s.81-.16.53-.58-.52-.31-.87-.26-.82.16-.53.58zM173.34 94.38c.24.35.52.31.87.26s.81-.16.53-.58-.52-.31-.87-.26-.81.2-.53.58zM162.51 100.64c.24.35.52.31.87.26s.81-.16.53-.58-.52-.31-.87-.26-.81.15-.53.58zM151.69 106.89c.24.35.52.31.87.26s.81-.16.53-.58-.52-.31-.87-.26-.82.16-.53.58zM140.86 113.14c.24.35.52.31.87.26s.81-.16.53-.58-.52-.31-.87-.26-.82.16-.53.58zM130 119.39c.24.35.52.31.87.26s.81-.16.53-.58-.52-.31-.87-.26-.79.19-.53.58zM119.2 125.64c.24.35.52.31.87.26s.81-.16.53-.58-.52-.31-.87-.26-.82.16-.53.58zM108.37 131.89c.24.35.52.31.87.26s.81-.16.53-.58-.52-.31-.87-.26-.81.16-.53.58zM97.54 138.15c.24.35.52.31.87.26s.81-.16.53-.58-.52-.31-.87-.26-.81.15-.53.58zM86.72 144.4c.24.35.52.31.87.26s.81-.16.53-.58-.52-.31-.87-.26-.82.18-.53.58zM75.89 150.65c.24.35.52.31.87.26s.81-.16.53-.58-.52-.31-.87-.26-.82.16-.53.58zM65.06 156.9c.24.35.52.31.87.26s.81-.16.53-.58-.52-.31-.87-.26-.82.16-.53.58zM54.23 163.15c.24.35.52.31.87.26s.81-.16.53-.58-.52-.31-.87-.26-.81.16-.53.58zM43.4 169.4c.24.35.52.31.87.26s.81-.16.53-.58-.52-.31-.87-.26-.81.18-.53.58zM32.58 175.66c.24.35.52.31.87.26s.81-.16.53-.58-.52-.31-.87-.26-.82.15-.53.58zM21.75 181.91c.24.35.52.31.87.26s.81-.16.53-.58-.52-.31-.87-.26-.82.16-.53.58zM10.92 188.16c.24.35.52.31.87.26s.81-.16.53-.58-.52-.31-.87-.26-.82.16-.53.58zM.09 181.91c.24.35.52.31.87.26s.81-.16.53-.58-.52-.31-.87-.26-.82.16-.53.58zM10.92 175.66c.24.35.52.31.87.26s.81-.16.53-.58-.52-.31-.87-.26-.82.15-.53.58zM21.75 169.4c.24.35.52.31.87.26s.81-.16.53-.58-.52-.31-.87-.26-.82.18-.53.58zM32.58 163.15c.24.35.52.31.87.26s.81-.16.53-.58-.52-.31-.87-.26-.82.16-.53.58zM43.4 156.9c.24.35.52.31.87.26s.81-.16.53-.58-.52-.31-.87-.26-.81.16-.53.58zM54.23 150.65c.24.35.52.31.87.26s.81-.16.53-.58-.52-.31-.87-.26-.81.16-.53.58zM65.06 144.4c.24.35.52.31.87.26s.81-.16.53-.58-.52-.31-.87-.26-.82.18-.53.58zM75.89 138.15c.24.35.52.31.87.26s.81-.16.53-.58-.52-.31-.87-.26-.82.15-.53.58zM86.72 131.89c.24.35.52.31.87.26s.81-.16.53-.58-.52-.31-.87-.26-.82.16-.53.58zM97.54 125.64c.24.35.52.31.87.26s.81-.16.53-.58-.52-.31-.87-.26-.81.16-.53.58zM108.37 119.39c.24.35.52.31.87.26s.81-.16.53-.58-.52-.31-.87-.26-.81.19-.53.58zM119.2 113.14c.24.35.52.31.87.26s.81-.16.53-.58-.52-.31-.87-.26-.82.16-.53.58zM130 106.89c.24.35.52.31.87.26s.81-.16.53-.58-.52-.31-.87-.26-.79.16-.53.58zM140.86 100.64c.24.35.52.31.87.26s.81-.16.53-.58-.52-.31-.87-.26-.82.15-.53.58zM151.69 94.38c.24.35.52.31.87.26s.81-.16.53-.58-.52-.31-.87-.26-.82.2-.53.58zM162.51 88.13c.24.35.52.31.87.26s.81-.16.53-.58-.52-.31-.87-.26-.81.16-.53.58zM173.34 81.88c.24.35.52.31.87.26s.81-.16.53-.58-.52-.31-.87-.26-.81.16-.53.58zM184.17 75.63c.24.35.52.31.87.26s.81-.16.53-.58-.57-.31-.87-.31-.82.21-.53.63zM195 69.38c.24.35.52.31.87.26s.81-.16.53-.58-.52-.31-.87-.26-.82.2-.53.58zM205.83 63.13c.24.35.52.31.87.26s.81-.16.53-.58-.52-.31-.87-.26-.82.15-.53.58zM216.65 56.87c.24.35.52.31.87.26s.81-.16.53-.58-.52-.31-.87-.26-.81.16-.53.58zM227.48 50.62c.24.35.52.31.87.26s.81-.16.53-.58-.52-.3-.88-.3-.8.2-.52.62zM238.31 44.37c.24.35.52.31.87.26s.81-.16.53-.58-.52-.31-.87-.26-.84.16-.53.58zM249.14 38.12c.24.35.52.31.87.26s.81-.16.53-.58-.52-.31-.87-.26-.82.16-.53.58zM260 31.87c.24.35.52.31.87.26s.81-.16.53-.58-.52-.31-.87-.26-.85.16-.53.58zM270.8 25.62c.24.35.52.31.87.26s.81-.16.53-.58-.52-.31-.87-.26-.82.15-.53.58zM281.62 19.36c.24.35.52.31.87.26s.81-.16.53-.58-.52-.31-.87-.26-.81.16-.53.58zM292.45 13.11c.24.35.52.31.87.26s.81-.16.53-.58-.52-.31-.87-.26-.81.16-.53.58zM303.28 6.86c.24.35.52.31.87.26s.81-.16.53-.58-.52-.31-.87-.26-.81.16-.53.58zM314.11.61c.24.35.52.31.87.26s.81-.16.53-.58S315 0 314.64 0s-.82.19-.53.61z"/>
      <path class="csl5-3" d="M315.59 164.88L282 145.49V81.15l33.59 19.39v64.34z"/>
      <path class="csl5-3" d="M315.59 100.54L282 81.15l33.59-19.4 33.59 19.4-33.59 19.39z"/>
      <path class="csl5-3" d="M349.18 145.49l-33.59 19.39v-64.34l33.59-19.39v64.34z"/>
      <path class="csl5-3" d="M349.18 184.27l-33.59-19.39v-57.69l33.59 19.39v57.69z"/>
      <path class="csl5-3" d="M349.18 126.58l-33.59-19.39 33.59-19.4 33.59 19.4-33.59 19.39z"/>
      <path class="csl5-3" d="M382.77 164.88l-33.59 19.39v-57.69l33.59-19.39v57.69z"/>
      <path class="csl5-3" d="M382.77 203.67l-33.59-19.4v-40.5l33.59 19.39v40.51z"/>
      <path class="csl5-3" d="M382.77 163.16l-33.59-19.39 33.59-19.39 33.6 19.39-33.6 19.39zM416.37 184.27l-33.6 19.4v-40.51l33.6-19.39v40.5zM282 184.27l-33.59-19.39v-45.66L282 138.61v45.66z"/>
      <path class="csl5-3" d="M282 138.61l-33.59-19.39L282 99.83l33.59 19.39L282 138.61zM315.59 164.88L282 184.27v-45.66l33.59-19.39v45.66zM248.41 203.67l-33.59-19.4v-51.41l33.59 19.39v51.42z"/>
      <path class="csl5-3" d="M248.41 152.25l-33.59-19.39 33.59-19.39L282 132.86l-33.59 19.39z"/>
      <path class="csl5-3" d="M282 184.27l-33.59 19.4v-51.42L282 132.86v51.41z"/>
      <path class="csl5-4" d="M400.54 109.42v18.34l-2.96 1.71v-18.33l2.96-1.72z"/>
      <path class="csl5-4" d="M400.54 109.42l-2.96 1.72-2.97-1.72-1.78 1.03-8.87-5.12 1.78-1.03-2.97-1.71 2.97-1.72.6.35v2.5l4.11 2.37 2.16-1.25 4.97 2.87 2.96 1.71z"/>
      <path class="csl5-4" d="M397.58 111.14v18.33l-1.78-1.02v-.01l-1.19-.68v-18.34l2.97 1.72z"/>
      <path class="csl5-4" d="M395.8 128.45v15.42l-2.97 1.71V110.45l1.78-1.03v18.34l1.19.68v.01zM395.19 95.23v4.57l-1.12.65V104l-1.46.84-2.16 1.25V97.97l4.74-2.74z"/>
      <path class="csl5-4" d="M395.19 95.23l-4.74 2.74-.06-.03-4.05-2.34 4.75-2.74 4.1 2.37zM389.87 140.47v-14.94l-2.94-1.7v18.34l-2.97-1.71v-35.13l8.87 5.12V145.58l-2.96-1.71v-3.4z"/>
      <path class="csl5-4" d="M390.45 102.54v3.55l-4.11-2.37V95.6l4.05 2.34.06.03v4.57zM389.87 125.53v14.94l-2.94 1.7v-18.34l2.94 1.7zM385.74 104.3l-1.78 1.03v16.28l-1.19-.68v-18.34l2.97 1.71z"/>
      <path class="csl5-5" d="M394.07 100.45l1.13-.65"/>
      <path class="csl5-6" d="M392.83 110.45l1.78-1.03"/>
      <path class="csl5-5" d="M386.93 123.83l2.94 1.7"/>
      <path class="csl5-6" d="M382.77 102.59l2.97 1.71"/>
      <path class="csl5-5" d="M385.74 104.3l-1.78 1.02M386.34 100.17V95.6M391.09 92.86l-4.75 2.74"/>
      <path class="csl5-6" d="M390.45 102.54v-4.56M386.34 95.6l4.05 2.34"/>
      <path class="csl5-5" d="M395.2 99.8v-4.57"/>
      <path class="csl5-6" d="M390.45 97.98l4.75-2.75"/>
      <path class="csl5-5" d="M395.2 95.23l-4.11-2.37M386.34 103.72v-3.55M386.34 103.72l4.11 2.37"/>
      <path class="csl5-6" d="M390.45 106.09v-3.55"/>
      <path class="csl5-5" d="M390.45 106.09l2.16-1.25 1.46-.84M394.07 104v-3.55M383.96 122.12V105.33"/>
      <path class="csl5-6" d="M392.83 127.24v-16.79M383.96 105.32l8.87 5.13"/>
      <path class="csl5-5" d="M397.58 107.71l-4.97-2.87M389.87 143.87v-18.34M389.87 143.87l2.96 1.71"/>
      <path class="csl5-6" d="M392.83 145.58v-18.34"/>
      <path class="csl5-5" d="M392.83 145.58l2.97-1.71M395.8 143.87v-15.42M383.96 140.46v-18.34M383.96 140.46l2.97 1.71"/>
      <path class="csl5-6" d="M386.93 142.17v-18.34"/>
      <path class="csl5-5" d="M386.93 142.17l2.94-1.7h.01M386.34 101.22l-.6-.35M382.77 120.93v-18.34M385.74 100.87l-2.97 1.72M382.77 120.93l1.19.68M394.61 127.76v-18.34M394.61 127.76l1.19.68v.01l1.78 1.02"/>
      <path class="csl5-6" d="M397.58 129.47v-18.33M394.61 109.42l2.97 1.72"/>
      <path class="csl5-5" d="M397.58 129.47l2.96-1.71M400.54 127.76v-18.34"/>
      <path class="csl5-6" d="M397.58 111.14l2.96-1.72"/>
      <path class="csl5-5" d="M400.54 109.42l-2.96-1.71"/>
      <path class="csl5-3" d="M315.59 203.67L282 184.27v-40.5l33.59 19.39v40.51z"/>
      <path class="csl5-3" d="M315.59 163.16L282 143.77l33.59-19.39 33.59 19.39-33.59 19.39zM349.18 184.27l-33.59 19.4v-40.51l33.59-19.39v40.5z"/>
      <path class="csl5-4" d="M326.55 110.61v18.33l-2.96 1.71v-18.33l2.96-1.71z"/>
      <path class="csl5-4" d="M326.55 110.61l-2.96 1.71-2.97-1.71-1.78 1.02-8.87-5.12 1.78-1.03-2.97-1.71 2.97-1.71.6.35v2.49l4.11 2.37 2.16-1.24 4.97 2.86 2.96 1.72z"/>
      <path class="csl5-4" d="M323.59 112.32v18.33l-1.78-1.02v-.01l-1.19-.68v-18.33l2.97 1.71z"/>
      <path class="csl5-4" d="M321.81 129.63v15.42l-2.97 1.71V111.63l1.78-1.02v18.33l1.19.68v.01zM321.2 96.42v4.56l-1.12.65v3.55l-1.46.85-2.16 1.24v-8.11l4.74-2.74z"/>
      <path class="csl5-4" d="M321.2 96.42l-4.74 2.74-.06-.04-4.05-2.34 4.75-2.74 4.1 2.38zM315.88 141.66v-14.94l-2.94-1.71v18.34l-2.97-1.71v-35.13l8.87 5.12V146.76l-2.96-1.71v-3.39z"/>
      <path class="csl5-4" d="M316.46 103.72v3.55l-4.11-2.37V96.78l4.05 2.34.06.04v4.56zM315.88 126.72v14.94l-2.94 1.69v-18.34l2.94 1.71zM311.75 105.48l-1.78 1.03v16.28l-1.19-.68v-18.34l2.97 1.71z"/>
      <path class="csl5-5" d="M320.08 101.63l1.12-.65"/>
      <path class="csl5-6" d="M318.84 111.63l1.78-1.02"/>
      <path class="csl5-5" d="M312.94 125.01l2.94 1.71"/>
      <path class="csl5-6" d="M308.78 103.77l2.97 1.71"/>
      <path class="csl5-5" d="M311.75 105.48l-1.78 1.03M312.35 101.35v-4.56M317.1 94.04l-4.75 2.75"/>
      <path class="csl5-6" d="M316.46 103.72v-4.56M312.35 96.79l4.05 2.33"/>
      <path class="csl5-5" d="M321.2 100.98v-4.56"/>
      <path class="csl5-6" d="M316.46 99.16l4.74-2.74"/>
      <path class="csl5-5" d="M321.2 96.42l-4.1-2.38M312.35 104.9V101.35M312.35 104.9l4.11 2.37"/>
      <path class="csl5-6" d="M316.46 107.27v-3.55"/>
      <path class="csl5-5" d="M316.46 107.27l2.16-1.24 1.46-.85M320.08 105.18v-3.55M309.97 123.3V106.51"/>
      <path class="csl5-6" d="M318.84 128.43v-16.8M309.97 106.51l8.87 5.12"/>
      <path class="csl5-5" d="M323.59 108.89l-4.97-2.86M315.88 145.05v-18.33M315.88 145.05l2.96 1.71"/>
      <path class="csl5-6" d="M318.84 146.76v-18.33"/>
      <path class="csl5-5" d="M318.84 146.76l2.97-1.71M321.81 145.05v-15.42M309.97 141.64V123.3M309.97 141.64l2.97 1.71"/>
      <path class="csl5-6" d="M312.94 143.35v-18.34"/>
      <path class="csl5-5" d="M312.94 143.35l2.94-1.69.01-.01M312.35 102.41l-.6-.36M308.78 122.11v-18.34M311.75 102.05l-2.97 1.72M308.78 122.11l1.19.68M320.62 128.94v-18.33M320.62 128.94l1.19.68v.01l1.78 1.02"/>
      <path class="csl5-6" d="M323.59 130.65v-18.33M320.62 110.61l2.97 1.71"/>
      <path class="csl5-5" d="M323.59 130.65l2.96-1.71M326.55 128.94v-18.33"/>
      <path class="csl5-6" d="M323.59 112.32l2.96-1.71"/>
      <path class="csl5-5" d="M326.55 110.61l-2.96-1.72"/>
      <path class="csl5-4" d="M326.38 51.1v18.34l-2.97 1.71V52.81l2.97-1.71z"/>
      <path class="csl5-4" d="M326.38 51.1l-2.97 1.71-2.96-1.71-1.78 1.03L309.8 47l1.78-1.02-2.97-1.71 2.97-1.72.6.35v2.5l4.11 2.37 2.15-1.25 4.97 2.86 2.97 1.72z"/>
      <path class="csl5-4" d="M323.41 52.81v18.34l-1.78-1.02v-.01l-1.18-.68V51.1l2.96 1.71z"/>
      <path class="csl5-4" d="M321.63 70.13v15.42l-2.96 1.71V52.13l1.78-1.03v18.34l1.18.68v.01zM321.03 36.91v4.57l-1.12.65v3.55l-1.47.84-2.15 1.25v-8.11l4.74-2.75z"/>
      <path class="csl5-4" d="M321.03 36.91l-4.74 2.75-.06-.04-4.05-2.34 4.74-2.74 4.11 2.37zM315.7 82.15V67.21l-2.94-1.7v18.34l-2.96-1.71V47l8.87 5.13V87.26l-2.97-1.71v-3.4z"/>
      <path class="csl5-4" d="M316.29 44.22v3.55l-4.11-2.37V37.28l4.05 2.34.06.04v4.56zM315.7 67.21v14.94l-2.94 1.7V65.51l2.94 1.7zM311.58 45.98L309.8 47v16.28l-1.19-.67V44.27l2.97 1.71z"/>
      <path class="csl5-5" d="M319.91 42.13l1.12-.65"/>
      <path class="csl5-6" d="M318.67 52.13l1.78-1.03"/>
      <path class="csl5-5" d="M312.76 65.51l2.94 1.7"/>
      <path class="csl5-6" d="M308.61 44.27l2.97 1.71"/>
      <path class="csl5-5" d="M311.58 45.98L309.8 47M312.18 41.85v-4.57M316.92 34.54l-4.74 2.74"/>
      <path class="csl5-6" d="M316.29 44.22v-4.57M312.18 37.28l4.05 2.34"/>
      <path class="csl5-5" d="M321.03 41.48v-4.57"/>
      <path class="csl5-6" d="M316.29 39.65l4.74-2.74"/>
      <path class="csl5-5" d="M321.03 36.91l-4.11-2.37M312.18 45.4v-3.55M312.18 45.4l4.11 2.37"/>
      <path class="csl5-6" d="M316.29 47.77v-3.55"/>
      <path class="csl5-5" d="M316.29 47.77l2.15-1.25 1.47-.84M319.91 45.68v-3.55M309.8 63.8V47"/>
      <path class="csl5-6" d="M318.67 68.92V52.13M309.8 47l8.87 5.13"/>
      <path class="csl5-5" d="M323.41 49.39l-4.97-2.87M315.7 85.55V67.21M315.7 85.55l2.97 1.71"/>
      <path class="csl5-6" d="M318.67 87.26V68.92"/>
      <path class="csl5-5" d="M318.67 87.26l2.96-1.71M321.63 85.55V70.13M309.8 82.14V63.8M309.8 82.14l2.96 1.71"/>
      <path class="csl5-6" d="M312.76 83.85V65.51"/>
      <path class="csl5-5" d="M312.76 83.85l2.94-1.7.02-.01M312.18 42.9l-.6-.35M308.61 62.61V44.27M311.58 42.55l-2.97 1.72M308.61 62.61l1.19.68M320.45 69.44V51.1M320.45 69.44l1.18.68v.01l1.78 1.02"/>
      <path class="csl5-6" d="M323.41 71.15V52.82M320.45 51.1l2.96 1.72"/>
      <path class="csl5-5" d="M323.41 71.15l2.97-1.71M326.38 69.44V51.1"/>
      <path class="csl5-6" d="M323.41 52.82l2.97-1.72"/>
      <path class="csl5-5" d="M326.38 51.1l-2.97-1.71"/>
      <path class="csl5-4" d="M295.33 85.31v18.33l-2.97 1.71V87.02l2.97-1.71z"/>
      <path class="csl5-4" d="M295.33 85.31l-2.97 1.71-2.96-1.71-1.78 1.02-8.87-5.13 1.77-1.02-2.96-1.71 2.96-1.72.61.35v2.5l4.11 2.37 2.15-1.25 4.97 2.87 2.97 1.72z"/>
      <path class="csl5-4" d="M292.36 87.02v18.33l-1.78-1.02v-.01l-1.18-.68V85.31l2.96 1.71z"/>
      <path class="csl5-4" d="M290.58 104.33v15.42l-2.96 1.71V86.33l1.78-1.02v18.33l1.18.68v.01zM289.98 71.11v4.57l-1.13.65v3.55l-1.46.84-2.15 1.25v-8.11l4.74-2.75zM289.98 71.11l-4.74 2.75-.06-.04-4.05-2.34 4.74-2.74 4.11 2.37z"/>
      <path class="csl5-4" d="M284.65 116.35v-14.94l-2.94-1.7v18.34l-2.96-1.71V81.2l8.87 5.13V121.46l-2.97-1.71v-3.4zM285.24 78.42v3.55l-4.11-2.37V71.48l4.05 2.34.06.04v4.56z"/>
      <path class="csl5-4" d="M284.65 101.41v14.94l-2.94 1.7V99.71l2.94 1.7zM280.52 80.18l-1.77 1.02v16.28l-1.19-.67V78.47l2.96 1.71z"/>
      <path class="csl5-5" d="M288.85 76.33l1.13-.65"/>
      <path class="csl5-6" d="M287.62 86.33l1.78-1.03"/>
      <path class="csl5-5" d="M281.71 99.71l2.94 1.7"/>
      <path class="csl5-6" d="M277.56 78.47l2.96 1.71"/>
      <path class="csl5-5" d="M280.52 80.18l-1.77 1.02M281.13 76.05v-4.57M285.87 68.74l-4.74 2.74"/>
      <path class="csl5-6" d="M285.24 78.42v-4.56M281.13 71.48l4.05 2.34"/>
      <path class="csl5-5" d="M289.98 75.68v-4.57"/>
      <path class="csl5-6" d="M285.24 73.86l4.74-2.75"/>
      <path class="csl5-5" d="M289.98 71.11l-4.11-2.37M281.13 79.6v-3.55M281.13 79.6l4.11 2.37"/>
      <path class="csl5-6" d="M285.24 81.97v-3.55"/>
      <path class="csl5-5" d="M285.24 81.97l2.15-1.25 1.46-.84M288.85 79.88v-3.55M278.75 98V81.2"/>
      <path class="csl5-6" d="M287.62 103.12V86.33M278.75 81.2l8.87 5.13"/>
      <path class="csl5-5" d="M292.36 83.59l-4.97-2.87M284.65 119.75v-18.34M284.65 119.75l2.97 1.71"/>
      <path class="csl5-6" d="M287.62 121.46v-18.34"/>
      <path class="csl5-5" d="M287.62 121.46l2.96-1.71M290.58 119.75v-15.42M278.75 116.34V98M278.75 116.34l2.96 1.71"/>
      <path class="csl5-6" d="M281.71 118.05V99.71"/>
      <path class="csl5-5" d="M281.71 118.05l2.94-1.7.02-.01M281.13 77.1l-.61-.35M277.56 96.81V78.47M280.52 76.75l-2.96 1.72M277.56 96.81l1.19.68M289.4 103.64V85.3M289.4 103.64l1.18.68v.01l1.78 1.02"/>
      <path class="csl5-6" d="M292.36 105.35V87.02M289.4 85.3l2.96 1.72"/>
      <path class="csl5-5" d="M292.36 105.35l2.97-1.71M295.33 103.64V85.3"/>
      <path class="csl5-6" d="M292.36 87.02l2.97-1.72"/>
      <path class="csl5-5" d="M295.33 85.3l-2.97-1.71"/>
      <path class="csl5-4" d="M360.76 60.04v18.34l-2.96 1.71V61.75l2.96-1.71z"/>
      <path class="csl5-4" d="M360.76 60.04l-2.96 1.71-2.96-1.7-.01-.01 2.97-1.71 2.96 1.71zM357.8 80.09v9.63l-1.78 1.03v18.34l-2.97 1.71V75.67l1.78-1.03v3.74l2.97 1.71z"/>
      <path class="csl5-4" d="M357.8 61.75v18.34l-2.97-1.71V60.07l.01-.02 2.96 1.7z"/>
      <path class="csl5-4" d="M354.83 71.22v3.42l-1.78 1.03-8.76-5.06-.06-.09 1.73-1 .71-.4.05-.1 3.95 2.29 2.16-1.25 2 1.16z"/>
      <path class="csl5-4" d="M354.83 65.36v5.86l-2-1.16 1.46-.84v-3.55l.54-.31z"/>
      <path class="csl5-4" d="M354.83 60.79v4.57l-.54.31v3.55l-1.46.84-2.16 1.25V63.2l4.16-2.41z"/>
      <path class="csl5-4" d="M354.83 60.09v.7l-4.16 2.41-.06-.04-4.05-2.34 2.37-1.36 2.38-1.38 3.5 2.01h.02zM350.09 105.69V90.75l-2.94-1.7v18.34l-2.97-1.71V70.67l.11-.06 8.76 5.06V110.8l-2.96-1.71v-3.4z"/>
      <path class="csl5-4" d="M350.67 67.76v3.55l-3.95-2.29-.16-.08V60.82l4.05 2.34.06.04v4.56zM350.09 90.75v14.94l-2.94 1.7V89.05l2.94 1.7z"/>
      <path class="csl5-4" d="M348.93 53.21v6.25l-2.37 1.36V68.94l.16.08-.05.1-.71.4v-14.6l2.97-1.71zM348.93 53.21l-2.97 1.71-2.96-1.71 2.96-1.71 2.97 1.71z"/>
      <path class="csl5-4" d="M344.23 70.52l.06.09-.11.06v1.56l-1.18-.69V53.21l2.96 1.71v14.6l-1.73 1z"/>
      <path class="csl5-5" d="M347.15 89.05l2.94 1.7M346.56 68.94v-3.55M346.56 68.94l.16.08 3.95 2.29"/>
      <path class="csl5-6" d="M350.67 71.31v-3.55"/>
      <path class="csl5-5" d="M350.67 71.31l2.16-1.25 1.46-.84M354.29 69.22v-3.55M346.56 65.39v-4.57M351.31 58.08l-2.38 1.38-2.37 1.36"/>
      <path class="csl5-6" d="M350.67 67.76v-4.57M346.56 60.82l4.05 2.34"/>
      <path class="csl5-5" d="M354.29 65.67l.54-.31"/>
      <path class="csl5-6" d="M350.67 63.19l4.16-2.4"/>
      <path class="csl5-5" d="M354.81 60.09l-3.5-2.01M348.93 53.21l-2.97-1.71M348.93 59.46v-6.25M343 71.54V53.21M345.96 51.5L343 53.21M343 71.54l1.18.69"/>
      <path class="csl5-6" d="M345.96 69.52v-14.6M343 53.21l2.96 1.71M345.96 54.92l2.97-1.71"/>
      <path class="csl5-5" d="M354.83 78.38V60.07M357.8 58.33l-2.97 1.71M354.83 78.38l2.97 1.71"/>
      <path class="csl5-6" d="M357.8 80.09V61.75M354.83 60.04l.01.01 2.96 1.7"/>
      <path class="csl5-5" d="M357.8 80.09l2.96-1.71M360.76 78.38V60.04"/>
      <path class="csl5-6" d="M357.8 61.75l2.96-1.71"/>
      <path class="csl5-5" d="M360.76 60.04l-2.96-1.71M344.18 105.68V87.34M344.18 105.68l2.97 1.71"/>
      <path class="csl5-6" d="M347.15 107.39V89.05"/>
      <path class="csl5-5" d="M347.15 107.39l2.94-1.7.02-.01M350.09 109.09V90.75M350.09 109.09l2.96 1.71"/>
      <path class="csl5-6" d="M353.05 110.8V92.46"/>
      <path class="csl5-5" d="M353.05 110.8l2.97-1.71M356.02 109.09V90.75M344.18 87.34V70.67M346.67 69.12l-.71.4-1.73 1-.05.02"/>
      <path class="csl5-6" d="M353.05 92.46V75.67M344.28 70.6l8.77 5.07"/>
      <path class="csl5-5" d="M356.02 90.75l1.78-1.03M357.8 89.72v-9.63"/>
      <path class="csl5-6" d="M353.05 75.67l1.78-1.03"/>
      <path class="csl5-5" d="M354.83 71.21l-2-1.15"/>
      <path class="csl5-4" d="M257.3 87.98v18.33l-2.97 1.72V89.69l2.97-1.71z"/>
      <path class="csl5-4" d="M257.3 87.98l-2.97 1.71-2.96-1.7-.01-.01 2.97-1.71 2.97 1.71zM254.33 108.03v9.63l-1.78 1.03v18.34l-2.97 1.71V103.61l1.78-1.03v3.73l2.97 1.72z"/>
      <path class="csl5-4" d="M254.33 89.69v18.34l-2.97-1.72V88l.01-.01 2.96 1.7zM251.36 99.15v3.43l-1.78 1.03-8.76-5.07-.06-.08 1.73-1 .71-.4.05-.1 3.95 2.29 2.16-1.25 2 1.15z"/>
      <path class="csl5-4" d="M251.36 93.3v5.85l-2-1.15 1.46-.84v-3.55l.54-.31z"/>
      <path class="csl5-4" d="M251.36 88.73v4.57l-.54.31v3.55l-1.46.84-2.16 1.25V91.13l4.16-2.4z"/>
      <path class="csl5-4" d="M251.36 88.03v.7l-4.16 2.4-.06-.03-4.05-2.34 2.37-1.37 2.38-1.37 3.5 2.01h.02zM246.62 133.63v-14.94l-2.94-1.7v18.34l-2.97-1.71V98.6l.11-.06 8.76 5.07V138.74l-2.96-1.71v-3.4z"/>
      <path class="csl5-4" d="M247.2 95.7v3.55l-3.95-2.29-.16-.08V88.76l4.05 2.34.06.03v4.57zM246.62 118.69v14.94l-2.94 1.7v-18.34l2.94 1.7z"/>
      <path class="csl5-4" d="M245.46 81.14v6.25l-2.37 1.37V96.88l.16.08-.05.1-.71.4v-14.6l2.97-1.72z"/>
      <path class="csl5-4" d="M245.46 81.14l-2.97 1.72-2.96-1.72 2.96-1.7 2.97 1.7zM240.76 98.46l.06.08-.11.06v1.57l-1.18-.69V81.14l2.96 1.72v14.6l-1.73 1z"/>
      <path class="csl5-5" d="M243.68 116.99l2.94 1.7M243.09 96.88v-3.55M243.09 96.88l.16.08 3.95 2.29"/>
      <path class="csl5-6" d="M247.2 99.25V95.7"/>
      <path class="csl5-5" d="M247.2 99.25l2.16-1.25 1.46-.84M250.82 97.16v-3.55M243.09 93.33v-4.57M247.84 86.02l-2.38 1.37-2.37 1.37"/>
      <path class="csl5-6" d="M247.2 95.7v-4.57M243.09 88.76l4.05 2.34"/>
      <path class="csl5-5" d="M250.82 93.61l.54-.31"/>
      <path class="csl5-6" d="M247.2 91.13l4.16-2.4"/>
      <path class="csl5-5" d="M251.34 88.03l-3.5-2.01M245.46 81.15l-2.97-1.72M245.46 87.39v-6.24M239.53 99.48V81.15M242.49 79.43l-2.96 1.72M239.53 99.48l1.18.69"/>
      <path class="csl5-6" d="M242.49 97.46v-14.6M239.53 81.15l2.96 1.71M242.49 82.86l2.97-1.71"/>
      <path class="csl5-5" d="M251.36 106.31V88M254.33 86.27l-2.97 1.71M251.36 106.31l2.97 1.71"/>
      <path class="csl5-6" d="M254.33 108.02V89.69M251.36 87.98l.01.01 2.96 1.7"/>
      <path class="csl5-5" d="M254.33 108.02l2.96-1.71M257.29 106.31V87.98"/>
      <path class="csl5-6" d="M254.33 89.69l2.96-1.71"/>
      <path class="csl5-5" d="M257.29 87.98l-2.96-1.71M240.71 133.61v-18.33M240.71 133.61l2.97 1.72"/>
      <path class="csl5-6" d="M243.68 135.33v-18.34"/>
      <path class="csl5-5" d="M243.68 135.33l2.94-1.7.02-.01M246.62 137.03v-18.34M246.62 137.03l2.96 1.71"/>
      <path class="csl5-6" d="M249.58 138.74V120.4"/>
      <path class="csl5-5" d="M249.58 138.74l2.97-1.71M252.55 137.03v-18.34M240.71 115.28V98.6M243.2 97.06l-.71.4-1.73 1-.05.02"/>
      <path class="csl5-6" d="M249.58 120.4v-16.79M240.82 98.54l8.76 5.07"/>
      <path class="csl5-5" d="M252.55 118.69l1.78-1.03M254.33 117.66v-9.64"/>
      <path class="csl5-6" d="M249.58 103.61l1.78-1.03"/>
      <path class="csl5-5" d="M251.36 99.15l-2-1.15"/>
      <path class="csl5-1" d="M268.8 208.73l-29.61 17.1-55.11-31.81 20.01-11.56M353.8 204.95l26.05 15.04 66-38.1-14.15-8.17M463.18 196.18l25.61-14.79-15.02-8.67M168.01 208.59L142.4 193.8l15.01-8.67M352.21 228.83l27.65 15.96 37.75-21.8M211.54 234.88l27.65 15.96 37.75-21.8"/>
    </g>
  </g>
</svg>