<svg viewBox="0 0 369 215" xmlns="http://www.w3.org/2000/svg">
	<g fill="none" fill-rule="evenodd">
		<path fill="#FFF" d="M122.9588 18.9145l30.6897 17.7175 30.6912-17.7175-30.6912-17.7182"/>
		<path stroke="#000" stroke-width=".5" stroke-linecap="round" stroke-linejoin="round" d="M122.9587 18.9142L153.6492 1.196l30.6904 17.7182-30.6904 17.7182z"/>
		<path fill="#FFF" d="M153.6495 36.6324L184.34 18.914l30.6904 17.7184L184.34 54.3506"/>
		<path stroke="#000" stroke-width=".5" stroke-linecap="round" stroke-linejoin="round" d="M153.6495 36.6324L184.34 18.914l30.6904 17.7184L184.34 54.3506z"/>
		<path fill="#FFF" d="M184.3402 54.3505l30.6904-17.7182 30.6905 17.7182-30.6904 17.7182"/>
		<path stroke="#000" stroke-width=".5" stroke-linecap="round" stroke-linejoin="round" d="M184.3402 54.3505l30.6904-17.7182 30.6905 17.7182-30.6904 17.7182z"/>
		<path fill="#FFF" d="M215.031 72.0686l30.6903-17.7182 30.6905 17.7182-30.6905 17.7182"/>
		<path stroke="#000" stroke-width=".5" stroke-linecap="round" stroke-linejoin="round" d="M215.031 72.0686l30.6903-17.7182 30.6905 17.7182-30.6905 17.7182z"/>
		<path fill="#FFF" d="M245.7216 89.7868l30.6897-17.7183 30.6913 17.7183-30.6913 17.7182"/>
		<path stroke="#000" stroke-width=".5" stroke-linecap="round" stroke-linejoin="round" d="M245.7216 89.7868l30.6897-17.7183 30.6913 17.7183-30.6913 17.7182z"/>
		<path fill="#FFF" d="M276.4123 107.505l30.6905-17.7183 30.6905 17.7182-30.6905 17.718"/>
		<path stroke="#000" stroke-width=".5" stroke-linecap="round" stroke-linejoin="round" d="M276.4123 107.505l30.6905-17.7183 30.6905 17.7182-30.6905 17.718z"/>
		<path fill="#FFF" d="M307.103 125.223l30.6896 17.7183 30.6913-17.7182-30.6914-17.718"/>
		<path stroke="#000" stroke-width=".5" stroke-linecap="round" stroke-linejoin="round" d="M307.103 125.223l30.6897-17.7183 30.6912 17.7183-30.6913 17.7182z"/>
		<path fill="#FFF" d="M92.268 36.6324l30.6897-17.7183 30.6912 17.7184-30.6913 17.7182"/>
		<path stroke="#000" stroke-width=".5" stroke-linecap="round" stroke-linejoin="round" d="M92.268 36.6324l30.6897-17.7183 30.6912 17.7184-30.6913 17.7182z"/>
		<path fill="#FFF" d="M122.9587 54.3505l30.6905-17.7182 30.6904 17.7182-30.6904 17.7182"/>
		<path stroke="#000" stroke-width=".5" stroke-linecap="round" stroke-linejoin="round" d="M122.9587 54.3505l30.6905-17.7182 30.6904 17.7182-30.6904 17.7182z"/>
		<path fill="#FFF" d="M153.6495 72.0686L184.34 54.3504l30.6904 17.7182L184.34 89.7868"/>
		<path stroke="#000" stroke-width=".5" stroke-linecap="round" stroke-linejoin="round" d="M153.6495 72.0686L184.34 54.3504l30.6904 17.7182L184.34 89.7868z"/>
		<path fill="#FFF" d="M184.3402 89.7868l30.6904-17.7183 30.6905 17.7183-30.6904 17.7182"/>
		<path stroke="#000" stroke-width=".5" stroke-linecap="round" stroke-linejoin="round" d="M184.3402 89.7868l30.6904-17.7183 30.6905 17.7183-30.6904 17.7182z"/>
		<path fill="#FFF" d="M215.031 107.505l30.6903-17.7183 30.6905 17.7182-30.6905 17.718"/>
		<path stroke="#000" stroke-width=".5" stroke-linecap="round" stroke-linejoin="round" d="M215.031 107.505l30.6903-17.7183 30.6905 17.7182-30.6905 17.718z"/>
		<path fill="#FFF" d="M245.7216 125.223l30.6897-17.7183 30.6913 17.7183-30.6913 17.7182"/>
		<path stroke="#000" stroke-width=".5" stroke-linecap="round" stroke-linejoin="round" d="M245.7216 125.223l30.6897-17.7183 30.6913 17.7183-30.6913 17.7182z"/>
		<path fill="#FFF" d="M276.4123 142.941l30.6905-17.718 30.6905 17.718-30.6905 17.7183"/>
		<path stroke="#000" stroke-width=".5" stroke-linecap="round" stroke-linejoin="round" d="M276.4123 142.941l30.6905-17.718 30.6905 17.718-30.6905 17.7183z"/>
		<path fill="#FFF" d="M61.5773 54.3505L92.267 36.6323l30.6912 17.7182L92.267 72.0687"/>
		<path stroke="#000" stroke-width=".5" stroke-linecap="round" stroke-linejoin="round" d="M61.5773 54.3505L92.267 36.6323l30.6912 17.7182L92.267 72.0687z"/>
		<path fill="#FFF" d="M92.268 72.0686l30.6897-17.7182 30.6912 17.7182-30.6913 17.7182"/>
		<path stroke="#000" stroke-width=".5" stroke-linecap="round" stroke-linejoin="round" d="M92.268 72.0686l30.6897-17.7182 30.6912 17.7182-30.6913 17.7182z"/>
		<path fill="#FFF" d="M122.9587 89.7868l30.6905-17.7183 30.6904 17.7183-30.6904 17.7182"/>
		<path stroke="#000" stroke-width=".5" stroke-linecap="round" stroke-linejoin="round" d="M122.9587 89.7868l30.6905-17.7183 30.6904 17.7183-30.6904 17.7182z"/>
		<path fill="#FFF" d="M153.6495 107.505L184.34 89.7866l30.6904 17.7182-30.6905 17.718"/>
		<path stroke="#000" stroke-width=".5" stroke-linecap="round" stroke-linejoin="round" d="M153.6495 107.505L184.34 89.7866l30.6904 17.7182-30.6905 17.718z"/>
		<path fill="#FFF" d="M184.3402 125.223l30.6904-17.7183 30.6905 17.7183-30.6904 17.7182"/>
		<path stroke="#000" stroke-width=".5" stroke-linecap="round" stroke-linejoin="round" d="M184.3402 125.223l30.6904-17.7183 30.6905 17.7183-30.6904 17.7182z"/>
		<path fill="#FFF" d="M215.031 142.941l30.6903-17.718 30.6905 17.718-30.6905 17.7183"/>
		<path stroke="#000" stroke-width=".5" stroke-linecap="round" stroke-linejoin="round" d="M215.031 142.941l30.6903-17.718 30.6905 17.718-30.6905 17.7183z"/>
		<path fill="#FFF" d="M245.7216 160.6592l30.6897-17.7182 30.6913 17.7182-30.6913 17.7182"/>
		<path stroke="#000" stroke-width=".5" stroke-linecap="round" stroke-linejoin="round" d="M245.7216 160.6592l30.6897-17.7182 30.6913 17.7182-30.6913 17.7182z"/>
		<path fill="#FFF" d="M30.8866 72.0686L61.577 54.3504l30.6905 17.7182L61.577 89.7868"/>
		<path stroke="#000" stroke-width=".5" stroke-linecap="round" stroke-linejoin="round" d="M30.8866 72.0686L61.577 54.3504l30.6905 17.7182L61.577 89.7868z"/>
		<path fill="#FFF" d="M61.5773 89.7868L92.267 72.0685l30.6912 17.7183L92.267 107.505"/>
		<path stroke="#000" stroke-width=".5" stroke-linecap="round" stroke-linejoin="round" d="M61.5773 89.7868L92.267 72.0685l30.6912 17.7183L92.267 107.505z"/>
		<path fill="#FFF" d="M92.268 107.505l30.6897-17.7183 30.6912 17.7182-30.6913 17.718"/>
		<path stroke="#000" stroke-width=".5" stroke-linecap="round" stroke-linejoin="round" d="M92.268 107.505l30.6897-17.7183 30.6912 17.7182-30.6913 17.718z"/>
		<path fill="#FFF" d="M122.9587 125.223l30.6905-17.7183 30.6904 17.7183-30.6904 17.7182"/>
		<path stroke="#000" stroke-width=".5" stroke-linecap="round" stroke-linejoin="round" d="M122.9587 125.223l30.6905-17.7183 30.6904 17.7183-30.6904 17.7182z"/>
		<path fill="#FFF" d="M153.6495 142.941l30.6904-17.718 30.6904 17.718-30.6905 17.7183"/>
		<path stroke="#000" stroke-width=".5" stroke-linecap="round" stroke-linejoin="round" d="M153.6495 142.941l30.6904-17.718 30.6904 17.718-30.6905 17.7183z"/>
		<path fill="#FFF" d="M184.3402 160.6592l30.6904-17.7182 30.6905 17.7182-30.6904 17.7182"/>
		<path stroke="#000" stroke-width=".5" stroke-linecap="round" stroke-linejoin="round" d="M184.3402 160.6592l30.6904-17.7182 30.6905 17.7182-30.6904 17.7182z"/>
		<path fill="#FFF" d="M215.031 178.3774l30.6903-17.7183 30.6905 17.7184-30.6905 17.7182"/>
		<path stroke="#000" stroke-width=".5" stroke-linecap="round" stroke-linejoin="round" d="M215.031 178.3774l30.6903-17.7183 30.6905 17.7184-30.6905 17.7182z"/>
		<path fill="#FFF" d="M.196 89.7867l30.6897 17.7182L61.577 89.7866 30.8856 72.0685"/>
		<path stroke="#000" stroke-width=".5" stroke-linecap="round" stroke-linejoin="round" d="M.196 89.7868l30.6903-17.7183 30.6905 17.7183-30.6905 17.7182z"/>
		<path fill="#FFF" d="M30.8866 107.505L61.577 89.7866l30.6905 17.7182-30.6905 17.718"/>
		<path stroke="#000" stroke-width=".5" stroke-linecap="round" stroke-linejoin="round" d="M30.8866 107.505L61.577 89.7866l30.6905 17.7182-30.6905 17.718z"/>
		<path fill="#FFF" d="M61.5773 125.223l30.6897-17.7183 30.6912 17.7183-30.6912 17.7182"/>
		<path stroke="#000" stroke-width=".5" stroke-linecap="round" stroke-linejoin="round" d="M61.5773 125.223l30.6897-17.7183 30.6912 17.7183-30.6912 17.7182z"/>
		<path fill="#FFF" d="M92.268 142.941l30.6897-17.718 30.6912 17.718-30.6913 17.7183"/>
		<path stroke="#000" stroke-width=".5" stroke-linecap="round" stroke-linejoin="round" d="M92.268 142.941l30.6897-17.718 30.6912 17.718-30.6913 17.7183z"/>
		<path fill="#FFF" d="M122.9587 160.6592l30.6905-17.7182 30.6904 17.7182-30.6904 17.7182"/>
		<path stroke="#000" stroke-width=".5" stroke-linecap="round" stroke-linejoin="round" d="M122.9587 160.6592l30.6905-17.7182 30.6904 17.7182-30.6904 17.7182z"/>
		<path fill="#FFF" d="M153.6495 178.3774L184.34 160.659l30.6904 17.7184-30.6905 17.7182"/>
		<path stroke="#000" stroke-width=".5" stroke-linecap="round" stroke-linejoin="round" d="M153.6495 178.3774L184.34 160.659l30.6904 17.7184-30.6905 17.7182z"/>
		<path fill="#FFF" d="M184.3402 196.0953l30.6897 17.7182 30.691-17.7182-30.691-17.7183"/>
		<path stroke="#000" stroke-width=".5" stroke-linecap="round" stroke-linejoin="round" d="M184.3402 196.0955l30.6904-17.7182 30.6905 17.7182-30.6904 17.7182z"/>
		<path d="M268.5812 90.207l6.3364 3.6546-.2115.1207-6.613-3.816.2108-.1198c1.9688-1.1274 8.947 2.1614 11.443.7324 1.222-.699.817-1.8888-.7388-2.7866-1.9743-1.1383-4.2447-1.3232-5.478-.618l-.2772-.1607c1.3483-.7717 3.769-.6087 5.965.658 1.7793 1.0255 2.1444 2.3017.807 3.0678-2.633 1.5057-9.6645-1.751-11.4436-.7324M307.4104 110.5503c-1.1266.6447-3.2286.5703-5.285-.6165-2.0566-1.186-2.341-2.6205-.9935-3.3922l.2788.1606c-1.2637.724-.923 2.0455.9245 3.1117 1.834 1.0575 3.7863 1.1546 4.7977.5765 1.3264-.76.1348-1.9303-1.2684-2.7404l-.8202-.473.2115-.12.8202.4733c1.4728.8492 3.104 1.2088 4.2204.5703 1.0106-.5782.7223-1.628-.8328-2.5257-1.8482-1.0663-4.009-1.187-5.2726-.464l-.279-.1605c1.3484-.7716 3.705-.683 5.7623.5038 1.7784 1.0262 2.0268 2.1614.8986 2.807-.936.5365-2.1896.4543-3.4392-.0126.9574.7943 1.371 1.675.2766 2.3016M243.6296 75.7998l-.2107.12-5.4192-3.126.2108-.1205 2.5704 1.4822 6.982-3.9954-2.3393-.817.22-.126 2.682.9408-7.2665 4.1583M336.634 127.5678l5.2436-3.002-10.4268.0126 5.1832 2.9894zm1.3875 1.042l-1.3193-.7615-1.675.959-.2782-.1607 1.6743-.959-5.531-3.19.2106-.1198 11.1232-.011.278.1606-5.592 3.201 1.32.7615-.2107.1198zM123.6624 39.4474c-1.443.8257-4.0457.5593-5.824-.467-2.0574-1.1868-2.2023-2.5405-.854-3.3122l.278.1606c-1.2636.723-1.0756 1.957.7867 3.031 1.625.9377 4.008 1.1876 5.336.4277 1.5474-.886.9543-2.1598-.6565-3.0897-1.071-.6173-2.8462-1.23-4.2846-.886l-.2782-.1598 4.9208-1.8575 4.9466 2.854-.2107.1198-4.7116-2.7176-3.875 1.468c1.3263-.0093 2.7577.5132 3.7025 1.0585 1.751 1.0105 2.398 2.412.724 3.3702M154.0643 57.0116c1.2535-.7176.934-2.0996-.72-3.053-1.6812-.9706-4.0864-1.1594-5.339-.4426-1.2646.723-.934 2.0995.748 3.0702 1.654.9534 4.0473 1.1484 5.311.4254m.2774.1606c-1.379.7888-3.9932.5758-5.7998-.4662-1.8342-1.0576-2.1938-2.56-.814-3.3498.5263-.3008 1.233-.4505 1.9953-.4708l6.8324-.2703.333.1928-5.565.2147c.7914.1535 1.5647.4308 2.2314.8155 1.806 1.042 2.156 2.5507.7867 3.3342M189.9227 71.8774l-.2107.1206-11.797 1.545-.3056-.1764 11.797-1.5456-5.795-3.342.2107-.1206M214.1566 89.7067c1.139.6573 2.9786 1.1375 4.0527.5225 1.0733-.6142.2452-1.6733-.894-2.3306-1.1398-.6573-2.9793-1.1383-4.0534-.5233-1.0742.6157-.2454 1.674.8946 2.3314m.944 2.941c1.1266-.6448.5406-1.8427-1.1548-2.8204-1.6954-.9784-3.777-1.3192-4.9043-.6745-1.1266.6448-.5406 1.8426 1.1548 2.8203 1.6953.9778 3.7777 1.3193 4.9043.6746m.2773.1606c-1.2426.7105-3.4746.391-5.3917-.7145-1.918-1.106-2.4663-2.39-1.2237-3.1015 1.0012-.5726 2.652-.4794 4.2564.1677-.713-.6778-.919-1.4384-.0345-1.9453 1.1893-.6808 3.18-.2225 4.5416.5633 1.3617.7857 2.1515 1.931.9614 2.6118-.8853.507-2.207.3847-3.3845-.0274 1.1195.9244 1.2754 1.873.275 2.4458M243.4743 108.194c1.6813.9698 4.0857 1.1586 5.3384.4418 1.2645-.723.9346-2.0987-.7474-3.0694-1.653-.9534-4.0472-1.1484-5.311-.4253-1.2534.7177-.933 2.0996.72 3.053m3.622 1.0732l-6.8333.2695-.333-.192 5.564-.2153c-.7904-.1536-1.5637-.4293-2.2312-.8148-1.8058-1.042-2.1552-2.5507-.7858-3.334 1.379-.789 3.9924-.5767 5.799.4652 1.834 1.0584 2.1945 2.561.8148 3.3506-.5264.3008-1.2323.4505-1.9946.4708M270.457 126.7263l-.2106.1206-5.42-3.1266.211-.12 2.5703 1.4823 6.982-3.9953-2.3393-.817.221-.1262 2.68.9408-7.2655 4.1583M279.957 129.6893l2.6748-1.5308c1.2848-.7356.962-2.083-.7333-3.0607-1.6954-.9785-4.041-1.1697-5.325-.434l-2.6748 1.5307c-1.2856.7356-.962 2.083.7326 3.0616 1.6953.9778 4.041 1.168 5.3258.4333m2.9537-1.3702l-2.6755 1.531c-1.4008.802-3.9658.593-5.814-.4733-1.848-1.067-2.2014-2.5406-.8006-3.342l2.6747-1.5308c1.4008-.8023 3.9658-.594 5.813.4723 1.8482 1.067 2.203 2.5422.8024 3.3428M301.6753 144.7492l-.2108.1206-5.4198-3.1265.2107-.1207 2.5705 1.483 6.982-3.9953-2.3394-.818.2217-.126 2.68.9408-7.2655 4.1584M308.3468 148.5973l-.2115.1207-5.419-3.1266.2107-.1206 2.5704 1.483 6.982-3.9954-2.3393-.818.2203-.126 2.6817.941-7.2656 4.1582M86.0306 55.6922l-.2115.1207-5.419-3.1267.2108-.1206 2.5704 1.483 6.982-3.9962-2.3393-.8163.2208-.127 2.6802.941-7.2657 4.1583M87.6985 56.6546l6.3364 3.6546-.2116.1207-6.6146-3.8153.2115-.1207c1.9688-1.1273 8.9477 2.1607 11.4437.7325 1.2222-.6996.8164-1.8888-.7395-2.7865-1.9735-1.1383-4.244-1.3232-5.477-.618l-.2782-.1607c1.3483-.7717 3.77-.6088 5.966.658 1.779 1.0255 2.1442 2.3016.806 3.067-2.6323 1.5065-9.6637-1.75-11.4428-.7317M116.8617 73.4913l-.2108.1206-5.42-3.1266.2108-.1207 2.5705 1.483 6.982-3.996-2.3393-.8172.2217-.126 2.68.9407-7.2663 4.1583M126.3892 76.9175c-1.1266.6447-3.2278.571-5.286-.6165-2.0564-1.186-2.3393-2.6205-.9917-3.3914l.279.1598c-1.2646.724-.9246 2.0455.9235 3.1117 1.835 1.0577 3.7864 1.1548 4.7978.5767 1.3264-.76.1356-1.9303-1.2684-2.7396l-.8194-.4738.2107-.12.8195.4733c1.4728.8492 3.1047 1.2088 4.2212.5703 1.0106-.5782.7223-1.628-.8336-2.5257-1.8482-1.066-4.008-1.1867-5.2718-.4637l-.279-.1598c1.3484-.7716 3.705-.684 5.7615.5037 1.7784 1.0255 2.0268 2.1607.9002 2.8062-.937.5366-2.1905.4552-3.44-.0118.9565.7936 1.371 1.6742.2765 2.301M147.8503 91.3822l-.2107.1198-5.419-3.1265.2107-.12 2.5704 1.4823 6.982-3.9954-2.34-.817.2216-.1262 2.681.941-7.2665 4.1582M155.3343 93.7744l5.2436-3.002-10.427.0126 5.1833 2.9894zm1.3875 1.0427l-1.32-.762-1.675.9588-.2774-.1606 1.6734-.959-5.5295-3.19.21-.1198 11.1232-.011.2774.1607-5.5923 3.201 1.321.7615-.211.1206zM178.3815 109.008l-.2108.1198-5.4198-3.1258.2107-.1206 2.5704 1.4822 6.982-3.9954-2.3384-.817.221-.1262 2.68.941-7.2656 4.1582M188.0314 112.0452c-1.4423.8257-4.045.5585-5.8233-.4677-2.0572-1.186-2.202-2.5406-.8538-3.3114l.278.1606c-1.2636.723-1.0756 1.957.7867 3.031 1.6247.9378 4.008 1.187 5.335.427 1.5482-.886.9543-2.159-.6564-3.089-1.0702-.618-2.8463-1.2307-4.2847-.886l-.2774-.1598 4.92-1.8582 4.9466 2.854-.21.1198-4.7115-2.717-3.875 1.4682c1.3264-.0102 2.7578.513 3.7026 1.0576 1.751 1.0106 2.398 2.412.723 3.371M209.074 126.7263l-.2106.1206-5.4198-3.1266.2107-.12 2.5705 1.4823 6.982-3.9953-2.3386-.818.2202-.126 2.681.9408-7.2665 4.1583M218.724 129.7636c-1.443.8257-4.0456.5593-5.824-.4677-2.0573-1.1862-2.2015-2.5407-.8532-3.3116l.2782.1606c-1.2637.723-1.0773 1.957.7865 3.031 1.625.9377 4.0073 1.1876 5.3352.4277 1.5473-.886.9543-2.1598-.6565-3.0897-1.071-.618-2.8462-1.23-4.2846-.886l-.278-.1598 4.9207-1.8575 4.9466 2.8532-.211.1205-4.7115-2.7176-3.8748 1.468c1.3263-.0094 2.7584.513 3.7025 1.0584 1.751 1.0098 2.398 2.412.724 3.3702" fill="#000"/>
		<path fill="#90D4D9" d="M240.4905 144.5487l-.484.2773-5.572-3.2143.4842-.278 2.445 1.4108 6.3397-3.628-2.29-.861.5053-.289 3.118 1.1697-6.992 4.0016M254.4593 144.571l-.485.2772-11.3825 1.469-.7372-.4247 11.3975-1.461-5.6415-3.255.4834-.2774M270.6958 161.9863l-.4842.2773-5.5718-3.2135.4842-.278 2.445 1.411 6.3405-3.6288-2.2892-.8602.5045-.289 3.119 1.1696-6.993 4.0016M278.817 162.2908c.9865.5688 2.5682.973 3.495.4426.9276-.5295.2296-1.4406-.7568-2.0094-1.0004-.5774-2.583-.9816-3.5098-.4512-.9268.5303-.2287 1.4406.7717 2.018m.5023 2.7944c.9997-.572.506-1.6318-1.0083-2.5053-1.5144-.8736-3.3696-1.1697-4.37-.597-1.0005.5726-.4936 1.6396 1.0216 2.513 1.5144.8744 3.3555 1.162 4.3567.5892m.6808.3925c-1.2644.724-3.549.434-5.5216-.7035-1.9743-1.139-2.4678-2.4528-1.204-3.176.937-.5358 2.4207-.492 3.8724-.029-.4685-.6086-.5155-1.2533.232-1.681 1.1688-.669 3.216-.2758 4.6606.5585 1.4306.825 2.1215 2.0102.9527 2.6792-.7473.4277-1.881.3908-2.927.1268.786.828.872 1.689-.065 2.225M56.0357 73.4978l-.4842.2773-5.5718-3.2142.484-.2773 2.4453 1.411 6.3396-3.6288-2.29-.8602.5053-.29 3.1187 1.1698-6.993 4.0016M62.353 74.226c1.53.8814 3.6508 1.0405 4.7562.4083 1.1164-.6393.8485-1.859-.6808-2.7412-1.5136-.8733-3.636-1.0324-4.7524-.393-1.1054.632-.8367 1.8526.677 2.726m3.5724 1.2614l-6.9272.2758-.778-.4482 5.0674-.1872c-.5046-.1582-.984-.3627-1.4298-.619-1.889-1.0896-2.218-2.6102-.8485-3.3936 1.3797-.7896 4.0144-.589 5.9032.5014 1.9046 1.0975 2.2446 2.6127.865 3.4023-.4842.2772-1.143.43-1.852.4684M80.871 87.8385l6.044 3.487-.484.2773-6.726-3.8794.4843-.2782c2.0643-1.1813 8.5943 2.029 10.8576.734 1.0646-.6094.731-1.649-.673-2.4582-1.737-1.002-3.7566-1.187-4.8417-.5664l-.6675-.3855c1.3475-.7707 3.8397-.5686 6.0082.6825 1.806 1.042 2.2132 2.3416.8446 3.125-2.612 1.4955-9.1725-1.696-10.8467-.738M96.734 94.714l2.5485-1.458c1.1893-.6816.8477-1.9076-.695-2.7975-1.5284-.8822-3.661-1.0827-4.85-.4012l-2.5487 1.458c-1.1908.6807-.8477 1.9075.6808 2.789 1.5426.889 3.6736 1.0904 4.8644.4096m3.2153-1.0742l-2.5486 1.4587c-1.5065.8618-4.1405.565-6.016-.5178-1.8622-1.074-2.369-2.5883-.8634-3.45l2.5486-1.4588c1.5056-.8618 4.1396-.564 6.0018.51 1.8763 1.0818 2.3824 2.596.8775 3.4578M112.291 105.977l6.0443 3.4868-.4834.278-6.7267-3.88.485-.2774c2.0643-1.1814 8.5935 2.0282 10.8577.7333 1.064-.6095.731-1.6483-.673-2.4584-1.737-1.0012-3.7582-1.1868-4.8424-.5664l-.6668-.3847c1.3476-.771 3.8397-.5688 6.0075.6815 1.8066 1.0428 2.214 2.3424.8445 3.1258-2.6112 1.4955-9.1717-1.6968-10.8467-.7387M125.5208 113.609l-.4834.2773-5.5726-3.2143.485-.278 2.445 1.4108 6.3397-3.628-2.29-.8602.5053-.289 3.118 1.1688-6.992 4.0016M142.253 123.2752l6.0458 3.487-.485.2772-6.7265-3.8794.485-.2773c2.0643-1.1814 8.5935 2.0282 10.8576.7333 1.0638-.6095.73-1.649-.673-2.4584-1.737-1.002-3.7567-1.1868-4.8417-.5664l-.6675-.3846c1.3475-.771 3.8396-.5695 6.0082.6816 1.8058 1.0427 2.214 2.3415.8445 3.125-2.612 1.4955-9.1725-1.696-10.8475-.738M150.62 128.101l6.0442 3.487-.485.278-6.725-3.88.4833-.2774c2.0644-1.1814 8.5952 2.0282 10.8585.7333 1.064-.6096.731-1.6492-.6737-2.4584-1.737-1.002-3.7566-1.187-4.841-.5664l-.6674-.3847c1.3474-.771 3.8395-.5687 6.008.6824 1.806 1.0418 2.2133 2.3414.844 3.1248-2.612 1.4956-9.172-1.6968-10.846-.7387M172.876 140.9545l6.0443 3.487-.4842.2773-6.7257-3.8794.485-.278c2.0635-1.1815 8.5935 2.029 10.8576.733 1.0638-.6094.73-1.648-.673-2.4574-1.737-1.002-3.7567-1.1876-4.8417-.5664l-.6675-.3847c1.3475-.7717 3.8396-.5688 6.0074.6815 1.8066 1.042 2.2132 2.3416.8445 3.1258-2.6112 1.4947-9.1717-1.6976-10.8467-.7388M188.9947 148.4497c-1.1478.6572-3.3116.5703-5.3964-.633-2.112-1.2174-2.423-2.6683-1.0756-3.4392l.6675.3847c-1.1486.6573-.7467 1.8324.865 2.7615 1.6545.9542 3.3773 1.0537 4.294.5288 1.1688-.6683.145-1.6953-1.1752-2.4568l-.793-.4575.485-.2765.793.4567c1.374.7936 2.7897 1.0537 3.7275.517.8947-.5123.6518-1.4273-.7513-2.2366-1.613-.93-3.538-1.0732-4.6654-.4277l-.6675-.3846c1.3483-.7724 3.7323-.6674 5.8453.5516 1.8066 1.042 2.0534 2.2248.9268 2.8703-.832.4764-1.9633.453-3.0962.127.7662.7434 1.0067 1.548.0165 2.1144M203.7898 158.8l6.045 3.4868-.4842.2773-6.7258-3.8793.4842-.2773c2.0643-1.182 8.5935 2.0282 10.8576.7325 1.064-.6088.7302-1.6484-.673-2.4576-1.7376-1.002-3.7573-1.1877-4.8416-.5664l-.6667-.3847c1.3467-.7716 3.838-.5687 6.0066.6816 1.8058 1.0418 2.214 2.3422.8453 3.1256-2.612 1.4956-9.1725-1.6968-10.8475-.7387M217.78 165.0067l4.5815-2.622-9.1396-.007 4.558 2.629zm1.519 1.4454l-1.3475-.777-1.6115.9212-.666-.3846 1.6108-.922-5.4057-3.118.4952-.2828 10.7762.0438.6667.3847-5.3703 3.074 1.3475.7772-.495.2836zM234.3776 176.457l6.0442 3.487-.4834.278-6.7266-3.88.485-.2774c2.0644-1.1814 8.5935 2.029 10.857.7333 1.0638-.6088.7308-1.6484-.6723-2.4585-1.7377-1.002-3.7574-1.1868-4.8424-.5664l-.6666-.3845c1.3475-.771 3.8396-.5688 6.0074.6823 1.8058 1.042 2.2132 2.3416.8445 3.125-2.6112 1.4955-9.1725-1.6968-10.8467-.7387M250.6393 183.5995c-1.4212.814-4.0386.5868-5.9142-.495-2.112-1.219-2.2632-2.601-.937-3.361l.6668.3855c-1.081.6346-.8915 1.7243.7623 2.6777 1.4722.8492 3.586 1.0772 4.776.3956 1.3584-.777.835-1.9146-.6237-2.7552-.973-.5616-2.55-1.096-3.8208-.8005l-.6675-.3847 5.0078-1.892 5.101 2.9426-.4842.2765-4.5314-2.6135-3.205 1.2127c1.1288.119 2.2844.5437 3.161 1.049 1.7644 1.0184 2.352 2.423.709 3.3623M19.7312 87.9793l6.0443 3.486-.4842.2775-6.7266-3.8787.485-.278c2.0643-1.1813 8.5943 2.029 10.8576.7333 1.064-.6095.731-1.6483-.673-2.4583-1.7368-1.0012-3.7565-1.187-4.8416-.5664l-.6675-.3847c1.3475-.771 3.8396-.5688 6.0074.6815 1.8066 1.0427 2.214 2.3424.8454 3.1258-2.612 1.4955-9.1726-1.697-10.8468-.738M34.787 94.437c1.1056-.633.8478-1.8583-.6532-2.724-1.5426-.889-3.6744-1.0434-4.7806-.4096-1.1164.6384-.8477 1.8582.695 2.748 1.5002.8658 3.6218 1.0248 4.739.3856m.6674.3854c-1.3804.7897-4.0143.5883-5.8906-.4935-1.917-1.1063-2.257-2.6206-.8775-3.4103.5163-.2953 1.2088-.4528 1.9954-.4716l6.783-.2733.7787.449-5.0548.1942c.4904.1495.9847.3626 1.4297.6187 1.8763 1.0827 2.2046 2.6025.836 3.3867M50.665 105.8377l6.044 3.486-.484.2774-6.726-3.8793.4843-.2773c2.0643-1.1814 8.5943 2.029 10.8577.7333 1.064-.6095.731-1.6483-.673-2.4584-1.737-1.001-3.7566-1.1868-4.8417-.5664l-.6667-.3847c1.3468-.771 3.839-.5688 6.0074.6815 1.806 1.0428 2.2133 2.3416.8446 3.1258-2.612 1.4948-9.1717-1.6968-10.8467-.738M71.374 109.7478l-.4842.2773-11.3842 1.469-.7364-.4246 11.3974-1.462-5.6415-3.254.4843-.2774M81.0232 123.364l6.045 3.487-.4842.2772-6.7258-3.8794.484-.278c2.0645-1.1815 8.5937 2.029 10.857.734 1.064-.6096.731-1.649-.672-2.4584-1.7378-1.002-3.7575-1.1876-4.8426-.5672l-.6667-.3846c1.3474-.771 3.8388-.5688 6.0073.6823 1.806 1.0418 2.214 2.3415.8454 3.125-2.612 1.4954-9.1726-1.697-10.8475-.738M95.578 127.379c.9863.5694 2.568.9736 3.495.4425.9267-.5296.2287-1.44-.757-2.0094-1.0004-.5765-2.583-.9815-3.5097-.4512-.9268.5304-.2288 1.4415.7717 2.018m.503 2.7945c.9996-.572.5053-1.632-1.009-2.5046-1.5145-.8742-3.3697-1.1696-4.3702-.5977-1.0004.5735-.4935 1.6397 1.0216 2.514 1.5144.8734 3.3563 1.161 4.3575.5883m.6792.3932c-1.2637.723-3.5482.434-5.521-.7042-1.9734-1.1383-2.4677-2.452-1.204-3.176.936-.5358 2.4208-.491 3.8725-.029-.4685-.6086-.5155-1.2534.232-1.681 1.1688-.669 3.216-.275 4.6598.5584 1.4305.825 2.123 2.011.9542 2.6793-.7474.4285-1.8818.391-2.9277.127.7858.828.872 1.689-.0658 2.2255M111.5703 140.999l6.045 3.487-.484.2772-6.7267-3.8802.485-.2773c2.0643-1.1814 8.5935 2.029 10.8568.7333 1.064-.6088.731-1.6483-.6722-2.4576-1.7376-1.002-3.7573-1.1876-4.8424-.5664l-.6667-.3854c1.3476-.771 3.8397-.5688 6.0075.6823 1.8058 1.042 2.2132 2.3415.8445 3.125-2.6112 1.4954-9.1725-1.697-10.8467-.738M124.9753 145.8148c1.5293.8822 3.65 1.0412 4.7562.4082 1.1157-.6385.8485-1.8582-.6808-2.7403-1.5136-.8735-3.6367-1.0334-4.7523-.3933-1.1062.6322-.8375 1.852.677 2.7254m3.5716 1.2613l-6.9264.2767-.7787-.449 5.068-.1864c-.5046-.1582-.985-.3627-1.4298-.619-1.889-1.0896-2.218-2.611-.8493-3.3943 1.3803-.7897 4.015-.5884 5.904.5013 1.9044 1.0984 2.2445 2.6135.864 3.403-.484.2767-1.1422.4302-1.852.4678M150.1746 161.4784c-1.1485.6572-3.313.571-5.398-.6323-2.1113-1.218-2.423-2.669-1.0755-3.4398l.6675.3847c-1.1477.657-.7466 1.8323.865 2.7622 1.6546.954 3.3774 1.0528 4.294.5287 1.169-.669.145-1.6953-1.1752-2.4576l-.7928-.4567.485-.2773.7928.4575c1.375.7935 2.7898 1.0528 3.7276.516.8946-.5122.6525-1.4264-.7506-2.2357-1.613-.9307-3.5388-1.074-4.6654-.4277l-.6675-.3855c1.3475-.7715 3.7323-.6673 5.8444.5516 1.8073 1.0428 2.054 2.2257.9275 2.8712-.832.4755-1.9633.452-3.0953.126.7646.7444 1.006 1.548.0164 2.1145M157.853 165.4366l2.5485-1.458c1.19-.6814.8484-1.9075-.694-2.7974-1.5286-.882-3.6604-1.0827-4.8504-.401l-2.5485 1.4578c-1.19.6808-.8484 1.9068.68 2.789 1.5427.889 3.6744 1.0904 4.8645.4096m3.2152-1.074l-2.5485 1.4587c-1.5058.8617-4.1397.5648-6.0153-.5178-1.8622-1.074-2.369-2.5884-.8633-3.45l2.5486-1.4588c1.5065-.8618 4.1397-.565 6.002.5092 1.8763 1.0825 2.3824 2.597.8766 3.4586M181.4495 179.534c-1.1477.6573-3.3124.5704-5.397-.633-2.1122-1.2173-2.424-2.6682-1.0765-3.44l.6675.3848c-1.1478.6573-.746 1.8324.865 2.7623 1.6545.9543 3.378 1.0537 4.294.529 1.1688-.6684.1456-1.6954-1.1745-2.457l-.7928-.4574.484-.2765.793.4568c1.3765.7944 2.7906 1.0537 3.7284.517.8947-.5123.6518-1.4273-.7513-2.2366-1.6124-.9307-3.5388-1.0732-4.6654-.4277l-.6676-.3847c1.3483-.7724 3.7323-.6674 5.8444.5516 1.8067 1.042 2.0542 2.2248.9276 2.8703-.832.4756-1.9633.4528-3.0953.127.7655.7434 1.0068 1.548.0165 2.1144M186.7867 184.4165l-.4842.2774-5.5718-3.2144.4842-.2782 2.4458 1.411 6.3396-3.6288-2.29-.86.5053-.2892 3.119 1.1696-6.993 4.0016"/>
		<g fill="#FFF">
			<path d="M237.1516 117.4983v7.8113l-22.118 12.7695v-7.8112M226.0927 105.085l11.059 12.413-22.118 12.7694-11.0653-12.4067"/>
			<path d="M226.0927 105.085l-22.1243 12.7757-11.0583-.3627 22.1237-12.7687M215.0338 130.2675v7.8113l-22.1243-12.7694v-7.8113"/>
			<path d="M203.9687 117.8605l11.0653 12.4067-22.1243-12.7687"/>
		</g>
		<path d="M237.1516 117.4983l-11.059-12.413" stroke="#000" stroke-width=".5" stroke-linecap="round" stroke-linejoin="round"/>
		<path d="M226.0927 105.085l-22.1243 12.7757" stroke="#000" stroke-width=".25" stroke-linecap="round" stroke-linejoin="round"/>
		<path d="M215.0338 130.2675l-11.0653-12.4067M237.1516 117.4983l-22.118 12.7695M226.0927 105.085l-11.059-.3557M215.0338 104.729l-22.1243 12.7695M203.9687 117.8605l-11.059-.362M192.9098 117.4983l22.1244 12.7695M237.1516 125.3097v-7.8113M192.9098 125.3097v-7.8113M192.9098 125.3097l22.1244 12.7694M215.0338 138.079v-7.8113M215.0338 138.079l22.118-12.7695" stroke="#000" stroke-width=".5" stroke-linecap="round" stroke-linejoin="round"/>
	</g>
</svg>