<svg xmlns="http://www.w3.org/2000/svg" viewBox="0 0 629.61 363.5">
  <defs>
    <style>
      .cls-approach-4-1{fill:#5e5e5e;}.cls-approach-4-2{fill:#fff;}.cls-approach-4-3,.cls-approach-4-4,.cls-approach-4-5,.cls-approach-4-6,.cls-approach-4-7{fill:none;}.cls-approach-4-3,.cls-approach-4-4{stroke:#000;stroke-linecap:round;stroke-linejoin:round;}.cls-approach-4-3{stroke-width:0.25px;}.cls-approach-4-4{stroke-width:0.5px;}.cls-approach-4-5,.cls-approach-4-6,.cls-approach-4-7{stroke:#90d4d9;stroke-miterlimit:10;}.cls-approach-4-6{stroke-dasharray:11.93 11.93;}.cls-approach-4-7{stroke-dasharray:11.52 11.52;}
    </style>
  </defs>
  <g data-name="Layer 2">
    <g data-name="4">
      <g>
        <path class="cls-approach-4-1" d="M628.13 181.91c.24.35.52.31.87.26s.81-.16.53-.58-.52-.31-.87-.26-.82.16-.53.58zM617.3 188.16c.24.35.52.31.87.26s.81-.16.53-.58-.52-.31-.87-.26-.83.16-.53.58zM606.47 194.41c.24.35.52.31.87.26s.81-.16.53-.58-.52-.31-.87-.26-.82.17-.53.58zM595.64 200.66c.24.35.52.31.87.26s.81-.16.53-.58-.52-.31-.87-.26-.81.16-.53.58zM584.81 206.91c.24.35.52.31.87.26s.81-.16.53-.58-.52-.31-.87-.26-.81.16-.53.58zM574 213.17c.24.35.52.31.87.26s.81-.16.53-.58-.52-.31-.87-.26-.83.15-.53.58zM563.16 219.42c.24.35.52.31.87.26s.81-.16.53-.58-.52-.31-.87-.26-.82.16-.53.58zM552.33 225.67c.24.35.52.31.87.26s.81-.16.53-.58-.52-.31-.87-.26-.86.16-.53.58zM541.5 231.92c.24.35.52.31.87.26s.81-.16.53-.58-.52-.31-.87-.26-.82.16-.53.58zM530.67 238.17c.24.35.52.31.87.26s.81-.16.53-.58-.52-.31-.87-.26-.81.16-.53.58zM519.84 244.42c.24.35.52.31.87.26s.81-.16.53-.58-.52-.31-.87-.26-.81.16-.53.58zM509 250.68c.24.35.52.31.87.26s.81-.16.53-.58-.52-.31-.87-.26-.8.15-.53.58zM498.19 256.93c.24.35.52.31.87.26s.81-.16.53-.58-.52-.31-.87-.26-.82.16-.53.58zM487.36 263.18c.24.35.52.31.87.26s.81-.16.53-.58-.52-.31-.87-.26-.82.16-.53.58zM476.53 269.43c.24.35.52.31.87.26s.81-.16.53-.58-.52-.31-.87-.26-.81.15-.53.58zM465.7 275.68c.24.35.52.31.87.26s.81-.16.53-.58-.52-.31-.87-.26-.81.16-.53.58zM454.87 281.93c.24.35.52.31.87.26s.81-.16.53-.58-.52-.31-.87-.26-.81.16-.53.58zM444 288.19c.24.35.52.31.87.26s.81-.16.53-.58-.52-.31-.87-.26-.77.15-.53.58zM433.22 294.44c.24.35.52.31.87.26s.81-.16.53-.58-.52-.31-.87-.26-.82.14-.53.58zM422.39 300.69c.24.35.52.31.87.26s.81-.16.53-.58-.52-.31-.87-.26-.82.16-.53.58zM411.56 306.94c.24.35.52.31.87.26s.81-.16.53-.58-.52-.31-.87-.26-.81.16-.53.58zM400.73 313.19c.24.35.52.31.87.26s.81-.16.53-.58-.52-.31-.87-.26-.81.16-.53.58zM389.91 319.44c.24.35.52.31.87.26s.81-.16.53-.58-.52-.31-.87-.26-.82.14-.53.58zM379.08 325.7c.24.35.52.31.87.26s.81-.16.53-.58-.52-.31-.87-.26-.82.15-.53.58zM368.25 331.95c.24.35.52.31.87.26s.81-.16.53-.58-.52-.31-.87-.26-.78.16-.53.58zM357.42 338.2c.24.35.52.31.87.26s.81-.16.53-.58-.52-.31-.87-.26-.82.16-.53.58zM346.59 344.45c.24.35.52.31.87.26s.81-.16.53-.58-.52-.31-.87-.26-.81.13-.53.58zM335.76 350.7c.24.35.52.31.87.26s.81-.16.53-.58-.52-.31-.87-.26-.81.16-.53.58zM324.94 357c.24.35.52.31.87.26s.81-.16.53-.58-.52-.31-.87-.26-.82.11-.53.58zM314.11 363.21c.24.35.52.31.87.26s.81-.16.53-.58-.52-.31-.87-.26-.82.15-.53.58zM617.3 175.66c.24.35.52.31.87.26s.81-.16.53-.58-.52-.31-.87-.26-.83.15-.53.58zM606.47 181.91c.24.35.52.31.87.26s.81-.16.53-.58-.52-.31-.87-.26-.82.16-.53.58zM595.64 188.16c.24.35.52.31.87.26s.81-.16.53-.58-.52-.31-.87-.26-.81.16-.53.58zM584.81 194.41c.24.35.52.31.87.26s.81-.16.53-.58-.52-.31-.87-.26-.81.17-.53.58zM574 200.66c.24.35.52.31.87.26s.81-.16.53-.58-.52-.31-.87-.26-.83.16-.53.58zM563.16 206.91c.24.35.52.31.87.26s.81-.16.53-.58-.52-.31-.87-.26-.82.16-.53.58zM552.33 213.17c.24.35.52.31.87.26s.81-.16.53-.58-.52-.31-.87-.26-.86.15-.53.58zM541.5 219.42c.24.35.52.31.87.26s.81-.16.53-.58-.52-.31-.87-.26-.82.16-.53.58zM530.67 225.67c.24.35.52.31.87.26s.81-.16.53-.58-.52-.31-.87-.26-.81.16-.53.58zM519.84 231.92c.24.35.52.31.87.26s.81-.16.53-.58-.52-.31-.87-.26-.81.16-.53.58zM509 238.17c.24.35.52.31.87.26s.81-.16.53-.58-.52-.31-.87-.26-.8.16-.53.58zM498.19 244.42c.24.35.52.31.87.26s.81-.16.53-.58-.52-.31-.87-.26-.82.16-.53.58zM487.36 250.68c.24.35.52.31.87.26s.81-.16.53-.58-.52-.31-.87-.26-.82.15-.53.58zM476.53 256.93c.24.35.52.31.87.26s.81-.16.53-.58-.52-.31-.87-.26-.81.16-.53.58zM465.7 263.18c.24.35.52.31.87.26s.81-.16.53-.58-.52-.31-.87-.26-.81.16-.53.58zM454.87 269.43c.24.35.52.31.87.26s.81-.16.53-.58-.52-.31-.87-.26-.81.15-.53.58zM444 275.68c.24.35.52.31.87.26s.81-.16.53-.58-.52-.31-.87-.26-.77.16-.53.58zM433.22 281.93c.24.35.52.31.87.26s.81-.16.53-.58-.52-.31-.87-.26-.82.16-.53.58zM422.39 288.19c.24.35.52.31.87.26s.81-.16.53-.58-.52-.31-.87-.26-.82.15-.53.58zM411.56 294.44c.24.35.52.31.87.26s.81-.16.53-.58-.52-.31-.87-.26-.81.14-.53.58zM400.73 300.69c.24.35.52.31.87.26s.81-.16.53-.58-.52-.31-.87-.26-.81.16-.53.58zM389.91 306.94c.24.35.52.31.87.26s.81-.16.53-.58-.52-.31-.87-.26-.82.16-.53.58zM379.08 313.19c.24.35.52.31.87.26s.81-.16.53-.58-.52-.31-.87-.26-.82.16-.53.58zM368.25 319.44c.24.35.52.31.87.26s.81-.16.53-.58-.52-.31-.87-.26-.78.14-.53.58zM357.42 325.7c.24.35.52.31.87.26s.81-.16.53-.58-.52-.31-.87-.26-.82.15-.53.58zM346.59 331.95c.24.35.52.31.87.26s.81-.16.53-.58-.52-.31-.87-.26-.81.16-.53.58zM335.76 338.2c.24.35.52.31.87.26s.81-.16.53-.58-.52-.31-.87-.26-.81.16-.53.58zM324.94 344.45c.24.35.52.31.87.26s.81-.16.53-.58-.52-.31-.87-.26-.82.13-.53.58zM314.11 350.7c.24.35.52.31.87.26s.81-.16.53-.58-.52-.31-.87-.26-.82.16-.53.58zM303.28 357c.24.35.52.31.87.26s.81-.16.53-.58-.52-.31-.87-.26-.81.11-.53.58zM606.47 169.4c.24.35.52.31.87.26s.81-.16.53-.58-.52-.31-.87-.26-.82.18-.53.58zM595.64 175.66c.24.35.52.31.87.26s.81-.16.53-.58-.52-.31-.87-.26-.81.15-.53.58zM584.81 181.91c.24.35.52.31.87.26s.81-.16.53-.58-.52-.31-.87-.26-.81.16-.53.58zM574 188.16c.24.35.52.31.87.26s.81-.16.53-.58-.52-.31-.87-.26-.83.16-.53.58zM563.16 194.41c.24.35.52.31.87.26s.81-.16.53-.58-.52-.31-.87-.26-.82.17-.53.58zM552.33 200.66c.24.35.52.31.87.26s.81-.16.53-.58-.52-.31-.87-.26-.86.16-.53.58zM541.5 206.91c.24.35.52.31.87.26s.81-.16.53-.58-.52-.31-.87-.26-.82.16-.53.58zM530.67 213.17c.24.35.52.31.87.26s.81-.16.53-.58-.52-.31-.87-.26-.81.15-.53.58zM519.84 219.42c.24.35.52.31.87.26s.81-.16.53-.58-.52-.31-.87-.26-.81.16-.53.58zM509 225.67c.24.35.52.31.87.26s.81-.16.53-.58-.52-.31-.87-.26-.8.16-.53.58zM498.19 231.92c.24.35.52.31.87.26s.81-.16.53-.58-.52-.31-.87-.26-.82.16-.53.58zM487.36 238.17c.24.35.52.31.87.26s.81-.16.53-.58-.52-.31-.87-.26-.82.16-.53.58zM476.53 244.42c.24.35.52.31.87.26s.81-.16.53-.58-.52-.31-.87-.26-.81.16-.53.58zM465.7 250.68c.24.35.52.31.87.26s.81-.16.53-.58-.52-.31-.87-.26-.81.15-.53.58zM454.87 256.93c.24.35.52.31.87.26s.81-.16.53-.58-.52-.31-.87-.26-.81.16-.53.58zM444 263.18c.24.35.52.31.87.26s.81-.16.53-.58-.52-.31-.87-.26-.77.16-.53.58zM433.22 269.43c.24.35.52.31.87.26s.81-.16.53-.58-.52-.31-.87-.26-.82.15-.53.58zM422.39 275.68c.24.35.52.31.87.26s.81-.16.53-.58-.52-.31-.87-.26-.82.16-.53.58zM411.56 281.93c.24.35.52.31.87.26s.81-.16.53-.58-.52-.31-.87-.26-.81.16-.53.58zM400.73 288.19c.24.35.52.31.87.26s.81-.16.53-.58-.52-.31-.87-.26-.81.15-.53.58zM389.91 294.44c.24.35.52.31.87.26s.81-.16.53-.58-.52-.31-.87-.26-.82.14-.53.58zM379.08 300.69c.24.35.52.31.87.26s.81-.16.53-.58-.52-.31-.87-.26-.82.16-.53.58zM368.25 306.94c.24.35.52.31.87.26s.81-.16.53-.58-.52-.31-.87-.26-.78.16-.53.58zM357.42 313.19c.24.35.52.31.87.26s.81-.16.53-.58-.52-.31-.87-.26-.82.16-.53.58zM346.59 319.44c.24.35.52.31.87.26s.81-.16.53-.58-.52-.31-.87-.26-.81.14-.53.58zM335.76 325.7c.24.35.52.31.87.26s.81-.16.53-.58-.52-.31-.87-.26-.81.15-.53.58zM324.94 331.95c.24.35.52.31.87.26s.81-.16.53-.58-.52-.31-.87-.26-.82.16-.53.58zM314.11 338.2c.24.35.52.31.87.26s.81-.16.53-.58-.52-.31-.87-.26-.82.16-.53.58zM303.28 344.45c.24.35.52.31.87.26s.81-.16.53-.58-.52-.31-.87-.26-.81.13-.53.58zM292.45 350.7c.24.35.52.31.87.26s.81-.16.53-.58-.52-.31-.87-.26-.81.16-.53.58zM595.64 163.15c.24.35.52.31.87.26s.81-.16.53-.58-.52-.31-.87-.26-.81.16-.53.58zM584.81 169.4c.24.35.52.31.87.26s.81-.16.53-.58-.52-.31-.87-.26-.81.18-.53.58zM574 175.66c.24.35.52.31.87.26s.81-.16.53-.58-.52-.31-.87-.26-.83.15-.53.58zM563.16 181.91c.24.35.52.31.87.26s.81-.16.53-.58-.52-.31-.87-.26-.82.16-.53.58zM552.33 188.16c.24.35.52.31.87.26s.81-.16.53-.58-.52-.31-.87-.26-.86.16-.53.58zM541.5 194.41c.24.35.52.31.87.26s.81-.16.53-.58-.52-.31-.87-.26-.82.17-.53.58zM530.67 200.66c.24.35.52.31.87.26s.81-.16.53-.58-.52-.31-.87-.26-.81.16-.53.58zM519.84 206.91c.24.35.52.31.87.26s.81-.16.53-.58-.52-.31-.87-.26-.81.16-.53.58zM509 213.17c.24.35.52.31.87.26s.81-.16.53-.58-.52-.31-.87-.26-.8.15-.53.58zM498.19 219.42c.24.35.52.31.87.26s.81-.16.53-.58-.52-.31-.87-.26-.82.16-.53.58zM487.36 225.67c.24.35.52.31.87.26s.81-.16.53-.58-.52-.31-.87-.26-.82.16-.53.58zM476.53 231.92c.24.35.52.31.87.26s.81-.16.53-.58-.52-.31-.87-.26-.81.16-.53.58zM465.7 238.17c.24.35.52.31.87.26s.81-.16.53-.58-.52-.31-.87-.26-.81.16-.53.58zM454.87 244.42c.24.35.52.31.87.26s.81-.16.53-.58-.52-.31-.87-.26-.81.16-.53.58zM444 250.68c.24.35.52.31.87.26s.81-.16.53-.58-.52-.31-.87-.26-.77.15-.53.58zM433.22 256.93c.24.35.52.31.87.26s.81-.16.53-.58-.52-.31-.87-.26-.82.16-.53.58zM422.39 263.18c.24.35.52.31.87.26s.81-.16.53-.58-.52-.31-.87-.26-.82.16-.53.58zM411.56 269.43c.24.35.52.31.87.26s.81-.16.53-.58-.52-.31-.87-.26-.81.15-.53.58zM400.73 275.68c.24.35.52.31.87.26s.81-.16.53-.58-.52-.31-.87-.26-.81.16-.53.58zM389.91 281.93c.24.35.52.31.87.26s.81-.16.53-.58-.52-.31-.87-.26-.82.16-.53.58zM379.08 288.19c.24.35.52.31.87.26s.81-.16.53-.58-.52-.31-.87-.26-.82.15-.53.58zM368.25 294.44c.24.35.52.31.87.26s.81-.16.53-.58-.52-.31-.87-.26-.78.14-.53.58zM357.42 300.69c.24.35.52.31.87.26s.81-.16.53-.58-.52-.31-.87-.26-.82.16-.53.58zM346.59 306.94c.24.35.52.31.87.26s.81-.16.53-.58-.52-.31-.87-.26-.81.16-.53.58zM335.76 313.19c.24.35.52.31.87.26s.81-.16.53-.58-.52-.31-.87-.26-.81.16-.53.58zM324.94 319.44c.24.35.52.31.87.26s.81-.16.53-.58-.52-.31-.87-.26-.82.14-.53.58zM314.11 325.7c.24.35.52.31.87.26s.81-.16.53-.58-.52-.31-.87-.26-.82.15-.53.58zM303.28 331.95c.24.35.52.31.87.26s.81-.16.53-.58-.52-.31-.87-.26-.81.16-.53.58zM292.45 338.2c.24.35.52.31.87.26s.81-.16.53-.58-.52-.31-.87-.26-.81.16-.53.58zM281.62 344.45c.24.35.52.31.87.26s.81-.16.53-.58-.52-.31-.87-.26-.81.13-.53.58zM584.81 156.9c.24.35.52.31.87.26s.81-.16.53-.58-.52-.31-.87-.26-.81.16-.53.58zM574 163.15c.24.35.52.31.87.26s.81-.16.53-.58-.52-.31-.87-.26-.83.16-.53.58zM563.16 169.4c.24.35.52.31.87.26s.81-.16.53-.58-.52-.31-.87-.26-.82.18-.53.58zM552.33 175.66c.24.35.52.31.87.26s.81-.16.53-.58-.52-.31-.87-.26-.86.15-.53.58zM541.5 181.91c.24.35.52.31.87.26s.81-.16.53-.58-.52-.31-.87-.26-.82.16-.53.58zM530.67 188.16c.24.35.52.31.87.26s.81-.16.53-.58-.52-.31-.87-.26-.81.16-.53.58zM519.84 194.41c.24.35.52.31.87.26s.81-.16.53-.58-.52-.31-.87-.26-.81.17-.53.58zM509 200.66c.24.35.52.31.87.26s.81-.16.53-.58-.52-.31-.87-.26-.8.16-.53.58zM498.19 206.91c.24.35.52.31.87.26s.81-.16.53-.58-.52-.31-.87-.26-.82.16-.53.58zM487.36 213.17c.24.35.52.31.87.26s.81-.16.53-.58-.52-.31-.87-.26-.82.15-.53.58zM476.53 219.42c.24.35.52.31.87.26s.81-.16.53-.58-.52-.31-.87-.26-.81.16-.53.58zM465.7 225.67c.24.35.52.31.87.26s.81-.16.53-.58-.52-.31-.87-.26-.81.16-.53.58zM454.87 231.92c.24.35.52.31.87.26s.81-.16.53-.58-.52-.31-.87-.26-.81.16-.53.58zM444 238.17c.24.35.52.31.87.26s.81-.16.53-.58-.52-.31-.87-.26-.77.16-.53.58zM433.22 244.42c.24.35.52.31.87.26s.81-.16.53-.58-.52-.31-.87-.26-.82.16-.53.58zM422.39 250.68c.24.35.52.31.87.26s.81-.16.53-.58-.52-.31-.87-.26-.82.15-.53.58zM411.56 256.93c.24.35.52.31.87.26s.81-.16.53-.58-.52-.31-.87-.26-.81.16-.53.58zM400.73 263.18c.24.35.52.31.87.26s.81-.16.53-.58-.52-.31-.87-.26-.81.16-.53.58zM389.91 269.43c.24.35.52.31.87.26s.81-.16.53-.58-.52-.31-.87-.26-.82.15-.53.58zM379.08 275.68c.24.35.52.31.87.26s.81-.16.53-.58-.52-.31-.87-.26-.82.16-.53.58zM368.25 281.93c.24.35.52.31.87.26s.81-.16.53-.58-.52-.31-.87-.26-.78.16-.53.58zM357.42 288.19c.24.35.52.31.87.26s.81-.16.53-.58-.52-.31-.87-.26-.82.15-.53.58zM346.59 294.44c.24.35.52.31.87.26s.81-.16.53-.58-.52-.31-.87-.26-.81.14-.53.58zM335.76 300.69c.24.35.52.31.87.26s.81-.16.53-.58-.52-.31-.87-.26-.81.16-.53.58zM324.94 306.94c.24.35.52.31.87.26s.81-.16.53-.58-.52-.31-.87-.26-.82.16-.53.58zM314.11 313.19c.24.35.52.31.87.26s.81-.16.53-.58-.52-.31-.87-.26-.82.16-.53.58zM303.28 319.44c.24.35.52.31.87.26s.81-.16.53-.58-.52-.31-.87-.26-.81.14-.53.58zM292.45 325.7c.24.35.52.31.87.26s.81-.16.53-.58-.52-.31-.87-.26-.81.15-.53.58zM281.62 331.95c.24.35.52.31.87.26s.81-.16.53-.58-.52-.31-.87-.26-.81.16-.53.58zM270.8 338.2c.24.35.52.31.87.26s.81-.16.53-.58-.52-.31-.87-.26-.82.16-.53.58zM574 150.65c.24.35.52.31.87.26s.81-.16.53-.58-.52-.31-.87-.26-.83.16-.53.58zM563.16 156.9c.24.35.52.31.87.26s.81-.16.53-.58-.52-.31-.87-.26-.82.16-.53.58zM552.33 163.15c.24.35.52.31.87.26s.81-.16.53-.58-.52-.31-.87-.26-.86.16-.53.58zM541.5 169.4c.24.35.52.31.87.26s.81-.16.53-.58-.52-.31-.87-.26-.82.18-.53.58zM530.67 175.66c.24.35.52.31.87.26s.81-.16.53-.58-.52-.31-.87-.26-.81.15-.53.58zM519.84 181.91c.24.35.52.31.87.26s.81-.16.53-.58-.52-.31-.87-.26-.81.16-.53.58zM509 188.16c.24.35.52.31.87.26s.81-.16.53-.58-.52-.31-.87-.26-.8.16-.53.58zM498.19 194.41c.24.35.52.31.87.26s.81-.16.53-.58-.52-.31-.87-.26-.82.17-.53.58zM487.36 200.66c.24.35.52.31.87.26s.81-.16.53-.58-.52-.31-.87-.26-.82.16-.53.58zM476.53 206.91c.24.35.52.31.87.26s.81-.16.53-.58-.52-.31-.87-.26-.81.16-.53.58zM465.7 213.17c.24.35.52.31.87.26s.81-.16.53-.58-.52-.31-.87-.26-.81.15-.53.58zM454.87 219.42c.24.35.52.31.87.26s.81-.16.53-.58-.52-.31-.87-.26-.81.16-.53.58zM444 225.67c.24.35.52.31.87.26s.81-.16.53-.58-.52-.31-.87-.26-.77.16-.53.58zM433.22 231.92c.24.35.52.31.87.26s.81-.16.53-.58-.52-.31-.87-.26-.82.16-.53.58zM422.39 238.17c.24.35.52.31.87.26s.81-.16.53-.58-.52-.31-.87-.26-.82.16-.53.58zM411.56 244.42c.24.35.52.31.87.26s.81-.16.53-.58-.52-.31-.87-.26-.81.16-.53.58zM400.73 250.68c.24.35.52.31.87.26s.81-.16.53-.58-.52-.31-.87-.26-.81.15-.53.58zM389.91 256.93c.24.35.52.31.87.26s.81-.16.53-.58-.52-.31-.87-.26-.82.16-.53.58zM379.08 263.18c.24.35.52.31.87.26s.81-.16.53-.58-.52-.31-.87-.26-.82.16-.53.58zM368.25 269.43c.24.35.52.31.87.26s.81-.16.53-.58-.52-.31-.87-.26-.78.15-.53.58zM357.42 275.68c.24.35.52.31.87.26s.81-.16.53-.58-.52-.31-.87-.26-.82.16-.53.58zM346.59 281.93c.24.35.52.31.87.26s.81-.16.53-.58-.52-.31-.87-.26-.81.16-.53.58zM335.76 288.19c.24.35.52.31.87.26s.81-.16.53-.58-.52-.31-.87-.26-.81.15-.53.58zM324.94 294.44c.24.35.52.31.87.26s.81-.16.53-.58-.52-.31-.87-.26-.82.14-.53.58zM314.11 300.69c.24.35.52.31.87.26s.81-.16.53-.58-.52-.31-.87-.26-.82.16-.53.58zM303.28 306.94c.24.35.52.31.87.26s.81-.16.53-.58-.52-.31-.87-.26-.81.16-.53.58zM292.45 313.19c.24.35.52.31.87.26s.81-.16.53-.58-.52-.31-.87-.26-.81.16-.53.58zM281.62 319.44c.24.35.52.31.87.26s.81-.16.53-.58-.52-.31-.87-.26-.81.14-.53.58zM270.8 325.7c.24.35.52.31.87.26s.81-.16.53-.58-.52-.31-.87-.26-.82.15-.53.58zM260 331.95c.24.35.52.31.87.26s.81-.16.53-.58-.52-.31-.87-.26-.85.16-.53.58zM563.16 144.4c.24.35.52.31.87.26s.81-.16.53-.58-.52-.31-.87-.26-.82.18-.53.58zM552.33 150.65c.24.35.52.31.87.26s.81-.16.53-.58-.52-.31-.87-.26-.86.16-.53.58zM541.5 156.9c.24.35.52.31.87.26s.81-.16.53-.58-.52-.31-.87-.26-.82.16-.53.58zM530.67 163.15c.24.35.52.31.87.26s.81-.16.53-.58-.52-.31-.87-.26-.81.16-.53.58zM519.84 169.4c.24.35.52.31.87.26s.81-.16.53-.58-.52-.31-.87-.26-.81.18-.53.58zM509 175.66c.24.35.52.31.87.26s.81-.16.53-.58-.52-.31-.87-.26-.8.15-.53.58zM498.19 181.91c.24.35.52.31.87.26s.81-.16.53-.58-.52-.31-.87-.26-.82.16-.53.58zM487.36 188.16c.24.35.52.31.87.26s.81-.16.53-.58-.52-.31-.87-.26-.82.16-.53.58zM476.53 194.41c.24.35.52.31.87.26s.81-.16.53-.58-.52-.31-.87-.26-.81.17-.53.58zM465.7 200.66c.24.35.52.31.87.26s.81-.16.53-.58-.52-.31-.87-.26-.81.16-.53.58zM454.87 206.91c.24.35.52.31.87.26s.81-.16.53-.58-.52-.31-.87-.26-.81.16-.53.58zM444 213.17c.24.35.52.31.87.26s.81-.16.53-.58-.52-.31-.87-.26-.77.15-.53.58zM433.22 219.42c.24.35.52.31.87.26s.81-.16.53-.58-.52-.31-.87-.26-.82.16-.53.58zM422.39 225.67c.24.35.52.31.87.26s.81-.16.53-.58-.52-.31-.87-.26-.82.16-.53.58zM411.56 231.92c.24.35.52.31.87.26s.81-.16.53-.58-.52-.31-.87-.26-.81.16-.53.58zM400.73 238.17c.24.35.52.31.87.26s.81-.16.53-.58-.52-.31-.87-.26-.81.16-.53.58zM389.91 244.42c.24.35.52.31.87.26s.81-.16.53-.58-.52-.31-.87-.26-.82.16-.53.58zM379.08 250.68c.24.35.52.31.87.26s.81-.16.53-.58-.52-.31-.87-.26-.82.15-.53.58zM368.25 256.93c.24.35.52.31.87.26s.81-.16.53-.58-.52-.31-.87-.26-.78.16-.53.58zM357.42 263.18c.24.35.52.31.87.26s.81-.16.53-.58-.52-.31-.87-.26-.82.16-.53.58zM346.59 269.43c.24.35.52.31.87.26s.81-.16.53-.58-.52-.31-.87-.26-.81.15-.53.58zM335.76 275.68c.24.35.52.31.87.26s.81-.16.53-.58-.52-.31-.87-.26-.81.16-.53.58zM324.94 281.93c.24.35.52.31.87.26s.81-.16.53-.58-.52-.31-.87-.26-.82.16-.53.58zM314.11 288.19c.24.35.52.31.87.26s.81-.16.53-.58-.52-.31-.87-.26-.82.15-.53.58zM303.28 294.44c.24.35.52.31.87.26s.81-.16.53-.58-.52-.31-.87-.26-.81.14-.53.58zM292.45 300.69c.24.35.52.31.87.26s.81-.16.53-.58-.52-.31-.87-.26-.81.16-.53.58zM281.62 306.94c.24.35.52.31.87.26s.81-.16.53-.58-.52-.31-.87-.26-.81.16-.53.58zM270.8 313.19c.24.35.52.31.87.26s.81-.16.53-.58-.52-.31-.87-.26-.82.16-.53.58zM260 319.44c.24.35.52.31.87.26s.81-.16.53-.58-.52-.31-.87-.26-.85.14-.53.58zM249.14 325.7c.24.35.52.31.87.26s.81-.16.53-.58-.52-.31-.87-.26-.82.15-.53.58zM552.33 138.15c.24.35.52.31.87.26s.81-.16.53-.58-.52-.31-.87-.26-.86.15-.53.58zM541.5 144.4c.24.35.52.31.87.26s.81-.16.53-.58-.52-.31-.87-.26-.82.18-.53.58zM530.67 150.65c.24.35.52.31.87.26s.81-.16.53-.58-.52-.31-.87-.26-.81.16-.53.58zM519.84 156.9c.24.35.52.31.87.26s.81-.16.53-.58-.52-.31-.87-.26-.81.16-.53.58zM509 163.15c.24.35.52.31.87.26s.81-.16.53-.58-.52-.31-.87-.26-.8.16-.53.58zM498.19 169.4c.24.35.52.31.87.26s.81-.16.53-.58-.52-.31-.87-.26-.82.18-.53.58zM487.36 175.66c.24.35.52.31.87.26s.81-.16.53-.58-.52-.31-.87-.26-.82.15-.53.58zM476.53 181.91c.24.35.52.31.87.26s.81-.16.53-.58-.52-.31-.87-.26-.81.16-.53.58zM465.7 188.16c.24.35.52.31.87.26s.81-.16.53-.58-.52-.31-.87-.26-.81.16-.53.58zM454.87 194.41c.24.35.52.31.87.26s.81-.16.53-.58-.52-.31-.87-.26-.81.17-.53.58zM444 200.66c.24.35.52.31.87.26s.81-.16.53-.58-.52-.31-.87-.26-.77.16-.53.58zM433.22 206.91c.24.35.52.31.87.26s.81-.16.53-.58-.52-.31-.87-.26-.82.16-.53.58zM422.39 213.17c.24.35.52.31.87.26s.81-.16.53-.58-.52-.31-.87-.26-.82.15-.53.58zM411.56 219.42c.24.35.52.31.87.26s.81-.16.53-.58-.52-.31-.87-.26-.81.16-.53.58zM400.73 225.67c.24.35.52.31.87.26s.81-.16.53-.58-.52-.31-.87-.26-.81.16-.53.58zM389.91 231.92c.24.35.52.31.87.26s.81-.16.53-.58-.52-.31-.87-.26-.82.16-.53.58zM379.08 238.17c.24.35.52.31.87.26s.81-.16.53-.58-.52-.31-.87-.26-.82.16-.53.58zM368.25 244.42c.24.35.52.31.87.26s.81-.16.53-.58-.52-.31-.87-.26-.78.16-.53.58zM357.42 250.68c.24.35.52.31.87.26s.81-.16.53-.58-.52-.31-.87-.26-.82.15-.53.58zM346.59 256.93c.24.35.52.31.87.26s.81-.16.53-.58-.52-.31-.87-.26-.81.16-.53.58zM335.76 263.18c.24.35.52.31.87.26s.81-.16.53-.58-.52-.31-.87-.26-.81.16-.53.58zM324.94 269.43c.24.35.52.31.87.26s.81-.16.53-.58-.52-.31-.87-.26-.82.15-.53.58zM314.11 275.68c.24.35.52.31.87.26s.81-.16.53-.58-.52-.31-.87-.26-.82.16-.53.58zM303.28 281.93c.24.35.52.31.87.26s.81-.16.53-.58-.52-.31-.87-.26-.81.16-.53.58zM292.45 288.19c.24.35.52.31.87.26s.81-.16.53-.58-.52-.31-.87-.26-.81.15-.53.58zM281.62 294.44c.24.35.52.31.87.26s.81-.16.53-.58-.52-.31-.87-.26-.81.14-.53.58zM270.8 300.69c.24.35.52.31.87.26s.81-.16.53-.58-.52-.31-.87-.26-.82.16-.53.58zM260 306.94c.24.35.52.31.87.26s.81-.16.53-.58-.52-.31-.87-.26-.85.16-.53.58zM249.14 313.19c.24.35.52.31.87.26s.81-.16.53-.58-.52-.31-.87-.26-.82.16-.53.58zM238.31 319.44c.24.35.52.31.87.26s.81-.16.53-.58-.52-.31-.87-.26-.84.14-.53.58zM541.5 131.89c.24.35.52.31.87.26s.81-.16.53-.58-.52-.31-.87-.26-.82.16-.53.58zM530.67 138.15c.24.35.52.31.87.26s.81-.16.53-.58-.52-.31-.87-.26-.81.15-.53.58zM519.84 144.4c.24.35.52.31.87.26s.81-.16.53-.58-.52-.31-.87-.26-.81.18-.53.58zM509 150.65c.24.35.52.31.87.26s.81-.16.53-.58-.52-.31-.87-.26-.8.16-.53.58zM498.19 156.9c.24.35.52.31.87.26s.81-.16.53-.58-.52-.31-.87-.26-.82.16-.53.58zM487.36 163.15c.24.35.52.31.87.26s.81-.16.53-.58-.52-.31-.87-.26-.82.16-.53.58zM476.53 169.4c.24.35.52.31.87.26s.81-.16.53-.58-.52-.31-.87-.26-.81.18-.53.58zM465.7 175.66c.24.35.52.31.87.26s.81-.16.53-.58-.52-.31-.87-.26-.81.15-.53.58zM454.87 181.91c.24.35.52.31.87.26s.81-.16.53-.58-.52-.31-.87-.26-.81.16-.53.58zM444 188.16c.24.35.52.31.87.26s.81-.16.53-.58-.52-.31-.87-.26-.77.16-.53.58zM433.22 194.41c.24.35.52.31.87.26s.81-.16.53-.58-.52-.31-.87-.26-.82.17-.53.58zM422.39 200.66c.24.35.52.31.87.26s.81-.16.53-.58-.52-.31-.87-.26-.82.16-.53.58zM411.56 206.91c.24.35.52.31.87.26s.81-.16.53-.58-.52-.31-.87-.26-.81.16-.53.58zM400.73 213.17c.24.35.52.31.87.26s.81-.16.53-.58-.52-.31-.87-.26-.81.15-.53.58zM389.91 219.42c.24.35.52.31.87.26s.81-.16.53-.58-.52-.31-.87-.26-.82.16-.53.58zM379.08 225.67c.24.35.52.31.87.26s.81-.16.53-.58-.52-.31-.87-.26-.82.16-.53.58zM368.25 231.92c.24.35.52.31.87.26s.81-.16.53-.58-.52-.31-.87-.26-.78.16-.53.58zM357.42 238.17c.24.35.52.31.87.26s.81-.16.53-.58-.52-.31-.87-.26-.82.16-.53.58zM346.59 244.42c.24.35.52.31.87.26s.81-.16.53-.58-.52-.31-.87-.26-.81.16-.53.58zM335.76 250.68c.24.35.52.31.87.26s.81-.16.53-.58-.52-.31-.87-.26-.81.15-.53.58zM324.94 256.93c.24.35.52.31.87.26s.81-.16.53-.58-.52-.31-.87-.26-.82.16-.53.58zM314.11 263.18c.24.35.52.31.87.26s.81-.16.53-.58-.52-.31-.87-.26-.82.16-.53.58zM303.28 269.43c.24.35.52.31.87.26s.81-.16.53-.58-.52-.31-.87-.26-.81.15-.53.58zM292.45 275.68c.24.35.52.31.87.26s.81-.16.53-.58-.52-.31-.87-.26-.81.16-.53.58zM281.62 281.93c.24.35.52.31.87.26s.81-.16.53-.58-.52-.31-.87-.26-.81.16-.53.58zM270.8 288.19c.24.35.52.31.87.26s.81-.16.53-.58-.52-.31-.87-.26-.82.15-.53.58zM260 294.44c.24.35.52.31.87.26s.81-.16.53-.58-.52-.31-.87-.26-.85.14-.53.58zM249.14 300.69c.24.35.52.31.87.26s.81-.16.53-.58-.52-.31-.87-.26-.82.16-.53.58zM238.31 306.94c.24.35.52.31.87.26s.81-.16.53-.58-.52-.31-.87-.26-.84.16-.53.58zM227.48 313.19c.24.35.52.31.87.26s.81-.16.53-.58-.52-.31-.87-.26-.81.16-.53.58zM530.67 125.64c.24.35.52.31.87.26s.81-.16.53-.58-.52-.31-.87-.26-.81.16-.53.58zM519.84 131.89c.24.35.52.31.87.26s.81-.16.53-.58-.52-.31-.87-.26-.81.16-.53.58zM509 138.15c.24.35.52.31.87.26s.81-.16.53-.58-.52-.31-.87-.26-.8.15-.53.58zM498.19 144.4c.24.35.52.31.87.26s.81-.16.53-.58-.52-.31-.87-.26-.82.18-.53.58zM487.36 150.65c.24.35.52.31.87.26s.81-.16.53-.58-.52-.31-.87-.26-.82.16-.53.58zM476.53 156.9c.24.35.52.31.87.26s.81-.16.53-.58-.52-.31-.87-.26-.81.16-.53.58zM465.7 163.15c.24.35.52.31.87.26s.81-.16.53-.58-.52-.31-.87-.26-.81.16-.53.58zM454.87 169.4c.24.35.52.31.87.26s.81-.16.53-.58-.52-.31-.87-.26-.81.18-.53.58zM444 175.66c.24.35.52.31.87.26s.81-.16.53-.58-.52-.31-.87-.26-.77.15-.53.58zM433.22 181.91c.24.35.52.31.87.26s.81-.16.53-.58-.52-.31-.87-.26-.82.16-.53.58zM422.39 188.16c.24.35.52.31.87.26s.81-.16.53-.58-.52-.31-.87-.26-.82.16-.53.58zM411.56 194.41c.24.35.52.31.87.26s.81-.16.53-.58-.52-.31-.87-.26-.81.17-.53.58zM400.73 200.66c.24.35.52.31.87.26s.81-.16.53-.58-.52-.31-.87-.26-.81.16-.53.58zM389.91 206.91c.24.35.52.31.87.26s.81-.16.53-.58-.52-.31-.87-.26-.82.16-.53.58zM379.08 213.17c.24.35.52.31.87.26s.81-.16.53-.58-.52-.31-.87-.26-.82.15-.53.58zM368.25 219.42c.24.35.52.31.87.26s.81-.16.53-.58-.52-.31-.87-.26-.78.16-.53.58zM357.42 225.67c.24.35.52.31.87.26s.81-.16.53-.58-.52-.31-.87-.26-.82.16-.53.58zM346.59 231.92c.24.35.52.31.87.26s.81-.16.53-.58-.52-.31-.87-.26-.81.16-.53.58zM335.76 238.17c.24.35.52.31.87.26s.81-.16.53-.58-.52-.31-.87-.26-.81.16-.53.58zM324.94 244.42c.24.35.52.31.87.26s.81-.16.53-.58-.52-.31-.87-.26-.82.16-.53.58zM314.11 250.68c.24.35.52.31.87.26s.81-.16.53-.58-.52-.31-.87-.26-.82.15-.53.58zM303.28 256.93c.24.35.52.31.87.26s.81-.16.53-.58-.52-.31-.87-.26-.81.16-.53.58zM292.45 263.18c.24.35.52.31.87.26s.81-.16.53-.58-.52-.31-.87-.26-.81.16-.53.58zM281.62 269.43c.24.35.52.31.87.26s.81-.16.53-.58-.52-.31-.87-.26-.81.15-.53.58zM270.8 275.68c.24.35.52.31.87.26s.81-.16.53-.58-.52-.31-.87-.26-.82.16-.53.58zM260 281.93c.24.35.52.31.87.26s.81-.16.53-.58-.52-.31-.87-.26-.85.16-.53.58zM249.14 288.19c.24.35.52.31.87.26s.81-.16.53-.58-.52-.31-.87-.26-.82.15-.53.58zM238.31 294.44c.24.35.52.31.87.26s.81-.16.53-.58-.52-.31-.87-.26-.84.14-.53.58zM227.48 300.69c.24.35.52.31.87.26s.81-.16.53-.58-.52-.31-.87-.26-.81.16-.53.58zM216.65 306.94c.24.35.52.31.87.26s.81-.16.53-.58-.52-.31-.87-.26-.81.16-.53.58zM519.84 119.39c.24.35.52.31.87.26s.81-.16.53-.58-.52-.31-.87-.26-.81.19-.53.58zM509 125.64c.24.35.52.31.87.26s.81-.16.53-.58-.52-.31-.87-.26-.8.16-.53.58zM498.19 131.89c.24.35.52.31.87.26s.81-.16.53-.58-.52-.31-.87-.26-.82.16-.53.58zM487.36 138.15c.24.35.52.31.87.26s.81-.16.53-.58-.52-.31-.87-.26-.82.15-.53.58zM476.53 144.4c.24.35.52.31.87.26s.81-.16.53-.58-.52-.31-.87-.26-.81.18-.53.58zM465.7 150.65c.24.35.52.31.87.26s.81-.16.53-.58-.52-.31-.87-.26-.81.16-.53.58zM454.87 156.9c.24.35.52.31.87.26s.81-.16.53-.58-.52-.31-.87-.26-.81.16-.53.58zM444 163.15c.24.35.52.31.87.26s.81-.16.53-.58-.52-.31-.87-.26-.77.16-.53.58zM433.22 169.4c.24.35.52.31.87.26s.81-.16.53-.58-.52-.31-.87-.26-.82.18-.53.58zM422.39 175.66c.24.35.52.31.87.26s.81-.16.53-.58-.52-.31-.87-.26-.82.15-.53.58zM411.56 181.91c.24.35.52.31.87.26s.81-.16.53-.58-.52-.31-.87-.26-.81.16-.53.58zM400.73 188.16c.24.35.52.31.87.26s.81-.16.53-.58-.52-.31-.87-.26-.81.16-.53.58zM389.91 194.41c.24.35.52.31.87.26s.81-.16.53-.58-.52-.31-.87-.26-.82.17-.53.58zM379.08 200.66c.24.35.52.31.87.26s.81-.16.53-.58-.52-.31-.87-.26-.82.16-.53.58zM368.25 206.91c.24.35.52.31.87.26s.81-.16.53-.58-.52-.31-.87-.26-.78.16-.53.58zM357.42 213.17c.24.35.52.31.87.26s.81-.16.53-.58-.52-.31-.87-.26-.82.15-.53.58zM346.59 219.42c.24.35.52.31.87.26s.81-.16.53-.58-.52-.31-.87-.26-.81.16-.53.58zM335.76 225.67c.24.35.52.31.87.26s.81-.16.53-.58-.52-.31-.87-.26-.81.16-.53.58zM324.94 231.92c.24.35.52.31.87.26s.81-.16.53-.58-.52-.31-.87-.26-.82.16-.53.58zM314.11 238.17c.24.35.52.31.87.26s.81-.16.53-.58-.52-.31-.87-.26-.82.16-.53.58zM303.28 244.42c.24.35.52.31.87.26s.81-.16.53-.58-.52-.31-.87-.26-.81.16-.53.58zM292.45 250.68c.24.35.52.31.87.26s.81-.16.53-.58-.52-.31-.87-.26-.81.15-.53.58zM281.62 256.93c.24.35.52.31.87.26s.81-.16.53-.58-.52-.31-.87-.26-.81.16-.53.58zM270.8 263.18c.24.35.52.31.87.26s.81-.16.53-.58-.52-.31-.87-.26-.82.16-.53.58zM260 269.43c.24.35.52.31.87.26s.81-.16.53-.58-.52-.31-.87-.26-.85.15-.53.58zM249.14 275.68c.24.35.52.31.87.26s.81-.16.53-.58-.52-.31-.87-.26-.82.16-.53.58zM238.31 281.93c.24.35.52.31.87.26s.81-.16.53-.58-.52-.31-.87-.26-.84.16-.53.58zM227.48 288.19c.24.35.52.31.87.26s.81-.16.53-.58-.52-.31-.87-.26-.81.15-.53.58zM216.65 294.44c.24.35.52.31.87.26s.81-.16.53-.58-.52-.31-.87-.26-.81.14-.53.58zM205.83 300.69c.24.35.52.31.87.26s.81-.16.53-.58-.52-.31-.87-.26-.82.16-.53.58zM509 113.14c.24.35.52.31.87.26s.81-.16.53-.58-.52-.31-.87-.26-.8.16-.53.58zM498.19 119.39c.24.35.52.31.87.26s.81-.16.53-.58-.52-.31-.87-.26-.82.19-.53.58zM487.36 125.64c.24.35.52.31.87.26s.81-.16.53-.58-.52-.31-.87-.26-.82.16-.53.58zM476.53 131.89c.24.35.52.31.87.26s.81-.16.53-.58-.52-.31-.87-.26-.81.16-.53.58zM465.7 138.15c.24.35.52.31.87.26s.81-.16.53-.58-.52-.31-.87-.26-.81.15-.53.58zM454.87 144.4c.24.35.52.31.87.26s.81-.16.53-.58-.52-.31-.87-.26-.81.18-.53.58zM444 150.65c.24.35.52.31.87.26s.81-.16.53-.58-.52-.31-.87-.26-.77.16-.53.58zM433.22 156.9c.24.35.52.31.87.26s.81-.16.53-.58-.52-.31-.87-.26-.82.16-.53.58zM422.39 163.15c.24.35.52.31.87.26s.81-.16.53-.58-.52-.31-.87-.26-.82.16-.53.58zM411.56 169.4c.24.35.52.31.87.26s.81-.16.53-.58-.52-.31-.87-.26-.81.18-.53.58zM400.73 175.66c.24.35.52.31.87.26s.81-.16.53-.58-.52-.31-.87-.26-.81.15-.53.58zM389.91 181.91c.24.35.52.31.87.26s.81-.16.53-.58-.52-.31-.87-.26-.82.16-.53.58zM379.08 188.16c.24.35.52.31.87.26s.81-.16.53-.58-.52-.31-.87-.26-.82.16-.53.58zM368.25 194.41c.24.35.52.31.87.26s.81-.16.53-.58-.52-.31-.87-.26-.78.17-.53.58zM357.42 200.66c.24.35.52.31.87.26s.81-.16.53-.58-.52-.31-.87-.26-.82.16-.53.58zM346.59 206.91c.24.35.52.31.87.26s.81-.16.53-.58-.52-.31-.87-.26-.81.16-.53.58zM335.76 213.17c.24.35.52.31.87.26s.81-.16.53-.58-.52-.31-.87-.26-.81.15-.53.58zM324.94 219.42c.24.35.52.31.87.26s.81-.16.53-.58-.52-.31-.87-.26-.82.16-.53.58zM314.11 225.67c.24.35.52.31.87.26s.81-.16.53-.58-.52-.31-.87-.26-.82.16-.53.58zM303.28 231.92c.24.35.52.31.87.26s.81-.16.53-.58-.52-.31-.87-.26-.81.16-.53.58zM292.45 238.17c.24.35.52.31.87.26s.81-.16.53-.58-.52-.31-.87-.26-.81.16-.53.58zM281.62 244.42c.24.35.52.31.87.26s.81-.16.53-.58-.52-.31-.87-.26-.81.16-.53.58zM270.8 250.68c.24.35.52.31.87.26s.81-.16.53-.58-.52-.31-.87-.26-.82.15-.53.58zM260 256.93c.24.35.52.31.87.26s.81-.16.53-.58-.52-.31-.87-.26-.85.16-.53.58zM249.14 263.18c.24.35.52.31.87.26s.81-.16.53-.58-.52-.31-.87-.26-.82.16-.53.58zM238.31 269.43c.24.35.52.31.87.26s.81-.16.53-.58-.52-.31-.87-.26-.84.15-.53.58zM227.48 275.68c.24.35.52.31.87.26s.81-.16.53-.58-.52-.31-.87-.26-.81.16-.53.58zM216.65 281.93c.24.35.52.31.87.26s.81-.16.53-.58-.52-.31-.87-.26-.81.16-.53.58zM205.83 288.19c.24.35.52.31.87.26s.81-.16.53-.58-.52-.31-.87-.26-.82.15-.53.58zM195 294.44c.24.35.52.31.87.26s.81-.16.53-.58-.52-.31-.87-.26-.82.14-.53.58zM498.19 106.89c.24.35.52.31.87.26s.81-.16.53-.58-.52-.31-.87-.26-.82.16-.53.58zM487.36 113.14c.24.35.52.31.87.26s.81-.16.53-.58-.52-.31-.87-.26-.82.16-.53.58zM476.53 119.39c.24.35.52.31.87.26s.81-.16.53-.58-.52-.31-.87-.26-.81.19-.53.58zM465.7 125.64c.24.35.52.31.87.26s.81-.16.53-.58-.52-.31-.87-.26-.81.16-.53.58zM454.87 131.89c.24.35.52.31.87.26s.81-.16.53-.58-.52-.31-.87-.26-.81.16-.53.58zM444 138.15c.24.35.52.31.87.26s.81-.16.53-.58-.52-.31-.87-.26-.77.15-.53.58zM433.22 144.4c.24.35.52.31.87.26s.81-.16.53-.58-.52-.31-.87-.26-.82.18-.53.58zM422.39 150.65c.24.35.52.31.87.26s.81-.16.53-.58-.52-.31-.87-.26-.82.16-.53.58zM411.56 156.9c.24.35.52.31.87.26s.81-.16.53-.58-.52-.31-.87-.26-.81.16-.53.58zM400.73 163.15c.24.35.52.31.87.26s.81-.16.53-.58-.52-.31-.87-.26-.81.16-.53.58zM389.91 169.4c.24.35.52.31.87.26s.81-.16.53-.58-.52-.31-.87-.26-.82.18-.53.58zM379.08 175.66c.24.35.52.31.87.26s.81-.16.53-.58-.52-.31-.87-.26-.82.15-.53.58zM368.25 181.91c.24.35.52.31.87.26s.81-.16.53-.58-.52-.31-.87-.26-.78.16-.53.58zM357.42 188.16c.24.35.52.31.87.26s.81-.16.53-.58-.52-.31-.87-.26-.82.16-.53.58zM346.59 194.41c.24.35.52.31.87.26s.81-.16.53-.58-.52-.31-.87-.26-.81.17-.53.58zM335.76 200.66c.24.35.52.31.87.26s.81-.16.53-.58-.52-.31-.87-.26-.81.16-.53.58zM324.94 206.91c.24.35.52.31.87.26s.81-.16.53-.58-.52-.31-.87-.26-.82.16-.53.58zM314.11 213.17c.24.35.52.31.87.26s.81-.16.53-.58-.52-.31-.87-.26-.82.15-.53.58zM303.28 219.42c.24.35.52.31.87.26s.81-.16.53-.58-.52-.31-.87-.26-.81.16-.53.58zM292.45 225.67c.24.35.52.31.87.26s.81-.16.53-.58-.52-.31-.87-.26-.81.16-.53.58zM281.62 231.92c.24.35.52.31.87.26s.81-.16.53-.58-.52-.31-.87-.26-.81.16-.53.58zM270.8 238.17c.24.35.52.31.87.26s.81-.16.53-.58-.52-.31-.87-.26-.82.16-.53.58zM260 244.42c.24.35.52.31.87.26s.81-.16.53-.58-.52-.31-.87-.26-.85.16-.53.58zM249.14 250.68c.24.35.52.31.87.26s.81-.16.53-.58-.52-.31-.87-.26-.82.15-.53.58zM238.31 256.93c.24.35.52.31.87.26s.81-.16.53-.58-.52-.31-.87-.26-.84.16-.53.58zM227.48 263.18c.24.35.52.31.87.26s.81-.16.53-.58-.52-.31-.87-.26-.81.16-.53.58zM216.65 269.43c.24.35.52.31.87.26s.81-.16.53-.58-.52-.31-.87-.26-.81.15-.53.58zM205.83 275.68c.24.35.52.31.87.26s.81-.16.53-.58-.52-.31-.87-.26-.82.16-.53.58zM195 281.93c.24.35.52.31.87.26s.81-.16.53-.58-.52-.31-.87-.26-.82.16-.53.58zM184.17 288.19c.24.35.52.31.87.26s.81-.16.53-.58-.52-.31-.87-.26-.82.15-.53.58zM487.36 100.64c.24.35.52.31.87.26s.81-.16.53-.58-.52-.31-.87-.26-.82.15-.53.58zM476.53 106.89c.24.35.52.31.87.26s.81-.16.53-.58-.52-.31-.87-.26-.81.16-.53.58zM465.7 113.14c.24.35.52.31.87.26s.81-.16.53-.58-.52-.31-.87-.26-.81.16-.53.58zM454.87 119.39c.24.35.52.31.87.26s.81-.16.53-.58-.52-.31-.87-.26-.81.19-.53.58zM444 125.64c.24.35.52.31.87.26s.81-.16.53-.58-.52-.31-.87-.26-.77.16-.53.58zM433.22 131.89c.24.35.52.31.87.26s.81-.16.53-.58-.52-.31-.87-.26-.82.16-.53.58zM422.39 138.15c.24.35.52.31.87.26s.81-.16.53-.58-.52-.31-.87-.26-.82.15-.53.58zM411.56 144.4c.24.35.52.31.87.26s.81-.16.53-.58-.52-.31-.87-.26-.81.18-.53.58zM400.73 150.65c.24.35.52.31.87.26s.81-.16.53-.58-.52-.31-.87-.26-.81.16-.53.58zM389.91 156.9c.24.35.52.31.87.26s.81-.16.53-.58-.52-.31-.87-.26-.82.16-.53.58zM379.08 163.15c.24.35.52.31.87.26s.81-.16.53-.58-.52-.31-.87-.26-.82.16-.53.58zM368.25 169.4c.24.35.52.31.87.26s.81-.16.53-.58-.52-.31-.87-.26-.78.18-.53.58zM357.42 175.66c.24.35.52.31.87.26s.81-.16.53-.58-.52-.31-.87-.26-.82.15-.53.58zM346.59 181.91c.24.35.52.31.87.26s.81-.16.53-.58-.52-.31-.87-.26-.81.16-.53.58zM335.76 188.16c.24.35.52.31.87.26s.81-.16.53-.58-.52-.31-.87-.26-.81.16-.53.58zM324.94 194.41c.24.35.52.31.87.26s.81-.16.53-.58-.52-.31-.87-.26-.82.17-.53.58zM314.11 200.66c.24.35.52.31.87.26s.81-.16.53-.58-.52-.31-.87-.26-.82.16-.53.58zM303.28 206.91c.24.35.52.31.87.26s.81-.16.53-.58-.52-.31-.87-.26-.81.16-.53.58zM292.45 213.17c.24.35.52.31.87.26s.81-.16.53-.58-.52-.31-.87-.26-.81.15-.53.58zM281.62 219.42c.24.35.52.31.87.26s.81-.16.53-.58-.52-.31-.87-.26-.81.16-.53.58zM270.8 225.67c.24.35.52.31.87.26s.81-.16.53-.58-.52-.31-.87-.26-.82.16-.53.58zM260 231.92c.24.35.52.31.87.26s.81-.16.53-.58-.52-.31-.87-.26-.85.16-.53.58zM249.14 238.17c.24.35.52.31.87.26s.81-.16.53-.58-.52-.31-.87-.26-.82.16-.53.58zM238.31 244.42c.24.35.52.31.87.26s.81-.16.53-.58-.52-.31-.87-.26-.84.16-.53.58zM227.48 250.68c.24.35.52.31.87.26s.81-.16.53-.58-.52-.31-.87-.26-.81.15-.53.58zM216.65 256.93c.24.35.52.31.87.26s.81-.16.53-.58-.52-.31-.87-.26-.81.16-.53.58zM205.83 263.18c.24.35.52.31.87.26s.81-.16.53-.58-.52-.31-.87-.26-.82.16-.53.58zM195 269.43c.24.35.52.31.87.26s.81-.16.53-.58-.52-.31-.87-.26-.82.15-.53.58zM184.17 275.68c.24.35.52.31.87.26s.81-.16.53-.58-.52-.31-.87-.26-.82.16-.53.58zM173.34 281.93c.24.35.52.31.87.26s.81-.16.53-.58-.52-.31-.87-.26-.81.16-.53.58zM476.53 94.38c.24.35.52.31.87.26s.81-.16.53-.58-.52-.31-.87-.26-.81.2-.53.58zM465.7 100.64c.24.35.52.31.87.26s.81-.16.53-.58-.52-.31-.87-.26-.81.15-.53.58zM454.87 106.89c.24.35.52.31.87.26s.81-.16.53-.58-.52-.31-.87-.26-.81.16-.53.58zM444 113.14c.24.35.52.31.87.26s.81-.16.53-.58-.52-.31-.87-.26-.77.16-.53.58zM433.22 119.39c.24.35.52.31.87.26s.81-.16.53-.58-.52-.31-.87-.26-.82.19-.53.58zM422.39 125.64c.24.35.52.31.87.26s.81-.16.53-.58-.52-.31-.87-.26-.82.16-.53.58zM411.56 131.89c.24.35.52.31.87.26s.81-.16.53-.58-.52-.31-.87-.26-.81.16-.53.58zM400.73 138.15c.24.35.52.31.87.26s.81-.16.53-.58-.52-.31-.87-.26-.81.15-.53.58zM389.91 144.4c.24.35.52.31.87.26s.81-.16.53-.58-.52-.31-.87-.26-.82.18-.53.58zM379.08 150.65c.24.35.52.31.87.26s.81-.16.53-.58-.52-.31-.87-.26-.82.16-.53.58zM368.25 156.9c.24.35.52.31.87.26s.81-.16.53-.58-.52-.31-.87-.26-.78.16-.53.58zM357.42 163.15c.24.35.52.31.87.26s.81-.16.53-.58-.52-.31-.87-.26-.82.16-.53.58zM346.59 169.4c.24.35.52.31.87.26s.81-.16.53-.58-.52-.31-.87-.26-.81.18-.53.58zM335.76 175.66c.24.35.52.31.87.26s.81-.16.53-.58-.52-.31-.87-.26-.81.15-.53.58zM324.94 181.91c.24.35.52.31.87.26s.81-.16.53-.58-.52-.31-.87-.26-.82.16-.53.58zM314.11 188.16c.24.35.52.31.87.26s.81-.16.53-.58-.52-.31-.87-.26-.82.16-.53.58zM303.28 194.41c.24.35.52.31.87.26s.81-.16.53-.58-.52-.31-.87-.26-.81.17-.53.58zM292.45 200.66c.24.35.52.31.87.26s.81-.16.53-.58-.52-.31-.87-.26-.81.16-.53.58zM281.62 206.91c.24.35.52.31.87.26s.81-.16.53-.58-.52-.31-.87-.26-.81.16-.53.58zM270.8 213.17c.24.35.52.31.87.26s.81-.16.53-.58-.52-.31-.87-.26-.82.15-.53.58zM260 219.42c.24.35.52.31.87.26s.81-.16.53-.58-.52-.31-.87-.26-.85.16-.53.58zM249.14 225.67c.24.35.52.31.87.26s.81-.16.53-.58-.52-.31-.87-.26-.82.16-.53.58zM238.31 231.92c.24.35.52.31.87.26s.81-.16.53-.58-.52-.31-.87-.26-.84.16-.53.58zM227.48 238.17c.24.35.52.31.87.26s.81-.16.53-.58-.52-.31-.87-.26-.81.16-.53.58zM216.65 244.42c.24.35.52.31.87.26s.81-.16.53-.58-.52-.31-.87-.26-.81.16-.53.58zM205.83 250.68c.24.35.52.31.87.26s.81-.16.53-.58-.52-.31-.87-.26-.82.15-.53.58zM195 256.93c.24.35.52.31.87.26s.81-.16.53-.58-.52-.31-.87-.26-.82.16-.53.58zM184.17 263.18c.24.35.52.31.87.26s.81-.16.53-.58-.52-.31-.87-.26-.82.16-.53.58zM173.34 269.43c.24.35.52.31.87.26s.81-.16.53-.58-.52-.31-.87-.26-.81.15-.53.58zM162.51 275.68c.24.35.52.31.87.26s.81-.16.53-.58-.52-.31-.87-.26-.81.16-.53.58zM465.7 88.13c.24.35.52.31.87.26s.81-.16.53-.58-.52-.31-.87-.26-.81.16-.53.58zM454.87 94.38c.24.35.52.31.87.26s.81-.16.53-.58-.52-.31-.87-.26-.81.2-.53.58zM444 100.64c.24.35.52.31.87.26s.81-.16.53-.58-.52-.31-.87-.26-.77.15-.53.58zM433.22 106.89c.24.35.52.31.87.26s.81-.16.53-.58-.52-.31-.87-.26-.82.16-.53.58zM422.39 113.14c.24.35.52.31.87.26s.81-.16.53-.58-.52-.31-.87-.26-.82.16-.53.58zM411.56 119.39c.24.35.52.31.87.26s.81-.16.53-.58-.52-.31-.87-.26-.81.19-.53.58zM400.73 125.64c.24.35.52.31.87.26s.81-.16.53-.58-.52-.31-.87-.26-.81.16-.53.58zM389.91 131.89c.24.35.52.31.87.26s.81-.16.53-.58-.52-.31-.87-.26-.82.16-.53.58zM379.08 138.15c.24.35.52.31.87.26s.81-.16.53-.58-.52-.31-.87-.26-.82.15-.53.58zM368.25 144.4c.24.35.52.31.87.26s.81-.16.53-.58-.52-.31-.87-.26-.78.18-.53.58zM357.42 150.65c.24.35.52.31.87.26s.81-.16.53-.58-.52-.31-.87-.26-.82.16-.53.58zM346.59 156.9c.24.35.52.31.87.26s.81-.16.53-.58-.52-.31-.87-.26-.81.16-.53.58zM335.76 163.15c.24.35.52.31.87.26s.81-.16.53-.58-.52-.31-.87-.26-.81.16-.53.58zM324.94 169.4c.24.35.52.31.87.26s.81-.16.53-.58-.52-.31-.87-.26-.82.18-.53.58zM314.11 175.66c.24.35.52.31.87.26s.81-.16.53-.58-.52-.31-.87-.26-.82.15-.53.58zM303.28 181.91c.24.35.52.31.87.26s.81-.16.53-.58-.52-.31-.87-.26-.81.16-.53.58zM292.45 188.16c.24.35.52.31.87.26s.81-.16.53-.58-.52-.31-.87-.26-.81.16-.53.58zM281.62 194.41c.24.35.52.31.87.26s.81-.16.53-.58-.52-.31-.87-.26-.81.17-.53.58zM270.8 200.66c.24.35.52.31.87.26s.81-.16.53-.58-.52-.31-.87-.26-.82.16-.53.58zM260 206.91c.24.35.52.31.87.26s.81-.16.53-.58-.52-.31-.87-.26-.85.16-.53.58zM249.14 213.17c.24.35.52.31.87.26s.81-.16.53-.58-.52-.31-.87-.26-.82.15-.53.58zM238.31 219.42c.24.35.52.31.87.26s.81-.16.53-.58-.52-.31-.87-.26-.84.16-.53.58zM227.48 225.67c.24.35.52.31.87.26s.81-.16.53-.58-.52-.31-.87-.26-.81.16-.53.58zM216.65 231.92c.24.35.52.31.87.26s.81-.16.53-.58-.52-.31-.87-.26-.81.16-.53.58zM205.83 238.17c.24.35.52.31.87.26s.81-.16.53-.58-.52-.31-.87-.26-.82.16-.53.58zM195 244.42c.24.35.52.31.87.26s.81-.16.53-.58-.52-.31-.87-.26-.82.16-.53.58zM184.17 250.68c.24.35.52.31.87.26s.81-.16.53-.58-.52-.31-.87-.26-.82.15-.53.58zM173.34 256.93c.24.35.52.31.87.26s.81-.16.53-.58-.52-.31-.87-.26-.81.16-.53.58zM162.51 263.18c.24.35.52.31.87.26s.81-.16.53-.58-.52-.31-.87-.26-.81.16-.53.58zM151.69 269.43c.24.35.52.31.87.26s.81-.16.53-.58-.52-.31-.87-.26-.82.15-.53.58zM454.87 81.88c.24.35.52.31.87.26s.81-.16.53-.58-.52-.31-.87-.26-.81.16-.53.58zM444 88.13c.24.35.52.31.87.26s.81-.16.53-.58-.52-.31-.87-.26-.77.16-.53.58zM433.22 94.38c.24.35.52.31.87.26s.81-.16.53-.58-.52-.31-.87-.26-.82.2-.53.58zM422.39 100.64c.24.35.52.31.87.26s.81-.16.53-.58-.52-.31-.87-.26-.82.15-.53.58zM411.56 106.89c.24.35.52.31.87.26s.81-.16.53-.58-.52-.31-.87-.26-.81.16-.53.58zM400.73 113.14c.24.35.52.31.87.26s.81-.16.53-.58-.52-.31-.87-.26-.81.16-.53.58zM389.91 119.39c.24.35.52.31.87.26s.81-.16.53-.58-.52-.31-.87-.26-.82.19-.53.58zM379.08 125.64c.24.35.52.31.87.26s.81-.16.53-.58-.52-.31-.87-.26-.82.16-.53.58zM368.25 131.89c.24.35.52.31.87.26s.81-.16.53-.58-.52-.31-.87-.26-.78.16-.53.58zM357.42 138.15c.24.35.52.31.87.26s.81-.16.53-.58-.52-.31-.87-.26-.82.15-.53.58zM346.59 144.4c.24.35.52.31.87.26s.81-.16.53-.58-.52-.31-.87-.26-.81.18-.53.58zM335.76 150.65c.24.35.52.31.87.26s.81-.16.53-.58-.52-.31-.87-.26-.81.16-.53.58zM324.94 156.9c.24.35.52.31.87.26s.81-.16.53-.58-.52-.31-.87-.26-.82.16-.53.58zM314.11 163.15c.24.35.52.31.87.26s.81-.16.53-.58-.52-.31-.87-.26-.82.16-.53.58zM303.28 169.4c.24.35.52.31.87.26s.81-.16.53-.58-.52-.31-.87-.26-.81.18-.53.58zM292.45 175.66c.24.35.52.31.87.26s.81-.16.53-.58-.52-.31-.87-.26-.81.15-.53.58zM281.62 181.91c.24.35.52.31.87.26s.81-.16.53-.58-.52-.31-.87-.26-.81.16-.53.58zM270.8 188.16c.24.35.52.31.87.26s.81-.16.53-.58-.52-.31-.87-.26-.82.16-.53.58zM260 194.41c.24.35.52.31.87.26s.81-.16.53-.58-.52-.31-.87-.26-.85.17-.53.58zM249.14 200.66c.24.35.52.31.87.26s.81-.16.53-.58-.52-.31-.87-.26-.82.16-.53.58zM238.31 206.91c.24.35.52.31.87.26s.81-.16.53-.58-.52-.31-.87-.26-.84.16-.53.58zM227.48 213.17c.24.35.52.31.87.26s.81-.16.53-.58-.52-.31-.87-.26-.81.15-.53.58zM216.65 219.42c.24.35.52.31.87.26s.81-.16.53-.58-.52-.31-.87-.26-.81.16-.53.58zM205.83 225.67c.24.35.52.31.87.26s.81-.16.53-.58-.52-.31-.87-.26-.82.16-.53.58zM195 231.92c.24.35.52.31.87.26s.81-.16.53-.58-.52-.31-.87-.26-.82.16-.53.58zM184.17 238.17c.24.35.52.31.87.26s.81-.16.53-.58-.52-.31-.87-.26-.82.16-.53.58zM173.34 244.42c.24.35.52.31.87.26s.81-.16.53-.58-.52-.31-.87-.26-.81.16-.53.58zM162.51 250.68c.24.35.52.31.87.26s.81-.16.53-.58-.52-.31-.87-.26-.81.15-.53.58zM151.69 256.93c.24.35.52.31.87.26s.81-.16.53-.58-.52-.31-.87-.26-.82.16-.53.58zM140.86 263.18c.24.35.52.31.87.26s.81-.16.53-.58-.52-.31-.87-.26-.82.16-.53.58zM444 75.63c.24.35.52.31.87.26s.81-.16.53-.58-.52-.31-.87-.26-.77.16-.53.58zM433.22 81.88c.24.35.52.31.87.26s.81-.16.53-.58-.52-.31-.87-.26-.82.16-.53.58zM422.39 88.13c.24.35.52.31.87.26s.81-.16.53-.58-.52-.31-.87-.26-.82.16-.53.58zM411.56 94.38c.24.35.52.31.87.26s.81-.16.53-.58-.52-.31-.87-.26-.81.2-.53.58zM400.73 100.64c.24.35.52.31.87.26s.81-.16.53-.58-.52-.31-.87-.26-.81.15-.53.58zM389.91 106.89c.24.35.52.31.87.26s.81-.16.53-.58-.52-.31-.87-.26-.82.16-.53.58zM379.08 113.14c.24.35.52.31.87.26s.81-.16.53-.58-.52-.31-.87-.26-.82.16-.53.58zM368.25 119.39c.24.35.52.31.87.26s.81-.16.53-.58-.52-.31-.87-.26-.78.19-.53.58zM357.42 125.64c.24.35.52.31.87.26s.81-.16.53-.58-.52-.31-.87-.26-.82.16-.53.58zM346.59 131.89c.24.35.52.31.87.26s.81-.16.53-.58-.52-.31-.87-.26-.81.16-.53.58zM335.76 138.15c.24.35.52.31.87.26s.81-.16.53-.58-.52-.31-.87-.26-.81.15-.53.58zM324.94 144.4c.24.35.52.31.87.26s.81-.16.53-.58-.52-.31-.87-.26-.82.18-.53.58zM314.11 150.65c.24.35.52.31.87.26s.81-.16.53-.58-.52-.31-.87-.26-.82.16-.53.58zM303.28 156.9c.24.35.52.31.87.26s.81-.16.53-.58-.52-.31-.87-.26-.81.16-.53.58zM292.45 163.15c.24.35.52.31.87.26s.81-.16.53-.58-.52-.31-.87-.26-.81.16-.53.58zM281.62 169.4c.24.35.52.31.87.26s.81-.16.53-.58-.52-.31-.87-.26-.81.18-.53.58zM270.8 175.66c.24.35.52.31.87.26s.81-.16.53-.58-.52-.31-.87-.26-.82.15-.53.58zM260 181.91c.24.35.52.31.87.26s.81-.16.53-.58-.52-.31-.87-.26-.85.16-.53.58zM249.14 188.16c.24.35.52.31.87.26s.81-.16.53-.58-.52-.31-.87-.26-.82.16-.53.58zM238.31 194.41c.24.35.52.31.87.26s.81-.16.53-.58-.52-.31-.87-.26-.84.17-.53.58zM227.48 200.66c.24.35.52.31.87.26s.81-.16.53-.58-.52-.31-.87-.26-.81.16-.53.58zM216.65 206.91c.24.35.52.31.87.26s.81-.16.53-.58-.52-.31-.87-.26-.81.16-.53.58zM205.83 213.17c.24.35.52.31.87.26s.81-.16.53-.58-.52-.31-.87-.26-.82.15-.53.58zM195 219.42c.24.35.52.31.87.26s.81-.16.53-.58-.52-.31-.87-.26-.82.16-.53.58zM184.17 225.67c.24.35.52.31.87.26s.81-.16.53-.58-.52-.31-.87-.26-.82.16-.53.58zM173.34 231.92c.24.35.52.31.87.26s.81-.16.53-.58-.52-.31-.87-.26-.81.16-.53.58zM162.51 238.17c.24.35.52.31.87.26s.81-.16.53-.58-.52-.31-.87-.26-.81.16-.53.58zM151.69 244.42c.24.35.52.31.87.26s.81-.16.53-.58-.52-.31-.87-.26-.82.16-.53.58zM140.86 250.68c.24.35.52.31.87.26s.81-.16.53-.58-.52-.31-.87-.26-.82.15-.53.58zM130 256.93c.24.35.52.31.87.26s.81-.16.53-.58-.52-.31-.87-.26-.79.16-.53.58zM433.22 69.38c.24.35.52.31.87.26s.81-.16.53-.58-.52-.31-.87-.26-.82.2-.53.58zM422.39 75.63c.24.35.52.31.87.26s.81-.16.53-.58-.52-.31-.87-.26-.82.16-.53.58zM411.56 81.88c.24.35.52.31.87.26s.81-.16.53-.58-.52-.31-.87-.26-.81.16-.53.58zM400.73 88.13c.24.35.52.31.87.26s.81-.16.53-.58-.52-.31-.87-.26-.81.16-.53.58zM389.91 94.38c.24.35.52.31.87.26s.81-.16.53-.58-.52-.31-.87-.26-.82.2-.53.58zM379.08 100.64c.24.35.52.31.87.26s.81-.16.53-.58-.52-.31-.87-.26-.82.15-.53.58zM368.25 106.89c.24.35.52.31.87.26s.81-.16.53-.58-.52-.31-.87-.26-.78.16-.53.58zM357.42 113.14c.24.35.52.31.87.26s.81-.16.53-.58-.52-.31-.87-.26-.82.16-.53.58zM346.59 119.39c.24.35.52.31.87.26s.81-.16.53-.58-.52-.31-.87-.26-.81.19-.53.58zM335.76 125.64c.24.35.52.31.87.26s.81-.16.53-.58-.52-.31-.87-.26-.81.16-.53.58zM324.94 131.89c.24.35.52.31.87.26s.81-.16.53-.58-.52-.31-.87-.26-.82.16-.53.58zM314.11 138.15c.24.35.52.31.87.26s.81-.16.53-.58-.52-.31-.87-.26-.82.15-.53.58zM303.28 144.4c.24.35.52.31.87.26s.81-.16.53-.58-.52-.31-.87-.26-.81.18-.53.58zM292.45 150.65c.24.35.52.31.87.26s.81-.16.53-.58-.52-.31-.87-.26-.81.16-.53.58zM281.62 156.9c.24.35.52.31.87.26s.81-.16.53-.58-.52-.31-.87-.26-.81.16-.53.58zM270.8 163.15c.24.35.52.31.87.26s.81-.16.53-.58-.52-.31-.87-.26-.82.16-.53.58zM260 169.4c.24.35.52.31.87.26s.81-.16.53-.58-.52-.31-.87-.26-.85.18-.53.58zM249.14 175.66c.24.35.52.31.87.26s.81-.16.53-.58-.52-.31-.87-.26-.82.15-.53.58zM238.31 181.91c.24.35.52.31.87.26s.81-.16.53-.58-.52-.31-.87-.26-.84.16-.53.58zM227.48 188.16c.24.35.52.31.87.26s.81-.16.53-.58-.52-.31-.87-.26-.81.16-.53.58zM216.65 194.41c.24.35.52.31.87.26s.81-.16.53-.58-.52-.31-.87-.26-.81.17-.53.58zM205.83 200.66c.24.35.52.31.87.26s.81-.16.53-.58-.52-.31-.87-.26-.82.16-.53.58zM195 206.91c.24.35.52.31.87.26s.81-.16.53-.58-.52-.31-.87-.26-.82.16-.53.58zM184.17 213.17c.24.35.52.31.87.26s.81-.16.53-.58-.52-.31-.87-.26-.82.15-.53.58zM173.34 219.42c.24.35.52.31.87.26s.81-.16.53-.58-.52-.31-.87-.26-.81.16-.53.58zM162.51 225.67c.24.35.52.31.87.26s.81-.16.53-.58-.52-.31-.87-.26-.81.16-.53.58zM151.69 231.92c.24.35.52.31.87.26s.81-.16.53-.58-.52-.31-.87-.26-.82.16-.53.58zM140.86 238.17c.24.35.52.31.87.26s.81-.16.53-.58-.52-.31-.87-.26-.82.16-.53.58zM130 244.42c.24.35.52.31.87.26s.81-.16.53-.58-.52-.31-.87-.26-.79.16-.53.58zM119.2 250.68c.24.35.52.31.87.26s.81-.16.53-.58-.52-.31-.87-.26-.82.15-.53.58zM422.39 63.13c.24.35.52.31.87.26s.81-.16.53-.58-.52-.31-.87-.26-.82.15-.53.58zM411.56 69.38c.24.35.52.31.87.26s.81-.16.53-.58-.52-.31-.87-.26-.81.2-.53.58zM400.73 75.63c.24.35.52.31.87.26s.81-.16.53-.58-.52-.31-.87-.26-.81.16-.53.58zM389.91 81.88c.24.35.52.31.87.26s.81-.16.53-.58-.52-.31-.87-.26-.82.16-.53.58zM379.08 88.13c.24.35.52.31.87.26s.81-.16.53-.58-.52-.31-.87-.26-.82.16-.53.58zM368.25 94.38c.24.35.52.31.87.26s.81-.16.53-.58-.52-.31-.87-.26-.78.2-.53.58zM357.42 100.64c.24.35.52.31.87.26s.81-.16.53-.58-.52-.31-.87-.26-.82.15-.53.58zM346.59 106.89c.24.35.52.31.87.26s.81-.16.53-.58-.52-.31-.87-.26-.81.16-.53.58zM335.76 113.14c.24.35.52.31.87.26s.81-.16.53-.58-.52-.31-.87-.26-.81.16-.53.58zM324.94 119.39c.24.35.52.31.87.26s.81-.16.53-.58-.52-.31-.87-.26-.82.19-.53.58zM314.11 125.64c.24.35.52.31.87.26s.81-.16.53-.58-.52-.31-.87-.26-.82.16-.53.58zM303.28 131.89c.24.35.52.31.87.26s.81-.16.53-.58-.52-.31-.87-.26-.81.16-.53.58zM292.45 138.15c.24.35.52.31.87.26s.81-.16.53-.58-.52-.31-.87-.26-.81.15-.53.58zM281.62 144.4c.24.35.52.31.87.26s.81-.16.53-.58-.52-.31-.87-.26-.81.18-.53.58zM270.8 150.65c.24.35.52.31.87.26s.81-.16.53-.58-.52-.31-.87-.26-.82.16-.53.58zM260 156.9c.24.35.52.31.87.26s.81-.16.53-.58-.52-.31-.87-.26-.85.16-.53.58zM249.14 163.15c.24.35.52.31.87.26s.81-.16.53-.58-.52-.31-.87-.26-.82.16-.53.58zM238.31 169.4c.24.35.52.31.87.26s.81-.16.53-.58-.52-.31-.87-.26-.84.18-.53.58zM227.48 175.66c.24.35.52.31.87.26s.81-.16.53-.58-.52-.31-.87-.26-.81.15-.53.58zM216.65 181.91c.24.35.52.31.87.26s.81-.16.53-.58-.52-.31-.87-.26-.81.16-.53.58zM205.83 188.16c.24.35.52.31.87.26s.81-.16.53-.58-.52-.31-.87-.26-.82.16-.53.58zM195 194.41c.24.35.52.31.87.26s.81-.16.53-.58-.52-.31-.87-.26-.82.17-.53.58zM184.17 200.66c.24.35.52.31.87.26s.81-.16.53-.58-.52-.31-.87-.26-.82.16-.53.58zM173.34 206.91c.24.35.52.31.87.26s.81-.16.53-.58-.52-.31-.87-.26-.81.16-.53.58zM162.51 213.17c.24.35.52.31.87.26s.81-.16.53-.58-.52-.31-.87-.26-.81.15-.53.58zM151.69 219.42c.24.35.52.31.87.26s.81-.16.53-.58-.52-.31-.87-.26-.82.16-.53.58zM140.86 225.67c.24.35.52.31.87.26s.81-.16.53-.58-.52-.31-.87-.26-.82.16-.53.58zM130 231.92c.24.35.52.31.87.26s.81-.16.53-.58-.52-.31-.87-.26-.79.16-.53.58zM119.2 238.17c.24.35.52.31.87.26s.81-.16.53-.58-.52-.31-.87-.26-.82.16-.53.58zM108.37 244.42c.24.35.52.31.87.26s.81-.16.53-.58-.52-.31-.87-.26-.81.16-.53.58zM411.56 56.87c.24.35.52.31.87.26s.81-.16.53-.58-.52-.31-.87-.26-.81.16-.53.58zM400.73 63.13c.24.35.52.31.87.26s.81-.16.53-.58-.52-.31-.87-.26-.81.15-.53.58zM389.91 69.38c.24.35.52.31.87.26s.81-.16.53-.58-.52-.31-.87-.26-.82.2-.53.58zM379.08 75.63c.24.35.52.31.87.26s.81-.16.53-.58-.48-.31-.87-.31-.82.21-.53.63zM368.25 81.88c.24.35.52.31.87.26s.81-.16.53-.58-.52-.31-.87-.26-.78.16-.53.58zM357.42 88.13c.24.35.52.31.87.26s.81-.16.53-.58-.52-.31-.87-.26-.82.16-.53.58zM346.59 94.38c.24.35.52.31.87.26s.81-.16.53-.58-.52-.31-.87-.26-.81.2-.53.58zM335.76 100.64c.24.35.52.31.87.26s.81-.16.53-.58-.52-.31-.87-.26-.81.15-.53.58zM324.94 106.89c.24.35.52.31.87.26s.81-.16.53-.58-.52-.31-.87-.26-.82.16-.53.58zM314.11 113.14c.24.35.52.31.87.26s.81-.16.53-.58-.52-.31-.87-.26-.82.16-.53.58zM303.28 119.39c.24.35.52.31.87.26s.81-.16.53-.58-.52-.31-.87-.26-.81.19-.53.58zM292.45 125.64c.24.35.52.31.87.26s.81-.16.53-.58-.52-.31-.87-.26-.81.16-.53.58zM281.62 131.89c.24.35.52.31.87.26s.81-.16.53-.58-.52-.31-.87-.26-.81.16-.53.58zM270.8 138.15c.24.35.52.31.87.26s.81-.16.53-.58-.52-.31-.87-.26-.82.15-.53.58zM260 144.4c.24.35.52.31.87.26s.81-.16.53-.58-.52-.31-.87-.26-.85.18-.53.58zM249.14 150.65c.24.35.52.31.87.26s.81-.16.53-.58-.52-.31-.87-.26-.82.16-.53.58zM238.31 156.9c.24.35.52.31.87.26s.81-.16.53-.58-.52-.31-.87-.26-.84.16-.53.58zM227.48 163.15c.24.35.52.31.87.26s.81-.16.53-.58-.52-.31-.87-.26-.81.16-.53.58zM216.65 169.4c.24.35.52.31.87.26s.81-.16.53-.58-.52-.31-.87-.26-.81.18-.53.58zM205.83 175.66c.24.35.52.31.87.26s.81-.16.53-.58-.52-.31-.87-.26-.82.15-.53.58zM195 181.91c.24.35.52.31.87.26s.81-.16.53-.58-.52-.31-.87-.26-.82.16-.53.58zM184.17 188.16c.24.35.52.31.87.26s.81-.16.53-.58-.52-.31-.87-.26-.82.16-.53.58zM173.34 194.41c.24.35.52.31.87.26s.81-.16.53-.58-.52-.31-.87-.26-.81.17-.53.58zM162.51 200.66c.24.35.52.31.87.26s.81-.16.53-.58-.52-.31-.87-.26-.81.16-.53.58zM151.69 206.91c.24.35.52.31.87.26s.81-.16.53-.58-.52-.31-.87-.26-.82.16-.53.58zM140.86 213.17c.24.35.52.31.87.26s.81-.16.53-.58-.52-.31-.87-.26-.82.15-.53.58zM130 219.42c.24.35.52.31.87.26s.81-.16.53-.58-.52-.31-.87-.26-.79.16-.53.58zM119.2 225.67c.24.35.52.31.87.26s.81-.16.53-.58-.52-.31-.87-.26-.82.16-.53.58zM108.37 231.92c.24.35.52.31.87.26s.81-.16.53-.58-.52-.31-.87-.26-.81.16-.53.58zM97.54 238.17c.24.35.52.31.87.26s.81-.16.53-.58-.52-.31-.87-.26-.81.16-.53.58zM400.73 50.62c.24.35.52.31.87.26s.81-.16.53-.58-.52-.31-.87-.26-.81.16-.53.58zM389.91 56.87c.24.35.52.31.87.26s.81-.16.53-.58-.52-.31-.87-.26-.82.16-.53.58zM379.08 63.13c.24.35.52.31.87.26s.81-.16.53-.58-.52-.31-.87-.26-.82.15-.53.58zM368.25 69.38c.24.35.52.31.87.26s.81-.16.53-.58-.52-.31-.87-.26-.78.2-.53.58zM357.42 75.63c.24.35.52.31.87.26s.81-.16.53-.58-.52-.31-.87-.26-.82.16-.53.58zM346.59 81.88c.24.35.52.31.87.26s.81-.16.53-.58-.52-.31-.87-.26-.81.16-.53.58zM335.76 88.13c.24.35.52.31.87.26s.81-.16.53-.58-.52-.31-.87-.26-.81.16-.53.58zM324.94 94.38c.24.35.52.31.87.26s.81-.16.53-.58-.52-.31-.87-.26-.82.2-.53.58zM314.11 100.64c.24.35.52.31.87.26s.81-.16.53-.58-.52-.31-.87-.26-.82.15-.53.58zM303.28 106.89c.24.35.52.31.87.26s.81-.16.53-.58-.52-.31-.87-.26-.81.16-.53.58zM292.45 113.14c.24.35.52.31.87.26s.81-.16.53-.58-.52-.31-.87-.26-.81.16-.53.58zM281.62 119.39c.24.35.52.31.87.26s.81-.16.53-.58-.52-.31-.87-.26-.81.19-.53.58zM270.8 125.64c.24.35.52.31.87.26s.81-.16.53-.58-.52-.31-.87-.26-.82.16-.53.58zM260 131.89c.24.35.52.31.87.26s.81-.16.53-.58-.52-.31-.87-.26-.85.16-.53.58zM249.14 138.15c.24.35.52.31.87.26s.81-.16.53-.58-.52-.31-.87-.26-.82.15-.53.58zM238.31 144.4c.24.35.52.31.87.26s.81-.16.53-.58-.52-.31-.87-.26-.84.18-.53.58zM227.48 150.65c.24.35.52.31.87.26s.81-.16.53-.58-.52-.31-.87-.26-.81.16-.53.58zM216.65 156.9c.24.35.52.31.87.26s.81-.16.53-.58-.52-.31-.87-.26-.81.16-.53.58zM205.83 163.15c.24.35.52.31.87.26s.81-.16.53-.58-.52-.31-.87-.26-.82.16-.53.58zM195 169.4c.24.35.52.31.87.26s.81-.16.53-.58-.52-.31-.87-.26-.82.18-.53.58zM184.17 175.66c.24.35.52.31.87.26s.81-.16.53-.58-.52-.31-.87-.26-.82.15-.53.58zM173.34 181.91c.24.35.52.31.87.26s.81-.16.53-.58-.52-.31-.87-.26-.81.16-.53.58zM162.51 188.16c.24.35.52.31.87.26s.81-.16.53-.58-.52-.31-.87-.26-.81.16-.53.58zM151.69 194.41c.24.35.52.31.87.26s.81-.16.53-.58-.52-.31-.87-.26-.82.17-.53.58zM140.86 200.66c.24.35.52.31.87.26s.81-.16.53-.58-.52-.31-.87-.26-.82.16-.53.58zM130 206.91c.24.35.52.31.87.26s.81-.16.53-.58-.52-.31-.87-.26-.79.16-.53.58zM119.2 213.17c.24.35.52.31.87.26s.81-.16.53-.58-.52-.31-.87-.26-.82.15-.53.58zM108.37 219.42c.24.35.52.31.87.26s.81-.16.53-.58-.52-.31-.87-.26-.81.16-.53.58zM97.54 225.67c.24.35.52.31.87.26s.81-.16.53-.58-.52-.31-.87-.26-.81.16-.53.58zM86.72 231.92c.24.35.52.31.87.26s.81-.16.53-.58-.52-.31-.87-.26-.82.16-.53.58zM389.91 44.37c.24.35.52.31.87.26s.81-.16.53-.58-.52-.31-.87-.26-.82.16-.53.58zM379.08 50.62c.24.35.52.31.87.26s.81-.16.53-.58-.48-.3-.87-.3-.82.2-.53.62zM368.25 56.87c.24.35.52.31.87.26s.81-.16.53-.58-.52-.31-.87-.26-.78.16-.53.58zM357.42 63.13c.24.35.52.31.87.26s.81-.16.53-.58-.52-.31-.87-.26-.82.15-.53.58zM346.59 69.38c.24.35.52.31.87.26s.81-.16.53-.58-.52-.31-.87-.26-.81.2-.53.58zM335.76 75.63c.24.35.52.31.87.26s.81-.16.53-.58-.52-.31-.87-.26-.81.16-.53.58zM324.94 81.88c.24.35.52.31.87.26s.81-.16.53-.58-.52-.31-.87-.26-.82.16-.53.58zM314.11 88.13c.24.35.52.31.87.26s.81-.16.53-.58-.52-.31-.87-.26-.82.16-.53.58zM303.28 94.38c.24.35.52.31.87.26s.81-.16.53-.58-.52-.31-.87-.26-.81.2-.53.58zM292.45 100.64c.24.35.52.31.87.26s.81-.16.53-.58-.52-.31-.87-.26-.81.15-.53.58zM281.62 106.89c.24.35.52.31.87.26s.81-.16.53-.58-.52-.31-.87-.26-.81.16-.53.58zM270.8 113.14c.24.35.52.31.87.26s.81-.16.53-.58-.52-.31-.87-.26-.82.16-.53.58zM260 119.39c.24.35.52.31.87.26s.81-.16.53-.58-.52-.31-.87-.26-.85.19-.53.58zM249.14 125.64c.24.35.52.31.87.26s.81-.16.53-.58-.52-.31-.87-.26-.82.16-.53.58zM238.31 131.89c.24.35.52.31.87.26s.81-.16.53-.58-.52-.31-.87-.26-.84.16-.53.58zM227.48 138.15c.24.35.52.31.87.26s.81-.16.53-.58-.52-.31-.87-.26-.81.15-.53.58zM216.65 144.4c.24.35.52.31.87.26s.81-.16.53-.58-.52-.31-.87-.26-.81.18-.53.58zM205.83 150.65c.24.35.52.31.87.26s.81-.16.53-.58-.52-.31-.87-.26-.82.16-.53.58zM195 156.9c.24.35.52.31.87.26s.81-.16.53-.58-.52-.31-.87-.26-.82.16-.53.58zM184.17 163.15c.24.35.52.31.87.26s.81-.16.53-.58-.52-.31-.87-.26-.82.16-.53.58zM173.34 169.4c.24.35.52.31.87.26s.81-.16.53-.58-.52-.31-.87-.26-.81.18-.53.58zM162.51 175.66c.24.35.52.31.87.26s.81-.16.53-.58-.52-.31-.87-.26-.81.15-.53.58zM151.69 181.91c.24.35.52.31.87.26s.81-.16.53-.58-.52-.31-.87-.26-.82.16-.53.58zM140.86 188.16c.24.35.52.31.87.26s.81-.16.53-.58-.52-.31-.87-.26-.82.16-.53.58zM130 194.41c.24.35.52.31.87.26s.81-.16.53-.58-.52-.31-.87-.26-.79.17-.53.58zM119.2 200.66c.24.35.52.31.87.26s.81-.16.53-.58-.52-.31-.87-.26-.82.16-.53.58zM108.37 206.91c.24.35.52.31.87.26s.81-.16.53-.58-.52-.31-.87-.26-.81.16-.53.58zM97.54 213.17c.24.35.52.31.87.26s.81-.16.53-.58-.52-.31-.87-.26-.81.15-.53.58zM86.72 219.42c.24.35.52.31.87.26s.81-.16.53-.58-.52-.31-.87-.26-.82.16-.53.58zM75.89 225.67c.24.35.52.31.87.26s.81-.16.53-.58-.52-.31-.87-.26-.82.16-.53.58zM379.08 38.12c.24.35.52.31.87.26s.81-.16.53-.58-.52-.31-.87-.26-.82.16-.53.58zM368.25 44.37c.24.35.52.31.87.26s.81-.16.53-.58-.52-.31-.87-.26-.78.16-.53.58zM357.42 50.62c.24.35.52.31.87.26s.81-.16.53-.58-.52-.31-.87-.26-.82.16-.53.58zM346.59 56.87c.24.35.52.31.87.26s.81-.16.53-.58-.52-.31-.87-.26-.81.16-.53.58zM335.76 63.13c.24.35.52.31.87.26s.81-.16.53-.58-.52-.31-.87-.26-.81.15-.53.58zM324.94 69.38c.24.35.52.31.87.26s.81-.16.53-.58-.52-.31-.87-.26-.82.2-.53.58zM314.11 75.63c.24.35.52.31.87.26s.81-.16.53-.58-.51-.31-.87-.31-.82.21-.53.63zM303.28 81.88c.24.35.52.31.87.26s.81-.16.53-.58-.52-.31-.87-.26-.81.16-.53.58zM292.45 88.13c.24.35.52.31.87.26s.81-.16.53-.58-.52-.31-.87-.26-.81.16-.53.58zM281.62 94.38c.24.35.52.31.87.26s.81-.16.53-.58-.52-.31-.87-.26-.81.2-.53.58zM270.8 100.64c.24.35.52.31.87.26s.81-.16.53-.58-.52-.31-.87-.26-.82.15-.53.58zM260 106.89c.24.35.52.31.87.26s.81-.16.53-.58-.52-.31-.87-.26-.85.16-.53.58zM249.14 113.14c.24.35.52.31.87.26s.81-.16.53-.58-.52-.31-.87-.26-.82.16-.53.58zM238.31 119.39c.24.35.52.31.87.26s.81-.16.53-.58-.52-.31-.87-.26-.84.19-.53.58zM227.48 125.64c.24.35.52.31.87.26s.81-.16.53-.58-.52-.31-.87-.26-.81.16-.53.58zM216.65 131.89c.24.35.52.31.87.26s.81-.16.53-.58-.52-.31-.87-.26-.81.16-.53.58zM205.83 138.15c.24.35.52.31.87.26s.81-.16.53-.58-.52-.31-.87-.26-.82.15-.53.58zM195 144.4c.24.35.52.31.87.26s.81-.16.53-.58-.52-.31-.87-.26-.82.18-.53.58zM184.17 150.65c.24.35.52.31.87.26s.81-.16.53-.58-.52-.31-.87-.26-.82.16-.53.58zM173.34 156.9c.24.35.52.31.87.26s.81-.16.53-.58-.52-.31-.87-.26-.81.16-.53.58zM162.51 163.15c.24.35.52.31.87.26s.81-.16.53-.58-.52-.31-.87-.26-.81.16-.53.58zM151.69 169.4c.24.35.52.31.87.26s.81-.16.53-.58-.52-.31-.87-.26-.82.18-.53.58zM140.86 175.66c.24.35.52.31.87.26s.81-.16.53-.58-.52-.31-.87-.26-.82.15-.53.58zM130 181.91c.24.35.52.31.87.26s.81-.16.53-.58-.52-.31-.87-.26-.79.16-.53.58zM119.2 188.16c.24.35.52.31.87.26s.81-.16.53-.58-.52-.31-.87-.26-.82.16-.53.58zM108.37 194.41c.24.35.52.31.87.26s.81-.16.53-.58-.52-.31-.87-.26-.81.17-.53.58zM97.54 200.66c.24.35.52.31.87.26s.81-.16.53-.58-.52-.31-.87-.26-.81.16-.53.58zM86.72 206.91c.24.35.52.31.87.26s.81-.16.53-.58-.52-.31-.87-.26-.82.16-.53.58zM75.89 213.17c.24.35.52.31.87.26s.81-.16.53-.58-.52-.31-.87-.26-.82.15-.53.58zM65.06 219.42c.24.35.52.31.87.26s.81-.16.53-.58-.52-.31-.87-.26-.82.16-.53.58zM368.25 31.87c.24.35.52.31.87.26s.81-.16.53-.58-.52-.31-.87-.26-.78.16-.53.58zM357.42 38.12c.24.35.52.31.87.26s.81-.16.53-.58-.52-.31-.87-.26-.82.16-.53.58zM346.59 44.37c.24.35.52.31.87.26s.81-.16.53-.58-.52-.31-.87-.26-.81.16-.53.58zM335.76 50.62c.24.35.52.31.87.26s.81-.16.53-.58-.52-.31-.87-.26-.81.16-.53.58zM324.94 56.87c.24.35.52.31.87.26s.81-.16.53-.58-.52-.31-.87-.26-.82.16-.53.58zM314.11 63.13c.24.35.52.31.87.26s.81-.16.53-.58-.52-.31-.87-.26-.82.15-.53.58zM303.28 69.38c.24.35.52.31.87.26s.81-.16.53-.58-.52-.31-.87-.26-.81.2-.53.58zM292.45 75.63c.24.35.52.31.87.26s.81-.16.53-.58-.52-.31-.85-.31-.83.21-.55.63zM281.62 81.88c.24.35.52.31.87.26s.81-.16.53-.58-.52-.31-.87-.26-.81.16-.53.58zM270.8 88.13c.24.35.52.31.87.26s.81-.16.53-.58-.52-.31-.87-.26-.82.16-.53.58zM260 94.38c.24.35.52.31.87.26s.81-.16.53-.58-.52-.31-.87-.26-.85.2-.53.58zM249.14 100.64c.24.35.52.31.87.26s.81-.16.53-.58-.52-.31-.87-.26-.82.15-.53.58zM238.31 106.89c.24.35.52.31.87.26s.81-.16.53-.58-.52-.31-.87-.26-.84.16-.53.58zM227.48 113.14c.24.35.52.31.87.26s.81-.16.53-.58-.52-.31-.87-.26-.81.16-.53.58zM216.65 119.39c.24.35.52.31.87.26s.81-.16.53-.58-.52-.31-.87-.26-.81.19-.53.58zM205.83 125.64c.24.35.52.31.87.26s.81-.16.53-.58-.52-.31-.87-.26-.82.16-.53.58zM195 131.89c.24.35.52.31.87.26s.81-.16.53-.58-.52-.31-.87-.26-.82.16-.53.58zM184.17 138.15c.24.35.52.31.87.26s.81-.16.53-.58-.52-.31-.87-.26-.82.15-.53.58zM173.34 144.4c.24.35.52.31.87.26s.81-.16.53-.58-.52-.31-.87-.26-.81.18-.53.58zM162.51 150.65c.24.35.52.31.87.26s.81-.16.53-.58-.52-.31-.87-.26-.81.16-.53.58zM151.69 156.9c.24.35.52.31.87.26s.81-.16.53-.58-.52-.31-.87-.26-.82.16-.53.58zM140.86 163.15c.24.35.52.31.87.26s.81-.16.53-.58-.52-.31-.87-.26-.82.16-.53.58zM130 169.4c.24.35.52.31.87.26s.81-.16.53-.58-.52-.31-.87-.26-.79.18-.53.58zM119.2 175.66c.24.35.52.31.87.26s.81-.16.53-.58-.52-.31-.87-.26-.82.15-.53.58zM108.37 181.91c.24.35.52.31.87.26s.81-.16.53-.58-.52-.31-.87-.26-.81.16-.53.58zM97.54 188.16c.24.35.52.31.87.26s.81-.16.53-.58-.52-.31-.87-.26-.81.16-.53.58zM86.72 194.41c.24.35.52.31.87.26s.81-.16.53-.58-.52-.31-.87-.26-.82.17-.53.58zM75.89 200.66c.24.35.52.31.87.26s.81-.16.53-.58-.52-.31-.87-.26-.82.16-.53.58zM65.06 206.91c.24.35.52.31.87.26s.81-.16.53-.58-.52-.31-.87-.26-.82.16-.53.58zM54.23 213.17c.24.35.52.31.87.26s.81-.16.53-.58-.52-.31-.87-.26-.81.15-.53.58zM357.42 25.62c.24.35.52.31.87.26s.81-.16.53-.58-.52-.31-.87-.26-.82.15-.53.58zM346.59 31.87c.24.35.52.31.87.26s.81-.16.53-.58-.52-.31-.87-.26-.81.16-.53.58zM335.76 38.12c.24.35.52.31.87.26s.81-.16.53-.58-.52-.31-.87-.26-.81.16-.53.58zM324.94 44.37c.24.35.52.31.87.26s.81-.16.53-.58-.52-.31-.87-.26-.82.16-.53.58zM314.11 50.62c.24.35.52.31.87.26s.81-.16.53-.58-.51-.3-.87-.3-.82.2-.53.62zM303.28 56.87c.24.35.52.31.87.26s.81-.16.53-.58-.52-.31-.87-.26-.81.16-.53.58zM292.45 63.13c.24.35.52.31.87.26s.81-.16.53-.58-.52-.31-.87-.26-.81.15-.53.58zM281.62 69.38c.24.35.52.31.87.26s.81-.16.53-.58-.52-.31-.87-.26-.81.2-.53.58zM270.8 75.63c.24.35.52.31.87.26s.81-.16.53-.58-.52-.31-.87-.26-.82.16-.53.58zM260 81.88c.24.35.52.31.87.26s.81-.16.53-.58-.52-.31-.87-.26-.85.16-.53.58zM249.14 88.13c.24.35.52.31.87.26s.81-.16.53-.58-.52-.31-.87-.26-.82.16-.53.58zM238.31 94.38c.24.35.52.31.87.26s.81-.16.53-.58-.52-.31-.87-.26-.84.2-.53.58zM227.48 100.64c.24.35.52.31.87.26s.81-.16.53-.58-.52-.31-.87-.26-.81.15-.53.58zM216.65 106.89c.24.35.52.31.87.26s.81-.16.53-.58-.52-.31-.87-.26-.81.16-.53.58zM205.83 113.14c.24.35.52.31.87.26s.81-.16.53-.58-.52-.31-.87-.26-.82.16-.53.58zM195 119.39c.24.35.52.31.87.26s.81-.16.53-.58-.52-.31-.87-.26-.82.19-.53.58zM184.17 125.64c.24.35.52.31.87.26s.81-.16.53-.58-.52-.31-.87-.26-.82.16-.53.58zM173.34 131.89c.24.35.52.31.87.26s.81-.16.53-.58-.52-.31-.87-.26-.81.16-.53.58zM162.51 138.15c.24.35.52.31.87.26s.81-.16.53-.58-.52-.31-.87-.26-.81.15-.53.58zM151.69 144.4c.24.35.52.31.87.26s.81-.16.53-.58-.52-.31-.87-.26-.82.18-.53.58zM140.86 150.65c.24.35.52.31.87.26s.81-.16.53-.58-.52-.31-.87-.26-.82.16-.53.58zM130 156.9c.24.35.52.31.87.26s.81-.16.53-.58-.52-.31-.87-.26-.79.16-.53.58zM119.2 163.15c.24.35.52.31.87.26s.81-.16.53-.58-.52-.31-.87-.26-.82.16-.53.58zM108.37 169.4c.24.35.52.31.87.26s.81-.16.53-.58-.52-.31-.87-.26-.81.18-.53.58zM97.54 175.66c.24.35.52.31.87.26s.81-.16.53-.58-.52-.31-.87-.26-.81.15-.53.58zM86.72 181.91c.24.35.52.31.87.26s.81-.16.53-.58-.52-.31-.87-.26-.82.16-.53.58zM75.89 188.16c.24.35.52.31.87.26s.81-.16.53-.58-.52-.31-.87-.26-.82.16-.53.58zM65.06 194.41c.24.35.52.31.87.26s.81-.16.53-.58-.52-.31-.87-.26-.82.17-.53.58zM54.23 200.66c.24.35.52.31.87.26s.81-.16.53-.58-.52-.31-.87-.26-.81.16-.53.58zM43.4 206.91c.24.35.52.31.87.26s.81-.16.53-.58-.52-.31-.87-.26-.81.16-.53.58zM346.59 19.36c.24.35.52.31.87.26s.81-.16.53-.58-.52-.31-.87-.26-.81.16-.53.58zM335.76 25.62c.24.35.52.31.87.26s.81-.16.53-.58-.52-.31-.87-.26-.81.15-.53.58zM324.94 31.87c.24.35.52.31.87.26s.81-.16.53-.58-.52-.31-.87-.26-.82.16-.53.58zM314.11 38.12c.24.35.52.31.87.26s.81-.16.53-.58-.52-.31-.87-.26-.82.16-.53.58zM303.28 44.37c.24.35.52.31.87.26s.81-.16.53-.58-.52-.31-.87-.26-.81.16-.53.58zM292.45 50.62c.24.35.52.31.87.26s.81-.16.53-.58-.52-.3-.85-.3-.83.2-.55.62zM281.62 56.87c.24.35.52.31.87.26s.81-.16.53-.58-.52-.31-.87-.26-.81.16-.53.58zM270.8 63.13c.24.35.52.31.87.26s.81-.16.53-.58-.52-.31-.87-.26-.82.15-.53.58zM260 69.38c.24.35.52.31.87.26s.81-.16.53-.58-.52-.31-.87-.26-.85.2-.53.58zM249.14 75.63c.24.35.52.31.87.26s.81-.16.53-.58-.54-.31-.87-.31-.82.21-.53.63zM238.31 81.88c.24.35.52.31.87.26s.81-.16.53-.58-.52-.31-.87-.26-.84.16-.53.58zM227.48 88.13c.24.35.52.31.87.26s.81-.16.53-.58-.52-.31-.87-.26-.81.16-.53.58zM216.65 94.38c.24.35.52.31.87.26s.81-.16.53-.58-.52-.31-.87-.26-.81.2-.53.58zM205.83 100.64c.24.35.52.31.87.26s.81-.16.53-.58-.52-.31-.87-.26-.82.15-.53.58zM195 106.89c.24.35.52.31.87.26s.81-.16.53-.58-.52-.31-.87-.26-.82.16-.53.58zM184.17 113.14c.24.35.52.31.87.26s.81-.16.53-.58-.52-.31-.87-.26-.82.16-.53.58zM173.34 119.39c.24.35.52.31.87.26s.81-.16.53-.58-.52-.31-.87-.26-.81.19-.53.58zM162.51 125.64c.24.35.52.31.87.26s.81-.16.53-.58-.52-.31-.87-.26-.81.16-.53.58zM151.69 131.89c.24.35.52.31.87.26s.81-.16.53-.58-.52-.31-.87-.26-.82.16-.53.58zM140.86 138.15c.24.35.52.31.87.26s.81-.16.53-.58-.52-.31-.87-.26-.82.15-.53.58zM130 144.4c.24.35.52.31.87.26s.81-.16.53-.58-.52-.31-.87-.26-.79.18-.53.58zM119.2 150.65c.24.35.52.31.87.26s.81-.16.53-.58-.52-.31-.87-.26-.82.16-.53.58zM108.37 156.9c.24.35.52.31.87.26s.81-.16.53-.58-.52-.31-.87-.26-.81.16-.53.58zM97.54 163.15c.24.35.52.31.87.26s.81-.16.53-.58-.52-.31-.87-.26-.81.16-.53.58zM86.72 169.4c.24.35.52.31.87.26s.81-.16.53-.58-.52-.31-.87-.26-.82.18-.53.58zM75.89 175.66c.24.35.52.31.87.26s.81-.16.53-.58-.52-.31-.87-.26-.82.15-.53.58zM65.06 181.91c.24.35.52.31.87.26s.81-.16.53-.58-.52-.31-.87-.26-.82.16-.53.58zM54.23 188.16c.24.35.52.31.87.26s.81-.16.53-.58-.52-.31-.87-.26-.81.16-.53.58zM43.4 194.41c.24.35.52.31.87.26s.81-.16.53-.58-.52-.31-.87-.26-.81.17-.53.58zM32.58 200.66c.24.35.52.31.87.26s.81-.16.53-.58-.52-.31-.87-.26-.82.16-.53.58zM335.76 13.11c.24.35.52.31.87.26s.81-.16.53-.58-.52-.31-.87-.26-.81.16-.53.58zM324.94 19.36c.24.35.52.31.87.26s.81-.16.53-.58-.52-.31-.87-.26-.82.16-.53.58zM314.11 25.62c.24.35.52.31.87.26s.81-.16.53-.58-.51-.3-.87-.3-.82.19-.53.62zM303.28 31.87c.24.35.52.31.87.26s.81-.16.53-.58-.52-.31-.87-.26-.81.16-.53.58zM292.45 38.12c.24.35.52.31.87.26s.81-.16.53-.58-.52-.31-.87-.26-.81.16-.53.58zM281.62 44.37c.24.35.52.31.87.26s.81-.16.53-.58-.52-.31-.87-.26-.81.16-.53.58zM270.8 50.62c.24.35.52.31.87.26s.81-.16.53-.58-.52-.31-.87-.26-.82.16-.53.58zM260 56.87c.24.35.52.31.87.26s.81-.16.53-.58-.52-.31-.87-.26-.85.16-.53.58zM249.14 63.13c.24.35.52.31.87.26s.81-.16.53-.58-.52-.31-.87-.26-.82.15-.53.58zM238.31 69.38c.24.35.52.31.87.26s.81-.16.53-.58-.52-.31-.87-.26-.84.2-.53.58zM227.48 75.63c.24.35.52.31.87.26s.81-.16.53-.58-.52-.31-.88-.31-.8.21-.52.63zM216.65 81.88c.24.35.52.31.87.26s.81-.16.53-.58-.52-.31-.87-.26-.81.16-.53.58zM205.83 88.13c.24.35.52.31.87.26s.81-.16.53-.58-.52-.31-.87-.26-.82.16-.53.58zM195 94.38c.24.35.52.31.87.26s.81-.16.53-.58-.52-.31-.87-.26-.82.2-.53.58zM184.17 100.64c.24.35.52.31.87.26s.81-.16.53-.58-.52-.31-.87-.26-.82.15-.53.58zM173.34 106.89c.24.35.52.31.87.26s.81-.16.53-.58-.52-.31-.87-.26-.81.16-.53.58zM162.51 113.14c.24.35.52.31.87.26s.81-.16.53-.58-.52-.31-.87-.26-.81.16-.53.58zM151.69 119.39c.24.35.52.31.87.26s.81-.16.53-.58-.52-.31-.87-.26-.82.19-.53.58zM140.86 125.64c.24.35.52.31.87.26s.81-.16.53-.58-.52-.31-.87-.26-.82.16-.53.58zM130 131.89c.24.35.52.31.87.26s.81-.16.53-.58-.52-.31-.87-.26-.79.16-.53.58zM119.2 138.15c.24.35.52.31.87.26s.81-.16.53-.58-.52-.31-.87-.26-.82.15-.53.58zM108.37 144.4c.24.35.52.31.87.26s.81-.16.53-.58-.52-.31-.87-.26-.81.18-.53.58zM97.54 150.65c.24.35.52.31.87.26s.81-.16.53-.58-.52-.31-.87-.26-.81.16-.53.58zM86.72 156.9c.24.35.52.31.87.26s.81-.16.53-.58-.52-.31-.87-.26-.82.16-.53.58zM75.89 163.15c.24.35.52.31.87.26s.81-.16.53-.58-.52-.31-.87-.26-.82.16-.53.58zM65.06 169.4c.24.35.52.31.87.26s.81-.16.53-.58-.52-.31-.87-.26-.82.18-.53.58zM54.23 175.66c.24.35.52.31.87.26s.81-.16.53-.58-.52-.31-.87-.26-.81.15-.53.58zM43.4 181.91c.24.35.52.31.87.26s.81-.16.53-.58-.52-.31-.87-.26-.81.16-.53.58zM32.58 188.16c.24.35.52.31.87.26s.81-.16.53-.58-.52-.31-.87-.26-.82.16-.53.58zM21.75 194.41c.24.35.52.31.87.26s.81-.16.53-.58-.52-.31-.87-.26-.82.17-.53.58zM324.94 6.86c.24.35.52.31.87.26s.81-.16.53-.58-.52-.31-.87-.26-.82.16-.53.58zM314.11 13.11c.24.35.52.31.87.26s.81-.16.53-.58-.52-.31-.87-.26-.82.16-.53.58zM303.28 19.36c.24.35.52.31.87.26s.81-.16.53-.58-.52-.31-.87-.26-.81.16-.53.58zM292.45 25.62c.24.35.52.31.87.26s.81-.16.53-.58-.52-.3-.85-.3-.83.19-.55.62zM281.62 31.87c.24.35.52.31.87.26s.81-.16.53-.58-.52-.31-.87-.26-.81.16-.53.58zM270.8 38.12c.24.35.52.31.87.26s.81-.16.53-.58-.52-.31-.87-.26-.82.16-.53.58zM260 44.37c.24.35.52.31.87.26s.81-.16.53-.58-.52-.31-.87-.26-.85.16-.53.58zM249.14 50.62c.24.35.52.31.87.26s.81-.16.53-.58-.54-.3-.87-.3-.82.2-.53.62zM238.31 56.87c.24.35.52.31.87.26s.81-.16.53-.58-.52-.31-.87-.26-.84.16-.53.58zM227.48 63.13c.24.35.52.31.87.26s.81-.16.53-.58-.52-.31-.87-.26-.81.15-.53.58zM216.65 69.38c.24.35.52.31.87.26s.81-.16.53-.58-.52-.31-.87-.26-.81.2-.53.58zM205.83 75.63c.24.35.52.31.87.26s.81-.16.53-.58-.52-.31-.87-.26-.82.16-.53.58zM195 81.88c.24.35.52.31.87.26s.81-.16.53-.58-.52-.31-.87-.26-.82.16-.53.58zM184.17 88.13c.24.35.52.31.87.26s.81-.16.53-.58-.52-.31-.87-.26-.82.16-.53.58zM173.34 94.38c.24.35.52.31.87.26s.81-.16.53-.58-.52-.31-.87-.26-.81.2-.53.58zM162.51 100.64c.24.35.52.31.87.26s.81-.16.53-.58-.52-.31-.87-.26-.81.15-.53.58zM151.69 106.89c.24.35.52.31.87.26s.81-.16.53-.58-.52-.31-.87-.26-.82.16-.53.58zM140.86 113.14c.24.35.52.31.87.26s.81-.16.53-.58-.52-.31-.87-.26-.82.16-.53.58zM130 119.39c.24.35.52.31.87.26s.81-.16.53-.58-.52-.31-.87-.26-.79.19-.53.58zM119.2 125.64c.24.35.52.31.87.26s.81-.16.53-.58-.52-.31-.87-.26-.82.16-.53.58zM108.37 131.89c.24.35.52.31.87.26s.81-.16.53-.58-.52-.31-.87-.26-.81.16-.53.58zM97.54 138.15c.24.35.52.31.87.26s.81-.16.53-.58-.52-.31-.87-.26-.81.15-.53.58zM86.72 144.4c.24.35.52.31.87.26s.81-.16.53-.58-.52-.31-.87-.26-.82.18-.53.58zM75.89 150.65c.24.35.52.31.87.26s.81-.16.53-.58-.52-.31-.87-.26-.82.16-.53.58zM65.06 156.9c.24.35.52.31.87.26s.81-.16.53-.58-.52-.31-.87-.26-.82.16-.53.58zM54.23 163.15c.24.35.52.31.87.26s.81-.16.53-.58-.52-.31-.87-.26-.81.16-.53.58zM43.4 169.4c.24.35.52.31.87.26s.81-.16.53-.58-.52-.31-.87-.26-.81.18-.53.58zM32.58 175.66c.24.35.52.31.87.26s.81-.16.53-.58-.52-.31-.87-.26-.82.15-.53.58zM21.75 181.91c.24.35.52.31.87.26s.81-.16.53-.58-.52-.31-.87-.26-.82.16-.53.58zM10.92 188.16c.24.35.52.31.87.26s.81-.16.53-.58-.52-.31-.87-.26-.82.16-.53.58zM.09 181.91c.24.35.52.31.87.26s.81-.16.53-.58-.52-.31-.87-.26-.82.16-.53.58zM10.92 175.66c.24.35.52.31.87.26s.81-.16.53-.58-.52-.31-.87-.26-.82.15-.53.58zM21.75 169.4c.24.35.52.31.87.26s.81-.16.53-.58-.52-.31-.87-.26-.82.18-.53.58zM32.58 163.15c.24.35.52.31.87.26s.81-.16.53-.58-.52-.31-.87-.26-.82.16-.53.58zM43.4 156.9c.24.35.52.31.87.26s.81-.16.53-.58-.52-.31-.87-.26-.81.16-.53.58zM54.23 150.65c.24.35.52.31.87.26s.81-.16.53-.58-.52-.31-.87-.26-.81.16-.53.58zM65.06 144.4c.24.35.52.31.87.26s.81-.16.53-.58-.52-.31-.87-.26-.82.18-.53.58zM75.89 138.15c.24.35.52.31.87.26s.81-.16.53-.58-.52-.31-.87-.26-.82.15-.53.58zM86.72 131.89c.24.35.52.31.87.26s.81-.16.53-.58-.52-.31-.87-.26-.82.16-.53.58zM97.54 125.64c.24.35.52.31.87.26s.81-.16.53-.58-.52-.31-.87-.26-.81.16-.53.58zM108.37 119.39c.24.35.52.31.87.26s.81-.16.53-.58-.52-.31-.87-.26-.81.19-.53.58zM119.2 113.14c.24.35.52.31.87.26s.81-.16.53-.58-.52-.31-.87-.26-.82.16-.53.58zM130 106.89c.24.35.52.31.87.26s.81-.16.53-.58-.52-.31-.87-.26-.79.16-.53.58zM140.86 100.64c.24.35.52.31.87.26s.81-.16.53-.58-.52-.31-.87-.26-.82.15-.53.58zM151.69 94.38c.24.35.52.31.87.26s.81-.16.53-.58-.52-.31-.87-.26-.82.2-.53.58zM162.51 88.13c.24.35.52.31.87.26s.81-.16.53-.58-.52-.31-.87-.26-.81.16-.53.58zM173.34 81.88c.24.35.52.31.87.26s.81-.16.53-.58-.52-.31-.87-.26-.81.16-.53.58zM184.17 75.63c.24.35.52.31.87.26s.81-.16.53-.58-.57-.31-.87-.31-.82.21-.53.63zM195 69.38c.24.35.52.31.87.26s.81-.16.53-.58-.52-.31-.87-.26-.82.2-.53.58zM205.83 63.13c.24.35.52.31.87.26s.81-.16.53-.58-.52-.31-.87-.26-.82.15-.53.58zM216.65 56.87c.24.35.52.31.87.26s.81-.16.53-.58-.52-.31-.87-.26-.81.16-.53.58zM227.48 50.62c.24.35.52.31.87.26s.81-.16.53-.58-.52-.3-.88-.3-.8.2-.52.62zM238.31 44.37c.24.35.52.31.87.26s.81-.16.53-.58-.52-.31-.87-.26-.84.16-.53.58zM249.14 38.12c.24.35.52.31.87.26s.81-.16.53-.58-.52-.31-.87-.26-.82.16-.53.58zM260 31.87c.24.35.52.31.87.26s.81-.16.53-.58-.52-.31-.87-.26-.85.16-.53.58zM270.8 25.62c.24.35.52.31.87.26s.81-.16.53-.58-.52-.31-.87-.26-.82.15-.53.58zM281.62 19.36c.24.35.52.31.87.26s.81-.16.53-.58-.52-.31-.87-.26-.81.16-.53.58zM292.45 13.11c.24.35.52.31.87.26s.81-.16.53-.58-.52-.31-.87-.26-.81.16-.53.58zM303.28 6.86c.24.35.52.31.87.26s.81-.16.53-.58-.52-.31-.87-.26-.81.16-.53.58zM314.11.61c.24.35.52.31.87.26s.81-.16.53-.58S315 0 314.64 0s-.82.19-.53.61z"/>
      </g>
      <g id="Content">
        <path class="cls-approach-4-2" d="M443.58 133.34v5.09l-2.73 1.57-22.78 13.16-22.77 13.13v.02l-22.77 13.13-22.78 13.15-22.77 13.16-22.77 13.15-22.78 13.14v-5.07l156.39-90.29 1.36-.8 4.4-2.54zM443.58 133.34l-4.4 2.54-21.11-12.19v-5.06l25.51 14.71z"/>
        <path class="cls-approach-4-2" d="M440.85 140v16.04l-22.78 13.15v-16.03L440.85 140zM437.82 136.68l-156.39 90.29-88.06-50.84v-.01l42.51-24.55 22.78 13.15 22.77 13.15 22.78 13.14 22.77-13.14 22.77-13.15 22.78-13.15v-.01l22.77-13.13 22.77-13.15 19.75 11.4zM418.07 123.69l21.11 12.19-1.36.8-19.75-11.4v-1.59zM418.07 153.16v16.03l-22.77 13.15v-16.05l22.77-13.13z"/>
        <path class="cls-approach-4-2" d="M418.07 123.69v1.59l-22.77 13.15v-17.62l22.77-13.15v16.03zM395.3 182.34l-22.77 13.15v-16.05l22.77-13.13v16.03zM395.3 120.81v17.62l-22.77 13.13v-17.6l22.77-13.15zM390.59 82.05l-6.68-5a37.13 37.13 0 0 1 6.68 5zM383.91 77l-113.86 65.78a23.79 23.79 0 0 0-6.68-2.7L235.88 134l113.87-65.79 27.49 6.13zM383.91 77l-6.67-2.7a23.61 23.61 0 0 1 6.67 2.7zM372.53 179.44v16.05l-22.78 13.14v-16.04l22.78-13.15zM372.53 133.96V151.57l-22.78 13.15V147.1l22.78-13.14zM349.75 208.63l-22.77 13.15v-16.03l22.77-13.16v16.04zM349.75 147.1v17.62l-22.77 13.15v-17.62l22.77-13.15zM326.98 205.75v16.03l-22.77 13.16V218.9l22.77-13.15zM326.98 160.25v17.62l-22.77 13.14V173.4l22.77-13.15z"/>
        <path class="cls-approach-4-2" d="M349.75 147.1L327 160.25l-22.77 13.14-27.49-25.6a37.41 37.41 0 0 0-6.67-5L383.91 77l6.68 5 27.48 25.6-22.77 13.2-22.77 13.2zM304.21 218.9v16.04l-22.78 13.15v-16.05l22.78-13.14zM304.21 173.4v17.61l-22.78-13.14v-17.62l22.78 13.15z"/>
        <path class="cls-approach-4-2" d="M304.21 173.4l-22.78-13.15-11.38-6.57-11.39-6.58-22.78-13.14 27.49 6.13 6.68 2.69 6.67 5.01 27.49 25.61zM281.43 232.04v16.05l-22.77-13.15V218.9l22.77 13.14zM281.43 226.97v5.07l-22.77-13.14-22.78-13.15-22.77-13.16-22.77-13.15-2.74-1.57v-5.08l4.4 2.55 1.37.79 88.06 50.84z"/>
        <path class="cls-approach-4-2" d="M281.43 160.25v17.62l-22.77-13.15V147.1l11.39 6.58 11.38 6.57zM270.05 142.78a37.41 37.41 0 0 1 6.67 5zM263.37 140.08a23.79 23.79 0 0 1 6.68 2.7zM258.66 218.9v16.04l-22.78-13.16v-16.03l22.78 13.15zM258.66 147.1v17.62l-22.78-13.15v-17.61l22.78 13.14zM235.88 205.75v16.03l-22.77-13.15v-16.04l22.77 13.16zM235.88 144.91V150L192 175.34l-4.4-2.55 48.28-27.88z"/>
        <path class="cls-approach-4-2" d="M213.11 192.59v16.04l-22.77-13.14v-16.05l22.77 13.15zM192 175.34L235.88 150v1.57l-42.51 24.55v.01l-1.37-.79z"/>
        <path class="cls-approach-4-3" d="M304.21 234.93v-16.04M383.91 77.04l-113.86 65.74"/>
        <path class="cls-approach-4-4" d="M418.07 107.66l-22.77 13.15-22.77 13.15-22.78 13.14-22.77 13.15-22.77 13.15"/>
        <path class="cls-approach-4-3" d="M270.05 153.68l11.38 6.57 22.78 13.15"/>
        <path class="cls-approach-4-4" d="M418.07 107.65l-27.48-25.6M304.21 173.39l-27.49-25.6M390.59 82.05a37.13 37.13 0 0 0-6.68-5M276.72 147.79a37.41 37.41 0 0 0-6.67-5M383.91 77a23.61 23.61 0 0 0-6.67-2.7M270.05 142.78a23.79 23.79 0 0 0-6.68-2.7M377.24 74.34l-27.49-6.13M349.75 68.21l-113.87 65.74M263.37 140.08l-27.49-6.13"/>
        <path class="cls-approach-4-3" d="M235.88 133.96l22.78 13.14 11.39 6.58"/>
        <path class="cls-approach-4-4" d="M418.07 125.28v-17.62M235.88 151.57v-17.61M235.88 151.57l22.78 13.15 22.77 13.15 22.78 13.14M304.21 191.01v-17.62M372.53 151.56l22.77-13.13 22.77-13.15M304.21 191.01l22.77-13.14 22.77-13.15 22.78-13.15M439.18 135.88l-21.11-12.19M443.58 133.34l-25.51-14.72M443.58 138.42v-5.08M235.88 149.99L192 175.33M187.6 177.86v-5.07M235.88 144.91l-48.28 27.88M187.6 177.87l2.74 1.57 22.77 13.15 22.77 13.16 22.78 13.15 22.77 13.14M281.43 232.04v-5.08M187.6 172.79l4.4 2.55 1.37.79 88.06 50.84M395.3 166.29l22.77-13.13L440.85 140l2.73-1.57M281.43 232.04l22.78-13.14 22.77-13.15 22.77-13.16 22.78-13.15 22.77-13.13M281.43 226.97l156.39-90.29 1.36-.8 4.4-2.54"/>
        <path class="cls-approach-4-3" d="M437.82 136.67l-19.75-11.4"/>
        <path class="cls-approach-4-4" d="M440.85 156.04V140M190.34 195.48v-16.04"/>
        <path class="cls-approach-4-3" d="M235.88 151.57l-42.51 24.54"/>
        <path class="cls-approach-4-4" d="M190.34 195.49l22.77 13.14 22.77 13.15 22.78 13.16 22.77 13.15M281.43 248.08v-16.04M281.43 248.09l22.78-13.15 22.77-13.16 22.77-13.15 22.78-13.14 22.77-13.15 22.77-13.15 22.78-13.15"/>
        <path class="cls-approach-4-3" d="M326.98 177.86v-17.61M349.75 164.72V147.1M372.53 151.57V133.96M395.3 138.42V120.8M281.43 177.86v-17.61M258.66 164.72V147.1M418.07 169.19v-16.04M372.53 195.48v-16.04M395.3 182.34v-16.05M213.11 208.63v-16.04M235.88 221.78v-16.04M258.66 234.93v-16.04M349.75 208.63v-16.04M326.98 221.78v-16.04"/>
        <path class="cls-approach-4-5" d="M467.1 265.03v6h-6"/>
        <path class="cls-approach-4-6" d="M449.17 271.03H168.86"/>
        <path class="cls-approach-4-5" d="M162.89 271.03h-6v-6"/>
        <path class="cls-approach-4-7" d="M156.89 253.51V51.9"/>
        <path class="cls-approach-4-5" d="M156.89 46.14v-6h6"/>
        <path class="cls-approach-4-6" d="M174.82 40.14h280.31"/>
        <path class="cls-approach-4-5" d="M461.1 40.14h6v6"/>
        <path class="cls-approach-4-7" d="M467.1 57.66v201.61"/>
        <path class="cls-approach-4-5" d="M311.99 150.03v11.11M317.55 155.58h-11.11"/>
      </g>
    </g>
  </g>
</svg>