<svg viewBox="0 0 395 437" xmlns="http://www.w3.org/2000/svg">
  <g fill="none" fill-rule="evenodd">
    <g fill="#929497">
      <path d="M0 209.7737l1.1496.664 1.1505-.664-1.1504-.6632M393.4416 419.547l1.1496-.664-1.1496-.6642-1.1495.664M377.203 427.595l1.1504.665 1.1505-.665-1.1506-.6623M394.5914 401.4574l-1.1496-.6642-1.1505.6642 1.1505.6642M379.5034 410.1703l-1.1496-.6642-1.1506.6643 1.1506.6642M362.1155 418.883l1.1495.6642 1.1506-.6642-1.1506-.664M392.291 384.0305l1.1505.664 1.1505-.664-1.1505-.6623M377.203 392.7453l1.1504.6623 1.1505-.6623-1.1506-.665M362.1155 401.4574l1.1495.6642 1.1506-.6642-1.1506-.6642M347.0274 410.1703l1.1496.6642 1.1505-.6642-1.1505-.6642M393.4416 367.2695l1.1496-.6642-1.1496-.664-1.1495.664M377.203 375.3176l1.1504.665 1.1505-.665-1.1506-.6623M362.1148 384.0305l1.1505.664 1.1506-.664-1.1507-.6623M347.0266 392.7453l1.1506.6623 1.1505-.6623-1.1505-.665M331.9393 401.4574l1.1496.6642 1.1504-.6642-1.1505-.6642M393.4416 349.844l1.1496-.6642-1.1496-.664-1.1495.664M378.3535 358.5567l1.1496-.6642-1.1495-.664-1.1496.664M363.2652 367.2695l1.1496-.6642-1.1496-.664-1.1496.664M347.0266 375.3176l1.1506.665 1.1505-.665-1.1505-.6623M331.9386 384.0305l1.1505.664 1.1506-.664-1.1505-.6623M316.8502 392.7453l1.1506.6623 1.1505-.6623-1.1505-.665M394.5914 331.7543l-1.1496-.6642-1.1505.6643 1.1505.664M379.5034 340.4672l-1.1496-.6642-1.1506.6642 1.1506.664M363.2652 349.844l1.1496-.6642-1.1496-.664-1.1496.664M348.1772 358.5567l1.1496-.6642-1.1496-.664-1.1496.664M333.089 367.2695l1.1496-.6642-1.1496-.664-1.1496.664M316.8502 375.3176l1.1506.665 1.1505-.665-1.1505-.6623M301.7622 384.0305l1.1505.664 1.1505-.664-1.1505-.6623M392.291 314.3274l1.1505.665 1.1505-.665-1.1505-.6623M377.203 323.0422l1.1504.6623 1.1505-.6623-1.1506-.665M364.4153 331.7543l-1.1496-.6642-1.1505.6643 1.1505.664M349.327 340.4672l-1.1495-.6642-1.1505.6642 1.1505.664M333.089 349.844l1.1496-.6642-1.1496-.664-1.1496.664M318.001 358.5567l1.1505-.6642-1.1505-.664-1.1496.664M302.9128 367.2695l1.1496-.6642-1.1496-.664-1.1496.664M286.674 375.3176l1.1506.665 1.1506-.665-1.1506-.6623M393.4416 297.5664l1.1496-.6642-1.1496-.664-1.1495.664M377.203 305.6145l1.1504.665 1.1505-.665-1.1506-.6623M362.1148 314.3274l1.1505.665 1.1506-.665-1.1507-.6623M347.0266 323.0422l1.1506.6623 1.1505-.6623-1.1505-.665M334.239 331.7543l-1.1495-.6642-1.1505.6643 1.1505.664M319.151 340.4672l-1.1505-.6642-1.1496.6642 1.1495.664M302.9128 349.844l1.1496-.6642-1.1496-.664-1.1496.664M287.8247 358.5567l1.1496-.6642-1.1496-.664-1.1496.664M271.5868 366.6055l1.1496.6642 1.1505-.6642-1.1506-.664M394.5914 279.4768l-1.1496-.6642-1.1505.6642 1.1505.664M379.5034 288.1896l-1.1496-.6642-1.1506.6642 1.1506.6642M363.2652 297.5664l1.1496-.6642-1.1496-.664-1.1496.664M347.0266 305.6145l1.1506.665 1.1505-.665-1.1505-.6623M331.9386 314.3274l1.1505.665 1.1506-.665-1.1505-.6623M316.8502 323.0422l1.1506.6623 1.1505-.6623-1.1505-.665M304.0628 331.7543l-1.1496-.6642-1.1506.6643 1.1506.664M288.9746 340.4672l-1.1496-.6642-1.1496.6642 1.1496.664M271.5868 349.18l1.1496.664 1.1505-.664-1.1506-.6643M256.4986 357.8926l1.1496.6642 1.1506-.6642-1.1506-.664M392.291 262.052l1.1505.6622 1.1505-.6623-1.1505-.6652M377.203 270.7647l1.1504.6623 1.1505-.6623-1.1506-.665M364.4153 279.4768l-1.1496-.6642-1.1505.6642 1.1505.664M349.327 288.1896l-1.1495-.6642-1.1505.6642 1.1505.6642M333.089 297.5664l1.1496-.6642-1.1496-.664-1.1496.664M316.8502 305.6145l1.1506.665 1.1505-.665-1.1505-.6623M301.7622 314.3274l1.1505.665 1.1505-.665-1.1505-.6623M286.674 323.0422l1.1506.6623 1.1506-.6623-1.1506-.665M271.5868 331.7543l1.1496.664 1.1505-.664-1.1506-.6642M256.4986 340.4672l1.1496.664 1.1506-.664-1.1506-.6642M241.4105 349.18l1.1496.664 1.1506-.664-1.1505-.6643M393.4416 245.289l1.1496-.6642-1.1496-.664-1.1495.664M377.203 253.337l1.1504.665 1.1505-.665-1.1506-.6623M362.1148 262.052l1.1505.6622 1.1506-.6623-1.1507-.6652M347.0266 270.7647l1.1506.6623 1.1505-.6623-1.1505-.665M334.239 279.4768l-1.1495-.6642-1.1505.6642 1.1505.664M319.151 288.1896l-1.1505-.6642-1.1496.6642 1.1495.6642M302.9128 297.5664l1.1496-.6642-1.1496-.664-1.1496.664M286.674 305.6145l1.1506.665 1.1506-.665-1.1506-.6623M271.586 314.3274l1.1506.665 1.1505-.665-1.1504-.6623M256.498 323.0422l1.1505.6623 1.1505-.6623-1.1505-.665M241.4105 331.7543l1.1496.664 1.1506-.664-1.1505-.6642M226.3224 340.4672l1.1496.664 1.1505-.664-1.1505-.6642M393.4416 227.8633l1.1496-.6642-1.1496-.664-1.1495.664M378.3535 236.5762l1.1496-.6642-1.1495-.664-1.1496.664M363.2652 245.289l1.1496-.6642-1.1496-.664-1.1496.664M347.0266 253.337l1.1506.665 1.1505-.665-1.1505-.6623M331.9386 262.052l1.1505.6622 1.1506-.6623-1.1505-.6652M316.8502 270.7647l1.1506.6623 1.1505-.6623-1.1505-.665M304.0628 279.4768l-1.1496-.6642-1.1506.6642 1.1506.664M288.9746 288.1896l-1.1496-.6642-1.1496.6642 1.1496.6642M272.7368 297.5664l1.1496-.6642-1.1496-.664-1.1496.664M256.498 305.6145l1.1505.665 1.1505-.665-1.1505-.6623M241.4098 314.3274l1.1506.665 1.1505-.665-1.1506-.6623M226.3217 323.0422l1.1505.6623 1.1505-.6623-1.1505-.665M211.2343 331.7543l1.1496.664 1.1504-.664-1.1505-.6642M394.5914 209.7738l-1.1496-.6642-1.1505.6642 1.1505.664M379.5034 218.4865l-1.1496-.6642-1.1506.6642 1.1506.664M363.2652 227.8633l1.1496-.6642-1.1496-.664-1.1496.664M348.1772 236.5762l1.1496-.6642-1.1496-.664-1.1496.664M333.089 245.289l1.1496-.6642-1.1496-.664-1.1496.664M316.8502 253.337l1.1506.665 1.1505-.665-1.1505-.6623M301.7622 262.052l1.1505.6622 1.1505-.6623-1.1505-.6652M286.674 270.7647l1.1506.6623 1.1506-.6623-1.1506-.665M273.8865 279.4768l-1.1496-.6642-1.1507.6642 1.1506.664M258.7985 288.1896l-1.1496-.6642-1.1506.6642 1.1505.6642M242.5604 297.5664l1.1496-.6642-1.1496-.664-1.1496.664M226.3217 305.6145l1.1505.665 1.1505-.665-1.1505-.6623M211.2335 314.3274l1.1506.665 1.1506-.665-1.1505-.6623M196.144 323.0422l1.1524.6623 1.1505-.6623-1.1506-.665M392.291 192.3488l1.1505.6623 1.1505-.6622-1.1505-.665M377.203 201.0616l1.1504.6623 1.1505-.6624-1.1506-.665M364.4153 209.7738l-1.1496-.6642-1.1505.6642 1.1505.664M349.327 218.4865l-1.1495-.6642-1.1505.6642 1.1505.664M333.089 227.8633l1.1496-.6642-1.1496-.664-1.1496.664M318.001 236.5762l1.1505-.6642-1.1505-.664-1.1496.664M302.9128 245.289l1.1496-.6642-1.1496-.664-1.1496.664M286.674 253.337l1.1506.665 1.1506-.665-1.1506-.6623M271.586 262.052l1.1506.6622 1.1505-.6623-1.1504-.6652M256.498 270.7647l1.1505.6623 1.1505-.6623-1.1505-.665M243.7103 279.4768l-1.1496-.6642-1.1505.6642 1.1505.664M228.6224 288.1896l-1.1506-.6642-1.1496.6642 1.1496.6642M212.384 297.5664l1.1507-.6642-1.1506-.664-1.1494.664M196.144 305.6145l1.1524.665 1.1505-.665-1.1506-.6623M181.0574 314.3274l1.1505.665 1.1505-.665-1.1506-.6623M393.4416 175.586l1.1496-.6643-1.1496-.6642-1.1495.6642M378.3535 184.2988l1.1496-.6642-1.1495-.6642-1.1496.6642M362.1148 192.3488l1.1505.6623 1.1506-.6622-1.1507-.665M347.0266 201.0616l1.1506.6623 1.1505-.6624-1.1505-.665M334.239 209.7738l-1.1495-.6642-1.1505.6642 1.1505.664M319.151 218.4865l-1.1505-.6642-1.1496.6642 1.1495.664M302.9128 227.8633l1.1496-.6642-1.1496-.664-1.1496.664M287.8247 236.5762l1.1496-.6642-1.1496-.664-1.1496.664M272.7368 245.289l1.1496-.6642-1.1496-.664-1.1496.664M256.498 253.337l1.1505.665 1.1505-.665-1.1505-.6623M241.4098 262.052l1.1506.6622 1.1505-.6623-1.1506-.6652M226.3217 270.7647l1.1505.6623 1.1505-.6623-1.1505-.665M213.5342 279.4768l-1.1505-.6642-1.1496.6642 1.1497.664M198.446 288.1896l-1.1496-.6642-1.1515.6642 1.1514.6642M182.208 297.5664l1.1496-.6642-1.1496-.664-1.1496.664M165.9692 305.6145l1.1506.665 1.1505-.665-1.1505-.6623M394.5914 157.4963l-1.1496-.6642-1.1505.6643 1.1505.664M378.3535 166.873l1.1496-.664-1.1495-.6642-1.1496.6642M363.2652 175.586l1.1496-.6643-1.1496-.6642-1.1496.6642M348.1772 184.2988l1.1496-.6642-1.1496-.6642-1.1496.6642M331.9386 192.3488l1.1505.6623 1.1506-.6622-1.1505-.665M316.8502 201.0616l1.1506.6623 1.1505-.6624-1.1505-.665M304.0628 209.7738l-1.1496-.6642-1.1506.6642 1.1506.664M288.9746 218.4865l-1.1496-.6642-1.1496.6642 1.1496.664M272.7368 227.8633l1.1496-.6642-1.1496-.664-1.1496.664M257.6484 236.5762l1.1496-.6642-1.1496-.664-1.1496.664M242.5604 245.289l1.1496-.6642-1.1496-.664-1.1496.664M226.3217 253.337l1.1505.665 1.1505-.665-1.1505-.6623M211.2335 262.052l1.1506.6622 1.1506-.6623-1.1505-.6652M196.144 270.7647l1.1524.6623 1.1505-.6623-1.1506-.665M183.3578 279.4768l-1.1496-.6642-1.1505.6642 1.1505.664M168.2697 288.1896l-1.1496-.6642-1.1504.6642 1.1505.6642M150.8818 296.9025l1.1496.6642 1.1506-.6642-1.1506-.6642M392.291 140.0714l1.1505.6623 1.1505-.6623-1.1505-.665M379.5034 148.7834l-1.1496-.6642-1.1506.6642 1.1506.664M364.4153 157.4963l-1.1496-.6642-1.1505.6643 1.1505.664M348.1772 166.873l1.1496-.664-1.1496-.6642-1.1496.6642M333.089 175.586l1.1496-.6643-1.1496-.6642-1.1496.6642M318.001 184.2988l1.1505-.6642-1.1505-.6642-1.1496.6642M301.7622 192.3488l1.1505.6623 1.1505-.6622-1.1505-.665M286.674 201.0616l1.1506.6623 1.1506-.6624-1.1506-.665M273.8865 209.7738l-1.1496-.6642-1.1507.6642 1.1506.664M258.7985 218.4865l-1.1496-.6642-1.1506.6642 1.1505.664M242.5604 227.8633l1.1496-.6642-1.1496-.664-1.1496.664M227.4722 236.5762l1.1505-.6642-1.1505-.664-1.1496.664M212.384 245.289l1.1507-.6642-1.1506-.664-1.1494.664M196.144 253.337l1.1524.665 1.1505-.665-1.1506-.6623M181.0574 262.052l1.1505.6622 1.1505-.6623-1.1506-.6652M165.9692 270.7647l1.1506.6623 1.1505-.6623-1.1505-.665M150.8818 279.4768l1.1496.664 1.1506-.664-1.1506-.6642M135.795 288.1896l1.1478.6642 1.1515-.6642-1.1515-.6642M392.291 122.6435l1.1505.665 1.1505-.665-1.1505-.6622M377.203 131.3564l1.1504.665 1.1505-.665-1.1506-.6622M362.1148 140.0714l1.1505.6623 1.1506-.6623-1.1507-.665M349.327 148.7834l-1.1495-.6642-1.1505.6642 1.1505.664M334.239 157.4963l-1.1495-.6642-1.1505.6643 1.1505.664M318.001 166.873l1.1505-.664-1.1505-.6642-1.1496.6642M302.9128 175.586l1.1496-.6643-1.1496-.6642-1.1496.6642M287.8247 184.2988l1.1496-.6642-1.1496-.6642-1.1496.6642M271.586 192.3488l1.1506.6623 1.1505-.6622-1.1504-.665M256.498 201.0616l1.1505.6623 1.1505-.6624-1.1505-.665M243.7103 209.7738l-1.1496-.6642-1.1505.6642 1.1505.664M228.6224 218.4865l-1.1506-.6642-1.1496.6642 1.1496.664M212.384 227.8633l1.1507-.6642-1.1506-.664-1.1494.664M197.296 236.5762l1.1497-.6642-1.1496-.664-1.1514.664M182.208 245.289l1.1496-.6642-1.1496-.664-1.1496.664M165.9692 253.337l1.1506.665 1.1505-.665-1.1505-.6623M150.8812 262.052l1.1505.6622 1.1505-.6623-1.1505-.6652M135.7944 270.7647l1.1487.6623 1.1525-.6623-1.1524-.665M120.7042 279.4768l1.1515.664 1.1496-.664-1.1496-.6642M393.4416 105.8827l1.1496-.664-1.1496-.6643-1.1495.6642M378.3535 114.5956l1.1496-.664-1.1495-.6643-1.1496.6642M362.1148 122.6435l1.1505.665 1.1506-.665-1.1507-.6622M347.0266 131.3564l1.1506.665 1.1505-.665-1.1505-.6622M331.9386 140.0714l1.1505.6623 1.1506-.6623-1.1505-.665M319.151 148.7834l-1.1505-.6642-1.1496.6642 1.1495.664M304.0628 157.4963l-1.1496-.6642-1.1506.6643 1.1506.664M287.8247 166.873l1.1496-.664-1.1496-.6642-1.1496.6642M272.7368 175.586l1.1496-.6643-1.1496-.6642-1.1496.6642M257.6484 184.2988l1.1496-.6642-1.1496-.6642-1.1496.6642M241.4098 192.3488l1.1506.6623 1.1505-.6622-1.1506-.665M226.3217 201.0616l1.1505.6623 1.1505-.6624-1.1505-.665M213.5342 209.7738l-1.1505-.6642-1.1496.6642 1.1497.664M198.446 218.4865l-1.1496-.6642-1.1515.6642 1.1514.664M182.208 227.8633l1.1496-.6642-1.1496-.664-1.1496.664M167.1198 236.5762l1.1496-.6642-1.1496-.664-1.1496.664M152.0316 245.289l1.1505-.6642-1.1504-.664-1.1496.664M135.7944 253.337l1.1487.665 1.1525-.665-1.1524-.6623M120.7036 262.052l1.1514.6622 1.1505-.6623-1.1505-.6652M105.6155 270.7647l1.1524.6623 1.1495-.6623-1.1496-.665M394.5914 87.7932l-1.1496-.6642-1.1505.6642 1.1505.664M379.5034 96.506l-1.1496-.6643-1.1506.6642 1.1506.664M363.2652 105.8827l1.1496-.664-1.1496-.6643-1.1496.6642M348.1772 114.5956l1.1496-.664-1.1496-.6643-1.1496.6642M331.9386 122.6435l1.1505.665 1.1506-.665-1.1505-.6622M316.8502 131.3564l1.1506.665 1.1505-.665-1.1505-.6622M301.7622 140.0714l1.1505.6623 1.1505-.6623-1.1505-.665M288.9746 148.7834l-1.1496-.6642-1.1496.6642 1.1496.664M273.8865 157.4963l-1.1496-.6642-1.1507.6643 1.1506.664M257.6484 166.873l1.1496-.664-1.1496-.6642-1.1496.6642M242.5604 175.586l1.1496-.6643-1.1496-.6642-1.1496.6642M227.4722 184.2988l1.1505-.6642-1.1505-.6642-1.1496.6642M211.2335 192.3488l1.1506.6623 1.1506-.6622-1.1505-.665M196.144 201.0616l1.1524.6623 1.1505-.6624-1.1506-.665M183.3578 209.7738l-1.1496-.6642-1.1505.6642 1.1505.664M168.2697 218.4865l-1.1496-.6642-1.1504.6642 1.1505.664M152.0316 227.8633l1.1505-.6642-1.1504-.664-1.1496.664M136.943 236.5762l1.1514-.6642-1.1515-.664-1.1478.664M121.8554 245.289l1.1496-.6642-1.1496-.664-1.1515.664M105.6155 253.337l1.1524.665 1.1495-.665-1.1496-.6623M90.5286 262.052l1.1505.6622 1.1487-.6623-1.1486-.6652M392.291 70.366l1.1505.6652 1.1505-.665-1.1505-.6623M377.203 79.081l1.1504.6624 1.1505-.6623-1.1506-.665M364.4153 87.7932l-1.1496-.6642-1.1505.6642 1.1505.664M349.327 96.506l-1.1495-.6643-1.1505.6642 1.1505.664M333.089 105.8827l1.1496-.664-1.1496-.6643-1.1496.6642M318.001 114.5956l1.1505-.664-1.1505-.6643-1.1496.6642M301.7622 122.6435l1.1505.665 1.1505-.665-1.1505-.6622M286.674 131.3564l1.1506.665 1.1506-.665-1.1506-.6622M271.586 140.0714l1.1506.6623 1.1505-.6623-1.1504-.665M258.7985 148.7834l-1.1496-.6642-1.1506.6642 1.1505.664M243.7103 157.4963l-1.1496-.6642-1.1505.6643 1.1505.664M227.4722 166.873l1.1505-.664-1.1505-.6642-1.1496.6642M212.384 175.586l1.1507-.6643-1.1506-.6642-1.1494.6642M197.296 184.2988l1.1497-.6642-1.1496-.6642-1.1514.6642M181.0574 192.3488l1.1505.6623 1.1505-.6622-1.1506-.665M165.9692 201.0616l1.1506.6623 1.1505-.6624-1.1505-.665M153.1818 209.7738l-1.1506-.6642-1.1495.6642 1.1495.664M138.0943 218.4865l-1.1515-.6642-1.1477.6642 1.1478.664M121.8554 227.8633l1.1496-.6642-1.1496-.664-1.1515.664M106.7674 236.5762l1.1496-.6642-1.1496-.664-1.1514.664M91.6793 245.289l1.1477-.6642-1.1477-.664-1.1496.664M75.442 253.337l1.1486.665 1.1506-.665-1.1506-.6623M393.4416 53.6052l1.1496-.664-1.1496-.6643-1.1495.664M378.3535 62.318l1.1496-.664-1.1495-.6643-1.1496.6642M362.1148 70.366l1.1505.6652 1.1506-.665-1.1507-.6623M347.0266 79.081l1.1506.6624 1.1505-.6623-1.1505-.665M334.239 87.7932l-1.1495-.6642-1.1505.6642 1.1505.664M319.151 96.506l-1.1505-.6643-1.1496.6642 1.1495.664M302.9128 105.8827l1.1496-.664-1.1496-.6643-1.1496.6642M287.8247 114.5956l1.1496-.664-1.1496-.6643-1.1496.6642M271.586 122.6435l1.1506.665 1.1505-.665-1.1504-.6622M256.498 131.3564l1.1505.665 1.1505-.665-1.1505-.6622M241.4098 140.0714l1.1506.6623 1.1505-.6623-1.1506-.665M228.6224 148.7834l-1.1506-.6642-1.1496.6642 1.1496.664M213.5342 157.4963l-1.1505-.6642-1.1496.6643 1.1497.664M197.296 166.873l1.1497-.664-1.1496-.6642-1.1514.6642M182.208 175.586l1.1496-.6643-1.1496-.6642-1.1496.6642M167.1198 184.2988l1.1496-.6642-1.1496-.6642-1.1496.6642M150.8812 192.3488l1.1505.6623 1.1505-.6622-1.1505-.665M135.7944 201.0616l1.1487.6623 1.1525-.6624-1.1524-.665M123.0054 209.7738l-1.1496-.6642-1.1515.6642 1.1515.664M107.9173 218.4865l-1.1496-.6642-1.1515.6642 1.1515.664M91.6793 227.8633l1.1477-.6642-1.1477-.664-1.1496.664M76.5905 236.5762l1.1495-.6642-1.1495-.664-1.1477.664M60.3524 244.625l1.1496.6642 1.1515-.6642-1.1515-.6642M394.5914 35.5156l-1.1496-.6642-1.1505.6642 1.1505.664M378.3535 44.8926l1.1496-.664-1.1495-.6643-1.1496.6642M363.2652 53.6052l1.1496-.664-1.1496-.6643-1.1496.664M348.1772 62.318l1.1496-.664-1.1496-.6643-1.1496.6642M331.9386 70.366l1.1505.6652 1.1506-.665-1.1505-.6623M316.8502 79.081l1.1506.6624 1.1505-.6623-1.1505-.665M304.0628 87.7932l-1.1496-.6642-1.1506.6642 1.1506.664M288.9746 96.506l-1.1496-.6643-1.1496.6642 1.1496.664M272.7368 105.8827l1.1496-.664-1.1496-.6643-1.1496.6642M257.6484 114.5956l1.1496-.664-1.1496-.6643-1.1496.6642M241.4098 122.6435l1.1506.665 1.1505-.665-1.1506-.6622M226.3217 131.3564l1.1505.665 1.1505-.665-1.1505-.6622M211.2335 140.0714l1.1506.6623 1.1506-.6623-1.1505-.665M198.446 148.7834l-1.1496-.6642-1.1515.6642 1.1514.664M183.3578 157.4963l-1.1496-.6642-1.1505.6643 1.1505.664M167.1198 166.873l1.1496-.664-1.1496-.6642-1.1496.6642M152.0316 175.586l1.1505-.6643-1.1504-.6642-1.1496.6642M136.943 184.2988l1.1514-.6642-1.1515-.6642-1.1478.6642M120.7036 192.3488l1.1514.6623 1.1505-.6622-1.1505-.665M105.6155 201.0616l1.1524.6623 1.1495-.6624-1.1496-.665M92.827 209.7738l-1.1476-.6642-1.1496.6642 1.1496.664M77.7402 218.4865l-1.1496-.6642-1.1477.6642 1.1476.664M60.3524 227.1994l1.1496.664 1.1515-.664-1.1515-.6642M45.2643 235.912l1.1496.6643 1.1513-.6642-1.1514-.664M392.291 18.0908l1.1505.6623 1.1505-.6622-1.1505-.665M379.5034 26.803l-1.1496-.6643-1.1506.6642 1.1506.664M364.4153 35.5156l-1.1496-.6642-1.1505.6642 1.1505.664M348.1772 44.8926l1.1496-.664-1.1496-.6643-1.1496.6642M333.089 53.6052l1.1496-.664-1.1496-.6643-1.1496.664M319.151 61.654l-1.1505-.664-1.1496.664 1.1495.6642M301.7622 70.366l1.1505.6652 1.1505-.665-1.1505-.6623M286.674 79.081l1.1506.6624 1.1506-.6623-1.1506-.665M273.8865 87.7932l-1.1496-.6642-1.1507.6642 1.1506.664M258.7985 96.506l-1.1496-.6643-1.1506.6642 1.1505.664M242.5604 105.8827l1.1496-.664-1.1496-.6643-1.1496.6642M227.4722 114.5956l1.1505-.664-1.1505-.6643-1.1496.6642M211.2335 122.6435l1.1506.665 1.1506-.665-1.1505-.6622M196.144 131.3564l1.1524.665 1.1505-.665-1.1506-.6622M181.0574 140.0714l1.1505.6623 1.1505-.6623-1.1506-.665M168.2697 148.7834l-1.1496-.6642-1.1504.6642 1.1505.664M153.1818 157.4963l-1.1506-.6642-1.1495.6643 1.1495.664M136.943 166.873l1.1514-.664-1.1515-.6642-1.1478.6642M121.8554 175.586l1.1496-.6643-1.1496-.6642-1.1515.6642M107.9173 183.6346l-1.1496-.6642-1.1515.6642 1.1515.6642M90.5286 192.3488l1.1505.6623 1.1487-.6622-1.1486-.665M75.442 201.0616l1.1486.6623 1.1506-.6624-1.1506-.665M60.3524 209.7738l1.1496.664 1.1515-.664-1.1515-.6642M45.2643 218.4865l1.1496.664 1.1513-.664-1.1514-.6642M30.1756 227.1994l1.1514.664 1.1496-.664-1.1496-.6642M377.203 9.378l1.1504.6622 1.1505-.6623-1.1506-.6652M362.1148 18.0908l1.1505.6623 1.1506-.6622-1.1507-.665M349.327 26.803l-1.1495-.6643-1.1505.6642 1.1505.664M334.239 35.5156l-1.1495-.6642-1.1505.6642 1.1505.664M319.151 44.2285l-1.1505-.6642-1.1496.6642 1.1495.664M304.0628 52.9412l-1.1496-.6642-1.1506.6642 1.1506.664M288.9746 61.654l-1.1496-.664-1.1496.664 1.1496.6642M271.586 70.366l1.1506.6652 1.1505-.665-1.1504-.6623M256.498 79.081l1.1505.6624 1.1505-.6623-1.1505-.665M243.7103 87.7932l-1.1496-.6642-1.1505.6642 1.1505.664M228.6224 96.506l-1.1506-.6643-1.1496.6642 1.1496.664M213.5342 105.2187l-1.1505-.6642-1.1496.6642 1.1497.664M198.446 113.9316l-1.1496-.6642-1.1515.6642 1.1514.664M181.0574 122.6435l1.1505.665 1.1505-.665-1.1506-.6622M165.9692 131.3564l1.1506.665 1.1505-.665-1.1505-.6622M150.8812 140.0714l1.1505.6623 1.1505-.6623-1.1505-.665M138.0943 148.7834l-1.1515-.6642-1.1477.6642 1.1478.664M123.0054 157.4963l-1.1496-.6642-1.1515.6643 1.1515.664M107.9173 166.209l-1.1496-.6642-1.1515.6642 1.1515.664M92.827 174.9218l-1.1476-.6642-1.1496.6642 1.1496.664M77.7402 183.6346l-1.1496-.6642-1.1477.6642 1.1476.6642M60.3518 192.3488l1.1505.6623 1.1524-.6622-1.1524-.665M45.2636 201.0616l1.1505.6623 1.1526-.6624-1.1525-.665M30.1756 209.7738l1.1514.664 1.1496-.664-1.1496-.6642M15.0873 218.4865l1.1515.664 1.1477-.664-1.1477-.6642M363.2656-.0002L362.115.664l1.1506.6632L364.416.664M347.0266 9.378l1.1506.6622 1.1505-.6623-1.1505-.6652M331.9386 18.0908l1.1505.6623 1.1506-.6622-1.1505-.665M319.151 26.803l-1.1505-.6643-1.1496.6642 1.1495.664M304.0628 35.5156l-1.1496-.6642-1.1506.6642 1.1506.664M288.9746 44.2285l-1.1496-.6642-1.1496.6642 1.1496.664M273.8865 52.9412l-1.1496-.6642-1.1507.6642 1.1506.664M258.7985 61.654l-1.1496-.664-1.1506.664 1.1505.6642M241.4098 70.366l1.1506.6652 1.1505-.665-1.1506-.6623M226.3217 79.081l1.1505.6624 1.1505-.6623-1.1505-.665M213.5342 87.7932l-1.1505-.6642-1.1496.6642 1.1497.664M198.446 96.506l-1.1496-.6643-1.1515.6642 1.1514.664M183.3578 105.2187l-1.1496-.6642-1.1505.6642 1.1505.664M168.2697 113.9316l-1.1496-.6642-1.1504.6642 1.1505.664M150.8812 122.6435l1.1505.665 1.1505-.665-1.1505-.6622M135.7944 131.3564l1.1487.665 1.1525-.665-1.1524-.6622M120.7036 140.0714l1.1514.6623 1.1505-.6623-1.1505-.665M107.9173 148.7834l-1.1496-.6642-1.1515.6642 1.1515.664M92.827 157.4963l-1.1476-.6642-1.1496.6643 1.1496.664M77.7402 166.209l-1.1496-.6642-1.1477.6642 1.1476.664M62.6537 174.9218l-1.1515-.6642-1.1496.6642 1.1496.664M47.5655 183.6346l-1.1514-.6642-1.1495.6642 1.1496.6642M30.175 192.3488l1.1514.6623 1.1514-.6622-1.1514-.665M15.0867 201.0616l1.1515.6623 1.1487-.6624-1.1488-.665M392.291 436.308l1.1505.664 1.1506-.664-1.1505-.6633"/>
    </g>
    <path fill="#FEFEFE" d="M248.2726 117.849v6.6l-20.494 11.8207-5.71-3.2948M279.4875 106.277l31.215 36.1136-62.4302-36.037M297.605 186.1397l-62.4396-36.037v-2.97l49.3425 28.4793 13.097-7.5578"/>
    <path fill="#FEFEFE" d="M279.488 106.277l31.2143 36.1143 62.4397-36.0378L341.9174 70.24M310.7025 153.8957v6.5904l-13.0972 7.5587v.0094l-13.0972 7.558v-6.5905l20.4845-11.8302M304.9922 157.191l-20.4844 11.8303-56.729-32.7517 20.494-11.8208"/>
    <path fill="#FEFEFE" d="M310.7025 142.391v11.5045l-5.71 3.2956-56.7195-32.742v-18.095"/>
    <path fill="#FEFEFE" d="M310.702 142.391v18.0957l62.44-36.0378v-18.095M310.702 70.3164l-62.4293 36.037 31.215-.0764 62.4296-36.037M284.508 169.0214v6.5904l-49.3426-28.4792-13.0964-7.5673v-6.5904l5.71 3.2947"/>
    <path fill="#FEFEFE" d="M310.702 160.486l-13.097 7.5592V186.14l75.537-43.6058v-18.0848"/>
    <path d="M248.2726 124.449l-20.494 11.8208m-5.71 3.2956v-6.5904m26.204-15.1258l-26.204 15.1258m26.204-8.526v-6.5998m-26.204 21.7162l13.0973 7.5672 49.3417 28.4793m0 0v-6.5905m-62.439-36.0465l5.71 3.2948 56.729 32.7517m13.0972-.9768l13.097-7.5586m-26.1943 15.126l13.0972-7.558m13.097-7.568v-6.5903m-26.1943 15.1258l20.4844-11.8302 5.71-3.2956m0 6.5904l62.4398-36.037m0 0v-18.095m-62.4397 36.037l62.4398-36.037m-62.4397 47.5417V142.391m-62.4294-24.5418v-11.495m62.4295-36.038l-62.4294 36.038m0 18.095l56.7195 32.742" stroke="#010201" stroke-width=".607" stroke-linecap="round" stroke-linejoin="round"/>
    <path stroke="#010201" stroke-width=".304" stroke-linecap="round" stroke-linejoin="round" d="M248.2726 106.3538l62.4295 36.037z"/>
    <path d="M297.605 186.1397l75.537-43.605m0 0V124.449m-75.537 61.6907V168.044m-62.4396-17.9413v-2.97m0 2.97l62.4397 36.037m75.537-79.7856L341.9174 70.24" stroke="#010201" stroke-width=".607" stroke-linecap="round" stroke-linejoin="round"/>
    <path d="M341.9173 70.24l-62.4295 36.037" stroke="#010201" stroke-width=".304" stroke-linecap="round" stroke-linejoin="round"/>
    <path d="M310.7025 142.391l-31.2152-36.1136m62.4303-36.0378l-31.215.0765m-31.2153 35.9614l-31.2143.0765" stroke="#010201" stroke-width=".607" stroke-linecap="round" stroke-linejoin="round"/>
    <path fill="#FEFEFE" d="M59.2068 251.5453L90.489 287.621l-5.203 3.0078-15.607 9.014-31.2152-36.1136"/>
    <path fill="#FEFEFE" d="M80.084 239.5042l31.215 36.104-10.405 6.0062-10.405 6.0062-31.2822-36.075 20.8676-12.0414"/>
    <path fill="#FEFEFE" d="M100.8938 227.482l31.2152 36.1144-20.81 12.0124-31.2153-36.105"/>
    <path fill="#FEFEFE" d="M111.2987 275.6084v18.095l-20.81 12.0124v-18.095l10.405-6.0062"/>
    <path fill="#FEFEFE" d="M85.286 290.6286l-15.6072 9.014v18.0855l20.81-12.0122v-18.095M28.059 251.5842h-.0102l-5.202 3.0078-15.6073 9.0045 31.2246-.067 20.7424-11.984M132.1086 263.596v18.095l-20.81 12.0124v-18.095"/>
    <path fill="#FEFEFE" d="M80.0743 239.5042l-20.8677 12.0415-31.1473.0378 10.405-6.0062 10.4043-6.006M100.8938 227.482l-20.81 12.022h-.0095l-31.205.067 20.8094-12.0124M7.2392 281.6915l62.4397 36.037V299.643L7.239 263.5957"/>
    <path fill="#FEFEFE" d="M7.2392 263.596L69.679 299.643 38.4637 263.529"/>
    <g stroke-linecap="round" stroke="#010201" stroke-linejoin="round">
      <path stroke-width=".304" d="M7.2395 263.596l62.4397 36.0465z"/>
      <path stroke-width=".607" d="M69.6788 317.7286l20.81-12.0123 20.8102-12.0124 20.8093-12.0124"/>
    </g>
    <path d="M80.0743 239.5042l-31.2057.067m62.4303 54.1328v-18.0958l-31.2153-36.104m10.405 66.212v-18.0956l-31.282-36.075-31.1474.038" stroke="#010201" stroke-width=".304" stroke-linecap="round" stroke-linejoin="round"/>
    <path d="M85.2862 290.6288l-15.607 9.014m0 18.0855v-18.0855m0 18.0855l-62.44-36.037v-18.095l15.608-9.0046m15.6167 8.9375l-31.2247.067M69.679 299.643l-31.215-36.1136m0-17.9515l-10.405 6.0062h-.0096l-5.202 3.0077m78.046 27.023l-10.4042 6.0063-5.203 3.0078m46.8224-27.0325l-31.2152-36.1143m0 0l-31.2143.0764m31.2144-.0764L80.084 239.5038h-.0093L59.207 251.5453l-20.743 11.984m31.215-35.971l-20.81 12.0125-10.405 6.007m93.6446 18.0185l-20.81 12.0123-10.4052 6.0062m31.2152.0765v-18.095" stroke="#010201" stroke-width=".607" stroke-linecap="round" stroke-linejoin="round"/>
    <path stroke="#8FD4D9" stroke-width="1.213" stroke-linecap="round" stroke-linejoin="round" d="M209.4075 227.2424l21.0072 25.2618 13.878-22.9903z"/>
    <path stroke="#8FD4D9" stroke-width="1.213" stroke-linecap="round" stroke-linejoin="round" d="M209.4075 227.2424l12.4213-87.419 22.4638 89.6905zM209.4075 227.2424l21.0072 25.2618-90.1584-38.3172z"/>
    <path stroke="#8FD4D9" stroke-width="1.213" stroke-linecap="round" stroke-linejoin="round" d="M132.348 263.5728l98.067-11.0686-90.1584-38.317zM132.348 263.5728l-31.383-36.3303 39.2916-13.0554zM284.3522 175.5856l-62.5234-35.7618 22.4638 89.6897z"/>
    <path stroke="#8FD4D9" stroke-width="1.213" stroke-linecap="round" stroke-linejoin="round" d="M132.348 263.5728l98.067-11.0686-98.067 29.2346zM284.3522 175.5856l13.2533 10.7943-53.313 43.1335z"/>
  </g>
</svg>
