<svg viewBox="0 0 409 437" version="1.1" xmlns="http://www.w3.org/2000/svg" xmlns:xlink="http://www.w3.org/1999/xlink">
    <g id="About-us" stroke="none" stroke-width="1" fill="none" fill-rule="evenodd">
        <g id="ABOUT-US" transform="translate(-5.000000, -3033.000000)" fill="#929497">
            <g transform="translate(-10.000000, 3033.000000)">
                <polygon id="Fill-2" points="407.37908 427.594976 408.529608 428.260069 409.680135 427.594976 408.529608 426.932702"></polygon>
                <polygon id="Fill-3" points="422.4678 418.883015 423.617388 419.547168 424.767915 418.883015 423.617388 418.218862"></polygon>
                <polygon id="Fill-47" points="422.4678 401.457401 423.617388 402.121554 424.767915 401.457401 423.617388 400.793248"></polygon>
                <polygon id="Fill-48" points="409.679759 410.170302 408.529232 409.506149 407.379644 410.170302 408.529232 410.834455"></polygon>
                <polygon id="Fill-49" points="393.44164 419.547074 394.591228 418.882921 393.44164 418.218768 392.292052 418.882921"></polygon>
                <polygon id="Fill-50" points="377.202863 427.594976 378.35339 428.260069 379.503917 427.594976 378.35339 426.932702"></polygon>
                <polygon id="Fill-71" points="422.467236 384.030472 423.617764 384.694625 424.768291 384.030472 423.617764 383.368198"></polygon>
                <polygon id="Fill-72" points="407.37908 392.745346 408.529608 393.40762 409.680135 392.745346 408.529608 392.080253"></polygon>
                <polygon id="Fill-73" points="394.591416 401.457401 393.441828 400.793248 392.2913 401.457401 393.441828 402.121554"></polygon>
                <polygon id="Fill-74" points="379.503354 410.170302 378.353766 409.506149 377.203238 410.170302 378.353766 410.834455"></polygon>
                <polygon id="Fill-75" points="362.115458 418.883015 363.265046 419.547168 364.415574 418.883015 363.265046 418.218862"></polygon>
                <polygon id="Fill-95" points="423.617764 367.269481 424.767352 366.605328 423.617764 365.941175 422.468175 366.605328"></polygon>
                <polygon id="Fill-96" points="407.37908 375.317571 408.529608 375.982664 409.680135 375.317571 408.529608 374.655297"></polygon>
                <polygon id="Fill-97" points="392.290925 384.030472 393.441452 384.694625 394.591979 384.030472 393.441452 383.368198"></polygon>
                <polygon id="Fill-98" points="377.202863 392.745346 378.35339 393.40762 379.503917 392.745346 378.35339 392.080253"></polygon>
                <polygon id="Fill-99" points="362.115458 401.457401 363.265046 402.121554 364.415574 401.457401 363.265046 400.793248"></polygon>
                <polygon id="Fill-100" points="347.027396 410.170302 348.176984 410.834455 349.327512 410.170302 348.176984 409.506149"></polygon>
                <polygon id="Fill-119" points="423.617764 349.843962 424.767352 349.179809 423.617764 348.515655 422.468175 349.179809"></polygon>
                <polygon id="Fill-120" points="408.529608 358.556675 409.680135 357.892521 408.529608 357.228368 407.38002 357.892521"></polygon>
                <polygon id="Fill-121" points="393.44164 367.269481 394.591228 366.605328 393.44164 365.941175 392.292052 366.605328"></polygon>
                <polygon id="Fill-122" points="377.202863 375.317571 378.35339 375.982664 379.503917 375.317571 378.35339 374.655297"></polygon>
                <polygon id="Fill-123" points="362.114801 384.030472 363.265328 384.694625 364.415855 384.030472 363.265328 383.368198"></polygon>
                <polygon id="Fill-124" points="347.026645 392.745346 348.177172 393.40762 349.3277 392.745346 348.177172 392.080253"></polygon>
                <polygon id="Fill-125" points="331.939334 401.457401 333.088922 402.121554 334.23945 401.457401 333.088922 400.793248"></polygon>
                <polygon id="Fill-143" points="424.767821 331.754289 423.618233 331.090136 422.467706 331.754289 423.618233 332.418442"></polygon>
                <polygon id="Fill-144" points="409.679759 340.46719 408.529232 339.803036 407.379644 340.46719 408.529232 341.131343"></polygon>
                <polygon id="Fill-145" points="393.44164 349.843962 394.591228 349.179809 393.44164 348.515655 392.292052 349.179809"></polygon>
                <polygon id="Fill-146" points="378.353484 358.556675 379.503072 357.892521 378.353484 357.228368 377.203896 357.892521"></polygon>
                <polygon id="Fill-147" points="363.265234 367.269481 364.414822 366.605328 363.265234 365.941175 362.115646 366.605328"></polygon>
                <polygon id="Fill-148" points="347.026645 375.317571 348.177172 375.982664 349.3277 375.317571 348.177172 374.655297"></polygon>
                <polygon id="Fill-149" points="331.938583 384.030472 333.08911 384.694625 334.239638 384.030472 333.08911 383.368198"></polygon>
                <polygon id="Fill-150" points="316.850239 392.745346 318.000767 393.40762 319.151294 392.745346 318.000767 392.080253"></polygon>
                <polygon id="Fill-167" points="422.467236 314.32736 423.617764 314.992453 424.768291 314.32736 423.617764 313.665086"></polygon>
                <polygon id="Fill-168" points="407.37908 323.042233 408.529608 323.704508 409.680135 323.042233 408.529608 322.377141"></polygon>
                <polygon id="Fill-169" points="394.591416 331.754289 393.441828 331.090136 392.2913 331.754289 393.441828 332.418442"></polygon>
                <polygon id="Fill-170" points="379.503354 340.46719 378.353766 339.803036 377.203238 340.46719 378.353766 341.131343"></polygon>
                <polygon id="Fill-171" points="363.265234 349.843962 364.414822 349.179809 363.265234 348.515655 362.115646 349.179809"></polygon>
                <polygon id="Fill-172" points="348.177172 358.556675 349.32676 357.892521 348.177172 357.228368 347.027584 357.892521"></polygon>
                <polygon id="Fill-173" points="333.089016 367.269481 334.238604 366.605328 333.089016 365.941175 331.939428 366.605328"></polygon>
                <polygon id="Fill-174" points="316.850239 375.317571 318.000767 375.982664 319.151294 375.317571 318.000767 374.655297"></polygon>
                <polygon id="Fill-175" points="301.762177 384.030472 302.912705 384.694625 304.063232 384.030472 302.912705 383.368198"></polygon>
                <polygon id="Fill-191" points="423.617764 297.566369 424.767352 296.902216 423.617764 296.238063 422.468175 296.902216"></polygon>
                <polygon id="Fill-192" points="407.37908 305.614459 408.529608 306.279552 409.680135 305.614459 408.529608 304.952185"></polygon>
                <polygon id="Fill-193" points="392.290925 314.32736 393.441452 314.992453 394.591979 314.32736 393.441452 313.665086"></polygon>
                <polygon id="Fill-194" points="377.202863 323.042233 378.35339 323.704508 379.503917 323.042233 378.35339 322.377141"></polygon>
                <polygon id="Fill-195" points="364.415292 331.754289 363.265704 331.090136 362.115176 331.754289 363.265704 332.418442"></polygon>
                <polygon id="Fill-196" points="349.327136 340.46719 348.177548 339.803036 347.027021 340.46719 348.177548 341.131343"></polygon>
                <polygon id="Fill-197" points="333.089016 349.843962 334.238604 349.179809 333.089016 348.515655 331.939428 349.179809"></polygon>
                <polygon id="Fill-198" points="318.000954 358.556675 319.151482 357.892521 318.000954 357.228368 316.851366 357.892521"></polygon>
                <polygon id="Fill-199" points="302.912799 367.269481 304.062387 366.605328 302.912799 365.941175 301.763211 366.605328"></polygon>
                <polygon id="Fill-200" points="286.674116 375.317571 287.824643 375.982664 288.97517 375.317571 287.824643 374.655297"></polygon>
                <polygon id="Fill-215" points="424.767821 279.47679 423.618233 278.812637 422.467706 279.47679 423.618233 280.140943"></polygon>
                <polygon id="Fill-216" points="409.679759 288.189597 408.529232 287.525444 407.379644 288.189597 408.529232 288.85375"></polygon>
                <polygon id="Fill-217" points="393.44164 297.566369 394.591228 296.902216 393.44164 296.238063 392.292052 296.902216"></polygon>
                <polygon id="Fill-218" points="377.202863 305.614459 378.35339 306.279552 379.503917 305.614459 378.35339 304.952185"></polygon>
                <polygon id="Fill-219" points="362.114801 314.32736 363.265328 314.992453 364.415855 314.32736 363.265328 313.665086"></polygon>
                <polygon id="Fill-220" points="347.026645 323.042233 348.177172 323.704508 349.3277 323.042233 348.177172 322.377141"></polygon>
                <polygon id="Fill-221" points="334.239074 331.754289 333.089486 331.090136 331.938959 331.754289 333.089486 332.418442"></polygon>
                <polygon id="Fill-222" points="319.151012 340.46719 318.000485 339.803036 316.850897 340.46719 318.000485 341.131343"></polygon>
                <polygon id="Fill-223" points="302.912799 349.843962 304.062387 349.179809 302.912799 348.515655 301.763211 349.179809"></polygon>
                <polygon id="Fill-224" points="287.824737 358.556675 288.974325 357.892521 287.824737 357.228368 286.675149 357.892521"></polygon>
                <polygon id="Fill-225" points="271.586805 366.605516 272.736393 367.269669 273.88692 366.605516 272.736393 365.941363"></polygon>
                <polygon id="Fill-239" points="422.467236 262.051928 423.617764 262.714202 424.768291 262.051928 423.617764 261.386835"></polygon>
                <polygon id="Fill-240" points="407.37908 270.764735 408.529608 271.427009 409.680135 270.764735 408.529608 270.099642"></polygon>
                <polygon id="Fill-241" points="394.591416 279.47679 393.441828 278.812637 392.2913 279.47679 393.441828 280.140943"></polygon>
                <polygon id="Fill-242" points="379.503354 288.189597 378.353766 287.525444 377.203238 288.189597 378.353766 288.85375"></polygon>
                <polygon id="Fill-243" points="363.265234 297.566369 364.414822 296.902216 363.265234 296.238063 362.115646 296.902216"></polygon>
                <polygon id="Fill-244" points="347.026645 305.614459 348.177172 306.279552 349.3277 305.614459 348.177172 304.952185"></polygon>
                <polygon id="Fill-245" points="331.938583 314.32736 333.08911 314.992453 334.239638 314.32736 333.08911 313.665086"></polygon>
                <polygon id="Fill-246" points="316.850239 323.042233 318.000767 323.704508 319.151294 323.042233 318.000767 322.377141"></polygon>
                <polygon id="Fill-247" points="304.062762 331.754289 302.913174 331.090136 301.762647 331.754289 302.913174 332.418442"></polygon>
                <polygon id="Fill-248" points="288.974607 340.46719 287.825018 339.803036 286.67543 340.46719 287.825018 341.131343"></polygon>
                <polygon id="Fill-249" points="271.586805 349.179902 272.736393 349.844056 273.88692 349.179902 272.736393 348.515749"></polygon>
                <polygon id="Fill-250" points="256.498649 357.892615 257.648237 358.556769 258.798765 357.892615 257.648237 357.228462"></polygon>
                <polygon id="Fill-263" points="423.617764 245.288965 424.767352 244.624811 423.617764 243.960658 422.468175 244.624811"></polygon>
                <polygon id="Fill-264" points="407.37908 253.336961 408.529608 254.002053 409.680135 253.336961 408.529608 252.674686"></polygon>
                <polygon id="Fill-265" points="392.290925 262.051928 393.441452 262.714202 394.591979 262.051928 393.441452 261.386835"></polygon>
                <polygon id="Fill-266" points="377.202863 270.764735 378.35339 271.427009 379.503917 270.764735 378.35339 270.099642"></polygon>
                <polygon id="Fill-267" points="364.415292 279.47679 363.265704 278.812637 362.115176 279.47679 363.265704 280.140943"></polygon>
                <polygon id="Fill-268" points="349.327136 288.189597 348.177548 287.525444 347.027021 288.189597 348.177548 288.85375"></polygon>
                <polygon id="Fill-269" points="333.089016 297.566369 334.238604 296.902216 333.089016 296.238063 331.939428 296.902216"></polygon>
                <polygon id="Fill-270" points="316.850239 305.614459 318.000767 306.279552 319.151294 305.614459 318.000767 304.952185"></polygon>
                <polygon id="Fill-271" points="301.762177 314.32736 302.912705 314.992453 304.063232 314.32736 302.912705 313.665086"></polygon>
                <polygon id="Fill-272" points="286.674116 323.042233 287.824643 323.704508 288.97517 323.042233 287.824643 322.377141"></polygon>
                <polygon id="Fill-273" points="271.586805 331.754289 272.736393 332.418442 273.88692 331.754289 272.736393 331.090136"></polygon>
                <polygon id="Fill-274" points="256.498649 340.46719 257.648237 341.131343 258.798765 340.46719 257.648237 339.803036"></polygon>
                <polygon id="Fill-275" points="241.410493 349.179902 242.560081 349.844056 243.710609 349.179902 242.560081 348.515749"></polygon>
                <polygon id="Fill-287" points="423.617764 227.863257 424.767352 227.199104 423.617764 226.534951 422.468175 227.199104"></polygon>
                <polygon id="Fill-288" points="408.529608 236.576158 409.680135 235.912004 408.529608 235.247851 407.38002 235.912004"></polygon>
                <polygon id="Fill-289" points="393.44164 245.288965 394.591228 244.624811 393.44164 243.960658 392.292052 244.624811"></polygon>
                <polygon id="Fill-290" points="377.202863 253.336961 378.35339 254.002053 379.503917 253.336961 378.35339 252.674686"></polygon>
                <polygon id="Fill-291" points="362.114801 262.051928 363.265328 262.714202 364.415855 262.051928 363.265328 261.386835"></polygon>
                <polygon id="Fill-292" points="347.026645 270.764735 348.177172 271.427009 349.3277 270.764735 348.177172 270.099642"></polygon>
                <polygon id="Fill-293" points="334.239074 279.47679 333.089486 278.812637 331.938959 279.47679 333.089486 280.140943"></polygon>
                <polygon id="Fill-294" points="319.151012 288.189597 318.000485 287.525444 316.850897 288.189597 318.000485 288.85375"></polygon>
                <polygon id="Fill-295" points="302.912799 297.566369 304.062387 296.902216 302.912799 296.238063 301.763211 296.902216"></polygon>
                <polygon id="Fill-296" points="286.674116 305.614459 287.824643 306.279552 288.97517 305.614459 287.824643 304.952185"></polygon>
                <polygon id="Fill-297" points="271.586054 314.32736 272.736581 314.992453 273.887108 314.32736 272.736581 313.665086"></polygon>
                <polygon id="Fill-298" points="256.497992 323.042233 257.648519 323.704508 258.799046 323.042233 257.648519 322.377141"></polygon>
                <polygon id="Fill-299" points="241.410493 331.754289 242.560081 332.418442 243.710609 331.754289 242.560081 331.090136"></polygon>
                <polygon id="Fill-300" points="226.322431 340.46719 227.472019 341.131343 228.622547 340.46719 227.472019 339.803036"></polygon>
                <polygon id="Fill-311" points="424.767821 209.773772 423.618233 209.109619 422.467706 209.773772 423.618233 210.437925"></polygon>
                <polygon id="Fill-312" points="409.679759 218.486485 408.529232 217.822332 407.379644 218.486485 408.529232 219.150638"></polygon>
                <polygon id="Fill-313" points="393.44164 227.863257 394.591228 227.199104 393.44164 226.534951 392.292052 227.199104"></polygon>
                <polygon id="Fill-314" points="378.353484 236.576158 379.503072 235.912004 378.353484 235.247851 377.203896 235.912004"></polygon>
                <polygon id="Fill-315" points="363.265234 245.288965 364.414822 244.624811 363.265234 243.960658 362.115646 244.624811"></polygon>
                <polygon id="Fill-316" points="347.026645 253.336961 348.177172 254.002053 349.3277 253.336961 348.177172 252.674686"></polygon>
                <polygon id="Fill-317" points="331.938583 262.051928 333.08911 262.714202 334.239638 262.051928 333.08911 261.386835"></polygon>
                <polygon id="Fill-318" points="316.850239 270.764735 318.000767 271.427009 319.151294 270.764735 318.000767 270.099642"></polygon>
                <polygon id="Fill-319" points="304.062762 279.47679 302.913174 278.812637 301.762647 279.47679 302.913174 280.140943"></polygon>
                <polygon id="Fill-320" points="288.974607 288.189597 287.825018 287.525444 286.67543 288.189597 287.825018 288.85375"></polygon>
                <polygon id="Fill-321" points="272.736769 297.566369 273.886357 296.902216 272.736769 296.238063 271.587181 296.902216"></polygon>
                <polygon id="Fill-322" points="256.497992 305.614459 257.648519 306.279552 258.799046 305.614459 257.648519 304.952185"></polygon>
                <polygon id="Fill-323" points="241.409836 314.32736 242.560363 314.992453 243.71089 314.32736 242.560363 313.665086"></polygon>
                <polygon id="Fill-324" points="226.32168 323.042233 227.472207 323.704508 228.622735 323.042233 227.472207 322.377141"></polygon>
                <polygon id="Fill-325" points="211.234276 331.754289 212.383864 332.418442 213.534391 331.754289 212.383864 331.090136"></polygon>
                <polygon id="Fill-335" points="422.467236 192.348816 423.617764 193.01109 424.768291 192.348816 423.617764 191.683723"></polygon>
                <polygon id="Fill-336" points="407.37908 201.061623 408.529608 201.723897 409.680135 201.061623 408.529608 200.39653"></polygon>
                <polygon id="Fill-337" points="394.591416 209.773772 393.441828 209.109619 392.2913 209.773772 393.441828 210.437925"></polygon>
                <polygon id="Fill-338" points="379.503354 218.486485 378.353766 217.822332 377.203238 218.486485 378.353766 219.150638"></polygon>
                <polygon id="Fill-339" points="363.265234 227.863257 364.414822 227.199104 363.265234 226.534951 362.115646 227.199104"></polygon>
                <polygon id="Fill-340" points="348.177172 236.576158 349.32676 235.912004 348.177172 235.247851 347.027584 235.912004"></polygon>
                <polygon id="Fill-341" points="333.089016 245.288965 334.238604 244.624811 333.089016 243.960658 331.939428 244.624811"></polygon>
                <polygon id="Fill-342" points="316.850239 253.336961 318.000767 254.002053 319.151294 253.336961 318.000767 252.674686"></polygon>
                <polygon id="Fill-343" points="301.762177 262.051928 302.912705 262.714202 304.063232 262.051928 302.912705 261.386835"></polygon>
                <polygon id="Fill-344" points="286.674116 270.764735 287.824643 271.427009 288.97517 270.764735 287.824643 270.099642"></polygon>
                <polygon id="Fill-345" points="273.886451 279.47679 272.736863 278.812637 271.586335 279.47679 272.736863 280.140943"></polygon>
                <polygon id="Fill-346" points="258.798483 288.189597 257.648895 287.525444 256.498367 288.189597 257.648895 288.85375"></polygon>
                <polygon id="Fill-347" points="242.560363 297.566369 243.709951 296.902216 242.560363 296.238063 241.410775 296.902216"></polygon>
                <polygon id="Fill-348" points="226.32168 305.614459 227.472207 306.279552 228.622735 305.614459 227.472207 304.952185"></polygon>
                <polygon id="Fill-349" points="211.233524 314.32736 212.384051 314.992453 213.534579 314.32736 212.384051 313.665086"></polygon>
                <polygon id="Fill-350" points="196.14396 323.042233 197.296365 323.704508 198.446893 323.042233 197.296365 322.377141"></polygon>
                <polygon id="Fill-359" points="423.617764 175.585852 424.767352 174.921699 423.617764 174.257546 422.468175 174.921699"></polygon>
                <polygon id="Fill-360" points="408.529608 184.298753 409.680135 183.6346 408.529608 182.970447 407.38002 183.6346"></polygon>
                <polygon id="Fill-361" points="392.290925 192.348816 393.441452 193.01109 394.591979 192.348816 393.441452 191.683723"></polygon>
                <polygon id="Fill-362" points="377.202863 201.061623 378.35339 201.723897 379.503917 201.061623 378.35339 200.39653"></polygon>
                <polygon id="Fill-363" points="364.415292 209.773772 363.265704 209.109619 362.115176 209.773772 363.265704 210.437925"></polygon>
                <polygon id="Fill-364" points="349.327136 218.486485 348.177548 217.822332 347.027021 218.486485 348.177548 219.150638"></polygon>
                <polygon id="Fill-365" points="333.089016 227.863257 334.238604 227.199104 333.089016 226.534951 331.939428 227.199104"></polygon>
                <polygon id="Fill-366" points="318.000954 236.576158 319.151482 235.912004 318.000954 235.247851 316.851366 235.912004"></polygon>
                <polygon id="Fill-367" points="302.912799 245.288965 304.062387 244.624811 302.912799 243.960658 301.763211 244.624811"></polygon>
                <polygon id="Fill-368" points="286.674116 253.336961 287.824643 254.002053 288.97517 253.336961 287.824643 252.674686"></polygon>
                <polygon id="Fill-369" points="271.586054 262.051928 272.736581 262.714202 273.887108 262.051928 272.736581 261.386835"></polygon>
                <polygon id="Fill-370" points="256.497992 270.764735 257.648519 271.427009 258.799046 270.764735 257.648519 270.099642"></polygon>
                <polygon id="Fill-371" points="243.710327 279.47679 242.560739 278.812637 241.410212 279.47679 242.560739 280.140943"></polygon>
                <polygon id="Fill-372" points="228.622359 288.189597 227.471832 287.525444 226.322244 288.189597 227.471832 288.85375"></polygon>
                <polygon id="Fill-373" points="212.384145 297.566369 213.534673 296.902216 212.384145 296.238063 211.234557 296.902216"></polygon>
                <polygon id="Fill-374" points="196.14396 305.614459 197.296365 306.279552 198.446893 305.614459 197.296365 304.952185"></polygon>
                <polygon id="Fill-375" points="181.0574 314.32736 182.207928 314.992453 183.358455 314.32736 182.207928 313.665086"></polygon>
                <polygon id="Fill-383" points="424.767821 157.496273 423.618233 156.83212 422.467706 157.496273 423.618233 158.160426"></polygon>
                <polygon id="Fill-384" points="408.529608 166.873139 409.680135 166.208986 408.529608 165.544833 407.38002 166.208986"></polygon>
                <polygon id="Fill-385" points="393.44164 175.585852 394.591228 174.921699 393.44164 174.257546 392.292052 174.921699"></polygon>
                <polygon id="Fill-386" points="378.353484 184.298753 379.503072 183.6346 378.353484 182.970447 377.203896 183.6346"></polygon>
                <polygon id="Fill-387" points="362.114801 192.348816 363.265328 193.01109 364.415855 192.348816 363.265328 191.683723"></polygon>
                <polygon id="Fill-388" points="347.026645 201.061623 348.177172 201.723897 349.3277 201.061623 348.177172 200.39653"></polygon>
                <polygon id="Fill-389" points="334.239074 209.773772 333.089486 209.109619 331.938959 209.773772 333.089486 210.437925"></polygon>
                <polygon id="Fill-390" points="319.151012 218.486485 318.000485 217.822332 316.850897 218.486485 318.000485 219.150638"></polygon>
                <polygon id="Fill-391" points="302.912799 227.863257 304.062387 227.199104 302.912799 226.534951 301.763211 227.199104"></polygon>
                <polygon id="Fill-392" points="287.824737 236.576158 288.974325 235.912004 287.824737 235.247851 286.675149 235.912004"></polygon>
                <polygon id="Fill-393" points="272.736769 245.288965 273.886357 244.624811 272.736769 243.960658 271.587181 244.624811"></polygon>
                <polygon id="Fill-394" points="256.497992 253.336961 257.648519 254.002053 258.799046 253.336961 257.648519 252.674686"></polygon>
                <polygon id="Fill-395" points="241.409836 262.051928 242.560363 262.714202 243.71089 262.051928 242.560363 261.386835"></polygon>
                <polygon id="Fill-396" points="226.32168 270.764735 227.472207 271.427009 228.622735 270.764735 227.472207 270.099642"></polygon>
                <polygon id="Fill-397" points="213.534203 279.47679 212.383676 278.812637 211.234088 279.47679 212.383676 280.140943"></polygon>
                <polygon id="Fill-398" points="198.445953 288.189597 197.296365 287.525444 196.144899 288.189597 197.296365 288.85375"></polygon>
                <polygon id="Fill-399" points="182.208022 297.566369 183.35761 296.902216 182.208022 296.238063 181.058433 296.902216"></polygon>
                <polygon id="Fill-400" points="165.969245 305.614459 167.119772 306.279552 168.270299 305.614459 167.119772 304.952185"></polygon>
                <polygon id="Fill-407" points="422.467236 140.071411 423.617764 140.733685 424.768291 140.071411 423.617764 139.406318"></polygon>
                <polygon id="Fill-408" points="409.679759 148.783372 408.529232 148.119219 407.379644 148.783372 408.529232 149.447526"></polygon>
                <polygon id="Fill-409" points="394.591416 157.496273 393.441828 156.83212 392.2913 157.496273 393.441828 158.160426"></polygon>
                <polygon id="Fill-410" points="378.353484 166.873139 379.503072 166.208986 378.353484 165.544833 377.203896 166.208986"></polygon>
                <polygon id="Fill-411" points="363.265234 175.585852 364.414822 174.921699 363.265234 174.257546 362.115646 174.921699"></polygon>
                <polygon id="Fill-412" points="348.177172 184.298753 349.32676 183.6346 348.177172 182.970447 347.027584 183.6346"></polygon>
                <polygon id="Fill-413" points="331.938583 192.348816 333.08911 193.01109 334.239638 192.348816 333.08911 191.683723"></polygon>
                <polygon id="Fill-414" points="316.850239 201.061623 318.000767 201.723897 319.151294 201.061623 318.000767 200.39653"></polygon>
                <polygon id="Fill-415" points="304.062762 209.773772 302.913174 209.109619 301.762647 209.773772 302.913174 210.437925"></polygon>
                <polygon id="Fill-416" points="288.974607 218.486485 287.825018 217.822332 286.67543 218.486485 287.825018 219.150638"></polygon>
                <polygon id="Fill-417" points="272.736769 227.863257 273.886357 227.199104 272.736769 226.534951 271.587181 227.199104"></polygon>
                <polygon id="Fill-418" points="257.648425 236.576158 258.798013 235.912004 257.648425 235.247851 256.498837 235.912004"></polygon>
                <polygon id="Fill-419" points="242.560363 245.288965 243.709951 244.624811 242.560363 243.960658 241.410775 244.624811"></polygon>
                <polygon id="Fill-420" points="226.32168 253.336961 227.472207 254.002053 228.622735 253.336961 227.472207 252.674686"></polygon>
                <polygon id="Fill-421" points="211.233524 262.051928 212.384051 262.714202 213.534579 262.051928 212.384051 261.386835"></polygon>
                <polygon id="Fill-422" points="196.14396 270.764735 197.296365 271.427009 198.446893 270.764735 197.296365 270.099642"></polygon>
                <polygon id="Fill-423" points="183.357798 279.47679 182.208209 278.812637 181.057682 279.47679 182.208209 280.140943"></polygon>
                <polygon id="Fill-424" points="168.269736 288.189597 167.120148 287.525444 165.96962 288.189597 167.120148 288.85375"></polygon>
                <polygon id="Fill-425" points="150.88184 296.902498 152.031428 297.566651 153.181955 296.902498 152.031428 296.238345"></polygon>
                <polygon id="Fill-431" points="422.467236 122.643543 423.617764 123.308635 424.768291 122.643543 423.617764 121.981268"></polygon>
                <polygon id="Fill-432" points="407.37908 131.356444 408.529608 132.021536 409.680135 131.356444 408.529608 130.694169"></polygon>
                <polygon id="Fill-433" points="392.290925 140.071411 393.441452 140.733685 394.591979 140.071411 393.441452 139.406318"></polygon>
                <polygon id="Fill-434" points="379.503354 148.783372 378.353766 148.119219 377.203238 148.783372 378.353766 149.447526"></polygon>
                <polygon id="Fill-435" points="364.415292 157.496273 363.265704 156.83212 362.115176 157.496273 363.265704 158.160426"></polygon>
                <polygon id="Fill-436" points="348.177172 166.873139 349.32676 166.208986 348.177172 165.544833 347.027584 166.208986"></polygon>
                <polygon id="Fill-437" points="333.089016 175.585852 334.238604 174.921699 333.089016 174.257546 331.939428 174.921699"></polygon>
                <polygon id="Fill-438" points="318.000954 184.298753 319.151482 183.6346 318.000954 182.970447 316.851366 183.6346"></polygon>
                <polygon id="Fill-439" points="301.762177 192.348816 302.912705 193.01109 304.063232 192.348816 302.912705 191.683723"></polygon>
                <polygon id="Fill-440" points="286.674116 201.061623 287.824643 201.723897 288.97517 201.061623 287.824643 200.39653"></polygon>
                <polygon id="Fill-441" points="273.886451 209.773772 272.736863 209.109619 271.586335 209.773772 272.736863 210.437925"></polygon>
                <polygon id="Fill-442" points="258.798483 218.486485 257.648895 217.822332 256.498367 218.486485 257.648895 219.150638"></polygon>
                <polygon id="Fill-443" points="242.560363 227.863257 243.709951 227.199104 242.560363 226.534951 241.410775 227.199104"></polygon>
                <polygon id="Fill-444" points="227.472207 236.576158 228.622735 235.912004 227.472207 235.247851 226.322619 235.912004"></polygon>
                <polygon id="Fill-445" points="212.384145 245.288965 213.534673 244.624811 212.384145 243.960658 211.234557 244.624811"></polygon>
                <polygon id="Fill-446" points="196.14396 253.336961 197.296365 254.002053 198.446893 253.336961 197.296365 252.674686"></polygon>
                <polygon id="Fill-447" points="181.0574 262.051928 182.207928 262.714202 183.358455 262.051928 182.207928 261.386835"></polygon>
                <polygon id="Fill-448" points="165.969245 270.764735 167.119772 271.427009 168.270299 270.764735 167.119772 270.099642"></polygon>
                <polygon id="Fill-449" points="150.88184 279.47679 152.031428 280.140943 153.181955 279.47679 152.031428 278.812637"></polygon>
                <polygon id="Fill-450" points="135.795093 288.189597 136.942803 288.85375 138.094269 288.189597 136.942803 287.525444"></polygon>
                <polygon id="Fill-455" points="423.617764 105.88274 424.767352 105.218587 423.617764 104.554434 422.468175 105.218587"></polygon>
                <polygon id="Fill-456" points="408.529608 114.595641 409.680135 113.931488 408.529608 113.267334 407.38002 113.931488"></polygon>
                <polygon id="Fill-457" points="392.290925 122.643543 393.441452 123.308635 394.591979 122.643543 393.441452 121.981268"></polygon>
                <polygon id="Fill-458" points="377.202863 131.356444 378.35339 132.021536 379.503917 131.356444 378.35339 130.694169"></polygon>
                <polygon id="Fill-459" points="362.114801 140.071411 363.265328 140.733685 364.415855 140.071411 363.265328 139.406318"></polygon>
                <polygon id="Fill-460" points="349.327136 148.783372 348.177548 148.119219 347.027021 148.783372 348.177548 149.447526"></polygon>
                <polygon id="Fill-461" points="334.239074 157.496273 333.089486 156.83212 331.938959 157.496273 333.089486 158.160426"></polygon>
                <polygon id="Fill-462" points="318.000954 166.873139 319.151482 166.208986 318.000954 165.544833 316.851366 166.208986"></polygon>
                <polygon id="Fill-463" points="302.912799 175.585852 304.062387 174.921699 302.912799 174.257546 301.763211 174.921699"></polygon>
                <polygon id="Fill-464" points="287.824737 184.298753 288.974325 183.6346 287.824737 182.970447 286.675149 183.6346"></polygon>
                <polygon id="Fill-465" points="271.586054 192.348816 272.736581 193.01109 273.887108 192.348816 272.736581 191.683723"></polygon>
                <polygon id="Fill-466" points="256.497992 201.061623 257.648519 201.723897 258.799046 201.061623 257.648519 200.39653"></polygon>
                <polygon id="Fill-467" points="243.710327 209.773772 242.560739 209.109619 241.410212 209.773772 242.560739 210.437925"></polygon>
                <polygon id="Fill-468" points="228.622359 218.486485 227.471832 217.822332 226.322244 218.486485 227.471832 219.150638"></polygon>
                <polygon id="Fill-469" points="212.384145 227.863257 213.534673 227.199104 212.384145 226.534951 211.234557 227.199104"></polygon>
                <polygon id="Fill-470" points="197.296083 236.576158 198.445672 235.912004 197.296083 235.247851 196.144617 235.912004"></polygon>
                <polygon id="Fill-471" points="182.208022 245.288965 183.35761 244.624811 182.208022 243.960658 181.058433 244.624811"></polygon>
                <polygon id="Fill-472" points="165.969245 253.336961 167.119772 254.002053 168.270299 253.336961 167.119772 252.674686"></polygon>
                <polygon id="Fill-473" points="150.881183 262.051928 152.03171 262.714202 153.182237 262.051928 152.03171 261.386835"></polygon>
                <polygon id="Fill-474" points="135.794436 270.764735 136.943084 271.427009 138.09549 270.764735 136.943084 270.099642"></polygon>
                <polygon id="Fill-475" points="120.704214 279.47679 121.85568 280.140943 123.005268 279.47679 121.85568 278.812637"></polygon>
                <polygon id="Fill-479" points="424.767821 87.793161 423.618233 87.1290078 422.467706 87.793161 423.618233 88.4573142"></polygon>
                <polygon id="Fill-480" points="409.679759 96.5058739 408.529232 95.8417207 407.379644 96.5058739 408.529232 97.1700271"></polygon>
                <polygon id="Fill-481" points="393.44164 105.88274 394.591228 105.218587 393.44164 104.554434 392.292052 105.218587"></polygon>
                <polygon id="Fill-482" points="378.353484 114.595641 379.503072 113.931488 378.353484 113.267334 377.203896 113.931488"></polygon>
                <polygon id="Fill-483" points="362.114801 122.643543 363.265328 123.308635 364.415855 122.643543 363.265328 121.981268"></polygon>
                <polygon id="Fill-484" points="347.026645 131.356444 348.177172 132.021536 349.3277 131.356444 348.177172 130.694169"></polygon>
                <polygon id="Fill-485" points="331.938583 140.071411 333.08911 140.733685 334.239638 140.071411 333.08911 139.406318"></polygon>
                <polygon id="Fill-486" points="319.151012 148.783372 318.000485 148.119219 316.850897 148.783372 318.000485 149.447526"></polygon>
                <polygon id="Fill-487" points="304.062762 157.496273 302.913174 156.83212 301.762647 157.496273 302.913174 158.160426"></polygon>
                <polygon id="Fill-488" points="287.824737 166.873139 288.974325 166.208986 287.824737 165.544833 286.675149 166.208986"></polygon>
                <polygon id="Fill-489" points="272.736769 175.585852 273.886357 174.921699 272.736769 174.257546 271.587181 174.921699"></polygon>
                <polygon id="Fill-490" points="257.648425 184.298753 258.798013 183.6346 257.648425 182.970447 256.498837 183.6346"></polygon>
                <polygon id="Fill-491" points="241.409836 192.348816 242.560363 193.01109 243.71089 192.348816 242.560363 191.683723"></polygon>
                <polygon id="Fill-492" points="226.32168 201.061623 227.472207 201.723897 228.622735 201.061623 227.472207 200.39653"></polygon>
                <polygon id="Fill-493" points="213.534203 209.773772 212.383676 209.109619 211.234088 209.773772 212.383676 210.437925"></polygon>
                <polygon id="Fill-494" points="198.445953 218.486485 197.296365 217.822332 196.144899 218.486485 197.296365 219.150638"></polygon>
                <polygon id="Fill-495" points="182.208022 227.863257 183.35761 227.199104 182.208022 226.534951 181.058433 227.199104"></polygon>
                <polygon id="Fill-496" points="167.119772 236.576158 168.26936 235.912004 167.119772 235.247851 165.970184 235.912004"></polygon>
                <polygon id="Fill-497" points="152.031616 245.288965 153.182143 244.624811 152.031616 243.960658 150.882028 244.624811"></polygon>
                <polygon id="Fill-498" points="135.794436 253.336961 136.943084 254.002053 138.09549 253.336961 136.943084 252.674686"></polygon>
                <polygon id="Fill-499" points="120.703556 262.051928 121.855023 262.714202 123.00555 262.051928 121.855023 261.386835"></polygon>
                <polygon id="Fill-500" points="105.615494 270.764735 106.7679 271.427009 107.917488 270.764735 106.7679 270.099642"></polygon>
                <polygon id="Fill-503" points="422.467236 70.3661382 423.617764 71.0312308 424.768291 70.3661382 423.617764 69.7038638"></polygon>
                <polygon id="Fill-504" points="407.37908 79.0811056 408.529608 79.74338 409.680135 79.0811056 408.529608 78.4160131"></polygon>
                <polygon id="Fill-505" points="394.591416 87.793161 393.441828 87.1290078 392.2913 87.793161 393.441828 88.4573142"></polygon>
                <polygon id="Fill-506" points="379.503354 96.5058739 378.353766 95.8417207 377.203238 96.5058739 378.353766 97.1700271"></polygon>
                <polygon id="Fill-507" points="363.265234 105.88274 364.414822 105.218587 363.265234 104.554434 362.115646 105.218587"></polygon>
                <polygon id="Fill-508" points="348.177172 114.595641 349.32676 113.931488 348.177172 113.267334 347.027584 113.931488"></polygon>
                <polygon id="Fill-509" points="331.938583 122.643543 333.08911 123.308635 334.239638 122.643543 333.08911 121.981268"></polygon>
                <polygon id="Fill-510" points="316.850239 131.356444 318.000767 132.021536 319.151294 131.356444 318.000767 130.694169"></polygon>
                <polygon id="Fill-511" points="301.762177 140.071411 302.912705 140.733685 304.063232 140.071411 302.912705 139.406318"></polygon>
                <polygon id="Fill-512" points="288.974607 148.783372 287.825018 148.119219 286.67543 148.783372 287.825018 149.447526"></polygon>
                <polygon id="Fill-513" points="273.886451 157.496273 272.736863 156.83212 271.586335 157.496273 272.736863 158.160426"></polygon>
                <polygon id="Fill-514" points="257.648425 166.873139 258.798013 166.208986 257.648425 165.544833 256.498837 166.208986"></polygon>
                <polygon id="Fill-515" points="242.560363 175.585852 243.709951 174.921699 242.560363 174.257546 241.410775 174.921699"></polygon>
                <polygon id="Fill-516" points="227.472207 184.298753 228.622735 183.6346 227.472207 182.970447 226.322619 183.6346"></polygon>
                <polygon id="Fill-517" points="211.233524 192.348816 212.384051 193.01109 213.534579 192.348816 212.384051 191.683723"></polygon>
                <polygon id="Fill-518" points="196.14396 201.061623 197.296365 201.723897 198.446893 201.061623 197.296365 200.39653"></polygon>
                <polygon id="Fill-519" points="183.357798 209.773772 182.208209 209.109619 181.057682 209.773772 182.208209 210.437925"></polygon>
                <polygon id="Fill-520" points="168.269736 218.486485 167.120148 217.822332 165.96962 218.486485 167.120148 219.150638"></polygon>
                <polygon id="Fill-521" points="152.031616 227.863257 153.182143 227.199104 152.031616 226.534951 150.882028 227.199104"></polygon>
                <polygon id="Fill-522" points="136.942897 236.576158 138.094363 235.912004 136.942897 235.247851 135.795187 235.912004"></polygon>
                <polygon id="Fill-523" points="121.855398 245.288965 123.004986 244.624811 121.855398 243.960658 120.703932 244.624811"></polygon>
                <polygon id="Fill-524" points="105.615494 253.336961 106.7679 254.002053 107.917488 253.336961 106.7679 252.674686"></polygon>
                <polygon id="Fill-525" points="90.5285593 262.051928 91.6790866 262.714202 92.8277355 262.051928 91.6790866 261.386835"></polygon>
                <polygon id="Fill-527" points="424.767821 52.9411821 423.618233 52.2770289 422.467706 52.9411821 423.618233 53.6053353"></polygon>
                <polygon id="Fill-528" points="409.679759 61.6540829 408.529232 60.9899297 407.379644 61.6540829 408.529232 62.3182361"></polygon>
                <polygon id="Fill-529" points="392.290925 70.3661382 393.441452 71.0312308 394.591979 70.3661382 393.441452 69.7038638"></polygon>
                <polygon id="Fill-530" points="377.202863 79.0811056 378.35339 79.74338 379.503917 79.0811056 378.35339 78.4160131"></polygon>
                <polygon id="Fill-531" points="364.415292 87.793161 363.265704 87.1290078 362.115176 87.793161 363.265704 88.4573142"></polygon>
                <polygon id="Fill-532" points="349.327136 96.5058739 348.177548 95.8417207 347.027021 96.5058739 348.177548 97.1700271"></polygon>
                <polygon id="Fill-533" points="333.089016 105.88274 334.238604 105.218587 333.089016 104.554434 331.939428 105.218587"></polygon>
                <polygon id="Fill-534" points="318.000954 114.595641 319.151482 113.931488 318.000954 113.267334 316.851366 113.931488"></polygon>
                <polygon id="Fill-535" points="301.762177 122.643543 302.912705 123.308635 304.063232 122.643543 302.912705 121.981268"></polygon>
                <polygon id="Fill-536" points="286.674116 131.356444 287.824643 132.021536 288.97517 131.356444 287.824643 130.694169"></polygon>
                <polygon id="Fill-537" points="271.586054 140.071411 272.736581 140.733685 273.887108 140.071411 272.736581 139.406318"></polygon>
                <polygon id="Fill-538" points="258.798483 148.783372 257.648895 148.119219 256.498367 148.783372 257.648895 149.447526"></polygon>
                <polygon id="Fill-539" points="243.710327 157.496273 242.560739 156.83212 241.410212 157.496273 242.560739 158.160426"></polygon>
                <polygon id="Fill-540" points="227.472207 166.873139 228.622735 166.208986 227.472207 165.544833 226.322619 166.208986"></polygon>
                <polygon id="Fill-541" points="212.384145 175.585852 213.534673 174.921699 212.384145 174.257546 211.234557 174.921699"></polygon>
                <polygon id="Fill-542" points="197.296083 184.298753 198.445672 183.6346 197.296083 182.970447 196.144617 183.6346"></polygon>
                <polygon id="Fill-543" points="181.0574 192.348816 182.207928 193.01109 183.358455 192.348816 182.207928 191.683723"></polygon>
                <polygon id="Fill-544" points="165.969245 201.061623 167.119772 201.723897 168.270299 201.061623 167.119772 200.39653"></polygon>
                <polygon id="Fill-545" points="153.181768 209.773772 152.03124 209.109619 150.881652 209.773772 152.03124 210.437925"></polygon>
                <polygon id="Fill-546" points="138.094269 218.486485 136.942803 217.822332 135.795093 218.486485 136.942803 219.150638"></polygon>
                <polygon id="Fill-547" points="121.855398 227.863257 123.004986 227.199104 121.855398 226.534951 120.703932 227.199104"></polygon>
                <polygon id="Fill-548" points="106.76743 236.576158 107.917018 235.912004 106.76743 235.247851 105.615964 235.912004"></polygon>
                <polygon id="Fill-549" points="91.6792744 245.288965 92.8269841 244.624811 91.6792744 243.960658 90.5296864 244.624811"></polygon>
                <polygon id="Fill-550" points="75.4420001 253.336961 76.590649 254.002053 77.7411763 253.336961 76.590649 252.674686"></polygon>
                <polygon id="Fill-551" points="424.767821 35.5155684 423.618233 34.8514152 422.467706 35.5155684 423.618233 36.1797216"></polygon>
                <polygon id="Fill-552" points="409.679759 44.2284692 408.529232 43.564316 407.379644 44.2284692 408.529232 44.8926224"></polygon>
                <polygon id="Fill-553" points="393.44164 53.6052413 394.591228 52.9410882 393.44164 52.276935 392.292052 52.9410882"></polygon>
                <polygon id="Fill-554" points="378.353484 62.3180482 379.503072 61.653895 378.353484 60.9897418 377.203896 61.653895"></polygon>
                <polygon id="Fill-555" points="362.114801 70.3661382 363.265328 71.0312308 364.415855 70.3661382 363.265328 69.7038638"></polygon>
                <polygon id="Fill-556" points="347.026645 79.0811056 348.177172 79.74338 349.3277 79.0811056 348.177172 78.4160131"></polygon>
                <polygon id="Fill-557" points="334.239074 87.793161 333.089486 87.1290078 331.938959 87.793161 333.089486 88.4573142"></polygon>
                <polygon id="Fill-558" points="319.151012 96.5058739 318.000485 95.8417207 316.850897 96.5058739 318.000485 97.1700271"></polygon>
                <polygon id="Fill-559" points="302.912799 105.88274 304.062387 105.218587 302.912799 104.554434 301.763211 105.218587"></polygon>
                <polygon id="Fill-560" points="287.824737 114.595641 288.974325 113.931488 287.824737 113.267334 286.675149 113.931488"></polygon>
                <polygon id="Fill-561" points="271.586054 122.643543 272.736581 123.308635 273.887108 122.643543 272.736581 121.981268"></polygon>
                <polygon id="Fill-562" points="256.497992 131.356444 257.648519 132.021536 258.799046 131.356444 257.648519 130.694169"></polygon>
                <polygon id="Fill-563" points="241.409836 140.071411 242.560363 140.733685 243.71089 140.071411 242.560363 139.406318"></polygon>
                <polygon id="Fill-564" points="228.622359 148.783372 227.471832 148.119219 226.322244 148.783372 227.471832 149.447526"></polygon>
                <polygon id="Fill-565" points="213.534203 157.496273 212.383676 156.83212 211.234088 157.496273 212.383676 158.160426"></polygon>
                <polygon id="Fill-566" points="197.296083 166.873139 198.445672 166.208986 197.296083 165.544833 196.144617 166.208986"></polygon>
                <polygon id="Fill-567" points="182.208022 175.585852 183.35761 174.921699 182.208022 174.257546 181.058433 174.921699"></polygon>
                <polygon id="Fill-568" points="167.119772 184.298753 168.26936 183.6346 167.119772 182.970447 165.970184 183.6346"></polygon>
                <polygon id="Fill-569" points="150.881183 192.348816 152.03171 193.01109 153.182237 192.348816 152.03171 191.683723"></polygon>
                <polygon id="Fill-570" points="135.794436 201.061623 136.943084 201.723897 138.09549 201.061623 136.943084 200.39653"></polygon>
                <polygon id="Fill-571" points="123.005362 209.773772 121.855774 209.109619 120.704307 209.773772 121.855774 210.437925"></polygon>
                <polygon id="Fill-572" points="107.9173 218.486485 106.767712 217.822332 105.616246 218.486485 106.767712 219.150638"></polygon>
                <polygon id="Fill-573" points="91.6792744 227.863257 92.8269841 227.199104 91.6792744 226.534951 90.5296864 227.199104"></polygon>
                <polygon id="Fill-574" points="76.5904612 236.576158 77.7400493 235.912004 76.5904612 235.247851 75.4427515 235.912004"></polygon>
                <polygon id="Fill-575" points="60.3524355 244.624999 61.5020236 245.289152 62.6534901 244.624999 61.5020236 243.960846"></polygon>
                <polygon id="Fill-576" points="409.679759 26.8028555 408.529232 26.1387023 407.379644 26.8028555 408.529232 27.4670087"></polygon>
                <polygon id="Fill-577" points="394.591416 35.5155684 393.441828 34.8514152 392.2913 35.5155684 393.441828 36.1797216"></polygon>
                <polygon id="Fill-578" points="378.353484 44.8926224 379.503072 44.2284692 378.353484 43.564316 377.203896 44.2284692"></polygon>
                <polygon id="Fill-579" points="363.265234 53.6052413 364.414822 52.9410882 363.265234 52.276935 362.115646 52.9410882"></polygon>
                <polygon id="Fill-580" points="348.177172 62.3180482 349.32676 61.653895 348.177172 60.9897418 347.027584 61.653895"></polygon>
                <polygon id="Fill-581" points="331.938583 70.3661382 333.08911 71.0312308 334.239638 70.3661382 333.08911 69.7038638"></polygon>
                <polygon id="Fill-582" points="316.850239 79.0811056 318.000767 79.74338 319.151294 79.0811056 318.000767 78.4160131"></polygon>
                <polygon id="Fill-583" points="304.062762 87.793161 302.913174 87.1290078 301.762647 87.793161 302.913174 88.4573142"></polygon>
                <polygon id="Fill-584" points="288.974607 96.5058739 287.825018 95.8417207 286.67543 96.5058739 287.825018 97.1700271"></polygon>
                <polygon id="Fill-585" points="272.736769 105.88274 273.886357 105.218587 272.736769 104.554434 271.587181 105.218587"></polygon>
                <polygon id="Fill-586" points="257.648425 114.595641 258.798013 113.931488 257.648425 113.267334 256.498837 113.931488"></polygon>
                <polygon id="Fill-587" points="241.409836 122.643543 242.560363 123.308635 243.71089 122.643543 242.560363 121.981268"></polygon>
                <polygon id="Fill-588" points="226.32168 131.356444 227.472207 132.021536 228.622735 131.356444 227.472207 130.694169"></polygon>
                <polygon id="Fill-589" points="211.233524 140.071411 212.384051 140.733685 213.534579 140.071411 212.384051 139.406318"></polygon>
                <polygon id="Fill-590" points="198.445953 148.783372 197.296365 148.119219 196.144899 148.783372 197.296365 149.447526"></polygon>
                <polygon id="Fill-591" points="183.357798 157.496273 182.208209 156.83212 181.057682 157.496273 182.208209 158.160426"></polygon>
                <polygon id="Fill-592" points="167.119772 166.873139 168.26936 166.208986 167.119772 165.544833 165.970184 166.208986"></polygon>
                <polygon id="Fill-593" points="152.031616 175.585852 153.182143 174.921699 152.031616 174.257546 150.882028 174.921699"></polygon>
                <polygon id="Fill-594" points="136.942897 184.298753 138.094363 183.6346 136.942897 182.970447 135.795187 183.6346"></polygon>
                <polygon id="Fill-595" points="120.703556 192.348816 121.855023 193.01109 123.00555 192.348816 121.855023 191.683723"></polygon>
                <polygon id="Fill-596" points="105.615494 201.061623 106.7679 201.723897 107.917488 201.061623 106.7679 200.39653"></polygon>
                <polygon id="Fill-597" points="92.827078 209.773772 91.6793684 209.109619 90.5297803 209.773772 91.6793684 210.437925"></polygon>
                <polygon id="Fill-598" points="77.7402371 218.486485 76.590649 217.822332 75.4429393 218.486485 76.590649 219.150638"></polygon>
                <polygon id="Fill-599" points="60.3524355 227.199386 61.5020236 227.863539 62.6534901 227.199386 61.5020236 226.535232"></polygon>
                <polygon id="Fill-600" points="45.2642797 235.912098 46.4138677 236.576252 47.5653342 235.912098 46.4138677 235.247945"></polygon>
                <polygon id="Fill-601" points="392.290925 18.0908002 393.441452 18.7530746 394.591979 18.0908002 393.441452 17.4257076"></polygon>
                <polygon id="Fill-602" points="379.503354 26.8028555 378.353766 26.1387023 377.203238 26.8028555 378.353766 27.4670087"></polygon>
                <polygon id="Fill-603" points="364.415292 35.5155684 363.265704 34.8514152 362.115176 35.5155684 363.265704 36.1797216"></polygon>
                <polygon id="Fill-604" points="348.177172 44.8926224 349.32676 44.2284692 348.177172 43.564316 347.027584 44.2284692"></polygon>
                <polygon id="Fill-605" points="333.089016 53.6052413 334.238604 52.9410882 333.089016 52.276935 331.939428 52.9410882"></polygon>
                <polygon id="Fill-606" points="319.151012 61.6540829 318.000485 60.9899297 316.850897 61.6540829 318.000485 62.3182361"></polygon>
                <polygon id="Fill-607" points="301.762177 70.3661382 302.912705 71.0312308 304.063232 70.3661382 302.912705 69.7038638"></polygon>
                <polygon id="Fill-608" points="286.674116 79.0811056 287.824643 79.74338 288.97517 79.0811056 287.824643 78.4160131"></polygon>
                <polygon id="Fill-609" points="273.886451 87.793161 272.736863 87.1290078 271.586335 87.793161 272.736863 88.4573142"></polygon>
                <polygon id="Fill-610" points="258.798483 96.5058739 257.648895 95.8417207 256.498367 96.5058739 257.648895 97.1700271"></polygon>
                <polygon id="Fill-611" points="242.560363 105.88274 243.709951 105.218587 242.560363 104.554434 241.410775 105.218587"></polygon>
                <polygon id="Fill-612" points="227.472207 114.595641 228.622735 113.931488 227.472207 113.267334 226.322619 113.931488"></polygon>
                <polygon id="Fill-613" points="211.233524 122.643543 212.384051 123.308635 213.534579 122.643543 212.384051 121.981268"></polygon>
                <polygon id="Fill-614" points="196.14396 131.356444 197.296365 132.021536 198.446893 131.356444 197.296365 130.694169"></polygon>
                <polygon id="Fill-615" points="181.0574 140.071411 182.207928 140.733685 183.358455 140.071411 182.207928 139.406318"></polygon>
                <polygon id="Fill-616" points="168.269736 148.783372 167.120148 148.119219 165.96962 148.783372 167.120148 149.447526"></polygon>
                <polygon id="Fill-617" points="153.181768 157.496273 152.03124 156.83212 150.881652 157.496273 152.03124 158.160426"></polygon>
                <polygon id="Fill-618" points="136.942897 166.873139 138.094363 166.208986 136.942897 165.544833 135.795187 166.208986"></polygon>
                <polygon id="Fill-619" points="121.855398 175.585852 123.004986 174.921699 121.855398 174.257546 120.703932 174.921699"></polygon>
                <polygon id="Fill-620" points="107.9173 183.6346 106.767712 182.970447 105.616246 183.6346 106.767712 184.298753"></polygon>
                <polygon id="Fill-621" points="90.5285593 192.348816 91.6790866 193.01109 92.8277355 192.348816 91.6790866 191.683723"></polygon>
                <polygon id="Fill-622" points="75.4420001 201.061623 76.590649 201.723897 77.7411763 201.061623 76.590649 200.39653"></polygon>
                <polygon id="Fill-623" points="60.3524355 209.773772 61.5020236 210.437925 62.6534901 209.773772 61.5020236 209.109619"></polygon>
                <polygon id="Fill-624" points="45.2642797 218.486485 46.4138677 219.150638 47.5653342 218.486485 46.4138677 217.822332"></polygon>
                <polygon id="Fill-625" points="30.1755603 227.199386 31.3270268 227.863539 32.4766149 227.199386 31.3270268 226.535232"></polygon>
                <polygon id="Fill-626" points="377.202863 9.37789943 378.35339 10.0401738 379.503917 9.37789943 378.35339 8.71280684"></polygon>
                <polygon id="Fill-627" points="362.114801 18.0908002 363.265328 18.7530746 364.415855 18.0908002 363.265328 17.4257076"></polygon>
                <polygon id="Fill-628" points="349.327136 26.8028555 348.177548 26.1387023 347.027021 26.8028555 348.177548 27.4670087"></polygon>
                <polygon id="Fill-629" points="334.239074 35.5155684 333.089486 34.8514152 331.938959 35.5155684 333.089486 36.1797216"></polygon>
                <polygon id="Fill-630" points="319.151012 44.2284692 318.000485 43.564316 316.850897 44.2284692 318.000485 44.8926224"></polygon>
                <polygon id="Fill-631" points="304.062762 52.9411821 302.913174 52.2770289 301.762647 52.9411821 302.913174 53.6053353"></polygon>
                <polygon id="Fill-632" points="288.974607 61.6540829 287.825018 60.9899297 286.67543 61.6540829 287.825018 62.3182361"></polygon>
                <polygon id="Fill-633" points="271.586054 70.3661382 272.736581 71.0312308 273.887108 70.3661382 272.736581 69.7038638"></polygon>
                <polygon id="Fill-634" points="256.497992 79.0811056 257.648519 79.74338 258.799046 79.0811056 257.648519 78.4160131"></polygon>
                <polygon id="Fill-635" points="243.710327 87.793161 242.560739 87.1290078 241.410212 87.793161 242.560739 88.4573142"></polygon>
                <polygon id="Fill-636" points="228.622359 96.5058739 227.471832 95.8417207 226.322244 96.5058739 227.471832 97.1700271"></polygon>
                <polygon id="Fill-637" points="213.534203 105.218681 212.383676 104.554528 211.234088 105.218681 212.383676 105.882834"></polygon>
                <polygon id="Fill-638" points="198.445953 113.931581 197.296365 113.267428 196.144899 113.931581 197.296365 114.595735"></polygon>
                <polygon id="Fill-639" points="181.0574 122.643543 182.207928 123.308635 183.358455 122.643543 182.207928 121.981268"></polygon>
                <polygon id="Fill-640" points="165.969245 131.356444 167.119772 132.021536 168.270299 131.356444 167.119772 130.694169"></polygon>
                <polygon id="Fill-641" points="150.881183 140.071411 152.03171 140.733685 153.182237 140.071411 152.03171 139.406318"></polygon>
                <polygon id="Fill-642" points="138.094269 148.783372 136.942803 148.119219 135.795093 148.783372 136.942803 149.447526"></polygon>
                <polygon id="Fill-643" points="123.005362 157.496273 121.855774 156.83212 120.704307 157.496273 121.855774 158.160426"></polygon>
                <polygon id="Fill-644" points="107.9173 166.208986 106.767712 165.544833 105.616246 166.208986 106.767712 166.873139"></polygon>
                <polygon id="Fill-645" points="92.827078 174.921793 91.6793684 174.25764 90.5297803 174.921793 91.6793684 175.585946"></polygon>
                <polygon id="Fill-646" points="77.7402371 183.6346 76.590649 182.970447 75.4429393 183.6346 76.590649 184.298753"></polygon>
                <polygon id="Fill-647" points="60.351778 192.348816 61.5023053 193.01109 62.654711 192.348816 61.5023053 191.683723"></polygon>
                <polygon id="Fill-648" points="45.2636222 201.061623 46.4141495 201.723897 47.5665552 201.061623 46.4141495 200.39653"></polygon>
                <polygon id="Fill-649" points="30.1755603 209.773772 31.3270268 210.437925 32.4766149 209.773772 31.3270268 209.109619"></polygon>
                <polygon id="Fill-650" points="15.0873105 218.486485 16.238777 219.150638 17.3864867 218.486485 16.238777 217.822332"></polygon>
                <polygon id="Fill-651" points="363.26561 -0.000187879262 362.115083 0.663965312 363.26561 1.32717911 364.416137 0.663965312"></polygon>
                <polygon id="Fill-652" points="347.026645 9.37789943 348.177172 10.0401738 349.3277 9.37789943 348.177172 8.71280684"></polygon>
                <polygon id="Fill-653" points="331.938583 18.0908002 333.08911 18.7530746 334.239638 18.0908002 333.08911 17.4257076"></polygon>
                <polygon id="Fill-654" points="319.151012 26.8028555 318.000485 26.1387023 316.850897 26.8028555 318.000485 27.4670087"></polygon>
                <polygon id="Fill-655" points="304.062762 35.5155684 302.913174 34.8514152 301.762647 35.5155684 302.913174 36.1797216"></polygon>
                <polygon id="Fill-656" points="288.974607 44.2284692 287.825018 43.564316 286.67543 44.2284692 287.825018 44.8926224"></polygon>
                <polygon id="Fill-657" points="273.886451 52.9411821 272.736863 52.2770289 271.586335 52.9411821 272.736863 53.6053353"></polygon>
                <polygon id="Fill-658" points="258.798483 61.6540829 257.648895 60.9899297 256.498367 61.6540829 257.648895 62.3182361"></polygon>
                <polygon id="Fill-659" points="241.409836 70.3661382 242.560363 71.0312308 243.71089 70.3661382 242.560363 69.7038638"></polygon>
                <polygon id="Fill-660" points="226.32168 79.0811056 227.472207 79.74338 228.622735 79.0811056 227.472207 78.4160131"></polygon>
                <polygon id="Fill-661" points="213.534203 87.793161 212.383676 87.1290078 211.234088 87.793161 212.383676 88.4573142"></polygon>
                <polygon id="Fill-662" points="198.445953 96.5058739 197.296365 95.8417207 196.144899 96.5058739 197.296365 97.1700271"></polygon>
                <polygon id="Fill-663" points="183.357798 105.218681 182.208209 104.554528 181.057682 105.218681 182.208209 105.882834"></polygon>
                <polygon id="Fill-664" points="168.269736 113.931581 167.120148 113.267428 165.96962 113.931581 167.120148 114.595735"></polygon>
                <polygon id="Fill-665" points="150.881183 122.643543 152.03171 123.308635 153.182237 122.643543 152.03171 121.981268"></polygon>
                <polygon id="Fill-666" points="135.794436 131.356444 136.943084 132.021536 138.09549 131.356444 136.943084 130.694169"></polygon>
                <polygon id="Fill-667" points="120.703556 140.071411 121.855023 140.733685 123.00555 140.071411 121.855023 139.406318"></polygon>
                <polygon id="Fill-668" points="107.9173 148.783372 106.767712 148.119219 105.616246 148.783372 106.767712 149.447526"></polygon>
                <polygon id="Fill-669" points="92.827078 157.496273 91.6793684 156.83212 90.5297803 157.496273 91.6793684 158.160426"></polygon>
                <polygon id="Fill-670" points="77.7402371 166.208986 76.590649 165.544833 75.4429393 166.208986 76.590649 166.873139"></polygon>
                <polygon id="Fill-671" points="62.6536779 174.921793 61.5022114 174.25764 60.3526233 174.921793 61.5022114 175.585946"></polygon>
                <polygon id="Fill-672" points="47.5655221 183.6346 46.4140556 182.970447 45.2644675 183.6346 46.4140556 184.298753"></polygon>
                <polygon id="Fill-673" points="30.1749029 192.348816 31.3263694 193.01109 32.4778359 192.348816 31.3263694 191.683723"></polygon>
                <polygon id="Fill-674" points="15.086747 201.061623 16.2382135 201.723897 17.3868624 201.061623 16.2382135 200.39653"></polygon>
                <polygon id="Fill-675" points="392.291018 436.307877 393.441546 436.97203 394.592073 436.307877 393.441546 435.644663"></polygon>
            </g>
        </g>
    </g>
</svg>