<svg xmlns="http://www.w3.org/2000/svg" viewBox="0 0 629.61 363.5">
	<defs>
		<style>
			.cls-approach-1-1{fill:#5e5e5e;}.cls-approach-1-2,.cls-approach-1-3{fill:#fff;}.cls-approach-1-2,.cls-approach-1-4,.cls-approach-1-5{stroke:#000;}.cls-approach-1-2,.cls-approach-1-4,.cls-approach-1-5,.cls-approach-1-6,.cls-approach-1-7,.cls-approach-1-8{stroke-linecap:round;stroke-linejoin:round;}.cls-approach-1-2,.cls-approach-1-4,.cls-approach-1-6{stroke-width:0.5px;}.cls-approach-1-4,.cls-approach-1-5,.cls-approach-1-6,.cls-approach-1-7,.cls-approach-1-8{fill:none;}.cls-approach-1-5,.cls-approach-1-7{stroke-width:0.25px;}.cls-approach-1-6,.cls-approach-1-7{stroke:#231f20;}.cls-approach-1-8{stroke:#90d4d9;}
		</style>
	</defs>
	<g data-name="Layer 2">
		<path class="cls-approach-1-1 mesh" d="M628.13 181.91c.24.35.52.31.87.26s.81-.16.53-.58-.52-.31-.87-.26-.82.16-.53.58zM617.3 188.16c.24.35.52.31.87.26s.81-.16.53-.58-.52-.31-.87-.26-.83.16-.53.58zM606.47 194.41c.24.35.52.31.87.26s.81-.16.53-.58-.52-.31-.87-.26-.82.17-.53.58zM595.64 200.66c.24.35.52.31.87.26s.81-.16.53-.58-.52-.31-.87-.26-.81.16-.53.58zM584.81 206.91c.24.35.52.31.87.26s.81-.16.53-.58-.52-.31-.87-.26-.81.16-.53.58zM574 213.17c.24.35.52.31.87.26s.81-.16.53-.58-.52-.31-.87-.26-.83.15-.53.58zM563.16 219.42c.24.35.52.31.87.26s.81-.16.53-.58-.52-.31-.87-.26-.82.16-.53.58zM552.33 225.67c.24.35.52.31.87.26s.81-.16.53-.58-.52-.31-.87-.26-.86.16-.53.58zM541.5 231.92c.24.35.52.31.87.26s.81-.16.53-.58-.52-.31-.87-.26-.82.16-.53.58zM530.67 238.17c.24.35.52.31.87.26s.81-.16.53-.58-.52-.31-.87-.26-.81.16-.53.58zM519.84 244.42c.24.35.52.31.87.26s.81-.16.53-.58-.52-.31-.87-.26-.81.16-.53.58zM509 250.68c.24.35.52.31.87.26s.81-.16.53-.58-.52-.31-.87-.26-.8.15-.53.58zM498.19 256.93c.24.35.52.31.87.26s.81-.16.53-.58-.52-.31-.87-.26-.82.16-.53.58zM487.36 263.18c.24.35.52.31.87.26s.81-.16.53-.58-.52-.31-.87-.26-.82.16-.53.58zM476.53 269.43c.24.35.52.31.87.26s.81-.16.53-.58-.52-.31-.87-.26-.81.15-.53.58zM465.7 275.68c.24.35.52.31.87.26s.81-.16.53-.58-.52-.31-.87-.26-.81.16-.53.58zM454.87 281.93c.24.35.52.31.87.26s.81-.16.53-.58-.52-.31-.87-.26-.81.16-.53.58zM444 288.19c.24.35.52.31.87.26s.81-.16.53-.58-.52-.31-.87-.26-.77.15-.53.58zM433.22 294.44c.24.35.52.31.87.26s.81-.16.53-.58-.52-.31-.87-.26-.82.14-.53.58zM422.39 300.69c.24.35.52.31.87.26s.81-.16.53-.58-.52-.31-.87-.26-.82.16-.53.58zM411.56 306.94c.24.35.52.31.87.26s.81-.16.53-.58-.52-.31-.87-.26-.81.16-.53.58zM400.73 313.19c.24.35.52.31.87.26s.81-.16.53-.58-.52-.31-.87-.26-.81.16-.53.58zM389.91 319.44c.24.35.52.31.87.26s.81-.16.53-.58-.52-.31-.87-.26-.82.14-.53.58zM379.08 325.7c.24.35.52.31.87.26s.81-.16.53-.58-.52-.31-.87-.26-.82.15-.53.58zM368.25 331.95c.24.35.52.31.87.26s.81-.16.53-.58-.52-.31-.87-.26-.78.16-.53.58zM357.42 338.2c.24.35.52.31.87.26s.81-.16.53-.58-.52-.31-.87-.26-.82.16-.53.58zM346.59 344.45c.24.35.52.31.87.26s.81-.16.53-.58-.52-.31-.87-.26-.81.13-.53.58zM335.76 350.7c.24.35.52.31.87.26s.81-.16.53-.58-.52-.31-.87-.26-.81.16-.53.58zM324.94 357c.24.35.52.31.87.26s.81-.16.53-.58-.52-.31-.87-.26-.82.11-.53.58zM314.11 363.21c.24.35.52.31.87.26s.81-.16.53-.58-.52-.31-.87-.26-.82.15-.53.58zM617.3 175.66c.24.35.52.31.87.26s.81-.16.53-.58-.52-.31-.87-.26-.83.15-.53.58zM606.47 181.91c.24.35.52.31.87.26s.81-.16.53-.58-.52-.31-.87-.26-.82.16-.53.58zM595.64 188.16c.24.35.52.31.87.26s.81-.16.53-.58-.52-.31-.87-.26-.81.16-.53.58zM584.81 194.41c.24.35.52.31.87.26s.81-.16.53-.58-.52-.31-.87-.26-.81.17-.53.58zM574 200.66c.24.35.52.31.87.26s.81-.16.53-.58-.52-.31-.87-.26-.83.16-.53.58zM563.16 206.91c.24.35.52.31.87.26s.81-.16.53-.58-.52-.31-.87-.26-.82.16-.53.58zM552.33 213.17c.24.35.52.31.87.26s.81-.16.53-.58-.52-.31-.87-.26-.86.15-.53.58zM541.5 219.42c.24.35.52.31.87.26s.81-.16.53-.58-.52-.31-.87-.26-.82.16-.53.58zM530.67 225.67c.24.35.52.31.87.26s.81-.16.53-.58-.52-.31-.87-.26-.81.16-.53.58zM519.84 231.92c.24.35.52.31.87.26s.81-.16.53-.58-.52-.31-.87-.26-.81.16-.53.58zM509 238.17c.24.35.52.31.87.26s.81-.16.53-.58-.52-.31-.87-.26-.8.16-.53.58zM498.19 244.42c.24.35.52.31.87.26s.81-.16.53-.58-.52-.31-.87-.26-.82.16-.53.58zM487.36 250.68c.24.35.52.31.87.26s.81-.16.53-.58-.52-.31-.87-.26-.82.15-.53.58zM476.53 256.93c.24.35.52.31.87.26s.81-.16.53-.58-.52-.31-.87-.26-.81.16-.53.58zM465.7 263.18c.24.35.52.31.87.26s.81-.16.53-.58-.52-.31-.87-.26-.81.16-.53.58zM454.87 269.43c.24.35.52.31.87.26s.81-.16.53-.58-.52-.31-.87-.26-.81.15-.53.58zM444 275.68c.24.35.52.31.87.26s.81-.16.53-.58-.52-.31-.87-.26-.77.16-.53.58zM433.22 281.93c.24.35.52.31.87.26s.81-.16.53-.58-.52-.31-.87-.26-.82.16-.53.58zM422.39 288.19c.24.35.52.31.87.26s.81-.16.53-.58-.52-.31-.87-.26-.82.15-.53.58zM411.56 294.44c.24.35.52.31.87.26s.81-.16.53-.58-.52-.31-.87-.26-.81.14-.53.58zM400.73 300.69c.24.35.52.31.87.26s.81-.16.53-.58-.52-.31-.87-.26-.81.16-.53.58zM389.91 306.94c.24.35.52.31.87.26s.81-.16.53-.58-.52-.31-.87-.26-.82.16-.53.58zM379.08 313.19c.24.35.52.31.87.26s.81-.16.53-.58-.52-.31-.87-.26-.82.16-.53.58zM368.25 319.44c.24.35.52.31.87.26s.81-.16.53-.58-.52-.31-.87-.26-.78.14-.53.58zM357.42 325.7c.24.35.52.31.87.26s.81-.16.53-.58-.52-.31-.87-.26-.82.15-.53.58zM346.59 331.95c.24.35.52.31.87.26s.81-.16.53-.58-.52-.31-.87-.26-.81.16-.53.58zM335.76 338.2c.24.35.52.31.87.26s.81-.16.53-.58-.52-.31-.87-.26-.81.16-.53.58zM324.94 344.45c.24.35.52.31.87.26s.81-.16.53-.58-.52-.31-.87-.26-.82.13-.53.58zM314.11 350.7c.24.35.52.31.87.26s.81-.16.53-.58-.52-.31-.87-.26-.82.16-.53.58zM303.28 357c.24.35.52.31.87.26s.81-.16.53-.58-.52-.31-.87-.26-.81.11-.53.58zM606.47 169.4c.24.35.52.31.87.26s.81-.16.53-.58-.52-.31-.87-.26-.82.18-.53.58zM595.64 175.66c.24.35.52.31.87.26s.81-.16.53-.58-.52-.31-.87-.26-.81.15-.53.58zM584.81 181.91c.24.35.52.31.87.26s.81-.16.53-.58-.52-.31-.87-.26-.81.16-.53.58zM574 188.16c.24.35.52.31.87.26s.81-.16.53-.58-.52-.31-.87-.26-.83.16-.53.58zM563.16 194.41c.24.35.52.31.87.26s.81-.16.53-.58-.52-.31-.87-.26-.82.17-.53.58zM552.33 200.66c.24.35.52.31.87.26s.81-.16.53-.58-.52-.31-.87-.26-.86.16-.53.58zM541.5 206.91c.24.35.52.31.87.26s.81-.16.53-.58-.52-.31-.87-.26-.82.16-.53.58zM530.67 213.17c.24.35.52.31.87.26s.81-.16.53-.58-.52-.31-.87-.26-.81.15-.53.58zM519.84 219.42c.24.35.52.31.87.26s.81-.16.53-.58-.52-.31-.87-.26-.81.16-.53.58zM509 225.67c.24.35.52.31.87.26s.81-.16.53-.58-.52-.31-.87-.26-.8.16-.53.58zM498.19 231.92c.24.35.52.31.87.26s.81-.16.53-.58-.52-.31-.87-.26-.82.16-.53.58zM487.36 238.17c.24.35.52.31.87.26s.81-.16.53-.58-.52-.31-.87-.26-.82.16-.53.58zM476.53 244.42c.24.35.52.31.87.26s.81-.16.53-.58-.52-.31-.87-.26-.81.16-.53.58zM465.7 250.68c.24.35.52.31.87.26s.81-.16.53-.58-.52-.31-.87-.26-.81.15-.53.58zM454.87 256.93c.24.35.52.31.87.26s.81-.16.53-.58-.52-.31-.87-.26-.81.16-.53.58zM444 263.18c.24.35.52.31.87.26s.81-.16.53-.58-.52-.31-.87-.26-.77.16-.53.58zM433.22 269.43c.24.35.52.31.87.26s.81-.16.53-.58-.52-.31-.87-.26-.82.15-.53.58zM422.39 275.68c.24.35.52.31.87.26s.81-.16.53-.58-.52-.31-.87-.26-.82.16-.53.58zM411.56 281.93c.24.35.52.31.87.26s.81-.16.53-.58-.52-.31-.87-.26-.81.16-.53.58zM400.73 288.19c.24.35.52.31.87.26s.81-.16.53-.58-.52-.31-.87-.26-.81.15-.53.58zM389.91 294.44c.24.35.52.31.87.26s.81-.16.53-.58-.52-.31-.87-.26-.82.14-.53.58zM379.08 300.69c.24.35.52.31.87.26s.81-.16.53-.58-.52-.31-.87-.26-.82.16-.53.58zM368.25 306.94c.24.35.52.31.87.26s.81-.16.53-.58-.52-.31-.87-.26-.78.16-.53.58zM357.42 313.19c.24.35.52.31.87.26s.81-.16.53-.58-.52-.31-.87-.26-.82.16-.53.58zM346.59 319.44c.24.35.52.31.87.26s.81-.16.53-.58-.52-.31-.87-.26-.81.14-.53.58zM335.76 325.7c.24.35.52.31.87.26s.81-.16.53-.58-.52-.31-.87-.26-.81.15-.53.58zM324.94 331.95c.24.35.52.31.87.26s.81-.16.53-.58-.52-.31-.87-.26-.82.16-.53.58zM314.11 338.2c.24.35.52.31.87.26s.81-.16.53-.58-.52-.31-.87-.26-.82.16-.53.58zM303.28 344.45c.24.35.52.31.87.26s.81-.16.53-.58-.52-.31-.87-.26-.81.13-.53.58zM292.45 350.7c.24.35.52.31.87.26s.81-.16.53-.58-.52-.31-.87-.26-.81.16-.53.58zM595.64 163.15c.24.35.52.31.87.26s.81-.16.53-.58-.52-.31-.87-.26-.81.16-.53.58zM584.81 169.4c.24.35.52.31.87.26s.81-.16.53-.58-.52-.31-.87-.26-.81.18-.53.58zM574 175.66c.24.35.52.31.87.26s.81-.16.53-.58-.52-.31-.87-.26-.83.15-.53.58zM563.16 181.91c.24.35.52.31.87.26s.81-.16.53-.58-.52-.31-.87-.26-.82.16-.53.58zM552.33 188.16c.24.35.52.31.87.26s.81-.16.53-.58-.52-.31-.87-.26-.86.16-.53.58zM541.5 194.41c.24.35.52.31.87.26s.81-.16.53-.58-.52-.31-.87-.26-.82.17-.53.58zM530.67 200.66c.24.35.52.31.87.26s.81-.16.53-.58-.52-.31-.87-.26-.81.16-.53.58zM519.84 206.91c.24.35.52.31.87.26s.81-.16.53-.58-.52-.31-.87-.26-.81.16-.53.58zM509 213.17c.24.35.52.31.87.26s.81-.16.53-.58-.52-.31-.87-.26-.8.15-.53.58zM498.19 219.42c.24.35.52.31.87.26s.81-.16.53-.58-.52-.31-.87-.26-.82.16-.53.58zM487.36 225.67c.24.35.52.31.87.26s.81-.16.53-.58-.52-.31-.87-.26-.82.16-.53.58zM476.53 231.92c.24.35.52.31.87.26s.81-.16.53-.58-.52-.31-.87-.26-.81.16-.53.58zM465.7 238.17c.24.35.52.31.87.26s.81-.16.53-.58-.52-.31-.87-.26-.81.16-.53.58zM454.87 244.42c.24.35.52.31.87.26s.81-.16.53-.58-.52-.31-.87-.26-.81.16-.53.58zM444 250.68c.24.35.52.31.87.26s.81-.16.53-.58-.52-.31-.87-.26-.77.15-.53.58zM433.22 256.93c.24.35.52.31.87.26s.81-.16.53-.58-.52-.31-.87-.26-.82.16-.53.58zM422.39 263.18c.24.35.52.31.87.26s.81-.16.53-.58-.52-.31-.87-.26-.82.16-.53.58zM411.56 269.43c.24.35.52.31.87.26s.81-.16.53-.58-.52-.31-.87-.26-.81.15-.53.58zM400.73 275.68c.24.35.52.31.87.26s.81-.16.53-.58-.52-.31-.87-.26-.81.16-.53.58zM389.91 281.93c.24.35.52.31.87.26s.81-.16.53-.58-.52-.31-.87-.26-.82.16-.53.58zM379.08 288.19c.24.35.52.31.87.26s.81-.16.53-.58-.52-.31-.87-.26-.82.15-.53.58zM368.25 294.44c.24.35.52.31.87.26s.81-.16.53-.58-.52-.31-.87-.26-.78.14-.53.58zM357.42 300.69c.24.35.52.31.87.26s.81-.16.53-.58-.52-.31-.87-.26-.82.16-.53.58zM346.59 306.94c.24.35.52.31.87.26s.81-.16.53-.58-.52-.31-.87-.26-.81.16-.53.58zM335.76 313.19c.24.35.52.31.87.26s.81-.16.53-.58-.52-.31-.87-.26-.81.16-.53.58zM324.94 319.44c.24.35.52.31.87.26s.81-.16.53-.58-.52-.31-.87-.26-.82.14-.53.58zM314.11 325.7c.24.35.52.31.87.26s.81-.16.53-.58-.52-.31-.87-.26-.82.15-.53.58zM303.28 331.95c.24.35.52.31.87.26s.81-.16.53-.58-.52-.31-.87-.26-.81.16-.53.58zM292.45 338.2c.24.35.52.31.87.26s.81-.16.53-.58-.52-.31-.87-.26-.81.16-.53.58zM281.62 344.45c.24.35.52.31.87.26s.81-.16.53-.58-.52-.31-.87-.26-.81.13-.53.58zM584.81 156.9c.24.35.52.31.87.26s.81-.16.53-.58-.52-.31-.87-.26-.81.16-.53.58zM574 163.15c.24.35.52.31.87.26s.81-.16.53-.58-.52-.31-.87-.26-.83.16-.53.58zM563.16 169.4c.24.35.52.31.87.26s.81-.16.53-.58-.52-.31-.87-.26-.82.18-.53.58zM552.33 175.66c.24.35.52.31.87.26s.81-.16.53-.58-.52-.31-.87-.26-.86.15-.53.58zM541.5 181.91c.24.35.52.31.87.26s.81-.16.53-.58-.52-.31-.87-.26-.82.16-.53.58zM530.67 188.16c.24.35.52.31.87.26s.81-.16.53-.58-.52-.31-.87-.26-.81.16-.53.58zM519.84 194.41c.24.35.52.31.87.26s.81-.16.53-.58-.52-.31-.87-.26-.81.17-.53.58zM509 200.66c.24.35.52.31.87.26s.81-.16.53-.58-.52-.31-.87-.26-.8.16-.53.58zM498.19 206.91c.24.35.52.31.87.26s.81-.16.53-.58-.52-.31-.87-.26-.82.16-.53.58zM487.36 213.17c.24.35.52.31.87.26s.81-.16.53-.58-.52-.31-.87-.26-.82.15-.53.58zM476.53 219.42c.24.35.52.31.87.26s.81-.16.53-.58-.52-.31-.87-.26-.81.16-.53.58zM465.7 225.67c.24.35.52.31.87.26s.81-.16.53-.58-.52-.31-.87-.26-.81.16-.53.58zM454.87 231.92c.24.35.52.31.87.26s.81-.16.53-.58-.52-.31-.87-.26-.81.16-.53.58zM444 238.17c.24.35.52.31.87.26s.81-.16.53-.58-.52-.31-.87-.26-.77.16-.53.58zM433.22 244.42c.24.35.52.31.87.26s.81-.16.53-.58-.52-.31-.87-.26-.82.16-.53.58zM422.39 250.68c.24.35.52.31.87.26s.81-.16.53-.58-.52-.31-.87-.26-.82.15-.53.58zM411.56 256.93c.24.35.52.31.87.26s.81-.16.53-.58-.52-.31-.87-.26-.81.16-.53.58zM400.73 263.18c.24.35.52.31.87.26s.81-.16.53-.58-.52-.31-.87-.26-.81.16-.53.58zM389.91 269.43c.24.35.52.31.87.26s.81-.16.53-.58-.52-.31-.87-.26-.82.15-.53.58zM379.08 275.68c.24.35.52.31.87.26s.81-.16.53-.58-.52-.31-.87-.26-.82.16-.53.58zM368.25 281.93c.24.35.52.31.87.26s.81-.16.53-.58-.52-.31-.87-.26-.78.16-.53.58zM357.42 288.19c.24.35.52.31.87.26s.81-.16.53-.58-.52-.31-.87-.26-.82.15-.53.58zM346.59 294.44c.24.35.52.31.87.26s.81-.16.53-.58-.52-.31-.87-.26-.81.14-.53.58zM335.76 300.69c.24.35.52.31.87.26s.81-.16.53-.58-.52-.31-.87-.26-.81.16-.53.58zM324.94 306.94c.24.35.52.31.87.26s.81-.16.53-.58-.52-.31-.87-.26-.82.16-.53.58zM314.11 313.19c.24.35.52.31.87.26s.81-.16.53-.58-.52-.31-.87-.26-.82.16-.53.58zM303.28 319.44c.24.35.52.31.87.26s.81-.16.53-.58-.52-.31-.87-.26-.81.14-.53.58zM292.45 325.7c.24.35.52.31.87.26s.81-.16.53-.58-.52-.31-.87-.26-.81.15-.53.58zM281.62 331.95c.24.35.52.31.87.26s.81-.16.53-.58-.52-.31-.87-.26-.81.16-.53.58zM270.8 338.2c.24.35.52.31.87.26s.81-.16.53-.58-.52-.31-.87-.26-.82.16-.53.58zM574 150.65c.24.35.52.31.87.26s.81-.16.53-.58-.52-.31-.87-.26-.83.16-.53.58zM563.16 156.9c.24.35.52.31.87.26s.81-.16.53-.58-.52-.31-.87-.26-.82.16-.53.58zM552.33 163.15c.24.35.52.31.87.26s.81-.16.53-.58-.52-.31-.87-.26-.86.16-.53.58zM541.5 169.4c.24.35.52.31.87.26s.81-.16.53-.58-.52-.31-.87-.26-.82.18-.53.58zM530.67 175.66c.24.35.52.31.87.26s.81-.16.53-.58-.52-.31-.87-.26-.81.15-.53.58zM519.84 181.91c.24.35.52.31.87.26s.81-.16.53-.58-.52-.31-.87-.26-.81.16-.53.58zM509 188.16c.24.35.52.31.87.26s.81-.16.53-.58-.52-.31-.87-.26-.8.16-.53.58zM498.19 194.41c.24.35.52.31.87.26s.81-.16.53-.58-.52-.31-.87-.26-.82.17-.53.58zM487.36 200.66c.24.35.52.31.87.26s.81-.16.53-.58-.52-.31-.87-.26-.82.16-.53.58zM476.53 206.91c.24.35.52.31.87.26s.81-.16.53-.58-.52-.31-.87-.26-.81.16-.53.58zM465.7 213.17c.24.35.52.31.87.26s.81-.16.53-.58-.52-.31-.87-.26-.81.15-.53.58zM454.87 219.42c.24.35.52.31.87.26s.81-.16.53-.58-.52-.31-.87-.26-.81.16-.53.58zM444 225.67c.24.35.52.31.87.26s.81-.16.53-.58-.52-.31-.87-.26-.77.16-.53.58zM433.22 231.92c.24.35.52.31.87.26s.81-.16.53-.58-.52-.31-.87-.26-.82.16-.53.58zM422.39 238.17c.24.35.52.31.87.26s.81-.16.53-.58-.52-.31-.87-.26-.82.16-.53.58zM411.56 244.42c.24.35.52.31.87.26s.81-.16.53-.58-.52-.31-.87-.26-.81.16-.53.58zM400.73 250.68c.24.35.52.31.87.26s.81-.16.53-.58-.52-.31-.87-.26-.81.15-.53.58zM389.91 256.93c.24.35.52.31.87.26s.81-.16.53-.58-.52-.31-.87-.26-.82.16-.53.58zM379.08 263.18c.24.35.52.31.87.26s.81-.16.53-.58-.52-.31-.87-.26-.82.16-.53.58zM368.25 269.43c.24.35.52.31.87.26s.81-.16.53-.58-.52-.31-.87-.26-.78.15-.53.58zM357.42 275.68c.24.35.52.31.87.26s.81-.16.53-.58-.52-.31-.87-.26-.82.16-.53.58zM346.59 281.93c.24.35.52.31.87.26s.81-.16.53-.58-.52-.31-.87-.26-.81.16-.53.58zM335.76 288.19c.24.35.52.31.87.26s.81-.16.53-.58-.52-.31-.87-.26-.81.15-.53.58zM324.94 294.44c.24.35.52.31.87.26s.81-.16.53-.58-.52-.31-.87-.26-.82.14-.53.58zM314.11 300.69c.24.35.52.31.87.26s.81-.16.53-.58-.52-.31-.87-.26-.82.16-.53.58zM303.28 306.94c.24.35.52.31.87.26s.81-.16.53-.58-.52-.31-.87-.26-.81.16-.53.58zM292.45 313.19c.24.35.52.31.87.26s.81-.16.53-.58-.52-.31-.87-.26-.81.16-.53.58zM281.62 319.44c.24.35.52.31.87.26s.81-.16.53-.58-.52-.31-.87-.26-.81.14-.53.58zM270.8 325.7c.24.35.52.31.87.26s.81-.16.53-.58-.52-.31-.87-.26-.82.15-.53.58zM260 331.95c.24.35.52.31.87.26s.81-.16.53-.58-.52-.31-.87-.26-.85.16-.53.58zM563.16 144.4c.24.35.52.31.87.26s.81-.16.53-.58-.52-.31-.87-.26-.82.18-.53.58zM552.33 150.65c.24.35.52.31.87.26s.81-.16.53-.58-.52-.31-.87-.26-.86.16-.53.58zM541.5 156.9c.24.35.52.31.87.26s.81-.16.53-.58-.52-.31-.87-.26-.82.16-.53.58zM530.67 163.15c.24.35.52.31.87.26s.81-.16.53-.58-.52-.31-.87-.26-.81.16-.53.58zM519.84 169.4c.24.35.52.31.87.26s.81-.16.53-.58-.52-.31-.87-.26-.81.18-.53.58zM509 175.66c.24.35.52.31.87.26s.81-.16.53-.58-.52-.31-.87-.26-.8.15-.53.58zM498.19 181.91c.24.35.52.31.87.26s.81-.16.53-.58-.52-.31-.87-.26-.82.16-.53.58zM487.36 188.16c.24.35.52.31.87.26s.81-.16.53-.58-.52-.31-.87-.26-.82.16-.53.58zM476.53 194.41c.24.35.52.31.87.26s.81-.16.53-.58-.52-.31-.87-.26-.81.17-.53.58zM465.7 200.66c.24.35.52.31.87.26s.81-.16.53-.58-.52-.31-.87-.26-.81.16-.53.58zM454.87 206.91c.24.35.52.31.87.26s.81-.16.53-.58-.52-.31-.87-.26-.81.16-.53.58zM444 213.17c.24.35.52.31.87.26s.81-.16.53-.58-.52-.31-.87-.26-.77.15-.53.58zM433.22 219.42c.24.35.52.31.87.26s.81-.16.53-.58-.52-.31-.87-.26-.82.16-.53.58zM422.39 225.67c.24.35.52.31.87.26s.81-.16.53-.58-.52-.31-.87-.26-.82.16-.53.58zM411.56 231.92c.24.35.52.31.87.26s.81-.16.53-.58-.52-.31-.87-.26-.81.16-.53.58zM400.73 238.17c.24.35.52.31.87.26s.81-.16.53-.58-.52-.31-.87-.26-.81.16-.53.58zM389.91 244.42c.24.35.52.31.87.26s.81-.16.53-.58-.52-.31-.87-.26-.82.16-.53.58zM379.08 250.68c.24.35.52.31.87.26s.81-.16.53-.58-.52-.31-.87-.26-.82.15-.53.58zM368.25 256.93c.24.35.52.31.87.26s.81-.16.53-.58-.52-.31-.87-.26-.78.16-.53.58zM357.42 263.18c.24.35.52.31.87.26s.81-.16.53-.58-.52-.31-.87-.26-.82.16-.53.58zM346.59 269.43c.24.35.52.31.87.26s.81-.16.53-.58-.52-.31-.87-.26-.81.15-.53.58zM335.76 275.68c.24.35.52.31.87.26s.81-.16.53-.58-.52-.31-.87-.26-.81.16-.53.58zM324.94 281.93c.24.35.52.31.87.26s.81-.16.53-.58-.52-.31-.87-.26-.82.16-.53.58zM314.11 288.19c.24.35.52.31.87.26s.81-.16.53-.58-.52-.31-.87-.26-.82.15-.53.58zM303.28 294.44c.24.35.52.31.87.26s.81-.16.53-.58-.52-.31-.87-.26-.81.14-.53.58zM292.45 300.69c.24.35.52.31.87.26s.81-.16.53-.58-.52-.31-.87-.26-.81.16-.53.58zM281.62 306.94c.24.35.52.31.87.26s.81-.16.53-.58-.52-.31-.87-.26-.81.16-.53.58zM270.8 313.19c.24.35.52.31.87.26s.81-.16.53-.58-.52-.31-.87-.26-.82.16-.53.58zM260 319.44c.24.35.52.31.87.26s.81-.16.53-.58-.52-.31-.87-.26-.85.14-.53.58zM249.14 325.7c.24.35.52.31.87.26s.81-.16.53-.58-.52-.31-.87-.26-.82.15-.53.58zM552.33 138.15c.24.35.52.31.87.26s.81-.16.53-.58-.52-.31-.87-.26-.86.15-.53.58zM541.5 144.4c.24.35.52.31.87.26s.81-.16.53-.58-.52-.31-.87-.26-.82.18-.53.58zM530.67 150.65c.24.35.52.31.87.26s.81-.16.53-.58-.52-.31-.87-.26-.81.16-.53.58zM519.84 156.9c.24.35.52.31.87.26s.81-.16.53-.58-.52-.31-.87-.26-.81.16-.53.58zM509 163.15c.24.35.52.31.87.26s.81-.16.53-.58-.52-.31-.87-.26-.8.16-.53.58zM498.19 169.4c.24.35.52.31.87.26s.81-.16.53-.58-.52-.31-.87-.26-.82.18-.53.58zM487.36 175.66c.24.35.52.31.87.26s.81-.16.53-.58-.52-.31-.87-.26-.82.15-.53.58zM476.53 181.91c.24.35.52.31.87.26s.81-.16.53-.58-.52-.31-.87-.26-.81.16-.53.58zM465.7 188.16c.24.35.52.31.87.26s.81-.16.53-.58-.52-.31-.87-.26-.81.16-.53.58zM454.87 194.41c.24.35.52.31.87.26s.81-.16.53-.58-.52-.31-.87-.26-.81.17-.53.58zM444 200.66c.24.35.52.31.87.26s.81-.16.53-.58-.52-.31-.87-.26-.77.16-.53.58zM433.22 206.91c.24.35.52.31.87.26s.81-.16.53-.58-.52-.31-.87-.26-.82.16-.53.58zM422.39 213.17c.24.35.52.31.87.26s.81-.16.53-.58-.52-.31-.87-.26-.82.15-.53.58zM411.56 219.42c.24.35.52.31.87.26s.81-.16.53-.58-.52-.31-.87-.26-.81.16-.53.58zM400.73 225.67c.24.35.52.31.87.26s.81-.16.53-.58-.52-.31-.87-.26-.81.16-.53.58zM389.91 231.92c.24.35.52.31.87.26s.81-.16.53-.58-.52-.31-.87-.26-.82.16-.53.58zM379.08 238.17c.24.35.52.31.87.26s.81-.16.53-.58-.52-.31-.87-.26-.82.16-.53.58zM368.25 244.42c.24.35.52.31.87.26s.81-.16.53-.58-.52-.31-.87-.26-.78.16-.53.58zM357.42 250.68c.24.35.52.31.87.26s.81-.16.53-.58-.52-.31-.87-.26-.82.15-.53.58zM346.59 256.93c.24.35.52.31.87.26s.81-.16.53-.58-.52-.31-.87-.26-.81.16-.53.58zM335.76 263.18c.24.35.52.31.87.26s.81-.16.53-.58-.52-.31-.87-.26-.81.16-.53.58zM324.94 269.43c.24.35.52.31.87.26s.81-.16.53-.58-.52-.31-.87-.26-.82.15-.53.58zM314.11 275.68c.24.35.52.31.87.26s.81-.16.53-.58-.52-.31-.87-.26-.82.16-.53.58zM303.28 281.93c.24.35.52.31.87.26s.81-.16.53-.58-.52-.31-.87-.26-.81.16-.53.58zM292.45 288.19c.24.35.52.31.87.26s.81-.16.53-.58-.52-.31-.87-.26-.81.15-.53.58zM281.62 294.44c.24.35.52.31.87.26s.81-.16.53-.58-.52-.31-.87-.26-.81.14-.53.58zM270.8 300.69c.24.35.52.31.87.26s.81-.16.53-.58-.52-.31-.87-.26-.82.16-.53.58zM260 306.94c.24.35.52.31.87.26s.81-.16.53-.58-.52-.31-.87-.26-.85.16-.53.58zM249.14 313.19c.24.35.52.31.87.26s.81-.16.53-.58-.52-.31-.87-.26-.82.16-.53.58zM238.31 319.44c.24.35.52.31.87.26s.81-.16.53-.58-.52-.31-.87-.26-.84.14-.53.58zM541.5 131.89c.24.35.52.31.87.26s.81-.16.53-.58-.52-.31-.87-.26-.82.16-.53.58zM530.67 138.15c.24.35.52.31.87.26s.81-.16.53-.58-.52-.31-.87-.26-.81.15-.53.58zM519.84 144.4c.24.35.52.31.87.26s.81-.16.53-.58-.52-.31-.87-.26-.81.18-.53.58zM509 150.65c.24.35.52.31.87.26s.81-.16.53-.58-.52-.31-.87-.26-.8.16-.53.58zM498.19 156.9c.24.35.52.31.87.26s.81-.16.53-.58-.52-.31-.87-.26-.82.16-.53.58zM487.36 163.15c.24.35.52.31.87.26s.81-.16.53-.58-.52-.31-.87-.26-.82.16-.53.58zM476.53 169.4c.24.35.52.31.87.26s.81-.16.53-.58-.52-.31-.87-.26-.81.18-.53.58zM465.7 175.66c.24.35.52.31.87.26s.81-.16.53-.58-.52-.31-.87-.26-.81.15-.53.58zM454.87 181.91c.24.35.52.31.87.26s.81-.16.53-.58-.52-.31-.87-.26-.81.16-.53.58zM444 188.16c.24.35.52.31.87.26s.81-.16.53-.58-.52-.31-.87-.26-.77.16-.53.58zM433.22 194.41c.24.35.52.31.87.26s.81-.16.53-.58-.52-.31-.87-.26-.82.17-.53.58zM422.39 200.66c.24.35.52.31.87.26s.81-.16.53-.58-.52-.31-.87-.26-.82.16-.53.58zM411.56 206.91c.24.35.52.31.87.26s.81-.16.53-.58-.52-.31-.87-.26-.81.16-.53.58zM400.73 213.17c.24.35.52.31.87.26s.81-.16.53-.58-.52-.31-.87-.26-.81.15-.53.58zM389.91 219.42c.24.35.52.31.87.26s.81-.16.53-.58-.52-.31-.87-.26-.82.16-.53.58zM379.08 225.67c.24.35.52.31.87.26s.81-.16.53-.58-.52-.31-.87-.26-.82.16-.53.58zM368.25 231.92c.24.35.52.31.87.26s.81-.16.53-.58-.52-.31-.87-.26-.78.16-.53.58zM357.42 238.17c.24.35.52.31.87.26s.81-.16.53-.58-.52-.31-.87-.26-.82.16-.53.58zM346.59 244.42c.24.35.52.31.87.26s.81-.16.53-.58-.52-.31-.87-.26-.81.16-.53.58zM335.76 250.68c.24.35.52.31.87.26s.81-.16.53-.58-.52-.31-.87-.26-.81.15-.53.58zM324.94 256.93c.24.35.52.31.87.26s.81-.16.53-.58-.52-.31-.87-.26-.82.16-.53.58zM314.11 263.18c.24.35.52.31.87.26s.81-.16.53-.58-.52-.31-.87-.26-.82.16-.53.58zM303.28 269.43c.24.35.52.31.87.26s.81-.16.53-.58-.52-.31-.87-.26-.81.15-.53.58zM292.45 275.68c.24.35.52.31.87.26s.81-.16.53-.58-.52-.31-.87-.26-.81.16-.53.58zM281.62 281.93c.24.35.52.31.87.26s.81-.16.53-.58-.52-.31-.87-.26-.81.16-.53.58zM270.8 288.19c.24.35.52.31.87.26s.81-.16.53-.58-.52-.31-.87-.26-.82.15-.53.58zM260 294.44c.24.35.52.31.87.26s.81-.16.53-.58-.52-.31-.87-.26-.85.14-.53.58zM249.14 300.69c.24.35.52.31.87.26s.81-.16.53-.58-.52-.31-.87-.26-.82.16-.53.58zM238.31 306.94c.24.35.52.31.87.26s.81-.16.53-.58-.52-.31-.87-.26-.84.16-.53.58zM227.48 313.19c.24.35.52.31.87.26s.81-.16.53-.58-.52-.31-.87-.26-.81.16-.53.58zM530.67 125.64c.24.35.52.31.87.26s.81-.16.53-.58-.52-.31-.87-.26-.81.16-.53.58zM519.84 131.89c.24.35.52.31.87.26s.81-.16.53-.58-.52-.31-.87-.26-.81.16-.53.58zM509 138.15c.24.35.52.31.87.26s.81-.16.53-.58-.52-.31-.87-.26-.8.15-.53.58zM498.19 144.4c.24.35.52.31.87.26s.81-.16.53-.58-.52-.31-.87-.26-.82.18-.53.58zM487.36 150.65c.24.35.52.31.87.26s.81-.16.53-.58-.52-.31-.87-.26-.82.16-.53.58zM476.53 156.9c.24.35.52.31.87.26s.81-.16.53-.58-.52-.31-.87-.26-.81.16-.53.58zM465.7 163.15c.24.35.52.31.87.26s.81-.16.53-.58-.52-.31-.87-.26-.81.16-.53.58zM454.87 169.4c.24.35.52.31.87.26s.81-.16.53-.58-.52-.31-.87-.26-.81.18-.53.58zM444 175.66c.24.35.52.31.87.26s.81-.16.53-.58-.52-.31-.87-.26-.77.15-.53.58zM433.22 181.91c.24.35.52.31.87.26s.81-.16.53-.58-.52-.31-.87-.26-.82.16-.53.58zM422.39 188.16c.24.35.52.31.87.26s.81-.16.53-.58-.52-.31-.87-.26-.82.16-.53.58zM411.56 194.41c.24.35.52.31.87.26s.81-.16.53-.58-.52-.31-.87-.26-.81.17-.53.58zM400.73 200.66c.24.35.52.31.87.26s.81-.16.53-.58-.52-.31-.87-.26-.81.16-.53.58zM389.91 206.91c.24.35.52.31.87.26s.81-.16.53-.58-.52-.31-.87-.26-.82.16-.53.58zM379.08 213.17c.24.35.52.31.87.26s.81-.16.53-.58-.52-.31-.87-.26-.82.15-.53.58zM368.25 219.42c.24.35.52.31.87.26s.81-.16.53-.58-.52-.31-.87-.26-.78.16-.53.58zM357.42 225.67c.24.35.52.31.87.26s.81-.16.53-.58-.52-.31-.87-.26-.82.16-.53.58zM346.59 231.92c.24.35.52.31.87.26s.81-.16.53-.58-.52-.31-.87-.26-.81.16-.53.58zM335.76 238.17c.24.35.52.31.87.26s.81-.16.53-.58-.52-.31-.87-.26-.81.16-.53.58zM324.94 244.42c.24.35.52.31.87.26s.81-.16.53-.58-.52-.31-.87-.26-.82.16-.53.58zM314.11 250.68c.24.35.52.31.87.26s.81-.16.53-.58-.52-.31-.87-.26-.82.15-.53.58zM303.28 256.93c.24.35.52.31.87.26s.81-.16.53-.58-.52-.31-.87-.26-.81.16-.53.58zM292.45 263.18c.24.35.52.31.87.26s.81-.16.53-.58-.52-.31-.87-.26-.81.16-.53.58zM281.62 269.43c.24.35.52.31.87.26s.81-.16.53-.58-.52-.31-.87-.26-.81.15-.53.58zM270.8 275.68c.24.35.52.31.87.26s.81-.16.53-.58-.52-.31-.87-.26-.82.16-.53.58zM260 281.93c.24.35.52.31.87.26s.81-.16.53-.58-.52-.31-.87-.26-.85.16-.53.58zM249.14 288.19c.24.35.52.31.87.26s.81-.16.53-.58-.52-.31-.87-.26-.82.15-.53.58zM238.31 294.44c.24.35.52.31.87.26s.81-.16.53-.58-.52-.31-.87-.26-.84.14-.53.58zM227.48 300.69c.24.35.52.31.87.26s.81-.16.53-.58-.52-.31-.87-.26-.81.16-.53.58zM216.65 306.94c.24.35.52.31.87.26s.81-.16.53-.58-.52-.31-.87-.26-.81.16-.53.58zM519.84 119.39c.24.35.52.31.87.26s.81-.16.53-.58-.52-.31-.87-.26-.81.19-.53.58zM509 125.64c.24.35.52.31.87.26s.81-.16.53-.58-.52-.31-.87-.26-.8.16-.53.58zM498.19 131.89c.24.35.52.31.87.26s.81-.16.53-.58-.52-.31-.87-.26-.82.16-.53.58zM487.36 138.15c.24.35.52.31.87.26s.81-.16.53-.58-.52-.31-.87-.26-.82.15-.53.58zM476.53 144.4c.24.35.52.31.87.26s.81-.16.53-.58-.52-.31-.87-.26-.81.18-.53.58zM465.7 150.65c.24.35.52.31.87.26s.81-.16.53-.58-.52-.31-.87-.26-.81.16-.53.58zM454.87 156.9c.24.35.52.31.87.26s.81-.16.53-.58-.52-.31-.87-.26-.81.16-.53.58zM444 163.15c.24.35.52.31.87.26s.81-.16.53-.58-.52-.31-.87-.26-.77.16-.53.58zM433.22 169.4c.24.35.52.31.87.26s.81-.16.53-.58-.52-.31-.87-.26-.82.18-.53.58zM422.39 175.66c.24.35.52.31.87.26s.81-.16.53-.58-.52-.31-.87-.26-.82.15-.53.58zM411.56 181.91c.24.35.52.31.87.26s.81-.16.53-.58-.52-.31-.87-.26-.81.16-.53.58zM400.73 188.16c.24.35.52.31.87.26s.81-.16.53-.58-.52-.31-.87-.26-.81.16-.53.58zM389.91 194.41c.24.35.52.31.87.26s.81-.16.53-.58-.52-.31-.87-.26-.82.17-.53.58zM379.08 200.66c.24.35.52.31.87.26s.81-.16.53-.58-.52-.31-.87-.26-.82.16-.53.58zM368.25 206.91c.24.35.52.31.87.26s.81-.16.53-.58-.52-.31-.87-.26-.78.16-.53.58zM357.42 213.17c.24.35.52.31.87.26s.81-.16.53-.58-.52-.31-.87-.26-.82.15-.53.58zM346.59 219.42c.24.35.52.31.87.26s.81-.16.53-.58-.52-.31-.87-.26-.81.16-.53.58zM335.76 225.67c.24.35.52.31.87.26s.81-.16.53-.58-.52-.31-.87-.26-.81.16-.53.58zM324.94 231.92c.24.35.52.31.87.26s.81-.16.53-.58-.52-.31-.87-.26-.82.16-.53.58zM314.11 238.17c.24.35.52.31.87.26s.81-.16.53-.58-.52-.31-.87-.26-.82.16-.53.58zM303.28 244.42c.24.35.52.31.87.26s.81-.16.53-.58-.52-.31-.87-.26-.81.16-.53.58zM292.45 250.68c.24.35.52.31.87.26s.81-.16.53-.58-.52-.31-.87-.26-.81.15-.53.58zM281.62 256.93c.24.35.52.31.87.26s.81-.16.53-.58-.52-.31-.87-.26-.81.16-.53.58zM270.8 263.18c.24.35.52.31.87.26s.81-.16.53-.58-.52-.31-.87-.26-.82.16-.53.58zM260 269.43c.24.35.52.31.87.26s.81-.16.53-.58-.52-.31-.87-.26-.85.15-.53.58zM249.14 275.68c.24.35.52.31.87.26s.81-.16.53-.58-.52-.31-.87-.26-.82.16-.53.58zM238.31 281.93c.24.35.52.31.87.26s.81-.16.53-.58-.52-.31-.87-.26-.84.16-.53.58zM227.48 288.19c.24.35.52.31.87.26s.81-.16.53-.58-.52-.31-.87-.26-.81.15-.53.58zM216.65 294.44c.24.35.52.31.87.26s.81-.16.53-.58-.52-.31-.87-.26-.81.14-.53.58zM205.83 300.69c.24.35.52.31.87.26s.81-.16.53-.58-.52-.31-.87-.26-.82.16-.53.58zM509 113.14c.24.35.52.31.87.26s.81-.16.53-.58-.52-.31-.87-.26-.8.16-.53.58zM498.19 119.39c.24.35.52.31.87.26s.81-.16.53-.58-.52-.31-.87-.26-.82.19-.53.58zM487.36 125.64c.24.35.52.31.87.26s.81-.16.53-.58-.52-.31-.87-.26-.82.16-.53.58zM476.53 131.89c.24.35.52.31.87.26s.81-.16.53-.58-.52-.31-.87-.26-.81.16-.53.58zM465.7 138.15c.24.35.52.31.87.26s.81-.16.53-.58-.52-.31-.87-.26-.81.15-.53.58zM454.87 144.4c.24.35.52.31.87.26s.81-.16.53-.58-.52-.31-.87-.26-.81.18-.53.58zM444 150.65c.24.35.52.31.87.26s.81-.16.53-.58-.52-.31-.87-.26-.77.16-.53.58zM433.22 156.9c.24.35.52.31.87.26s.81-.16.53-.58-.52-.31-.87-.26-.82.16-.53.58zM422.39 163.15c.24.35.52.31.87.26s.81-.16.53-.58-.52-.31-.87-.26-.82.16-.53.58zM411.56 169.4c.24.35.52.31.87.26s.81-.16.53-.58-.52-.31-.87-.26-.81.18-.53.58zM400.73 175.66c.24.35.52.31.87.26s.81-.16.53-.58-.52-.31-.87-.26-.81.15-.53.58zM389.91 181.91c.24.35.52.31.87.26s.81-.16.53-.58-.52-.31-.87-.26-.82.16-.53.58zM379.08 188.16c.24.35.52.31.87.26s.81-.16.53-.58-.52-.31-.87-.26-.82.16-.53.58zM368.25 194.41c.24.35.52.31.87.26s.81-.16.53-.58-.52-.31-.87-.26-.78.17-.53.58zM357.42 200.66c.24.35.52.31.87.26s.81-.16.53-.58-.52-.31-.87-.26-.82.16-.53.58zM346.59 206.91c.24.35.52.31.87.26s.81-.16.53-.58-.52-.31-.87-.26-.81.16-.53.58zM335.76 213.17c.24.35.52.31.87.26s.81-.16.53-.58-.52-.31-.87-.26-.81.15-.53.58zM324.94 219.42c.24.35.52.31.87.26s.81-.16.53-.58-.52-.31-.87-.26-.82.16-.53.58zM314.11 225.67c.24.35.52.31.87.26s.81-.16.53-.58-.52-.31-.87-.26-.82.16-.53.58zM303.28 231.92c.24.35.52.31.87.26s.81-.16.53-.58-.52-.31-.87-.26-.81.16-.53.58zM292.45 238.17c.24.35.52.31.87.26s.81-.16.53-.58-.52-.31-.87-.26-.81.16-.53.58zM281.62 244.42c.24.35.52.31.87.26s.81-.16.53-.58-.52-.31-.87-.26-.81.16-.53.58zM270.8 250.68c.24.35.52.31.87.26s.81-.16.53-.58-.52-.31-.87-.26-.82.15-.53.58zM260 256.93c.24.35.52.31.87.26s.81-.16.53-.58-.52-.31-.87-.26-.85.16-.53.58zM249.14 263.18c.24.35.52.31.87.26s.81-.16.53-.58-.52-.31-.87-.26-.82.16-.53.58zM238.31 269.43c.24.35.52.31.87.26s.81-.16.53-.58-.52-.31-.87-.26-.84.15-.53.58zM227.48 275.68c.24.35.52.31.87.26s.81-.16.53-.58-.52-.31-.87-.26-.81.16-.53.58zM216.65 281.93c.24.35.52.31.87.26s.81-.16.53-.58-.52-.31-.87-.26-.81.16-.53.58zM205.83 288.19c.24.35.52.31.87.26s.81-.16.53-.58-.52-.31-.87-.26-.82.15-.53.58zM195 294.44c.24.35.52.31.87.26s.81-.16.53-.58-.52-.31-.87-.26-.82.14-.53.58zM498.19 106.89c.24.35.52.31.87.26s.81-.16.53-.58-.52-.31-.87-.26-.82.16-.53.58zM487.36 113.14c.24.35.52.31.87.26s.81-.16.53-.58-.52-.31-.87-.26-.82.16-.53.58zM476.53 119.39c.24.35.52.31.87.26s.81-.16.53-.58-.52-.31-.87-.26-.81.19-.53.58zM465.7 125.64c.24.35.52.31.87.26s.81-.16.53-.58-.52-.31-.87-.26-.81.16-.53.58zM454.87 131.89c.24.35.52.31.87.26s.81-.16.53-.58-.52-.31-.87-.26-.81.16-.53.58zM444 138.15c.24.35.52.31.87.26s.81-.16.53-.58-.52-.31-.87-.26-.77.15-.53.58zM433.22 144.4c.24.35.52.31.87.26s.81-.16.53-.58-.52-.31-.87-.26-.82.18-.53.58zM422.39 150.65c.24.35.52.31.87.26s.81-.16.53-.58-.52-.31-.87-.26-.82.16-.53.58zM411.56 156.9c.24.35.52.31.87.26s.81-.16.53-.58-.52-.31-.87-.26-.81.16-.53.58zM400.73 163.15c.24.35.52.31.87.26s.81-.16.53-.58-.52-.31-.87-.26-.81.16-.53.58zM389.91 169.4c.24.35.52.31.87.26s.81-.16.53-.58-.52-.31-.87-.26-.82.18-.53.58zM379.08 175.66c.24.35.52.31.87.26s.81-.16.53-.58-.52-.31-.87-.26-.82.15-.53.58zM368.25 181.91c.24.35.52.31.87.26s.81-.16.53-.58-.52-.31-.87-.26-.78.16-.53.58zM357.42 188.16c.24.35.52.31.87.26s.81-.16.53-.58-.52-.31-.87-.26-.82.16-.53.58zM346.59 194.41c.24.35.52.31.87.26s.81-.16.53-.58-.52-.31-.87-.26-.81.17-.53.58zM335.76 200.66c.24.35.52.31.87.26s.81-.16.53-.58-.52-.31-.87-.26-.81.16-.53.58zM324.94 206.91c.24.35.52.31.87.26s.81-.16.53-.58-.52-.31-.87-.26-.82.16-.53.58zM314.11 213.17c.24.35.52.31.87.26s.81-.16.53-.58-.52-.31-.87-.26-.82.15-.53.58zM303.28 219.42c.24.35.52.31.87.26s.81-.16.53-.58-.52-.31-.87-.26-.81.16-.53.58zM292.45 225.67c.24.35.52.31.87.26s.81-.16.53-.58-.52-.31-.87-.26-.81.16-.53.58zM281.62 231.92c.24.35.52.31.87.26s.81-.16.53-.58-.52-.31-.87-.26-.81.16-.53.58zM270.8 238.17c.24.35.52.31.87.26s.81-.16.53-.58-.52-.31-.87-.26-.82.16-.53.58zM260 244.42c.24.35.52.31.87.26s.81-.16.53-.58-.52-.31-.87-.26-.85.16-.53.58zM249.14 250.68c.24.35.52.31.87.26s.81-.16.53-.58-.52-.31-.87-.26-.82.15-.53.58zM238.31 256.93c.24.35.52.31.87.26s.81-.16.53-.58-.52-.31-.87-.26-.84.16-.53.58zM227.48 263.18c.24.35.52.31.87.26s.81-.16.53-.58-.52-.31-.87-.26-.81.16-.53.58zM216.65 269.43c.24.35.52.31.87.26s.81-.16.53-.58-.52-.31-.87-.26-.81.15-.53.58zM205.83 275.68c.24.35.52.31.87.26s.81-.16.53-.58-.52-.31-.87-.26-.82.16-.53.58zM195 281.93c.24.35.52.31.87.26s.81-.16.53-.58-.52-.31-.87-.26-.82.16-.53.58zM184.17 288.19c.24.35.52.31.87.26s.81-.16.53-.58-.52-.31-.87-.26-.82.15-.53.58zM487.36 100.64c.24.35.52.31.87.26s.81-.16.53-.58-.52-.31-.87-.26-.82.15-.53.58zM476.53 106.89c.24.35.52.31.87.26s.81-.16.53-.58-.52-.31-.87-.26-.81.16-.53.58zM465.7 113.14c.24.35.52.31.87.26s.81-.16.53-.58-.52-.31-.87-.26-.81.16-.53.58zM454.87 119.39c.24.35.52.31.87.26s.81-.16.53-.58-.52-.31-.87-.26-.81.19-.53.58zM444 125.64c.24.35.52.31.87.26s.81-.16.53-.58-.52-.31-.87-.26-.77.16-.53.58zM433.22 131.89c.24.35.52.31.87.26s.81-.16.53-.58-.52-.31-.87-.26-.82.16-.53.58zM422.39 138.15c.24.35.52.31.87.26s.81-.16.53-.58-.52-.31-.87-.26-.82.15-.53.58zM411.56 144.4c.24.35.52.31.87.26s.81-.16.53-.58-.52-.31-.87-.26-.81.18-.53.58zM400.73 150.65c.24.35.52.31.87.26s.81-.16.53-.58-.52-.31-.87-.26-.81.16-.53.58zM389.91 156.9c.24.35.52.31.87.26s.81-.16.53-.58-.52-.31-.87-.26-.82.16-.53.58zM379.08 163.15c.24.35.52.31.87.26s.81-.16.53-.58-.52-.31-.87-.26-.82.16-.53.58zM368.25 169.4c.24.35.52.31.87.26s.81-.16.53-.58-.52-.31-.87-.26-.78.18-.53.58zM357.42 175.66c.24.35.52.31.87.26s.81-.16.53-.58-.52-.31-.87-.26-.82.15-.53.58zM346.59 181.91c.24.35.52.31.87.26s.81-.16.53-.58-.52-.31-.87-.26-.81.16-.53.58zM335.76 188.16c.24.35.52.31.87.26s.81-.16.53-.58-.52-.31-.87-.26-.81.16-.53.58zM324.94 194.41c.24.35.52.31.87.26s.81-.16.53-.58-.52-.31-.87-.26-.82.17-.53.58zM314.11 200.66c.24.35.52.31.87.26s.81-.16.53-.58-.52-.31-.87-.26-.82.16-.53.58zM303.28 206.91c.24.35.52.31.87.26s.81-.16.53-.58-.52-.31-.87-.26-.81.16-.53.58zM292.45 213.17c.24.35.52.31.87.26s.81-.16.53-.58-.52-.31-.87-.26-.81.15-.53.58zM281.62 219.42c.24.35.52.31.87.26s.81-.16.53-.58-.52-.31-.87-.26-.81.16-.53.58zM270.8 225.67c.24.35.52.31.87.26s.81-.16.53-.58-.52-.31-.87-.26-.82.16-.53.58zM260 231.92c.24.35.52.31.87.26s.81-.16.53-.58-.52-.31-.87-.26-.85.16-.53.58zM249.14 238.17c.24.35.52.31.87.26s.81-.16.53-.58-.52-.31-.87-.26-.82.16-.53.58zM238.31 244.42c.24.35.52.31.87.26s.81-.16.53-.58-.52-.31-.87-.26-.84.16-.53.58zM227.48 250.68c.24.35.52.31.87.26s.81-.16.53-.58-.52-.31-.87-.26-.81.15-.53.58zM216.65 256.93c.24.35.52.31.87.26s.81-.16.53-.58-.52-.31-.87-.26-.81.16-.53.58zM205.83 263.18c.24.35.52.31.87.26s.81-.16.53-.58-.52-.31-.87-.26-.82.16-.53.58zM195 269.43c.24.35.52.31.87.26s.81-.16.53-.58-.52-.31-.87-.26-.82.15-.53.58zM184.17 275.68c.24.35.52.31.87.26s.81-.16.53-.58-.52-.31-.87-.26-.82.16-.53.58zM173.34 281.93c.24.35.52.31.87.26s.81-.16.53-.58-.52-.31-.87-.26-.81.16-.53.58zM476.53 94.38c.24.35.52.31.87.26s.81-.16.53-.58-.52-.31-.87-.26-.81.2-.53.58zM465.7 100.64c.24.35.52.31.87.26s.81-.16.53-.58-.52-.31-.87-.26-.81.15-.53.58zM454.87 106.89c.24.35.52.31.87.26s.81-.16.53-.58-.52-.31-.87-.26-.81.16-.53.58zM444 113.14c.24.35.52.31.87.26s.81-.16.53-.58-.52-.31-.87-.26-.77.16-.53.58zM433.22 119.39c.24.35.52.31.87.26s.81-.16.53-.58-.52-.31-.87-.26-.82.19-.53.58zM422.39 125.64c.24.35.52.31.87.26s.81-.16.53-.58-.52-.31-.87-.26-.82.16-.53.58zM411.56 131.89c.24.35.52.31.87.26s.81-.16.53-.58-.52-.31-.87-.26-.81.16-.53.58zM400.73 138.15c.24.35.52.31.87.26s.81-.16.53-.58-.52-.31-.87-.26-.81.15-.53.58zM389.91 144.4c.24.35.52.31.87.26s.81-.16.53-.58-.52-.31-.87-.26-.82.18-.53.58zM379.08 150.65c.24.35.52.31.87.26s.81-.16.53-.58-.52-.31-.87-.26-.82.16-.53.58zM368.25 156.9c.24.35.52.31.87.26s.81-.16.53-.58-.52-.31-.87-.26-.78.16-.53.58zM357.42 163.15c.24.35.52.31.87.26s.81-.16.53-.58-.52-.31-.87-.26-.82.16-.53.58zM346.59 169.4c.24.35.52.31.87.26s.81-.16.53-.58-.52-.31-.87-.26-.81.18-.53.58zM335.76 175.66c.24.35.52.31.87.26s.81-.16.53-.58-.52-.31-.87-.26-.81.15-.53.58zM324.94 181.91c.24.35.52.31.87.26s.81-.16.53-.58-.52-.31-.87-.26-.82.16-.53.58zM314.11 188.16c.24.35.52.31.87.26s.81-.16.53-.58-.52-.31-.87-.26-.82.16-.53.58zM303.28 194.41c.24.35.52.31.87.26s.81-.16.53-.58-.52-.31-.87-.26-.81.17-.53.58zM292.45 200.66c.24.35.52.31.87.26s.81-.16.53-.58-.52-.31-.87-.26-.81.16-.53.58zM281.62 206.91c.24.35.52.31.87.26s.81-.16.53-.58-.52-.31-.87-.26-.81.16-.53.58zM270.8 213.17c.24.35.52.31.87.26s.81-.16.53-.58-.52-.31-.87-.26-.82.15-.53.58zM260 219.42c.24.35.52.31.87.26s.81-.16.53-.58-.52-.31-.87-.26-.85.16-.53.58zM249.14 225.67c.24.35.52.31.87.26s.81-.16.53-.58-.52-.31-.87-.26-.82.16-.53.58zM238.31 231.92c.24.35.52.31.87.26s.81-.16.53-.58-.52-.31-.87-.26-.84.16-.53.58zM227.48 238.17c.24.35.52.31.87.26s.81-.16.53-.58-.52-.31-.87-.26-.81.16-.53.58zM216.65 244.42c.24.35.52.31.87.26s.81-.16.53-.58-.52-.31-.87-.26-.81.16-.53.58zM205.83 250.68c.24.35.52.31.87.26s.81-.16.53-.58-.52-.31-.87-.26-.82.15-.53.58zM195 256.93c.24.35.52.31.87.26s.81-.16.53-.58-.52-.31-.87-.26-.82.16-.53.58zM184.17 263.18c.24.35.52.31.87.26s.81-.16.53-.58-.52-.31-.87-.26-.82.16-.53.58zM173.34 269.43c.24.35.52.31.87.26s.81-.16.53-.58-.52-.31-.87-.26-.81.15-.53.58zM162.51 275.68c.24.35.52.31.87.26s.81-.16.53-.58-.52-.31-.87-.26-.81.16-.53.58zM465.7 88.13c.24.35.52.31.87.26s.81-.16.53-.58-.52-.31-.87-.26-.81.16-.53.58zM454.87 94.38c.24.35.52.31.87.26s.81-.16.53-.58-.52-.31-.87-.26-.81.2-.53.58zM444 100.64c.24.35.52.31.87.26s.81-.16.53-.58-.52-.31-.87-.26-.77.15-.53.58zM433.22 106.89c.24.35.52.31.87.26s.81-.16.53-.58-.52-.31-.87-.26-.82.16-.53.58zM422.39 113.14c.24.35.52.31.87.26s.81-.16.53-.58-.52-.31-.87-.26-.82.16-.53.58zM411.56 119.39c.24.35.52.31.87.26s.81-.16.53-.58-.52-.31-.87-.26-.81.19-.53.58zM400.73 125.64c.24.35.52.31.87.26s.81-.16.53-.58-.52-.31-.87-.26-.81.16-.53.58zM389.91 131.89c.24.35.52.31.87.26s.81-.16.53-.58-.52-.31-.87-.26-.82.16-.53.58zM379.08 138.15c.24.35.52.31.87.26s.81-.16.53-.58-.52-.31-.87-.26-.82.15-.53.58zM368.25 144.4c.24.35.52.31.87.26s.81-.16.53-.58-.52-.31-.87-.26-.78.18-.53.58zM357.42 150.65c.24.35.52.31.87.26s.81-.16.53-.58-.52-.31-.87-.26-.82.16-.53.58zM346.59 156.9c.24.35.52.31.87.26s.81-.16.53-.58-.52-.31-.87-.26-.81.16-.53.58zM335.76 163.15c.24.35.52.31.87.26s.81-.16.53-.58-.52-.31-.87-.26-.81.16-.53.58zM324.94 169.4c.24.35.52.31.87.26s.81-.16.53-.58-.52-.31-.87-.26-.82.18-.53.58zM314.11 175.66c.24.35.52.31.87.26s.81-.16.53-.58-.52-.31-.87-.26-.82.15-.53.58zM303.28 181.91c.24.35.52.31.87.26s.81-.16.53-.58-.52-.31-.87-.26-.81.16-.53.58zM292.45 188.16c.24.35.52.31.87.26s.81-.16.53-.58-.52-.31-.87-.26-.81.16-.53.58zM281.62 194.41c.24.35.52.31.87.26s.81-.16.53-.58-.52-.31-.87-.26-.81.17-.53.58zM270.8 200.66c.24.35.52.31.87.26s.81-.16.53-.58-.52-.31-.87-.26-.82.16-.53.58zM260 206.91c.24.35.52.31.87.26s.81-.16.53-.58-.52-.31-.87-.26-.85.16-.53.58zM249.14 213.17c.24.35.52.31.87.26s.81-.16.53-.58-.52-.31-.87-.26-.82.15-.53.58zM238.31 219.42c.24.35.52.31.87.26s.81-.16.53-.58-.52-.31-.87-.26-.84.16-.53.58zM227.48 225.67c.24.35.52.31.87.26s.81-.16.53-.58-.52-.31-.87-.26-.81.16-.53.58zM216.65 231.92c.24.35.52.31.87.26s.81-.16.53-.58-.52-.31-.87-.26-.81.16-.53.58zM205.83 238.17c.24.35.52.31.87.26s.81-.16.53-.58-.52-.31-.87-.26-.82.16-.53.58zM195 244.42c.24.35.52.31.87.26s.81-.16.53-.58-.52-.31-.87-.26-.82.16-.53.58zM184.17 250.68c.24.35.52.31.87.26s.81-.16.53-.58-.52-.31-.87-.26-.82.15-.53.58zM173.34 256.93c.24.35.52.31.87.26s.81-.16.53-.58-.52-.31-.87-.26-.81.16-.53.58zM162.51 263.18c.24.35.52.31.87.26s.81-.16.53-.58-.52-.31-.87-.26-.81.16-.53.58zM151.69 269.43c.24.35.52.31.87.26s.81-.16.53-.58-.52-.31-.87-.26-.82.15-.53.58zM454.87 81.88c.24.35.52.31.87.26s.81-.16.53-.58-.52-.31-.87-.26-.81.16-.53.58zM444 88.13c.24.35.52.31.87.26s.81-.16.53-.58-.52-.31-.87-.26-.77.16-.53.58zM433.22 94.38c.24.35.52.31.87.26s.81-.16.53-.58-.52-.31-.87-.26-.82.2-.53.58zM422.39 100.64c.24.35.52.31.87.26s.81-.16.53-.58-.52-.31-.87-.26-.82.15-.53.58zM411.56 106.89c.24.35.52.31.87.26s.81-.16.53-.58-.52-.31-.87-.26-.81.16-.53.58zM400.73 113.14c.24.35.52.31.87.26s.81-.16.53-.58-.52-.31-.87-.26-.81.16-.53.58zM389.91 119.39c.24.35.52.31.87.26s.81-.16.53-.58-.52-.31-.87-.26-.82.19-.53.58zM379.08 125.64c.24.35.52.31.87.26s.81-.16.53-.58-.52-.31-.87-.26-.82.16-.53.58zM368.25 131.89c.24.35.52.31.87.26s.81-.16.53-.58-.52-.31-.87-.26-.78.16-.53.58zM357.42 138.15c.24.35.52.31.87.26s.81-.16.53-.58-.52-.31-.87-.26-.82.15-.53.58zM346.59 144.4c.24.35.52.31.87.26s.81-.16.53-.58-.52-.31-.87-.26-.81.18-.53.58zM335.76 150.65c.24.35.52.31.87.26s.81-.16.53-.58-.52-.31-.87-.26-.81.16-.53.58zM324.94 156.9c.24.35.52.31.87.26s.81-.16.53-.58-.52-.31-.87-.26-.82.16-.53.58zM314.11 163.15c.24.35.52.31.87.26s.81-.16.53-.58-.52-.31-.87-.26-.82.16-.53.58zM303.28 169.4c.24.35.52.31.87.26s.81-.16.53-.58-.52-.31-.87-.26-.81.18-.53.58zM292.45 175.66c.24.35.52.31.87.26s.81-.16.53-.58-.52-.31-.87-.26-.81.15-.53.58zM281.62 181.91c.24.35.52.31.87.26s.81-.16.53-.58-.52-.31-.87-.26-.81.16-.53.58zM270.8 188.16c.24.35.52.31.87.26s.81-.16.53-.58-.52-.31-.87-.26-.82.16-.53.58zM260 194.41c.24.35.52.31.87.26s.81-.16.53-.58-.52-.31-.87-.26-.85.17-.53.58zM249.14 200.66c.24.35.52.31.87.26s.81-.16.53-.58-.52-.31-.87-.26-.82.16-.53.58zM238.31 206.91c.24.35.52.31.87.26s.81-.16.53-.58-.52-.31-.87-.26-.84.16-.53.58zM227.48 213.17c.24.35.52.31.87.26s.81-.16.53-.58-.52-.31-.87-.26-.81.15-.53.58zM216.65 219.42c.24.35.52.31.87.26s.81-.16.53-.58-.52-.31-.87-.26-.81.16-.53.58zM205.83 225.67c.24.35.52.31.87.26s.81-.16.53-.58-.52-.31-.87-.26-.82.16-.53.58zM195 231.92c.24.35.52.31.87.26s.81-.16.53-.58-.52-.31-.87-.26-.82.16-.53.58zM184.17 238.17c.24.35.52.31.87.26s.81-.16.53-.58-.52-.31-.87-.26-.82.16-.53.58zM173.34 244.42c.24.35.52.31.87.26s.81-.16.53-.58-.52-.31-.87-.26-.81.16-.53.58zM162.51 250.68c.24.35.52.31.87.26s.81-.16.53-.58-.52-.31-.87-.26-.81.15-.53.58zM151.69 256.93c.24.35.52.31.87.26s.81-.16.53-.58-.52-.31-.87-.26-.82.16-.53.58zM140.86 263.18c.24.35.52.31.87.26s.81-.16.53-.58-.52-.31-.87-.26-.82.16-.53.58zM444 75.63c.24.35.52.31.87.26s.81-.16.53-.58-.52-.31-.87-.26-.77.16-.53.58zM433.22 81.88c.24.35.52.31.87.26s.81-.16.53-.58-.52-.31-.87-.26-.82.16-.53.58zM422.39 88.13c.24.35.52.31.87.26s.81-.16.53-.58-.52-.31-.87-.26-.82.16-.53.58zM411.56 94.38c.24.35.52.31.87.26s.81-.16.53-.58-.52-.31-.87-.26-.81.2-.53.58zM400.73 100.64c.24.35.52.31.87.26s.81-.16.53-.58-.52-.31-.87-.26-.81.15-.53.58zM389.91 106.89c.24.35.52.31.87.26s.81-.16.53-.58-.52-.31-.87-.26-.82.16-.53.58zM379.08 113.14c.24.35.52.31.87.26s.81-.16.53-.58-.52-.31-.87-.26-.82.16-.53.58zM368.25 119.39c.24.35.52.31.87.26s.81-.16.53-.58-.52-.31-.87-.26-.78.19-.53.58zM357.42 125.64c.24.35.52.31.87.26s.81-.16.53-.58-.52-.31-.87-.26-.82.16-.53.58zM346.59 131.89c.24.35.52.31.87.26s.81-.16.53-.58-.52-.31-.87-.26-.81.16-.53.58zM335.76 138.15c.24.35.52.31.87.26s.81-.16.53-.58-.52-.31-.87-.26-.81.15-.53.58zM324.94 144.4c.24.35.52.31.87.26s.81-.16.53-.58-.52-.31-.87-.26-.82.18-.53.58zM314.11 150.65c.24.35.52.31.87.26s.81-.16.53-.58-.52-.31-.87-.26-.82.16-.53.58zM303.28 156.9c.24.35.52.31.87.26s.81-.16.53-.58-.52-.31-.87-.26-.81.16-.53.58zM292.45 163.15c.24.35.52.31.87.26s.81-.16.53-.58-.52-.31-.87-.26-.81.16-.53.58zM281.62 169.4c.24.35.52.31.87.26s.81-.16.53-.58-.52-.31-.87-.26-.81.18-.53.58zM270.8 175.66c.24.35.52.31.87.26s.81-.16.53-.58-.52-.31-.87-.26-.82.15-.53.58zM260 181.91c.24.35.52.31.87.26s.81-.16.53-.58-.52-.31-.87-.26-.85.16-.53.58zM249.14 188.16c.24.35.52.31.87.26s.81-.16.53-.58-.52-.31-.87-.26-.82.16-.53.58zM238.31 194.41c.24.35.52.31.87.26s.81-.16.53-.58-.52-.31-.87-.26-.84.17-.53.58zM227.48 200.66c.24.35.52.31.87.26s.81-.16.53-.58-.52-.31-.87-.26-.81.16-.53.58zM216.65 206.91c.24.35.52.31.87.26s.81-.16.53-.58-.52-.31-.87-.26-.81.16-.53.58zM205.83 213.17c.24.35.52.31.87.26s.81-.16.53-.58-.52-.31-.87-.26-.82.15-.53.58zM195 219.42c.24.35.52.31.87.26s.81-.16.53-.58-.52-.31-.87-.26-.82.16-.53.58zM184.17 225.67c.24.35.52.31.87.26s.81-.16.53-.58-.52-.31-.87-.26-.82.16-.53.58zM173.34 231.92c.24.35.52.31.87.26s.81-.16.53-.58-.52-.31-.87-.26-.81.16-.53.58zM162.51 238.17c.24.35.52.31.87.26s.81-.16.53-.58-.52-.31-.87-.26-.81.16-.53.58zM151.69 244.42c.24.35.52.31.87.26s.81-.16.53-.58-.52-.31-.87-.26-.82.16-.53.58zM140.86 250.68c.24.35.52.31.87.26s.81-.16.53-.58-.52-.31-.87-.26-.82.15-.53.58zM130 256.93c.24.35.52.31.87.26s.81-.16.53-.58-.52-.31-.87-.26-.79.16-.53.58zM433.22 69.38c.24.35.52.31.87.26s.81-.16.53-.58-.52-.31-.87-.26-.82.2-.53.58zM422.39 75.63c.24.35.52.31.87.26s.81-.16.53-.58-.52-.31-.87-.26-.82.16-.53.58zM411.56 81.88c.24.35.52.31.87.26s.81-.16.53-.58-.52-.31-.87-.26-.81.16-.53.58zM400.73 88.13c.24.35.52.31.87.26s.81-.16.53-.58-.52-.31-.87-.26-.81.16-.53.58zM389.91 94.38c.24.35.52.31.87.26s.81-.16.53-.58-.52-.31-.87-.26-.82.2-.53.58zM379.08 100.64c.24.35.52.31.87.26s.81-.16.53-.58-.52-.31-.87-.26-.82.15-.53.58zM368.25 106.89c.24.35.52.31.87.26s.81-.16.53-.58-.52-.31-.87-.26-.78.16-.53.58zM357.42 113.14c.24.35.52.31.87.26s.81-.16.53-.58-.52-.31-.87-.26-.82.16-.53.58zM346.59 119.39c.24.35.52.31.87.26s.81-.16.53-.58-.52-.31-.87-.26-.81.19-.53.58zM335.76 125.64c.24.35.52.31.87.26s.81-.16.53-.58-.52-.31-.87-.26-.81.16-.53.58zM324.94 131.89c.24.35.52.31.87.26s.81-.16.53-.58-.52-.31-.87-.26-.82.16-.53.58zM314.11 138.15c.24.35.52.31.87.26s.81-.16.53-.58-.52-.31-.87-.26-.82.15-.53.58zM303.28 144.4c.24.35.52.31.87.26s.81-.16.53-.58-.52-.31-.87-.26-.81.18-.53.58zM292.45 150.65c.24.35.52.31.87.26s.81-.16.53-.58-.52-.31-.87-.26-.81.16-.53.58zM281.62 156.9c.24.35.52.31.87.26s.81-.16.53-.58-.52-.31-.87-.26-.81.16-.53.58zM270.8 163.15c.24.35.52.31.87.26s.81-.16.53-.58-.52-.31-.87-.26-.82.16-.53.58zM260 169.4c.24.35.52.31.87.26s.81-.16.53-.58-.52-.31-.87-.26-.85.18-.53.58zM249.14 175.66c.24.35.52.31.87.26s.81-.16.53-.58-.52-.31-.87-.26-.82.15-.53.58zM238.31 181.91c.24.35.52.31.87.26s.81-.16.53-.58-.52-.31-.87-.26-.84.16-.53.58zM227.48 188.16c.24.35.52.31.87.26s.81-.16.53-.58-.52-.31-.87-.26-.81.16-.53.58zM216.65 194.41c.24.35.52.31.87.26s.81-.16.53-.58-.52-.31-.87-.26-.81.17-.53.58zM205.83 200.66c.24.35.52.31.87.26s.81-.16.53-.58-.52-.31-.87-.26-.82.16-.53.58zM195 206.91c.24.35.52.31.87.26s.81-.16.53-.58-.52-.31-.87-.26-.82.16-.53.58zM184.17 213.17c.24.35.52.31.87.26s.81-.16.53-.58-.52-.31-.87-.26-.82.15-.53.58zM173.34 219.42c.24.35.52.31.87.26s.81-.16.53-.58-.52-.31-.87-.26-.81.16-.53.58zM162.51 225.67c.24.35.52.31.87.26s.81-.16.53-.58-.52-.31-.87-.26-.81.16-.53.58zM151.69 231.92c.24.35.52.31.87.26s.81-.16.53-.58-.52-.31-.87-.26-.82.16-.53.58zM140.86 238.17c.24.35.52.31.87.26s.81-.16.53-.58-.52-.31-.87-.26-.82.16-.53.58zM130 244.42c.24.35.52.31.87.26s.81-.16.53-.58-.52-.31-.87-.26-.79.16-.53.58zM119.2 250.68c.24.35.52.31.87.26s.81-.16.53-.58-.52-.31-.87-.26-.82.15-.53.58zM422.39 63.13c.24.35.52.31.87.26s.81-.16.53-.58-.52-.31-.87-.26-.82.15-.53.58zM411.56 69.38c.24.35.52.31.87.26s.81-.16.53-.58-.52-.31-.87-.26-.81.2-.53.58zM400.73 75.63c.24.35.52.31.87.26s.81-.16.53-.58-.52-.31-.87-.26-.81.16-.53.58zM389.91 81.88c.24.35.52.31.87.26s.81-.16.53-.58-.52-.31-.87-.26-.82.16-.53.58zM379.08 88.13c.24.35.52.31.87.26s.81-.16.53-.58-.52-.31-.87-.26-.82.16-.53.58zM368.25 94.38c.24.35.52.31.87.26s.81-.16.53-.58-.52-.31-.87-.26-.78.2-.53.58zM357.42 100.64c.24.35.52.31.87.26s.81-.16.53-.58-.52-.31-.87-.26-.82.15-.53.58zM346.59 106.89c.24.35.52.31.87.26s.81-.16.53-.58-.52-.31-.87-.26-.81.16-.53.58zM335.76 113.14c.24.35.52.31.87.26s.81-.16.53-.58-.52-.31-.87-.26-.81.16-.53.58zM324.94 119.39c.24.35.52.31.87.26s.81-.16.53-.58-.52-.31-.87-.26-.82.19-.53.58zM314.11 125.64c.24.35.52.31.87.26s.81-.16.53-.58-.52-.31-.87-.26-.82.16-.53.58zM303.28 131.89c.24.35.52.31.87.26s.81-.16.53-.58-.52-.31-.87-.26-.81.16-.53.58zM292.45 138.15c.24.35.52.31.87.26s.81-.16.53-.58-.52-.31-.87-.26-.81.15-.53.58zM281.62 144.4c.24.35.52.31.87.26s.81-.16.53-.58-.52-.31-.87-.26-.81.18-.53.58zM270.8 150.65c.24.35.52.31.87.26s.81-.16.53-.58-.52-.31-.87-.26-.82.16-.53.58zM260 156.9c.24.35.52.31.87.26s.81-.16.53-.58-.52-.31-.87-.26-.85.16-.53.58zM249.14 163.15c.24.35.52.31.87.26s.81-.16.53-.58-.52-.31-.87-.26-.82.16-.53.58zM238.31 169.4c.24.35.52.31.87.26s.81-.16.53-.58-.52-.31-.87-.26-.84.18-.53.58zM227.48 175.66c.24.35.52.31.87.26s.81-.16.53-.58-.52-.31-.87-.26-.81.15-.53.58zM216.65 181.91c.24.35.52.31.87.26s.81-.16.53-.58-.52-.31-.87-.26-.81.16-.53.58zM205.83 188.16c.24.35.52.31.87.26s.81-.16.53-.58-.52-.31-.87-.26-.82.16-.53.58zM195 194.41c.24.35.52.31.87.26s.81-.16.53-.58-.52-.31-.87-.26-.82.17-.53.58zM184.17 200.66c.24.35.52.31.87.26s.81-.16.53-.58-.52-.31-.87-.26-.82.16-.53.58zM173.34 206.91c.24.35.52.31.87.26s.81-.16.53-.58-.52-.31-.87-.26-.81.16-.53.58zM162.51 213.17c.24.35.52.31.87.26s.81-.16.53-.58-.52-.31-.87-.26-.81.15-.53.58zM151.69 219.42c.24.35.52.31.87.26s.81-.16.53-.58-.52-.31-.87-.26-.82.16-.53.58zM140.86 225.67c.24.35.52.31.87.26s.81-.16.53-.58-.52-.31-.87-.26-.82.16-.53.58zM130 231.92c.24.35.52.31.87.26s.81-.16.53-.58-.52-.31-.87-.26-.79.16-.53.58zM119.2 238.17c.24.35.52.31.87.26s.81-.16.53-.58-.52-.31-.87-.26-.82.16-.53.58zM108.37 244.42c.24.35.52.31.87.26s.81-.16.53-.58-.52-.31-.87-.26-.81.16-.53.58zM411.56 56.87c.24.35.52.31.87.26s.81-.16.53-.58-.52-.31-.87-.26-.81.16-.53.58zM400.73 63.13c.24.35.52.31.87.26s.81-.16.53-.58-.52-.31-.87-.26-.81.15-.53.58zM389.91 69.38c.24.35.52.31.87.26s.81-.16.53-.58-.52-.31-.87-.26-.82.2-.53.58zM379.08 75.63c.24.35.52.31.87.26s.81-.16.53-.58-.48-.31-.87-.31-.82.21-.53.63zM368.25 81.88c.24.35.52.31.87.26s.81-.16.53-.58-.52-.31-.87-.26-.78.16-.53.58zM357.42 88.13c.24.35.52.31.87.26s.81-.16.53-.58-.52-.31-.87-.26-.82.16-.53.58zM346.59 94.38c.24.35.52.31.87.26s.81-.16.53-.58-.52-.31-.87-.26-.81.2-.53.58zM335.76 100.64c.24.35.52.31.87.26s.81-.16.53-.58-.52-.31-.87-.26-.81.15-.53.58zM324.94 106.89c.24.35.52.31.87.26s.81-.16.53-.58-.52-.31-.87-.26-.82.16-.53.58zM314.11 113.14c.24.35.52.31.87.26s.81-.16.53-.58-.52-.31-.87-.26-.82.16-.53.58zM303.28 119.39c.24.35.52.31.87.26s.81-.16.53-.58-.52-.31-.87-.26-.81.19-.53.58zM292.45 125.64c.24.35.52.31.87.26s.81-.16.53-.58-.52-.31-.87-.26-.81.16-.53.58zM281.62 131.89c.24.35.52.31.87.26s.81-.16.53-.58-.52-.31-.87-.26-.81.16-.53.58zM270.8 138.15c.24.35.52.31.87.26s.81-.16.53-.58-.52-.31-.87-.26-.82.15-.53.58zM260 144.4c.24.35.52.31.87.26s.81-.16.53-.58-.52-.31-.87-.26-.85.18-.53.58zM249.14 150.65c.24.35.52.31.87.26s.81-.16.53-.58-.52-.31-.87-.26-.82.16-.53.58zM238.31 156.9c.24.35.52.31.87.26s.81-.16.53-.58-.52-.31-.87-.26-.84.16-.53.58zM227.48 163.15c.24.35.52.31.87.26s.81-.16.53-.58-.52-.31-.87-.26-.81.16-.53.58zM216.65 169.4c.24.35.52.31.87.26s.81-.16.53-.58-.52-.31-.87-.26-.81.18-.53.58zM205.83 175.66c.24.35.52.31.87.26s.81-.16.53-.58-.52-.31-.87-.26-.82.15-.53.58zM195 181.91c.24.35.52.31.87.26s.81-.16.53-.58-.52-.31-.87-.26-.82.16-.53.58zM184.17 188.16c.24.35.52.31.87.26s.81-.16.53-.58-.52-.31-.87-.26-.82.16-.53.58zM173.34 194.41c.24.35.52.31.87.26s.81-.16.53-.58-.52-.31-.87-.26-.81.17-.53.58zM162.51 200.66c.24.35.52.31.87.26s.81-.16.53-.58-.52-.31-.87-.26-.81.16-.53.58zM151.69 206.91c.24.35.52.31.87.26s.81-.16.53-.58-.52-.31-.87-.26-.82.16-.53.58zM140.86 213.17c.24.35.52.31.87.26s.81-.16.53-.58-.52-.31-.87-.26-.82.15-.53.58zM130 219.42c.24.35.52.31.87.26s.81-.16.53-.58-.52-.31-.87-.26-.79.16-.53.58zM119.2 225.67c.24.35.52.31.87.26s.81-.16.53-.58-.52-.31-.87-.26-.82.16-.53.58zM108.37 231.92c.24.35.52.31.87.26s.81-.16.53-.58-.52-.31-.87-.26-.81.16-.53.58zM97.54 238.17c.24.35.52.31.87.26s.81-.16.53-.58-.52-.31-.87-.26-.81.16-.53.58zM400.73 50.62c.24.35.52.31.87.26s.81-.16.53-.58-.52-.31-.87-.26-.81.16-.53.58zM389.91 56.87c.24.35.52.31.87.26s.81-.16.53-.58-.52-.31-.87-.26-.82.16-.53.58zM379.08 63.13c.24.35.52.31.87.26s.81-.16.53-.58-.52-.31-.87-.26-.82.15-.53.58zM368.25 69.38c.24.35.52.31.87.26s.81-.16.53-.58-.52-.31-.87-.26-.78.2-.53.58zM357.42 75.63c.24.35.52.31.87.26s.81-.16.53-.58-.52-.31-.87-.26-.82.16-.53.58zM346.59 81.88c.24.35.52.31.87.26s.81-.16.53-.58-.52-.31-.87-.26-.81.16-.53.58zM335.76 88.13c.24.35.52.31.87.26s.81-.16.53-.58-.52-.31-.87-.26-.81.16-.53.58zM324.94 94.38c.24.35.52.31.87.26s.81-.16.53-.58-.52-.31-.87-.26-.82.2-.53.58zM314.11 100.64c.24.35.52.31.87.26s.81-.16.53-.58-.52-.31-.87-.26-.82.15-.53.58zM303.28 106.89c.24.35.52.31.87.26s.81-.16.53-.58-.52-.31-.87-.26-.81.16-.53.58zM292.45 113.14c.24.35.52.31.87.26s.81-.16.53-.58-.52-.31-.87-.26-.81.16-.53.58zM281.62 119.39c.24.35.52.31.87.26s.81-.16.53-.58-.52-.31-.87-.26-.81.19-.53.58zM270.8 125.64c.24.35.52.31.87.26s.81-.16.53-.58-.52-.31-.87-.26-.82.16-.53.58zM260 131.89c.24.35.52.31.87.26s.81-.16.53-.58-.52-.31-.87-.26-.85.16-.53.58zM249.14 138.15c.24.35.52.31.87.26s.81-.16.53-.58-.52-.31-.87-.26-.82.15-.53.58zM238.31 144.4c.24.35.52.31.87.26s.81-.16.53-.58-.52-.31-.87-.26-.84.18-.53.58zM227.48 150.65c.24.35.52.31.87.26s.81-.16.53-.58-.52-.31-.87-.26-.81.16-.53.58zM216.65 156.9c.24.35.52.31.87.26s.81-.16.53-.58-.52-.31-.87-.26-.81.16-.53.58zM205.83 163.15c.24.35.52.31.87.26s.81-.16.53-.58-.52-.31-.87-.26-.82.16-.53.58zM195 169.4c.24.35.52.31.87.26s.81-.16.53-.58-.52-.31-.87-.26-.82.18-.53.58zM184.17 175.66c.24.35.52.31.87.26s.81-.16.53-.58-.52-.31-.87-.26-.82.15-.53.58zM173.34 181.91c.24.35.52.31.87.26s.81-.16.53-.58-.52-.31-.87-.26-.81.16-.53.58zM162.51 188.16c.24.35.52.31.87.26s.81-.16.53-.58-.52-.31-.87-.26-.81.16-.53.58zM151.69 194.41c.24.35.52.31.87.26s.81-.16.53-.58-.52-.31-.87-.26-.82.17-.53.58zM140.86 200.66c.24.35.52.31.87.26s.81-.16.53-.58-.52-.31-.87-.26-.82.16-.53.58zM130 206.91c.24.35.52.31.87.26s.81-.16.53-.58-.52-.31-.87-.26-.79.16-.53.58zM119.2 213.17c.24.35.52.31.87.26s.81-.16.53-.58-.52-.31-.87-.26-.82.15-.53.58zM108.37 219.42c.24.35.52.31.87.26s.81-.16.53-.58-.52-.31-.87-.26-.81.16-.53.58zM97.54 225.67c.24.35.52.31.87.26s.81-.16.53-.58-.52-.31-.87-.26-.81.16-.53.58zM86.72 231.92c.24.35.52.31.87.26s.81-.16.53-.58-.52-.31-.87-.26-.82.16-.53.58zM389.91 44.37c.24.35.52.31.87.26s.81-.16.53-.58-.52-.31-.87-.26-.82.16-.53.58zM379.08 50.62c.24.35.52.31.87.26s.81-.16.53-.58-.48-.3-.87-.3-.82.2-.53.62zM368.25 56.87c.24.35.52.31.87.26s.81-.16.53-.58-.52-.31-.87-.26-.78.16-.53.58zM357.42 63.13c.24.35.52.31.87.26s.81-.16.53-.58-.52-.31-.87-.26-.82.15-.53.58zM346.59 69.38c.24.35.52.31.87.26s.81-.16.53-.58-.52-.31-.87-.26-.81.2-.53.58zM335.76 75.63c.24.35.52.31.87.26s.81-.16.53-.58-.52-.31-.87-.26-.81.16-.53.58zM324.94 81.88c.24.35.52.31.87.26s.81-.16.53-.58-.52-.31-.87-.26-.82.16-.53.58zM314.11 88.13c.24.35.52.31.87.26s.81-.16.53-.58-.52-.31-.87-.26-.82.16-.53.58zM303.28 94.38c.24.35.52.31.87.26s.81-.16.53-.58-.52-.31-.87-.26-.81.2-.53.58zM292.45 100.64c.24.35.52.31.87.26s.81-.16.53-.58-.52-.31-.87-.26-.81.15-.53.58zM281.62 106.89c.24.35.52.31.87.26s.81-.16.53-.58-.52-.31-.87-.26-.81.16-.53.58zM270.8 113.14c.24.35.52.31.87.26s.81-.16.53-.58-.52-.31-.87-.26-.82.16-.53.58zM260 119.39c.24.35.52.31.87.26s.81-.16.53-.58-.52-.31-.87-.26-.85.19-.53.58zM249.14 125.64c.24.35.52.31.87.26s.81-.16.53-.58-.52-.31-.87-.26-.82.16-.53.58zM238.31 131.89c.24.35.52.31.87.26s.81-.16.53-.58-.52-.31-.87-.26-.84.16-.53.58zM227.48 138.15c.24.35.52.31.87.26s.81-.16.53-.58-.52-.31-.87-.26-.81.15-.53.58zM216.65 144.4c.24.35.52.31.87.26s.81-.16.53-.58-.52-.31-.87-.26-.81.18-.53.58zM205.83 150.65c.24.35.52.31.87.26s.81-.16.53-.58-.52-.31-.87-.26-.82.16-.53.58zM195 156.9c.24.35.52.31.87.26s.81-.16.53-.58-.52-.31-.87-.26-.82.16-.53.58zM184.17 163.15c.24.35.52.31.87.26s.81-.16.53-.58-.52-.31-.87-.26-.82.16-.53.58zM173.34 169.4c.24.35.52.31.87.26s.81-.16.53-.58-.52-.31-.87-.26-.81.18-.53.58zM162.51 175.66c.24.35.52.31.87.26s.81-.16.53-.58-.52-.31-.87-.26-.81.15-.53.58zM151.69 181.91c.24.35.52.31.87.26s.81-.16.53-.58-.52-.31-.87-.26-.82.16-.53.58zM140.86 188.16c.24.35.52.31.87.26s.81-.16.53-.58-.52-.31-.87-.26-.82.16-.53.58zM130 194.41c.24.35.52.31.87.26s.81-.16.53-.58-.52-.31-.87-.26-.79.17-.53.58zM119.2 200.66c.24.35.52.31.87.26s.81-.16.53-.58-.52-.31-.87-.26-.82.16-.53.58zM108.37 206.91c.24.35.52.31.87.26s.81-.16.53-.58-.52-.31-.87-.26-.81.16-.53.58zM97.54 213.17c.24.35.52.31.87.26s.81-.16.53-.58-.52-.31-.87-.26-.81.15-.53.58zM86.72 219.42c.24.35.52.31.87.26s.81-.16.53-.58-.52-.31-.87-.26-.82.16-.53.58zM75.89 225.67c.24.35.52.31.87.26s.81-.16.53-.58-.52-.31-.87-.26-.82.16-.53.58zM379.08 38.12c.24.35.52.31.87.26s.81-.16.53-.58-.52-.31-.87-.26-.82.16-.53.58zM368.25 44.37c.24.35.52.31.87.26s.81-.16.53-.58-.52-.31-.87-.26-.78.16-.53.58zM357.42 50.62c.24.35.52.31.87.26s.81-.16.53-.58-.52-.31-.87-.26-.82.16-.53.58zM346.59 56.87c.24.35.52.31.87.26s.81-.16.53-.58-.52-.31-.87-.26-.81.16-.53.58zM335.76 63.13c.24.35.52.31.87.26s.81-.16.53-.58-.52-.31-.87-.26-.81.15-.53.58zM324.94 69.38c.24.35.52.31.87.26s.81-.16.53-.58-.52-.31-.87-.26-.82.2-.53.58zM314.11 75.63c.24.35.52.31.87.26s.81-.16.53-.58-.51-.31-.87-.31-.82.21-.53.63zM303.28 81.88c.24.35.52.31.87.26s.81-.16.53-.58-.52-.31-.87-.26-.81.16-.53.58zM292.45 88.13c.24.35.52.31.87.26s.81-.16.53-.58-.52-.31-.87-.26-.81.16-.53.58zM281.62 94.38c.24.35.52.31.87.26s.81-.16.53-.58-.52-.31-.87-.26-.81.2-.53.58zM270.8 100.64c.24.35.52.31.87.26s.81-.16.53-.58-.52-.31-.87-.26-.82.15-.53.58zM260 106.89c.24.35.52.31.87.26s.81-.16.53-.58-.52-.31-.87-.26-.85.16-.53.58zM249.14 113.14c.24.35.52.31.87.26s.81-.16.53-.58-.52-.31-.87-.26-.82.16-.53.58zM238.31 119.39c.24.35.52.31.87.26s.81-.16.53-.58-.52-.31-.87-.26-.84.19-.53.58zM227.48 125.64c.24.35.52.31.87.26s.81-.16.53-.58-.52-.31-.87-.26-.81.16-.53.58zM216.65 131.89c.24.35.52.31.87.26s.81-.16.53-.58-.52-.31-.87-.26-.81.16-.53.58zM205.83 138.15c.24.35.52.31.87.26s.81-.16.53-.58-.52-.31-.87-.26-.82.15-.53.58zM195 144.4c.24.35.52.31.87.26s.81-.16.53-.58-.52-.31-.87-.26-.82.18-.53.58zM184.17 150.65c.24.35.52.31.87.26s.81-.16.53-.58-.52-.31-.87-.26-.82.16-.53.58zM173.34 156.9c.24.35.52.31.87.26s.81-.16.53-.58-.52-.31-.87-.26-.81.16-.53.58zM162.51 163.15c.24.35.52.31.87.26s.81-.16.53-.58-.52-.31-.87-.26-.81.16-.53.58zM151.69 169.4c.24.35.52.31.87.26s.81-.16.53-.58-.52-.31-.87-.26-.82.18-.53.58zM140.86 175.66c.24.35.52.31.87.26s.81-.16.53-.58-.52-.31-.87-.26-.82.15-.53.58zM130 181.91c.24.35.52.31.87.26s.81-.16.53-.58-.52-.31-.87-.26-.79.16-.53.58zM119.2 188.16c.24.35.52.31.87.26s.81-.16.53-.58-.52-.31-.87-.26-.82.16-.53.58zM108.37 194.41c.24.35.52.31.87.26s.81-.16.53-.58-.52-.31-.87-.26-.81.17-.53.58zM97.54 200.66c.24.35.52.31.87.26s.81-.16.53-.58-.52-.31-.87-.26-.81.16-.53.58zM86.72 206.91c.24.35.52.31.87.26s.81-.16.53-.58-.52-.31-.87-.26-.82.16-.53.58zM75.89 213.17c.24.35.52.31.87.26s.81-.16.53-.58-.52-.31-.87-.26-.82.15-.53.58zM65.06 219.42c.24.35.52.31.87.26s.81-.16.53-.58-.52-.31-.87-.26-.82.16-.53.58zM368.25 31.87c.24.35.52.31.87.26s.81-.16.53-.58-.52-.31-.87-.26-.78.16-.53.58zM357.42 38.12c.24.35.52.31.87.26s.81-.16.53-.58-.52-.31-.87-.26-.82.16-.53.58zM346.59 44.37c.24.35.52.31.87.26s.81-.16.53-.58-.52-.31-.87-.26-.81.16-.53.58zM335.76 50.62c.24.35.52.31.87.26s.81-.16.53-.58-.52-.31-.87-.26-.81.16-.53.58zM324.94 56.87c.24.35.52.31.87.26s.81-.16.53-.58-.52-.31-.87-.26-.82.16-.53.58zM314.11 63.13c.24.35.52.31.87.26s.81-.16.53-.58-.52-.31-.87-.26-.82.15-.53.58zM303.28 69.38c.24.35.52.31.87.26s.81-.16.53-.58-.52-.31-.87-.26-.81.2-.53.58zM292.45 75.63c.24.35.52.31.87.26s.81-.16.53-.58-.52-.31-.85-.31-.83.21-.55.63zM281.62 81.88c.24.35.52.31.87.26s.81-.16.53-.58-.52-.31-.87-.26-.81.16-.53.58zM270.8 88.13c.24.35.52.31.87.26s.81-.16.53-.58-.52-.31-.87-.26-.82.16-.53.58zM260 94.38c.24.35.52.31.87.26s.81-.16.53-.58-.52-.31-.87-.26-.85.2-.53.58zM249.14 100.64c.24.35.52.31.87.26s.81-.16.53-.58-.52-.31-.87-.26-.82.15-.53.58zM238.31 106.89c.24.35.52.31.87.26s.81-.16.53-.58-.52-.31-.87-.26-.84.16-.53.58zM227.48 113.14c.24.35.52.31.87.26s.81-.16.53-.58-.52-.31-.87-.26-.81.16-.53.58zM216.65 119.39c.24.35.52.31.87.26s.81-.16.53-.58-.52-.31-.87-.26-.81.19-.53.58zM205.83 125.64c.24.35.52.31.87.26s.81-.16.53-.58-.52-.31-.87-.26-.82.16-.53.58zM195 131.89c.24.35.52.31.87.26s.81-.16.53-.58-.52-.31-.87-.26-.82.16-.53.58zM184.17 138.15c.24.35.52.31.87.26s.81-.16.53-.58-.52-.31-.87-.26-.82.15-.53.58zM173.34 144.4c.24.35.52.31.87.26s.81-.16.53-.58-.52-.31-.87-.26-.81.18-.53.58zM162.51 150.65c.24.35.52.31.87.26s.81-.16.53-.58-.52-.31-.87-.26-.81.16-.53.58zM151.69 156.9c.24.35.52.31.87.26s.81-.16.53-.58-.52-.31-.87-.26-.82.16-.53.58zM140.86 163.15c.24.35.52.31.87.26s.81-.16.53-.58-.52-.31-.87-.26-.82.16-.53.58zM130 169.4c.24.35.52.31.87.26s.81-.16.53-.58-.52-.31-.87-.26-.79.18-.53.58zM119.2 175.66c.24.35.52.31.87.26s.81-.16.53-.58-.52-.31-.87-.26-.82.15-.53.58zM108.37 181.91c.24.35.52.31.87.26s.81-.16.53-.58-.52-.31-.87-.26-.81.16-.53.58zM97.54 188.16c.24.35.52.31.87.26s.81-.16.53-.58-.52-.31-.87-.26-.81.16-.53.58zM86.72 194.41c.24.35.52.31.87.26s.81-.16.53-.58-.52-.31-.87-.26-.82.17-.53.58zM75.89 200.66c.24.35.52.31.87.26s.81-.16.53-.58-.52-.31-.87-.26-.82.16-.53.58zM65.06 206.91c.24.35.52.31.87.26s.81-.16.53-.58-.52-.31-.87-.26-.82.16-.53.58zM54.23 213.17c.24.35.52.31.87.26s.81-.16.53-.58-.52-.31-.87-.26-.81.15-.53.58zM357.42 25.62c.24.35.52.31.87.26s.81-.16.53-.58-.52-.31-.87-.26-.82.15-.53.58zM346.59 31.87c.24.35.52.31.87.26s.81-.16.53-.58-.52-.31-.87-.26-.81.16-.53.58zM335.76 38.12c.24.35.52.31.87.26s.81-.16.53-.58-.52-.31-.87-.26-.81.16-.53.58zM324.94 44.37c.24.35.52.31.87.26s.81-.16.53-.58-.52-.31-.87-.26-.82.16-.53.58zM314.11 50.62c.24.35.52.31.87.26s.81-.16.53-.58-.51-.3-.87-.3-.82.2-.53.62zM303.28 56.87c.24.35.52.31.87.26s.81-.16.53-.58-.52-.31-.87-.26-.81.16-.53.58zM292.45 63.13c.24.35.52.31.87.26s.81-.16.53-.58-.52-.31-.87-.26-.81.15-.53.58zM281.62 69.38c.24.35.52.31.87.26s.81-.16.53-.58-.52-.31-.87-.26-.81.2-.53.58zM270.8 75.63c.24.35.52.31.87.26s.81-.16.53-.58-.52-.31-.87-.26-.82.16-.53.58zM260 81.88c.24.35.52.31.87.26s.81-.16.53-.58-.52-.31-.87-.26-.85.16-.53.58zM249.14 88.13c.24.35.52.31.87.26s.81-.16.53-.58-.52-.31-.87-.26-.82.16-.53.58zM238.31 94.38c.24.35.52.31.87.26s.81-.16.53-.58-.52-.31-.87-.26-.84.2-.53.58zM227.48 100.64c.24.35.52.31.87.26s.81-.16.53-.58-.52-.31-.87-.26-.81.15-.53.58zM216.65 106.89c.24.35.52.31.87.26s.81-.16.53-.58-.52-.31-.87-.26-.81.16-.53.58zM205.83 113.14c.24.35.52.31.87.26s.81-.16.53-.58-.52-.31-.87-.26-.82.16-.53.58zM195 119.39c.24.35.52.31.87.26s.81-.16.53-.58-.52-.31-.87-.26-.82.19-.53.58zM184.17 125.64c.24.35.52.31.87.26s.81-.16.53-.58-.52-.31-.87-.26-.82.16-.53.58zM173.34 131.89c.24.35.52.31.87.26s.81-.16.53-.58-.52-.31-.87-.26-.81.16-.53.58zM162.51 138.15c.24.35.52.31.87.26s.81-.16.53-.58-.52-.31-.87-.26-.81.15-.53.58zM151.69 144.4c.24.35.52.31.87.26s.81-.16.53-.58-.52-.31-.87-.26-.82.18-.53.58zM140.86 150.65c.24.35.52.31.87.26s.81-.16.53-.58-.52-.31-.87-.26-.82.16-.53.58zM130 156.9c.24.35.52.31.87.26s.81-.16.53-.58-.52-.31-.87-.26-.79.16-.53.58zM119.2 163.15c.24.35.52.31.87.26s.81-.16.53-.58-.52-.31-.87-.26-.82.16-.53.58zM108.37 169.4c.24.35.52.31.87.26s.81-.16.53-.58-.52-.31-.87-.26-.81.18-.53.58zM97.54 175.66c.24.35.52.31.87.26s.81-.16.53-.58-.52-.31-.87-.26-.81.15-.53.58zM86.72 181.91c.24.35.52.31.87.26s.81-.16.53-.58-.52-.31-.87-.26-.82.16-.53.58zM75.89 188.16c.24.35.52.31.87.26s.81-.16.53-.58-.52-.31-.87-.26-.82.16-.53.58zM65.06 194.41c.24.35.52.31.87.26s.81-.16.53-.58-.52-.31-.87-.26-.82.17-.53.58zM54.23 200.66c.24.35.52.31.87.26s.81-.16.53-.58-.52-.31-.87-.26-.81.16-.53.58zM43.4 206.91c.24.35.52.31.87.26s.81-.16.53-.58-.52-.31-.87-.26-.81.16-.53.58zM346.59 19.36c.24.35.52.31.87.26s.81-.16.53-.58-.52-.31-.87-.26-.81.16-.53.58zM335.76 25.62c.24.35.52.31.87.26s.81-.16.53-.58-.52-.31-.87-.26-.81.15-.53.58zM324.94 31.87c.24.35.52.31.87.26s.81-.16.53-.58-.52-.31-.87-.26-.82.16-.53.58zM314.11 38.12c.24.35.52.31.87.26s.81-.16.53-.58-.52-.31-.87-.26-.82.16-.53.58zM303.28 44.37c.24.35.52.31.87.26s.81-.16.53-.58-.52-.31-.87-.26-.81.16-.53.58zM292.45 50.62c.24.35.52.31.87.26s.81-.16.53-.58-.52-.3-.85-.3-.83.2-.55.62zM281.62 56.87c.24.35.52.31.87.26s.81-.16.53-.58-.52-.31-.87-.26-.81.16-.53.58zM270.8 63.13c.24.35.52.31.87.26s.81-.16.53-.58-.52-.31-.87-.26-.82.15-.53.58zM260 69.38c.24.35.52.31.87.26s.81-.16.53-.58-.52-.31-.87-.26-.85.2-.53.58zM249.14 75.63c.24.35.52.31.87.26s.81-.16.53-.58-.54-.31-.87-.31-.82.21-.53.63zM238.31 81.88c.24.35.52.31.87.26s.81-.16.53-.58-.52-.31-.87-.26-.84.16-.53.58zM227.48 88.13c.24.35.52.31.87.26s.81-.16.53-.58-.52-.31-.87-.26-.81.16-.53.58zM216.65 94.38c.24.35.52.31.87.26s.81-.16.53-.58-.52-.31-.87-.26-.81.2-.53.58zM205.83 100.64c.24.35.52.31.87.26s.81-.16.53-.58-.52-.31-.87-.26-.82.15-.53.58zM195 106.89c.24.35.52.31.87.26s.81-.16.53-.58-.52-.31-.87-.26-.82.16-.53.58zM184.17 113.14c.24.35.52.31.87.26s.81-.16.53-.58-.52-.31-.87-.26-.82.16-.53.58zM173.34 119.39c.24.35.52.31.87.26s.81-.16.53-.58-.52-.31-.87-.26-.81.19-.53.58zM162.51 125.64c.24.35.52.31.87.26s.81-.16.53-.58-.52-.31-.87-.26-.81.16-.53.58zM151.69 131.89c.24.35.52.31.87.26s.81-.16.53-.58-.52-.31-.87-.26-.82.16-.53.58zM140.86 138.15c.24.35.52.31.87.26s.81-.16.53-.58-.52-.31-.87-.26-.82.15-.53.58zM130 144.4c.24.35.52.31.87.26s.81-.16.53-.58-.52-.31-.87-.26-.79.18-.53.58zM119.2 150.65c.24.35.52.31.87.26s.81-.16.53-.58-.52-.31-.87-.26-.82.16-.53.58zM108.37 156.9c.24.35.52.31.87.26s.81-.16.53-.58-.52-.31-.87-.26-.81.16-.53.58zM97.54 163.15c.24.35.52.31.87.26s.81-.16.53-.58-.52-.31-.87-.26-.81.16-.53.58zM86.72 169.4c.24.35.52.31.87.26s.81-.16.53-.58-.52-.31-.87-.26-.82.18-.53.58zM75.89 175.66c.24.35.52.31.87.26s.81-.16.53-.58-.52-.31-.87-.26-.82.15-.53.58zM65.06 181.91c.24.35.52.31.87.26s.81-.16.53-.58-.52-.31-.87-.26-.82.16-.53.58zM54.23 188.16c.24.35.52.31.87.26s.81-.16.53-.58-.52-.31-.87-.26-.81.16-.53.58zM43.4 194.41c.24.35.52.31.87.26s.81-.16.53-.58-.52-.31-.87-.26-.81.17-.53.58zM32.58 200.66c.24.35.52.31.87.26s.81-.16.53-.58-.52-.31-.87-.26-.82.16-.53.58zM335.76 13.11c.24.35.52.31.87.26s.81-.16.53-.58-.52-.31-.87-.26-.81.16-.53.58zM324.94 19.36c.24.35.52.31.87.26s.81-.16.53-.58-.52-.31-.87-.26-.82.16-.53.58zM314.11 25.62c.24.35.52.31.87.26s.81-.16.53-.58-.51-.3-.87-.3-.82.19-.53.62zM303.28 31.87c.24.35.52.31.87.26s.81-.16.53-.58-.52-.31-.87-.26-.81.16-.53.58zM292.45 38.12c.24.35.52.31.87.26s.81-.16.53-.58-.52-.31-.87-.26-.81.16-.53.58zM281.62 44.37c.24.35.52.31.87.26s.81-.16.53-.58-.52-.31-.87-.26-.81.16-.53.58zM270.8 50.62c.24.35.52.31.87.26s.81-.16.53-.58-.52-.31-.87-.26-.82.16-.53.58zM260 56.87c.24.35.52.31.87.26s.81-.16.53-.58-.52-.31-.87-.26-.85.16-.53.58zM249.14 63.13c.24.35.52.31.87.26s.81-.16.53-.58-.52-.31-.87-.26-.82.15-.53.58zM238.31 69.38c.24.35.52.31.87.26s.81-.16.53-.58-.52-.31-.87-.26-.84.2-.53.58zM227.48 75.63c.24.35.52.31.87.26s.81-.16.53-.58-.52-.31-.88-.31-.8.21-.52.63zM216.65 81.88c.24.35.52.31.87.26s.81-.16.53-.58-.52-.31-.87-.26-.81.16-.53.58zM205.83 88.13c.24.35.52.31.87.26s.81-.16.53-.58-.52-.31-.87-.26-.82.16-.53.58zM195 94.38c.24.35.52.31.87.26s.81-.16.53-.58-.52-.31-.87-.26-.82.2-.53.58zM184.17 100.64c.24.35.52.31.87.26s.81-.16.53-.58-.52-.31-.87-.26-.82.15-.53.58zM173.34 106.89c.24.35.52.31.87.26s.81-.16.53-.58-.52-.31-.87-.26-.81.16-.53.58zM162.51 113.14c.24.35.52.31.87.26s.81-.16.53-.58-.52-.31-.87-.26-.81.16-.53.58zM151.69 119.39c.24.35.52.31.87.26s.81-.16.53-.58-.52-.31-.87-.26-.82.19-.53.58zM140.86 125.64c.24.35.52.31.87.26s.81-.16.53-.58-.52-.31-.87-.26-.82.16-.53.58zM130 131.89c.24.35.52.31.87.26s.81-.16.53-.58-.52-.31-.87-.26-.79.16-.53.58zM119.2 138.15c.24.35.52.31.87.26s.81-.16.53-.58-.52-.31-.87-.26-.82.15-.53.58zM108.37 144.4c.24.35.52.31.87.26s.81-.16.53-.58-.52-.31-.87-.26-.81.18-.53.58zM97.54 150.65c.24.35.52.31.87.26s.81-.16.53-.58-.52-.31-.87-.26-.81.16-.53.58zM86.72 156.9c.24.35.52.31.87.26s.81-.16.53-.58-.52-.31-.87-.26-.82.16-.53.58zM75.89 163.15c.24.35.52.31.87.26s.81-.16.53-.58-.52-.31-.87-.26-.82.16-.53.58zM65.06 169.4c.24.35.52.31.87.26s.81-.16.53-.58-.52-.31-.87-.26-.82.18-.53.58zM54.23 175.66c.24.35.52.31.87.26s.81-.16.53-.58-.52-.31-.87-.26-.81.15-.53.58zM43.4 181.91c.24.35.52.31.87.26s.81-.16.53-.58-.52-.31-.87-.26-.81.16-.53.58zM32.58 188.16c.24.35.52.31.87.26s.81-.16.53-.58-.52-.31-.87-.26-.82.16-.53.58zM21.75 194.41c.24.35.52.31.87.26s.81-.16.53-.58-.52-.31-.87-.26-.82.17-.53.58zM324.94 6.86c.24.35.52.31.87.26s.81-.16.53-.58-.52-.31-.87-.26-.82.16-.53.58zM314.11 13.11c.24.35.52.31.87.26s.81-.16.53-.58-.52-.31-.87-.26-.82.16-.53.58zM303.28 19.36c.24.35.52.31.87.26s.81-.16.53-.58-.52-.31-.87-.26-.81.16-.53.58zM292.45 25.62c.24.35.52.31.87.26s.81-.16.53-.58-.52-.3-.85-.3-.83.19-.55.62zM281.62 31.87c.24.35.52.31.87.26s.81-.16.53-.58-.52-.31-.87-.26-.81.16-.53.58zM270.8 38.12c.24.35.52.31.87.26s.81-.16.53-.58-.52-.31-.87-.26-.82.16-.53.58zM260 44.37c.24.35.52.31.87.26s.81-.16.53-.58-.52-.31-.87-.26-.85.16-.53.58zM249.14 50.62c.24.35.52.31.87.26s.81-.16.53-.58-.54-.3-.87-.3-.82.2-.53.62zM238.31 56.87c.24.35.52.31.87.26s.81-.16.53-.58-.52-.31-.87-.26-.84.16-.53.58zM227.48 63.13c.24.35.52.31.87.26s.81-.16.53-.58-.52-.31-.87-.26-.81.15-.53.58zM216.65 69.38c.24.35.52.31.87.26s.81-.16.53-.58-.52-.31-.87-.26-.81.2-.53.58zM205.83 75.63c.24.35.52.31.87.26s.81-.16.53-.58-.52-.31-.87-.26-.82.16-.53.58zM195 81.88c.24.35.52.31.87.26s.81-.16.53-.58-.52-.31-.87-.26-.82.16-.53.58zM184.17 88.13c.24.35.52.31.87.26s.81-.16.53-.58-.52-.31-.87-.26-.82.16-.53.58zM173.34 94.38c.24.35.52.31.87.26s.81-.16.53-.58-.52-.31-.87-.26-.81.2-.53.58zM162.51 100.64c.24.35.52.31.87.26s.81-.16.53-.58-.52-.31-.87-.26-.81.15-.53.58zM151.69 106.89c.24.35.52.31.87.26s.81-.16.53-.58-.52-.31-.87-.26-.82.16-.53.58zM140.86 113.14c.24.35.52.31.87.26s.81-.16.53-.58-.52-.31-.87-.26-.82.16-.53.58zM130 119.39c.24.35.52.31.87.26s.81-.16.53-.58-.52-.31-.87-.26-.79.19-.53.58zM119.2 125.64c.24.35.52.31.87.26s.81-.16.53-.58-.52-.31-.87-.26-.82.16-.53.58zM108.37 131.89c.24.35.52.31.87.26s.81-.16.53-.58-.52-.31-.87-.26-.81.16-.53.58zM97.54 138.15c.24.35.52.31.87.26s.81-.16.53-.58-.52-.31-.87-.26-.81.15-.53.58zM86.72 144.4c.24.35.52.31.87.26s.81-.16.53-.58-.52-.31-.87-.26-.82.18-.53.58zM75.89 150.65c.24.35.52.31.87.26s.81-.16.53-.58-.52-.31-.87-.26-.82.16-.53.58zM65.06 156.9c.24.35.52.31.87.26s.81-.16.53-.58-.52-.31-.87-.26-.82.16-.53.58zM54.23 163.15c.24.35.52.31.87.26s.81-.16.53-.58-.52-.31-.87-.26-.81.16-.53.58zM43.4 169.4c.24.35.52.31.87.26s.81-.16.53-.58-.52-.31-.87-.26-.81.18-.53.58zM32.58 175.66c.24.35.52.31.87.26s.81-.16.53-.58-.52-.31-.87-.26-.82.15-.53.58zM21.75 181.91c.24.35.52.31.87.26s.81-.16.53-.58-.52-.31-.87-.26-.82.16-.53.58zM10.92 188.16c.24.35.52.31.87.26s.81-.16.53-.58-.52-.31-.87-.26-.82.16-.53.58zM.09 181.91c.24.35.52.31.87.26s.81-.16.53-.58-.52-.31-.87-.26-.82.16-.53.58zM10.92 175.66c.24.35.52.31.87.26s.81-.16.53-.58-.52-.31-.87-.26-.82.15-.53.58zM21.75 169.4c.24.35.52.31.87.26s.81-.16.53-.58-.52-.31-.87-.26-.82.18-.53.58zM32.58 163.15c.24.35.52.31.87.26s.81-.16.53-.58-.52-.31-.87-.26-.82.16-.53.58zM43.4 156.9c.24.35.52.31.87.26s.81-.16.53-.58-.52-.31-.87-.26-.81.16-.53.58zM54.23 150.65c.24.35.52.31.87.26s.81-.16.53-.58-.52-.31-.87-.26-.81.16-.53.58zM65.06 144.4c.24.35.52.31.87.26s.81-.16.53-.58-.52-.31-.87-.26-.82.18-.53.58zM75.89 138.15c.24.35.52.31.87.26s.81-.16.53-.58-.52-.31-.87-.26-.82.15-.53.58zM86.72 131.89c.24.35.52.31.87.26s.81-.16.53-.58-.52-.31-.87-.26-.82.16-.53.58zM97.54 125.64c.24.35.52.31.87.26s.81-.16.53-.58-.52-.31-.87-.26-.81.16-.53.58zM108.37 119.39c.24.35.52.31.87.26s.81-.16.53-.58-.52-.31-.87-.26-.81.19-.53.58zM119.2 113.14c.24.35.52.31.87.26s.81-.16.53-.58-.52-.31-.87-.26-.82.16-.53.58zM130 106.89c.24.35.52.31.87.26s.81-.16.53-.58-.52-.31-.87-.26-.79.16-.53.58zM140.86 100.64c.24.35.52.31.87.26s.81-.16.53-.58-.52-.31-.87-.26-.82.15-.53.58zM151.69 94.38c.24.35.52.31.87.26s.81-.16.53-.58-.52-.31-.87-.26-.82.2-.53.58zM162.51 88.13c.24.35.52.31.87.26s.81-.16.53-.58-.52-.31-.87-.26-.81.16-.53.58zM173.34 81.88c.24.35.52.31.87.26s.81-.16.53-.58-.52-.31-.87-.26-.81.16-.53.58zM184.17 75.63c.24.35.52.31.87.26s.81-.16.53-.58-.57-.31-.87-.31-.82.21-.53.63zM195 69.38c.24.35.52.31.87.26s.81-.16.53-.58-.52-.31-.87-.26-.82.2-.53.58zM205.83 63.13c.24.35.52.31.87.26s.81-.16.53-.58-.52-.31-.87-.26-.82.15-.53.58zM216.65 56.87c.24.35.52.31.87.26s.81-.16.53-.58-.52-.31-.87-.26-.81.16-.53.58zM227.48 50.62c.24.35.52.31.87.26s.81-.16.53-.58-.52-.3-.88-.3-.8.2-.52.62zM238.31 44.37c.24.35.52.31.87.26s.81-.16.53-.58-.52-.31-.87-.26-.84.16-.53.58zM249.14 38.12c.24.35.52.31.87.26s.81-.16.53-.58-.52-.31-.87-.26-.82.16-.53.58zM260 31.87c.24.35.52.31.87.26s.81-.16.53-.58-.52-.31-.87-.26-.85.16-.53.58zM270.8 25.62c.24.35.52.31.87.26s.81-.16.53-.58-.52-.31-.87-.26-.82.15-.53.58zM281.62 19.36c.24.35.52.31.87.26s.81-.16.53-.58-.52-.31-.87-.26-.81.16-.53.58zM292.45 13.11c.24.35.52.31.87.26s.81-.16.53-.58-.52-.31-.87-.26-.81.16-.53.58zM303.28 6.86c.24.35.52.31.87.26s.81-.16.53-.58-.52-.31-.87-.26-.81.16-.53.58zM314.11.61c.24.35.52.31.87.26s.81-.16.53-.58S315 0 314.64 0s-.82.19-.53.61z"/>
		<g data-name="1">
			<path class="cls-approach-1-2" d="M398.48 205l-83.36-48.12 83.35-48.13 83.36 48.13L398.48 205z"/>
			<path class="cls-approach-1-2" d="M315.12 253.13L231.77 205l83.35-48.12L398.48 205l-83.36 48.13z"/>
			<path class="cls-approach-1-2" d="M231.77 205l-83.36-48.12 83.36-48.13 83.35 48.13L231.77 205z"/>
			<path class="cls-approach-1-3" d="M380.2 124.8v17.26l-2.8 1.61v-17.26l2.8-1.61zM380.2 124.8l-2.8 1.61-2.79-1.61-1.67.97-8.35-4.83 1.67-.96-2.79-1.61 2.79-1.62.57.33v2.35l3.87 2.23 2.03-1.17 4.67 2.69 2.8 1.62z"/>
			<path class="cls-approach-1-3" d="M377.4 126.41v17.26l-1.67-.96v-.01l-1.12-.64V124.8l2.79 1.61z"/>
			<path class="cls-approach-1-3" d="M375.73 142.71v14.51l-2.79 1.61v-33.06l1.67-.97v17.26l1.12.64v.01zM375.16 111.44v4.3l-1.06.62v3.34l-1.37.79-2.03 1.17v-7.63l4.46-2.59z"/>
			<path class="cls-approach-1-3" d="M375.16 111.44l-4.46 2.59-.06-.04-3.81-2.2 4.47-2.58 3.86 2.23zM370.15 154.03v-14.07l-2.77-1.6v17.26l-2.79-1.61v-33.07l8.35 4.83v33.06l-2.79-1.61v-3.19z"/>
			<path class="cls-approach-1-3" d="M370.7 118.32v3.34l-3.87-2.23v-7.64l3.81 2.2.06.04v4.29zM370.15 139.96v14.07l-2.77 1.59v-17.26l2.77 1.6zM366.26 119.98l-1.67.96v15.33l-1.12-.64v-17.26l2.79 1.61z"/>
			<path class="cls-approach-1-4" d="M374.1 116.36l1.06-.62"/>
			<path class="cls-approach-1-5" d="M372.94 125.76l1.67-.96"/>
			<path class="cls-approach-1-4" d="M367.38 138.36l2.77 1.6"/>
			<path class="cls-approach-1-5" d="M363.47 118.37l2.79 1.61"/>
			<path class="cls-approach-1-4" d="M366.26 119.98l-1.67.96M366.83 116.09v-4.3M371.3 109.21l-4.47 2.58"/>
			<path class="cls-approach-1-5" d="M370.7 118.32v-4.29M366.83 111.79l3.81 2.2"/>
			<path class="cls-approach-1-4" d="M375.16 115.74v-4.3"/>
			<path class="cls-approach-1-5" d="M370.7 114.03l4.46-2.59"/>
			<path class="cls-approach-1-4" d="M375.16 111.44l-3.86-2.23M366.83 119.43v-3.34M366.83 119.43l3.87 2.23"/>
			<path class="cls-approach-1-5" d="M370.7 121.66v-3.34"/>
			<path class="cls-approach-1-4" d="M370.7 121.66l2.03-1.17 1.37-.79M374.1 119.7v-3.34M364.59 136.75v-15.81"/>
			<path class="cls-approach-1-5" d="M372.94 141.57v-15.81M364.59 120.94l8.35 4.82"/>
			<path class="cls-approach-1-4" d="M377.4 123.18l-4.67-2.69M370.15 157.22v-17.26M370.15 157.22l2.79 1.61"/>
			<path class="cls-approach-1-5" d="M372.94 158.83v-17.26"/>
			<path class="cls-approach-1-4" d="M372.94 158.83l2.79-1.61M375.73 157.22v-14.51M364.59 154.01v-17.26M364.59 154.01l2.79 1.61"/>
			<path class="cls-approach-1-5" d="M367.38 155.62v-17.26"/>
			<path class="cls-approach-1-4" d="M367.38 155.62l2.77-1.59.01-.01M366.83 117.08l-.57-.33M363.47 135.63v-17.26M366.26 116.75l-2.79 1.62M363.47 135.63l1.12.64M374.61 142.06V124.8M374.61 142.06l1.12.64v.01l1.67.96"/>
			<path class="cls-approach-1-5" d="M377.4 143.67v-17.26M374.61 124.8l2.79 1.61"/>
			<path class="cls-approach-1-4" d="M377.4 143.67l2.8-1.61M380.2 142.06V124.8"/>
			<path class="cls-approach-1-5" d="M377.4 126.41l2.8-1.61"/>
			<path class="cls-approach-1-4" d="M380.2 124.8l-2.8-1.62"/>
			<path class="cls-approach-1-3" d="M329.25 79.28v22.55l-3.64 2.1V81.38l3.64-2.1z"/>
			<path class="cls-approach-1-3" d="M329.25 79.28l-3.64 2.1-3.65-2.1-2.19 1.26-10.91-6.31 2.19-1.25-3.65-2.11 3.65-2.11.74.43v3.07l5.05 2.92 2.65-1.54 6.12 3.52 3.64 2.12z"/>
			<path class="cls-approach-1-3" d="M325.61 81.38v22.55l-2.19-1.25v-.01l-1.46-.84V79.28l3.65 2.1z"/>
			<path class="cls-approach-1-3" d="M323.42 102.68v18.96l-3.65 2.11V80.54l2.19-1.26v22.55l1.46.84v.01zM322.68 61.82v5.62l-1.39.8v4.37l-1.8 1.03-2.65 1.54v-9.99l5.84-3.37zM322.68 61.82l-5.84 3.37-.07-.04-4.98-2.87 5.83-3.38 5.06 2.92z"/>
			<path class="cls-approach-1-3" d="M316.12 117.47V99.09L312.5 97v22.55l-3.64-2.1V74.23l10.91 6.31v43.21l-3.65-2.11v-4.17zM316.84 70.81v4.37l-5.05-2.92v-9.98l4.98 2.87.07.04v5.62z"/>
			<path class="cls-approach-1-3" d="M316.12 99.09v18.38l-3.62 2.08V97l3.62 2.09zM311.05 72.98l-2.19 1.25v20.03l-1.46-.84V70.87l3.65 2.11z"/>
			<path class="cls-approach-1-6" d="M321.29 68.24l1.39-.8"/>
			<path class="cls-approach-1-7" d="M319.77 80.54l2.19-1.26"/>
			<path class="cls-approach-1-6" d="M312.51 97l3.61 2.09"/>
			<path class="cls-approach-1-7" d="M307.4 70.87l3.65 2.11"/>
			<path class="cls-approach-1-6" d="M311.05 72.98l-2.19 1.25M311.79 67.89v-5.61M317.62 58.9l-5.83 3.38"/>
			<path class="cls-approach-1-7" d="M316.84 70.81v-5.62M311.79 62.28l4.98 2.87"/>
			<path class="cls-approach-1-6" d="M322.68 67.44v-5.62"/>
			<path class="cls-approach-1-7" d="M316.84 65.19l5.84-3.37"/>
			<path class="cls-approach-1-6" d="M322.68 61.82l-5.06-2.92M311.79 72.26v-4.37M311.79 72.26l5.05 2.92"/>
			<path class="cls-approach-1-7" d="M316.84 75.18v-4.37"/>
			<path class="cls-approach-1-6" d="M316.84 75.18l2.65-1.54 1.8-1.03M321.29 72.61v-4.37M308.86 94.89V74.23"/>
			<path class="cls-approach-1-7" d="M319.77 101.2V80.54M308.86 74.23l10.91 6.31"/>
			<path class="cls-approach-1-6" d="M325.61 77.16l-6.12-3.52M316.12 121.64V99.09M316.12 121.64l3.65 2.11"/>
			<path class="cls-approach-1-7" d="M319.77 123.75V101.2"/>
			<path class="cls-approach-1-6" d="M319.77 123.75l3.65-2.11M323.42 121.64v-18.96M308.86 117.45V94.89M308.86 117.45l3.65 2.1"/>
			<path class="cls-approach-1-7" d="M312.51 119.55V97"/>
			<path class="cls-approach-1-6" d="M312.5 119.55l3.62-2.08.02-.01M311.79 69.19l-.74-.43M307.4 93.42V70.87M311.05 68.76l-3.65 2.11M307.4 93.42l1.46.84M321.96 101.83V79.28M321.96 101.83l1.46.84v.01l2.19 1.25"/>
			<path class="cls-approach-1-7" d="M325.61 103.93V81.38M321.96 79.28l3.65 2.1"/>
			<path class="cls-approach-1-6" d="M325.61 103.93l3.64-2.1M329.25 101.83V79.28"/>
			<path class="cls-approach-1-7" d="M325.61 81.38l3.64-2.1"/>
			<path class="cls-approach-1-6" d="M329.25 79.28l-3.64-2.12"/>
			<path class="cls-approach-1-3" d="M422.78 117.19v17.26l-2.79 1.61V118.8l2.79-1.61z"/>
			<path class="cls-approach-1-3" d="M422.78 117.19l-2.79 1.61-2.8-1.61-1.67.97-8.35-4.83 1.67-.96-2.79-1.61 2.79-1.62.57.33v2.35l3.87 2.23 2.03-1.17 4.68 2.7 2.79 1.61z"/>
			<path class="cls-approach-1-3" d="M419.99 118.8v17.26l-1.68-.96v-.01l-1.12-.64v-17.26l2.8 1.61z"/>
			<path class="cls-approach-1-3" d="M418.31 135.1v14.51l-2.79 1.61v-33.06l1.67-.97v17.26l1.12.64v.01zM417.74 103.83v4.3l-1.06.62v3.34l-1.37.79-2.03 1.17v-7.63l4.46-2.59z"/>
			<path class="cls-approach-1-3" d="M417.74 103.83l-4.46 2.59-.06-.04-3.81-2.2 4.47-2.58 3.86 2.23zM412.73 146.42v-14.07l-2.77-1.6v17.26l-2.79-1.61v-33.07l8.35 4.83v33.06l-2.79-1.61v-3.19z"/>
			<path class="cls-approach-1-3" d="M413.28 110.71v3.34l-3.87-2.23v-7.64l3.81 2.2.06.04v4.29zM412.73 132.35v14.07l-2.77 1.59v-17.26l2.77 1.6zM408.84 112.37l-1.67.96v15.33l-1.12-.64v-17.26l2.79 1.61z"/>
			<path class="cls-approach-1-4" d="M416.68 108.75l1.06-.62"/>
			<path class="cls-approach-1-5" d="M415.52 118.16l1.67-.97"/>
			<path class="cls-approach-1-4" d="M409.96 130.75l2.77 1.6"/>
			<path class="cls-approach-1-5" d="M406.05 110.76l2.79 1.61"/>
			<path class="cls-approach-1-4" d="M408.84 112.37l-1.67.96M409.41 108.48v-4.3M413.88 101.6l-4.47 2.58"/>
			<path class="cls-approach-1-5" d="M413.28 110.71v-4.29M409.41 104.18l3.81 2.2"/>
			<path class="cls-approach-1-4" d="M417.74 108.13v-4.29"/>
			<path class="cls-approach-1-5" d="M413.28 106.42l4.46-2.58"/>
			<path class="cls-approach-1-4" d="M417.74 103.84l-3.86-2.24M409.41 111.82v-3.34M409.41 111.82l3.87 2.23"/>
			<path class="cls-approach-1-5" d="M413.28 114.05v-3.34"/>
			<path class="cls-approach-1-4" d="M413.28 114.05l2.03-1.17 1.37-.79M416.68 112.09v-3.34M407.17 129.14v-15.81"/>
			<path class="cls-approach-1-5" d="M415.52 133.96v-15.8M407.17 113.33l8.35 4.83"/>
			<path class="cls-approach-1-4" d="M419.98 115.57l-4.67-2.69M412.73 149.61v-17.26M412.73 149.61l2.79 1.61"/>
			<path class="cls-approach-1-5" d="M415.52 151.22v-17.26"/>
			<path class="cls-approach-1-4" d="M415.52 151.22l2.79-1.61M418.31 149.61V135.1M407.17 146.4v-17.26M407.17 146.4l2.79 1.61"/>
			<path class="cls-approach-1-5" d="M409.96 148.01v-17.26"/>
			<path class="cls-approach-1-4" d="M409.96 148.01l2.77-1.59.01-.01M409.41 109.47l-.57-.33M406.05 128.02v-17.26M408.84 109.14l-2.79 1.62M406.05 128.02l1.12.64M417.19 134.45v-17.26M417.19 134.45l1.12.64v.01l1.68.96"/>
			<path class="cls-approach-1-5" d="M419.98 136.06V118.8M417.19 117.19l2.79 1.61"/>
			<path class="cls-approach-1-4" d="M419.98 136.06l2.8-1.61M422.78 134.45v-17.26"/>
			<path class="cls-approach-1-5" d="M419.98 118.8l2.8-1.61"/>
			<path class="cls-approach-1-4" d="M422.78 117.19l-2.8-1.62"/>
			<path class="cls-approach-1-3" d="M431.14 144.25v17.26l-2.79 1.61v-17.26l2.79-1.61z"/>
			<path class="cls-approach-1-3" d="M431.14 144.25l-2.79 1.61-2.79-1.61-1.68.96-8.35-4.82 1.68-.96-2.79-1.61 2.79-1.62.56.33v2.35l3.87 2.23 2.03-1.17 4.68 2.69 2.79 1.62z"/>
			<path class="cls-approach-1-3" d="M428.35 145.86v17.26l-1.68-.96v-.01l-1.11-.64v-17.26l2.79 1.61z"/>
			<path class="cls-approach-1-3" d="M426.67 162.16v14.51l-2.79 1.61v-33.07l1.68-.96v17.26l1.11.64v.01zM426.11 130.89v4.3l-1.06.61v3.35l-1.38.79-2.03 1.17v-7.64l4.47-2.58zM426.11 130.89l-4.47 2.58-.06-.03-3.81-2.2 4.47-2.58 3.87 2.23z"/>
			<path class="cls-approach-1-3" d="M421.09 173.47v-14.06l-2.77-1.6v17.26l-2.79-1.61v-33.07l8.35 4.82v33.07l-2.79-1.61v-3.2zM421.64 137.77v3.34l-3.87-2.23v-7.64l3.81 2.2.06.03v4.3z"/>
			<path class="cls-approach-1-3" d="M421.09 159.41v14.06l-2.77 1.6v-17.26l2.77 1.6zM417.21 139.43l-1.68.96v15.33l-1.11-.64v-17.26l2.79 1.61z"/>
			<path class="cls-approach-1-4" d="M425.05 135.8l1.06-.61"/>
			<path class="cls-approach-1-5" d="M423.88 145.21l1.68-.96"/>
			<path class="cls-approach-1-4" d="M418.32 157.81l2.77 1.6"/>
			<path class="cls-approach-1-5" d="M414.42 137.82l2.79 1.61"/>
			<path class="cls-approach-1-4" d="M417.21 139.43l-1.68.96M417.77 135.54v-4.3M422.24 128.66l-4.47 2.58"/>
			<path class="cls-approach-1-5" d="M421.64 137.77v-4.3M417.77 131.24l3.81 2.2"/>
			<path class="cls-approach-1-4" d="M426.11 135.19v-4.3"/>
			<path class="cls-approach-1-5" d="M421.64 133.47l4.47-2.58"/>
			<path class="cls-approach-1-4" d="M426.11 130.89l-3.87-2.23M417.77 138.88v-3.34M417.77 138.88l3.87 2.23"/>
			<path class="cls-approach-1-5" d="M421.64 141.11v-3.34"/>
			<path class="cls-approach-1-4" d="M421.64 141.11l2.03-1.17 1.38-.79M425.05 139.15v-3.35M415.53 156.2v-15.81"/>
			<path class="cls-approach-1-5" d="M423.88 161.02v-15.81M415.53 140.39l8.35 4.82"/>
			<path class="cls-approach-1-4" d="M428.35 142.63l-4.68-2.69M421.09 176.67v-17.26M421.09 176.67l2.79 1.61"/>
			<path class="cls-approach-1-5" d="M423.88 178.28v-17.26"/>
			<path class="cls-approach-1-4" d="M423.88 178.28l2.79-1.61M426.67 176.67v-14.51M415.53 173.46V156.2M415.53 173.46l2.79 1.61"/>
			<path class="cls-approach-1-5" d="M418.32 175.07v-17.26"/>
			<path class="cls-approach-1-4" d="M418.32 175.07l2.77-1.6h.02M417.77 136.53l-.56-.33M414.42 155.08v-17.26M417.21 136.2l-2.79 1.62M414.42 155.08l1.11.64M425.56 161.51v-17.26M425.56 161.51l1.11.64v.01l1.68.96"/>
			<path class="cls-approach-1-5" d="M428.35 163.12v-17.26M425.56 144.25l2.79 1.61"/>
			<path class="cls-approach-1-4" d="M428.35 163.12l2.79-1.61M431.14 161.51v-17.26"/>
			<path class="cls-approach-1-5" d="M428.35 145.86l2.79-1.61"/>
			<path class="cls-approach-1-4" d="M431.14 144.25l-2.79-1.62"/>
			<path class="cls-approach-1-3" d="M401.49 148v17.26l-2.8 1.61v-17.26l2.8-1.61z"/>
			<path class="cls-approach-1-3" d="M401.49 148l-2.8 1.61-2.79-1.61-1.67.96-8.35-4.82 1.67-.96-2.79-1.61 2.79-1.62.57.33v2.35l3.87 2.23 2.03-1.17 4.67 2.69 2.8 1.62z"/>
			<path class="cls-approach-1-3" d="M398.69 149.61v17.26l-1.67-.96v-.01l-1.12-.64V148l2.79 1.61z"/>
			<path class="cls-approach-1-3" d="M397.02 165.91v14.51l-2.79 1.61v-33.07l1.67-.96v17.26l1.12.64v.01zM396.45 134.64v4.3l-1.06.61v3.35l-1.37.79-2.03 1.17v-7.64l4.46-2.58z"/>
			<path class="cls-approach-1-3" d="M396.45 134.64l-4.46 2.58-.06-.03-3.81-2.2 4.47-2.58 3.86 2.23zM391.44 177.22v-14.06l-2.77-1.6v17.26l-2.79-1.61v-33.07l8.35 4.82v33.07l-2.79-1.61v-3.2z"/>
			<path class="cls-approach-1-3" d="M391.99 141.52v3.34l-3.87-2.23v-7.64l3.81 2.2.06.03v4.3zM391.44 163.16v14.06l-2.77 1.6v-17.26l2.77 1.6zM387.55 143.18l-1.67.96v15.32l-1.12-.64v-17.25l2.79 1.61z"/>
			<path class="cls-approach-1-4" d="M395.39 139.55l1.06-.61"/>
			<path class="cls-approach-1-5" d="M394.23 148.96l1.67-.96"/>
			<path class="cls-approach-1-4" d="M388.67 161.56l2.77 1.6"/>
			<path class="cls-approach-1-5" d="M384.76 141.57l2.79 1.61"/>
			<path class="cls-approach-1-4" d="M387.55 143.18l-1.67.96M388.12 139.29v-4.3M392.59 132.41l-4.47 2.58"/>
			<path class="cls-approach-1-5" d="M391.99 141.52v-4.3M388.12 134.99l3.81 2.2"/>
			<path class="cls-approach-1-4" d="M396.45 138.94v-4.3"/>
			<path class="cls-approach-1-5" d="M391.99 137.22l4.46-2.58"/>
			<path class="cls-approach-1-4" d="M396.45 134.64l-3.86-2.23M388.12 142.63v-3.34M388.12 142.63l3.87 2.23"/>
			<path class="cls-approach-1-5" d="M391.99 144.86v-3.34"/>
			<path class="cls-approach-1-4" d="M391.99 144.86l2.03-1.17 1.37-.79M395.39 142.89v-3.34M385.88 159.95v-15.81"/>
			<path class="cls-approach-1-5" d="M394.23 164.77v-15.81M385.88 144.14l8.35 4.82"/>
			<path class="cls-approach-1-4" d="M398.69 146.38l-4.67-2.69M391.44 180.42v-17.26M391.44 180.42l2.79 1.61"/>
			<path class="cls-approach-1-5" d="M394.23 182.03v-17.26"/>
			<path class="cls-approach-1-4" d="M394.23 182.03l2.79-1.61M397.02 180.42V165.9M385.88 177.21v-17.26M385.88 177.21l2.79 1.61"/>
			<path class="cls-approach-1-5" d="M388.67 178.82v-17.26"/>
			<path class="cls-approach-1-4" d="M388.67 178.82l2.77-1.6h.01M388.12 140.28l-.57-.33M384.76 158.83v-17.26M387.55 139.95l-2.79 1.62M384.76 158.83l1.12.63M395.9 165.26V148M395.9 165.26l1.12.64v.01l1.67.96"/>
			<path class="cls-approach-1-5" d="M398.69 166.87v-17.26M395.9 148l2.79 1.61"/>
			<path class="cls-approach-1-4" d="M398.69 166.87l2.8-1.61M401.49 165.26V148"/>
			<path class="cls-approach-1-5" d="M398.69 149.61l2.8-1.61"/>
			<path class="cls-approach-1-4" d="M401.49 148l-2.8-1.62"/>
			<path class="cls-approach-1-3" d="M347.36 180.36v17.26l-2.8 1.61v-17.26l2.8-1.61z"/>
			<path class="cls-approach-1-3" d="M347.36 180.36l-2.8 1.61-2.79-1.61-1.67.96-8.35-4.82 1.67-.96-2.79-1.61 2.79-1.62.57.33v2.35l3.87 2.23 2.03-1.17 4.67 2.69 2.8 1.62z"/>
			<path class="cls-approach-1-3" d="M344.56 181.97v17.26l-1.67-.97-1.12-.64v-17.26l2.79 1.61z"/>
			<path class="cls-approach-1-3" d="M342.89 198.26v14.52l-2.79 1.61v-33.07l1.67-.96v17.26l1.12.64zM342.32 167v4.3l-1.06.61v3.34l-1.37.8-2.03 1.17v-7.64l4.46-2.58zM342.32 167l-4.46 2.58-.06-.03-3.81-2.2 4.46-2.58 3.87 2.23z"/>
			<path class="cls-approach-1-3" d="M337.31 209.58v-14.06l-2.77-1.6v17.26l-2.79-1.61V176.5l8.35 4.82v33.07l-2.79-1.61v-3.2zM337.86 173.88v3.34l-3.87-2.23v-7.64l3.81 2.2.06.03v4.3z"/>
			<path class="cls-approach-1-3" d="M337.31 195.52v14.06l-2.77 1.6v-17.26l2.77 1.6zM333.42 175.54l-1.67.96v15.32l-1.12-.63v-17.26l2.79 1.61z"/>
			<path class="cls-approach-1-4" d="M341.26 171.91l1.06-.61"/>
			<path class="cls-approach-1-5" d="M340.1 181.32l1.67-.96"/>
			<path class="cls-approach-1-4" d="M334.54 193.92l2.77 1.6"/>
			<path class="cls-approach-1-5" d="M330.63 173.93l2.79 1.61"/>
			<path class="cls-approach-1-4" d="M333.42 175.54l-1.67.96M333.99 171.65v-4.3M338.46 164.77l-4.47 2.58"/>
			<path class="cls-approach-1-5" d="M337.86 173.88v-4.3M333.99 167.35l3.81 2.2"/>
			<path class="cls-approach-1-4" d="M342.32 171.3V167"/>
			<path class="cls-approach-1-5" d="M337.86 169.58l4.46-2.58"/>
			<path class="cls-approach-1-4" d="M342.32 167l-3.86-2.23M333.99 174.99v-3.34M333.99 174.99l3.87 2.23"/>
			<path class="cls-approach-1-5" d="M337.86 177.22v-3.34"/>
			<path class="cls-approach-1-4" d="M337.86 177.22l2.03-1.17 1.37-.8M341.26 175.25v-3.34M331.75 192.31V176.5"/>
			<path class="cls-approach-1-5" d="M340.1 197.13v-15.81M331.75 176.5l8.35 4.82"/>
			<path class="cls-approach-1-4" d="M344.56 178.74l-4.67-2.69M337.31 212.78v-17.26M337.31 212.78l2.79 1.61"/>
			<path class="cls-approach-1-5" d="M340.1 214.39v-17.26"/>
			<path class="cls-approach-1-4" d="M340.1 214.39l2.79-1.61M342.89 212.78v-14.52M331.75 209.57v-17.26M331.75 209.57l2.79 1.61"/>
			<path class="cls-approach-1-5" d="M334.54 211.18v-17.26"/>
			<path class="cls-approach-1-4" d="M334.54 211.18l2.77-1.6.01-.01M333.99 172.64l-.57-.33M330.63 191.19v-17.26M333.42 172.31l-2.79 1.62M330.63 191.19l1.12.63M341.77 197.62v-17.26M341.77 197.62l1.12.64 1.67.97"/>
			<path class="cls-approach-1-5" d="M344.56 199.23v-17.26M341.77 180.36l2.79 1.61"/>
			<path class="cls-approach-1-4" d="M344.56 199.23l2.8-1.61M347.36 197.62v-17.26"/>
			<path class="cls-approach-1-5" d="M344.56 181.97l2.8-1.61"/>
			<path class="cls-approach-1-4" d="M347.36 180.36l-2.8-1.62"/>
			<path class="cls-approach-1-3" d="M302.58 192.01v17.26l-2.79 1.61v-17.26l2.79-1.61z"/>
			<path class="cls-approach-1-3" d="M302.58 192.01l-2.79 1.61-2.79-1.61-1.67.96-8.35-4.82 1.67-.96-2.79-1.61 2.79-1.62.57.33v2.35l3.87 2.23 2.03-1.17 4.67 2.69 2.79 1.62z"/>
			<path class="cls-approach-1-3" d="M299.79 193.62v17.26l-1.67-.96v-.01l-1.12-.64v-17.26l2.79 1.61z"/>
			<path class="cls-approach-1-3" d="M298.12 209.92v14.51l-2.79 1.61v-33.07l1.67-.96v17.26l1.12.64v.01zM297.55 178.66v4.29l-1.06.62v3.34l-1.37.79-2.03 1.17v-7.63l4.46-2.58z"/>
			<path class="cls-approach-1-3" d="M297.55 178.66l-4.46 2.58-.06-.04-3.81-2.2 4.46-2.58 3.87 2.24zM292.54 221.24v-14.07l-2.77-1.6v17.26l-2.79-1.61v-33.07l8.35 4.82v33.07l-2.79-1.61v-3.19z"/>
			<path class="cls-approach-1-3" d="M293.09 185.53v3.34l-3.87-2.23V179l3.81 2.2.06.04v4.29zM292.54 207.17v14.07l-2.77 1.59v-17.26l2.77 1.6zM288.65 187.19l-1.67.96v15.33l-1.12-.64v-17.26l2.79 1.61z"/>
			<path class="cls-approach-1-4" d="M296.49 183.57l1.06-.62"/>
			<path class="cls-approach-1-5" d="M295.33 192.97l1.67-.96"/>
			<path class="cls-approach-1-4" d="M289.77 205.57l2.77 1.6"/>
			<path class="cls-approach-1-5" d="M285.86 185.58l2.79 1.61"/>
			<path class="cls-approach-1-4" d="M288.65 187.19l-1.67.96M289.22 183.3V179M293.68 176.42l-4.46 2.58"/>
			<path class="cls-approach-1-5" d="M293.09 185.53v-4.29M289.22 179l3.81 2.2"/>
			<path class="cls-approach-1-4" d="M297.55 182.95v-4.3"/>
			<path class="cls-approach-1-5" d="M293.09 181.24l4.46-2.59"/>
			<path class="cls-approach-1-4" d="M297.55 178.65l-3.87-2.23M289.22 186.64v-3.34M289.22 186.64l3.87 2.23"/>
			<path class="cls-approach-1-5" d="M293.09 188.87v-3.34"/>
			<path class="cls-approach-1-4" d="M293.09 188.87l2.03-1.17 1.37-.79M296.49 186.91v-3.34M286.98 203.96v-15.81"/>
			<path class="cls-approach-1-5" d="M295.33 208.78v-15.81M286.98 188.15l8.35 4.82"/>
			<path class="cls-approach-1-4" d="M299.79 190.39l-4.67-2.69M292.54 224.43v-17.26M292.54 224.43l2.79 1.61"/>
			<path class="cls-approach-1-5" d="M295.33 226.04v-17.26"/>
			<path class="cls-approach-1-4" d="M295.33 226.04l2.79-1.61M298.12 224.43v-14.51M286.98 221.22v-17.26M286.98 221.22l2.79 1.61"/>
			<path class="cls-approach-1-5" d="M289.77 222.83v-17.26"/>
			<path class="cls-approach-1-4" d="M289.77 222.83l2.77-1.59.01-.01M289.22 184.29l-.57-.33M285.86 202.84v-17.26M288.65 183.96l-2.79 1.62M285.86 202.84l1.12.64M297 209.27v-17.26M297 209.27l1.12.64v.01l1.67.96"/>
			<path class="cls-approach-1-5" d="M299.79 210.88v-17.26M297 192.01l2.79 1.61"/>
			<path class="cls-approach-1-4" d="M299.79 210.88l2.79-1.61M302.58 209.27v-17.26"/>
			<path class="cls-approach-1-5" d="M299.79 193.62l2.79-1.61"/>
			<path class="cls-approach-1-4" d="M302.58 192.01l-2.79-1.62"/>
			<path class="cls-approach-1-3" d="M215.42 128.42v17.26l-2.79 1.61v-17.26l2.79-1.61z"/>
			<path class="cls-approach-1-3" d="M215.42 128.42l-2.79 1.61-2.79-1.61-1.68.97-8.35-4.83 1.68-.96-2.79-1.61 2.79-1.62.57.34v2.34l3.86 2.23 2.04-1.17 4.67 2.7 2.79 1.61z"/>
			<path class="cls-approach-1-3" d="M212.63 130.03v17.26l-1.67-.96v-.01l-1.12-.64v-17.26l2.79 1.61z"/>
			<path class="cls-approach-1-3" d="M210.96 146.33v14.51l-2.8 1.61v-33.06l1.68-.97v17.26l1.12.64v.01zM210.39 115.07v4.29l-1.06.62v3.34l-1.37.79-2.04 1.17v-7.63l4.47-2.58zM210.39 115.07l-4.47 2.58-.05-.04-3.81-2.19 4.46-2.59 3.87 2.24z"/>
			<path class="cls-approach-1-3" d="M205.37 157.65v-14.06l-2.76-1.61v17.26l-2.8-1.61v-33.07l8.35 4.83v33.06l-2.79-1.61v-3.19zM205.92 121.94v3.34l-3.86-2.23v-7.63l3.81 2.19.05.04v4.29z"/>
			<path class="cls-approach-1-3" d="M205.37 143.59v14.06l-2.76 1.59v-17.26l2.76 1.61zM201.49 123.6l-1.68.96v15.33l-1.11-.64v-17.26l2.79 1.61z"/>
			<path class="cls-approach-1-4" d="M209.33 119.98l1.06-.62"/>
			<path class="cls-approach-1-5" d="M208.16 129.39l1.68-.97"/>
			<path class="cls-approach-1-4" d="M202.61 141.98l2.76 1.61"/>
			<path class="cls-approach-1-5" d="M198.7 121.99l2.79 1.61"/>
			<path class="cls-approach-1-4" d="M201.49 123.6l-1.67.97M202.06 119.71v-4.3M206.52 112.83l-4.46 2.58"/>
			<path class="cls-approach-1-5" d="M205.92 121.94v-4.29M202.06 115.41l3.81 2.21"/>
			<path class="cls-approach-1-4" d="M210.39 119.36v-4.29"/>
			<path class="cls-approach-1-5" d="M205.92 117.65l4.47-2.58"/>
			<path class="cls-approach-1-4" d="M210.39 115.07l-3.87-2.24M202.06 123.05v-3.34M202.06 123.05l3.86 2.24"/>
			<path class="cls-approach-1-5" d="M205.92 125.29v-3.35"/>
			<path class="cls-approach-1-4" d="M205.92 125.28l2.04-1.17 1.37-.79M209.33 123.32v-3.34M199.81 140.37v-15.81"/>
			<path class="cls-approach-1-5" d="M208.16 145.2v-15.81M199.82 124.57l8.34 4.82"/>
			<path class="cls-approach-1-4" d="M212.63 126.81l-4.68-2.7M205.37 160.84v-17.25M205.37 160.84l2.79 1.61"/>
			<path class="cls-approach-1-5" d="M208.16 162.45V145.2"/>
			<path class="cls-approach-1-4" d="M208.16 162.45l2.8-1.61M210.96 160.84v-14.51M199.82 157.63v-17.26M199.82 157.63l2.79 1.61"/>
			<path class="cls-approach-1-5" d="M202.61 159.24v-17.26"/>
			<path class="cls-approach-1-4" d="M202.61 159.24l2.76-1.59.02-.01M202.06 120.71l-.57-.34M198.7 139.25v-17.26M201.49 120.37l-2.79 1.62M198.7 139.25l1.12.64M209.84 145.68v-17.26M209.84 145.68l1.12.64v.01l1.67.96"/>
			<path class="cls-approach-1-5" d="M212.63 147.29v-17.26M209.84 128.42l2.79 1.61"/>
			<path class="cls-approach-1-4" d="M212.63 147.29l2.79-1.61M215.42 145.68v-17.26"/>
			<path class="cls-approach-1-5" d="M212.63 130.03l2.79-1.61"/>
			<path class="cls-approach-1-4" d="M215.42 128.42l-2.79-1.61"/>
			<path class="cls-approach-1-3" d="M258 120.81v17.26l-2.79 1.61v-17.26l2.79-1.61z"/>
			<path class="cls-approach-1-3" d="M258 120.81l-2.79 1.61-2.79-1.61-1.67.97-8.35-4.82 1.67-.97-2.79-1.61 2.79-1.61.57.33v2.34l3.86 2.24 2.03-1.18 4.68 2.7 2.79 1.61z"/>
			<path class="cls-approach-1-3" d="M255.21 122.42v17.26l-1.67-.96v-.01l-1.12-.64v-17.26l2.79 1.61z"/>
			<path class="cls-approach-1-3" d="M253.54 138.72v14.51l-2.79 1.61v-33.06l1.67-.97v17.26l1.12.64v.01zM252.97 107.46v4.29l-1.06.62v3.34l-1.38.79-2.03 1.18V110.04l4.47-2.58zM252.97 107.46l-4.47 2.58-.05-.03-3.81-2.2 4.46-2.59 3.87 2.24z"/>
			<path class="cls-approach-1-3" d="M247.95 150.04v-14.06l-2.76-1.6v17.25l-2.79-1.61v-33.06l8.35 4.82v33.06l-2.8-1.61v-3.19zM248.5 114.33v3.35l-3.86-2.24v-7.63l3.81 2.2.05.03v4.29z"/>
			<path class="cls-approach-1-3" d="M247.95 135.98v14.06l-2.76 1.59v-17.25l2.76 1.6zM244.07 115.99l-1.67.97v15.32l-1.12-.64v-17.26l2.79 1.61z"/>
			<path class="cls-approach-1-4" d="M251.91 112.37l1.06-.62"/>
			<path class="cls-approach-1-5" d="M250.75 121.78l1.67-.96"/>
			<path class="cls-approach-1-4" d="M245.19 134.38l2.76 1.6"/>
			<path class="cls-approach-1-5" d="M241.28 114.38l2.79 1.61"/>
			<path class="cls-approach-1-4" d="M244.07 115.99l-1.67.97M244.64 112.1v-4.29M249.1 105.22l-4.46 2.59"/>
			<path class="cls-approach-1-5" d="M248.5 114.33v-4.29M244.64 107.81l3.81 2.2"/>
			<path class="cls-approach-1-4" d="M252.97 111.75v-4.29"/>
			<path class="cls-approach-1-5" d="M248.5 110.04l4.47-2.58"/>
			<path class="cls-approach-1-4" d="M252.97 107.46l-3.87-2.24M244.64 115.44v-3.34M244.64 115.44l3.86 2.24"/>
			<path class="cls-approach-1-5" d="M248.5 117.68v-3.35"/>
			<path class="cls-approach-1-4" d="M248.5 117.68l2.03-1.18 1.38-.79M251.91 115.71v-3.34M242.4 132.76v-15.8"/>
			<path class="cls-approach-1-5" d="M250.75 137.59v-15.81M242.4 116.96l8.35 4.82"/>
			<path class="cls-approach-1-4" d="M255.21 119.2l-4.68-2.7M247.95 153.23v-17.25M247.95 153.23l2.8 1.61"/>
			<path class="cls-approach-1-5" d="M250.75 154.84v-17.25"/>
			<path class="cls-approach-1-4" d="M250.75 154.84l2.79-1.61M253.54 153.23v-14.51M242.4 150.02v-17.25M242.4 150.02l2.79 1.61"/>
			<path class="cls-approach-1-5" d="M245.19 151.63v-17.25"/>
			<path class="cls-approach-1-4" d="M245.19 151.63l2.76-1.59.02-.01M244.64 113.1l-.57-.33M241.28 131.64v-17.26M244.07 112.77l-2.79 1.61M241.28 131.64l1.12.64M252.42 138.07v-17.25M252.42 138.07l1.12.64v.01l1.67.96"/>
			<path class="cls-approach-1-5" d="M255.21 139.68v-17.25M252.42 120.82l2.79 1.61"/>
			<path class="cls-approach-1-4" d="M255.21 139.68l2.79-1.61M258 138.07v-17.25"/>
			<path class="cls-approach-1-5" d="M255.21 122.43l2.79-1.61"/>
			<path class="cls-approach-1-4" d="M258 120.82l-2.79-1.62"/>
			<path class="cls-approach-1-3" d="M236.71 151.62v17.26l-2.79 1.61v-17.26l2.79-1.61z"/>
			<path class="cls-approach-1-3" d="M236.71 151.62l-2.79 1.61-2.79-1.61-1.67.97-8.35-4.83 1.67-.96-2.79-1.61 2.79-1.62.57.33v2.35l3.86 2.23 2.04-1.17 4.67 2.69 2.79 1.62z"/>
			<path class="cls-approach-1-3" d="M233.92 153.23v17.26l-1.67-.96v-.01l-1.12-.64v-17.26l2.79 1.61z"/>
			<path class="cls-approach-1-3" d="M232.25 169.53v14.51l-2.79 1.61v-33.06l1.67-.97v17.26l1.12.64v.01zM231.68 138.26v4.3l-1.06.62v3.34l-1.37.79-2.04 1.17v-7.63l4.47-2.59z"/>
			<path class="cls-approach-1-3" d="M231.68 138.26l-4.47 2.59-.05-.04-3.81-2.2 4.46-2.58 3.87 2.23zM226.66 180.85v-14.07l-2.76-1.6v17.26l-2.79-1.61v-33.07l8.35 4.83v33.06l-2.8-1.61v-3.19z"/>
			<path class="cls-approach-1-3" d="M227.21 145.14v3.34l-3.86-2.23v-7.64l3.81 2.2.05.04v4.29zM226.66 166.78v14.07l-2.76 1.59v-17.26l2.76 1.6zM222.78 146.8l-1.67.96v15.33l-1.12-.64v-17.26l2.79 1.61z"/>
			<path class="cls-approach-1-4" d="M230.62 143.18l1.06-.62"/>
			<path class="cls-approach-1-5" d="M229.46 152.59l1.67-.97"/>
			<path class="cls-approach-1-4" d="M223.9 165.18l2.76 1.6"/>
			<path class="cls-approach-1-5" d="M219.99 145.19l2.79 1.61"/>
			<path class="cls-approach-1-4" d="M222.78 146.8l-1.67.96M223.35 142.91v-4.3M227.81 136.03l-4.46 2.58"/>
			<path class="cls-approach-1-5" d="M227.21 145.14v-4.29M223.35 138.61l3.81 2.2"/>
			<path class="cls-approach-1-4" d="M231.68 142.56v-4.29"/>
			<path class="cls-approach-1-5" d="M227.21 140.85l4.47-2.58"/>
			<path class="cls-approach-1-4" d="M231.68 138.27l-3.87-2.24M223.35 146.25v-3.34M223.35 146.25l3.86 2.23"/>
			<path class="cls-approach-1-5" d="M227.21 148.48v-3.34"/>
			<path class="cls-approach-1-4" d="M227.21 148.48l2.04-1.17 1.37-.79M230.62 146.52v-3.34M221.11 163.57v-15.81"/>
			<path class="cls-approach-1-5" d="M229.46 168.39v-15.8M221.11 147.76l8.35 4.83"/>
			<path class="cls-approach-1-4" d="M233.92 150l-4.68-2.69M226.66 184.04v-17.26M226.66 184.04l2.8 1.61"/>
			<path class="cls-approach-1-5" d="M229.46 185.65v-17.26"/>
			<path class="cls-approach-1-4" d="M229.46 185.65l2.79-1.61M232.25 184.04v-14.51M221.11 180.83v-17.26M221.11 180.83l2.79 1.61"/>
			<path class="cls-approach-1-5" d="M223.9 182.44v-17.26"/>
			<path class="cls-approach-1-4" d="M223.9 182.44l2.76-1.59.02-.01M223.35 143.9l-.57-.33M219.99 162.45v-17.26M222.78 143.57l-2.79 1.62M219.99 162.45l1.12.64M231.13 168.88v-17.26M231.13 168.88l1.12.64v.01l1.67.96"/>
			<path class="cls-approach-1-5" d="M233.92 170.49v-17.26M231.13 151.62l2.79 1.61"/>
			<path class="cls-approach-1-4" d="M233.92 170.49l2.79-1.61M236.71 168.88v-17.26"/>
			<path class="cls-approach-1-5" d="M233.92 153.23l2.79-1.61"/>
			<path class="cls-approach-1-4" d="M236.71 151.62l-2.79-1.62"/>
			<circle class="cls-approach-1-8" cx="227.81" cy="129.78" r="41.96"/>
			<path class="cls-approach-1-8" d="M221.94 88.23l92.08-20.34-50.64 84.16"/>
		</g>
	</g>
</svg>