<svg viewBox="0 0 288 175" xmlns="http://www.w3.org/2000/svg">
  <g fill="none" fill-rule="evenodd">
    <path fill="#FFF" d="M71.6174 146.1227l-23.19-13.3614v-8.1752l23.19 13.3615"/>
    <path stroke="#000" stroke-width=".5" stroke-linecap="round" stroke-linejoin="round" d="M71.6174 146.1227l-23.19-13.3614v-8.1752l23.19 13.3615z"/>
    <path fill="#FFF" d="M71.6174 137.9477l-23.19-13.3614 23.19-13.3614 23.1898 13.3613"/>
    <path stroke="#000" stroke-width=".5" stroke-linecap="round" stroke-linejoin="round" d="M71.6174 137.9477l-23.19-13.3614 23.19-13.3614 23.1898 13.3613z"/>
    <path fill="#FFF" d="M94.8075 132.761l-23.1898 13.3616v-8.1752l23.1898-13.3614"/>
    <path stroke="#000" stroke-width=".5" stroke-linecap="round" stroke-linejoin="round" d="M94.8075 132.761l-23.1898 13.3616v-8.1752l23.1898-13.3614z"/>
    <path fill="#FFF" d="M119.7518 118.389L96.562 105.0276v-8.1752l23.1898 13.3614"/>
    <path stroke="#000" stroke-width=".5" stroke-linecap="round" stroke-linejoin="round" d="M119.7518 118.389L96.562 105.0276v-8.1752l23.1898 13.3614z"/>
    <path fill="#FFF" d="M119.7518 110.214L96.562 96.8527l23.1898-13.3614 23.1898 13.3614"/>
    <path stroke="#000" stroke-width=".5" stroke-linecap="round" stroke-linejoin="round" d="M119.7518 110.214L96.562 96.8527l23.1898-13.3614 23.1898 13.3614z"/>
    <path fill="#FFF" d="M142.9418 105.0275L119.752 118.389v-8.1753l23.1898-13.3614"/>
    <path stroke="#000" stroke-width=".5" stroke-linecap="round" stroke-linejoin="round" d="M142.9418 105.0275L119.752 118.389v-8.1753l23.1898-13.3614z"/>
    <path fill="#FFF" d="M167.886 90.6553L144.6964 77.294v-8.1753l23.1898 13.3615"/>
    <path stroke="#000" stroke-width=".5" stroke-linecap="round" stroke-linejoin="round" d="M167.886 90.6553L144.6964 77.294v-8.1753l23.1898 13.3615z"/>
    <path fill="#FFF" d="M167.886 82.4804L144.6964 69.119l23.1898-13.3615 23.19 13.3615"/>
    <path stroke="#000" stroke-width=".5" stroke-linecap="round" stroke-linejoin="round" d="M167.886 82.4804L144.6964 69.119l23.1898-13.3615 23.19 13.3615z"/>
    <path fill="#FFF" d="M191.0763 77.294l-23.1898 13.3613v-8.175l23.1898-13.3616"/>
    <path stroke="#000" stroke-width=".5" stroke-linecap="round" stroke-linejoin="round" d="M191.0763 77.294l-23.1898 13.3613v-8.175l23.1898-13.3616z"/>
    <path fill="#FFF" d="M216.0206 62.9217l-23.19-13.3615v-8.175l23.19 13.3613"/>
    <path stroke="#000" stroke-width=".5" stroke-linecap="round" stroke-linejoin="round" d="M216.0206 62.9217l-23.19-13.3615v-8.175l23.19 13.3613z"/>
    <path fill="#FFF" d="M216.0206 54.7467l-23.19-13.3614 23.19-13.3614 23.1898 13.3613"/>
    <path stroke="#000" stroke-width=".5" stroke-linecap="round" stroke-linejoin="round" d="M216.0206 54.7467l-23.19-13.3614 23.19-13.3614 23.1898 13.3613z"/>
    <path fill="#FFF" d="M239.2106 49.5602l-23.1898 13.3615v-8.1752l23.1898-13.3614"/>
    <path stroke="#000" stroke-width=".5" stroke-linecap="round" stroke-linejoin="round" d="M239.2106 49.5602l-23.1898 13.3615v-8.1752l23.1898-13.3614z"/>
    <path fill="#FFF" d="M264.155 35.188l-23.19-13.3613v-8.1752l23.19 13.3614"/>
    <path stroke="#000" stroke-width=".5" stroke-linecap="round" stroke-linejoin="round" d="M264.155 35.188l-23.19-13.3613v-8.1752l23.19 13.3614z"/>
    <path fill="#FFF" d="M240.964 13.6513l23.191 13.3614 23.1898-13.3614L264.155.29"/>
    <path stroke="#000" stroke-width=".5" stroke-linecap="round" stroke-linejoin="round" d="M264.155 27.013l-23.19-13.3614L264.155.2902l23.1897 13.3614z"/>
    <path fill="#FFF" d="M264.155 27.0127v8.1752l23.19-13.3616v-8.175"/>
    <path stroke="#000" stroke-width=".5" stroke-linecap="round" stroke-linejoin="round" d="M287.345 21.8266L264.1552 35.188v-8.1752l23.1898-13.3614z"/>
    <path stroke="#90D4D9" stroke-linecap="round" stroke-linejoin="round" d="M231.1626 36.748l21.3968-12.3288-21.3968 12.3288M183.0282 64.4817L204.425 52.153l-21.3968 12.3287M134.894 92.2154l21.3966-12.3288-21.3967 12.3288M86.7594 119.949l21.3968-12.3288-21.3968 12.329M38.625 147.6826l21.3968-12.3288-21.3968 12.3288"/>
    <g fill="#FFF">
      <path d="M46.6754 152.321v8.174l-23.1898 13.3615v-8.174"/>
      <path d="M35.0808 139.332l11.5944 12.9895-23.1887 13.3614-11.6013-12.9825"/>
      <path d="M35.0808 139.332l-23.1956 13.3685-11.5943-.379L23.4864 138.96"/>
      <path d="M23.4862 165.6825v8.174L.2906 160.495v-8.174M11.885 152.7l11.6013 12.9825L.2907 152.321"/>
    </g>
    <path d="M46.6754 152.321L35.081 139.3316" stroke="#000" stroke-width=".5" stroke-linecap="round" stroke-linejoin="round"/>
    <path d="M35.0808 139.332l-23.1956 13.3685" stroke="#000" stroke-width=".25" stroke-linecap="round" stroke-linejoin="round"/>
    <path d="M23.4862 165.6825L11.885 152.7M46.6754 152.321l-23.1898 13.3615M35.0808 139.332l-11.5943-.372" stroke="#000" stroke-width=".5" stroke-linecap="round" stroke-linejoin="round"/>
    <g stroke="#000" stroke-width=".5" stroke-linecap="round" stroke-linejoin="round">
      <path d="M23.4862 138.9596L.2906 152.321M11.885 152.7l-11.5943-.379M.2903 152.321l23.1956 13.3615"/>
    </g>
    <path d="M46.6754 160.4947v-8.174" stroke="#000" stroke-width=".5" stroke-linecap="round" stroke-linejoin="round"/>
    <g stroke="#000" stroke-width=".5" stroke-linecap="round" stroke-linejoin="round">
      <path d="M.2903 160.4947v-8.174M.2903 160.4947L23.486 173.856M23.4862 173.856v-8.174M23.4862 173.856l23.1898-13.3613"/>
    </g>
  </g>
</svg>