<svg viewBox="0 0 312 232" xmlns="http://www.w3.org/2000/svg">
  <g fill="none" fill-rule="evenodd">
    <g fill="#FFF">
      <path d="M287.19 93.7075v5.08l-2.73 1.58-22.78 13.15-22.77 13.14v.01l-22.77 13.14-22.78 13.15-22.77 13.15-22.77 13.15-22.78 13.15v-5.08l156.39-90.29 1.36-.79"/>
      <path d="M287.19 93.7075l-4.4 2.54-21.11-12.19v-5.07M284.46 100.3675v16.04l-22.78 13.15v-16.04M281.43 97.0375l-156.39 90.29-88.06-50.84v-.01l42.51-24.54 22.78 13.15 22.77 13.14 22.78 13.15 22.77-13.15 22.77-13.14 22.78-13.15v-.01l22.77-13.14 22.77-13.15"/>
      <path d="M261.68 84.0575l21.11 12.19-1.36.79-19.75-11.4M261.68 113.5175v16.04l-22.77 13.15V126.6575M261.68 84.0575v1.58l-22.77 13.15v-17.62l22.77-13.15v10.97M238.91 142.6975v.01l-22.77 13.14v-16.04l22.77-13.14M238.91 81.1675v17.62l-22.77 13.14v-17.61M234.2 42.4175l-6.68-5.01c2.43 1.43 4.63 3.08 6.68 5.01"/>
      <path d="M227.52 37.4075l-113.86 65.74c-2.12-1.25-4.29-2.13-6.68-2.7l-27.49-6.13 113.87-65.74 27.49 6.13 6.67 2.7zM227.52 37.4075l-6.67-2.7c2.39.57 4.56 1.45 6.67 2.7M216.14 139.8075v16.04l-22.78 13.15v-16.04M216.14 94.3175v17.62l-22.78 13.15v-17.62"/>
      <path d="M193.36 168.9975l-22.77 13.15v-16.04l22.77-13.15M193.36 107.4675v17.62l-22.77 13.14v-17.61M170.59 166.1075v16.04l-22.77 13.15v-16.04M170.59 120.6175v17.61l-22.77 13.15v-17.62"/>
      <path d="M193.36 107.4675l-22.77 13.15-22.77 13.14-27.49-25.6c-2.05-1.93-4.25-3.58-6.67-5.01l113.86-65.74 6.68 5.01 27.48 25.6-22.77 13.15-22.77 13.15-22.78 13.15zM147.82 179.2575v16.04l-22.78 13.15v-16.04M147.82 133.7575v17.62l-22.78-13.15v-17.62"/>
      <path d="M147.82 133.7575l-22.78-13.15-11.38-6.57-11.39-6.57-22.78-13.15 27.49 6.13 6.68 2.7 6.67 5.01M125.04 192.4075v16.04l-22.77-13.15v-16.04"/>
      <path d="M125.04 187.3275v5.08l-22.77-13.15-22.78-13.15-22.77-13.15-22.77-13.15-2.74-1.58v-5.07l4.4 2.54 1.37.79M125.04 120.6175v17.61l-22.77-13.14v-17.62l11.39 6.57 11.38 6.57M113.66 103.1475c2.42 1.43 4.62 3.08 6.67 5.01l-6.67-5.01zM106.98 100.4475c2.39.57 4.56 1.45 6.68 2.7l-6.68-2.7z"/>
      <path d="M102.27 179.2575v16.04l-22.78-13.15v-16.04M102.27 107.4675v17.62l-22.78-13.15v-17.62M79.49 166.1075v16.04l-22.77-13.15v-16.04M79.49 105.2775v5.08l-43.88 25.34-4.4-2.54M56.72 152.9575v16.04l-22.77-13.15v-16.04"/>
      <path d="M35.61 135.6975l43.88-25.34v1.58l-42.51 24.54v.01"/>
    </g>
    <path d="M147.82 195.2975v-16.04M227.52 37.4075l-113.86 65.74" stroke="#000" stroke-width=".25" stroke-linecap="round" stroke-linejoin="round"/>
    <path stroke="#000" stroke-width=".5" stroke-linecap="round" stroke-linejoin="round" d="M261.68 68.0175l-22.77 13.15-22.77 13.15-22.78 13.15-22.77 13.15-22.77 13.14"/>
    <path stroke="#000" stroke-width=".25" stroke-linecap="round" stroke-linejoin="round" d="M113.66 114.0375l11.38 6.57 22.78 13.15"/>
    <path d="M261.68 68.0175l-27.48-25.6M147.82 133.7575l-27.49-25.6M234.2 42.4175c-2.05-1.93-4.25-3.58-6.68-5.01M120.33 108.1575c-2.05-1.93-4.25-3.58-6.67-5.01M227.52 37.4075c-2.11-1.25-4.28-2.13-6.67-2.7M113.66 103.1475c-2.12-1.25-4.29-2.13-6.68-2.7M220.85 34.7075l-27.49-6.13M193.36 28.5775l-113.87 65.74M106.98 100.4475l-27.49-6.13" stroke="#000" stroke-width=".5" stroke-linecap="round" stroke-linejoin="round"/>
    <path stroke="#000" stroke-width=".25" stroke-linecap="round" stroke-linejoin="round" d="M79.49 94.3175l22.78 13.15 11.39 6.57"/>
    <path stroke="#000" stroke-width=".5" stroke-linecap="round" stroke-linejoin="round" d="M261.68 85.6375v-17.62M79.49 111.9375v-17.62M79.49 111.9375l22.78 13.15 22.77 13.14 22.78 13.15M147.82 151.3775v-17.62M216.14 111.9275l22.77-13.14 22.77-13.15M147.82 151.3775l22.77-13.15 22.77-13.14 22.78-13.15M282.79 96.2475l-21.11-12.19M287.19 93.7075l-25.51-14.72M287.19 98.7875v-5.08M79.49 110.3575l-43.88 25.34M31.21 138.2275v-5.07M79.49 105.2775l-48.28 27.88M31.21 138.2275l2.74 1.58 22.77 13.15 22.77 13.15 22.78 13.15 22.77 13.15M125.04 192.4075v-5.08M31.21 133.1575l4.4 2.54 1.37.79 88.06 50.84M238.91 126.6575l22.77-13.14 22.78-13.15 2.73-1.58M125.04 192.4075l22.78-13.15 22.77-13.15 22.77-13.15 22.78-13.15 22.77-13.14M125.04 187.3275l156.39-90.29 1.36-.79 4.4-2.54"/>
    <path d="M281.43 97.0375l-19.75-11.4" stroke="#000" stroke-width=".25" stroke-linecap="round" stroke-linejoin="round"/>
    <path d="M284.46 116.4075v-16.04M33.95 155.8475v-16.04" stroke="#000" stroke-width=".5" stroke-linecap="round" stroke-linejoin="round"/>
    <path d="M79.49 111.9375l-42.51 24.54" stroke="#000" stroke-width=".25" stroke-linecap="round" stroke-linejoin="round"/>
    <path stroke="#000" stroke-width=".5" stroke-linecap="round" stroke-linejoin="round" d="M33.95 155.8475l22.77 13.15 22.77 13.15 22.78 13.15 22.77 13.15M125.04 208.4475v-16.04M125.04 208.4475l22.78-13.15 22.77-13.15 22.77-13.15 22.78-13.15 22.77-13.14 22.77-13.15 22.78-13.15"/>
    <path d="M170.59 138.2275v-17.61M193.36 125.0875v-17.62M216.14 111.9375v-17.62M238.91 98.7875v-17.62M125.04 138.2275v-17.61M102.27 125.0875v-17.62M261.68 129.5575v-16.04M216.14 155.8475v-16.04M238.91 142.6975V126.6575M56.72 168.9975v-16.04M79.49 182.1475v-16.04M102.27 195.2975v-16.04M193.36 168.9975v-16.04M170.59 182.1475v-16.04" stroke="#000" stroke-width=".25" stroke-linecap="round" stroke-linejoin="round"/>
    <path stroke="#90D4D9" d="M310.7062 225.39v6h-6"/>
    <path d="M292.778 231.39H12.464" stroke="#90D4D9" stroke-dasharray="11.928,11.928"/>
    <path stroke="#90D4D9" d="M6.5 231.39h-6v-6"/>
    <path d="M1 213.499V11.89M310.7062 213.499V11.89" stroke="#90D4D9" stroke-dasharray="11.521,11.521"/>
    <path stroke="#90D4D9" d="M.5 6.5v-6h6"/>
    <path d="M18.4283.5h280.314" stroke="#90D4D9" stroke-dasharray="11.928,11.928"/>
    <path stroke="#90D4D9" d="M304.7062.5h6v6M155.603 110.3906v11.109M161.1575 115.945h-11.109"/>
  </g>
</svg>