<svg width="288" height="72" viewBox="0 0 288 72" xmlns="http://www.w3.org/2000/svg">
  <g fill="#000" fill-rule="evenodd">
    <text font-family="gridnikregular" font-size="12.9199" transform="translate(0 12)">
      <tspan x="75" y="28">VIEW CUSTOM CASE STUDY</tspan>
    </text>
    <path d="M51.738.664h.663V.001h-.663M51.738 12.55h.663v-.664h-.663M51.738 24.434h.663v-.663h-.663M51.738 48.205h.663v-.664h-.663M51.738 60.09h.663v-.663h-.663M51.738 71.975h.663v-.663h-.663M63.623.664h.663V.001h-.663M63.623 12.549h.663v-.663h-.663M63.623 24.434h.663v-.663h-.663M63.623 48.205h.663v-.663h-.663M63.623 60.09h.663v-.664h-.663M63.623 71.975h.664v-.663h-.664M75.508.664h.664V.001h-.664M75.508 12.549h.664v-.663h-.664M75.508 24.434h.664v-.663h-.664M75.508 48.205h.664v-.663h-.664M75.508 60.09h.664v-.664h-.664M75.508 71.975h.664v-.663h-.664M87.393.664h.663V.001h-.663M87.393 12.549h.663v-.663h-.663M87.393 24.434h.663v-.663h-.663M87.393 48.205h.663v-.663h-.663M87.393 60.09h.663v-.664h-.663M87.394 71.975h.663v-.663h-.663M99.278.664h.664V.001h-.664M99.278 12.549h.664v-.663h-.664M99.278 24.434h.664v-.663h-.664M99.278 48.205h.664v-.663h-.664M99.278 60.09h.664v-.664h-.664M99.278 71.975h.663v-.663h-.663M111.164.664h.664V.001h-.664M111.164 12.549h.664v-.663h-.664M111.164 24.434h.664v-.663h-.664M111.164 48.205h.664v-.663h-.664M111.164 60.09h.664v-.664h-.664M111.164 71.975h.664v-.663h-.664M123.049.664h.663V.001h-.663M123.049 12.549h.663v-.663h-.663M123.049 24.434h.663v-.663h-.663M123.049 48.205h.663v-.663h-.663M123.049 60.09h.663v-.664h-.663M123.049 71.975h.663v-.663h-.663M134.935.664h.664V.001h-.664M134.935 12.549h.664v-.663h-.664M134.935 24.434h.664v-.663h-.664M134.935 48.205h.664v-.663h-.664M134.935 60.09h.664v-.664h-.664M134.935 71.975h.663v-.663h-.663M146.819.664h.664V.001h-.664M146.819 12.549h.664v-.663h-.664M146.819 24.434h.664v-.663h-.664M146.819 48.205h.664v-.663h-.664M146.819 60.09h.664v-.664h-.664M146.819 71.975h.664v-.663h-.664M158.704.664h.663V.001h-.663M158.704 12.549h.663v-.663h-.663M158.704 24.434h.663v-.663h-.663M158.704 48.205h.663v-.663h-.663M158.704 60.09h.663v-.664h-.663M158.704 71.975h.664v-.663h-.664M170.59.664h.663V.001h-.663M170.59 12.549h.663v-.663h-.663M170.59 24.434h.663v-.663h-.663M170.59 48.205h.663v-.663h-.663M170.59 60.09h.663v-.664h-.663M170.59 71.975h.663v-.663h-.663M182.474.664h.664V.001h-.664M182.474 12.549h.664v-.663h-.664M182.474 24.434h.664v-.663h-.664M182.474 48.205h.664v-.663h-.664M182.474 60.09h.664v-.664h-.664M182.475 71.975h.663v-.663h-.663M194.361.664h.663V.001h-.663M194.361 12.549h.663v-.663h-.663M194.361 24.434h.663v-.663h-.663M194.361 48.205h.663v-.663h-.663M194.361 60.09h.663v-.664h-.663M194.36 71.975h.663v-.663h-.663M206.246.664h.663V.001h-.663M206.246 12.549h.663v-.663h-.663M206.246 24.434h.663v-.663h-.663M206.246 48.205h.663v-.663h-.663M206.246 60.09h.663v-.664h-.663M206.246 71.975h.663v-.663h-.663M218.131.664h.664V.001h-.664M218.131 12.549h.664v-.663h-.664M218.131 24.434h.664v-.663h-.664M218.131 48.205h.664v-.663h-.664M218.131 60.09h.664v-.664h-.664M218.131 71.975h.664v-.663h-.664M230.016.664h.663V.001h-.663M230.016 12.549h.663v-.663h-.663M230.016 24.434h.663v-.663h-.663M230.016 48.205h.663v-.663h-.663M230.016 60.09h.663v-.664h-.663M230.016 71.975h.663v-.663h-.663M241.901.664h.664V.001h-.664M241.901 12.55h.664v-.664h-.664M241.901 24.434h.664v-.663h-.664M241.901 48.205h.664v-.664h-.664M241.901 60.09h.664v-.663h-.664M241.901 71.975h.664v-.663h-.664M27.967.664h.663V.001h-.663M27.967 12.549h.663v-.663h-.663M27.967 24.434h.663v-.663h-.663M27.967 36.32h.663v-.663h-.663M27.967 48.205h.663v-.663h-.663M27.967 60.09h.663v-.664h-.663M27.967 71.975h.663v-.663h-.663M14.967.664h.663V.001h-.663M14.967 12.549h.663v-.663h-.663M14.967 24.434h.663v-.663h-.663M14.967 36.32h.663v-.663h-.663M14.967 48.205h.663v-.663h-.663M14.967 60.09h.663v-.664h-.663M14.967 71.975h.663v-.663h-.663M.967.664h.663V.001H.967M.967 12.549h.663v-.663H.967M.967 24.434h.663v-.663H.967M.967 36.32h.663v-.663H.967M.967 48.205h.663v-.663H.967M.967 60.09h.663v-.664H.967M.967 71.975h.663v-.663H.967M39.852.664h.664V.001h-.664M39.852 12.55h.664v-.664h-.664M39.852 24.434h.664v-.663h-.664M39.852 36.32h.664v-.664h-.664M39.852 48.205h.664v-.664h-.664M39.852 60.09h.664v-.663h-.664M39.852 71.975h.664v-.663h-.664M273.943 41.349l11.059-5.462-11.065-5.459.006 10.921zm-.534 2.424l-1.398-.865L272 28.869l1.398-.869 14.223 7.018v1.737l-14.212 7.018z"/>
    <path d="M17 36.94h46.922V35H17M261 36.94h11.633V35H261"/>
  </g>
</svg>