<svg class="view-case-studies-btn" viewBox="0 0 239 144" xmlns="http://www.w3.org/2000/svg" xmlns:xlink="http://www.w3.org/1999/xlink">
  <title>
    Group 13
  </title>
  <defs>
    <path id="a" d="M0 0h225v156H0z"/>
  </defs>
  <g fill="none" fill-rule="evenodd">
    <g transform="translate(-4 -6)">
      <mask id="b" fill="#fff">
        <use xlink:href="#a"/>
      </mask>
      <g mask="url(#b)" fill="#000">
        <path d="M28.738 78.1768h.663v-.663h-.663M28.738 90.0628h.663v-.664h-.663M28.738 101.9468h.663v-.663h-.663M28.738 113.8328h.663v-.664h-.663M28.738 125.7178h.663v-.664h-.663M28.738 137.6028h.663v-.663h-.663M28.738 149.4878h.663v-.663h-.663M40.623 90.0618h.663v-.663h-.663M40.623 101.9468h.663v-.663h-.663M40.623 113.8328h.663v-.663h-.663M40.623 125.7178h.663v-.663h-.663M40.623 137.6028h.663v-.664h-.663M40.623 149.4878h.664v-.663h-.664M52.508 90.0618h.664v-.663h-.664M52.508 101.9468h.664v-.663h-.664M52.508 113.8328h.664v-.663h-.664M52.508 125.7178h.664v-.663h-.664M52.508 137.6028h.664v-.664h-.664M52.508 149.4878h.664v-.663h-.664M64.393 90.0618h.663v-.663h-.663M64.393 101.9468h.663v-.663h-.663M64.393 113.8328h.663v-.663h-.663M64.393 125.7178h.663v-.663h-.663M64.393 137.6028h.663v-.664h-.663M64.394 149.4878h.663v-.663h-.663M76.278 90.0618h.664v-.663h-.664M76.278 101.9468h.664v-.663h-.664M76.278 112.9468h.664v-.663h-.664M76.278 125.7178h.664v-.663h-.664M76.278 137.6028h.664v-.664h-.664M76.278 149.4878h.663v-.663h-.663M88.164 90.0618h.664v-.663h-.664M88.164 101.9468h.664v-.663h-.664M88.164 125.7178h.664v-.663h-.664M88.164 137.6028h.664v-.664h-.664M88.164 149.4878h.664v-.663h-.664M100.049 90.0618h.663v-.663h-.663M100.049 101.9468h.663v-.663h-.663M100.049 125.7178h.663v-.663h-.663M100.049 137.6028h.663v-.664h-.663M100.049 149.4878h.663v-.663h-.663M111.935 90.0618h.664v-.663h-.664M111.935 101.9468h.664v-.663h-.664M111.935 125.7178h.664v-.663h-.664M111.935 137.6028h.664v-.664h-.664M111.935 149.4878h.663v-.663h-.663M123.819 90.0618h.664v-.663h-.664M123.819 101.9468h.664v-.663h-.664M123.819 125.7178h.664v-.663h-.664M123.819 137.6028h.664v-.664h-.664M123.819 149.4878h.664v-.663h-.664M135.704 90.0618h.663v-.663h-.663M135.704 101.9468h.663v-.663h-.663M135.704 125.7178h.663v-.663h-.663M135.704 137.6028h.663v-.664h-.663M135.704 149.4878h.664v-.663h-.664M147.59 90.0618h.663v-.663h-.663M147.59 101.9468h.663v-.663h-.663M147.59 125.7178h.663v-.663h-.663M147.59 137.6028h.663v-.664h-.663M147.59 149.4878h.663v-.663h-.663M159.474 90.0618h.664v-.663h-.664M159.474 101.9468h.664v-.663h-.664M159.474 125.7178h.664v-.663h-.664M159.474 137.6028h.664v-.664h-.664M159.475 149.4878h.663v-.663h-.663M171.361 90.0618h.663v-.663h-.663M171.361 101.9468h.663v-.663h-.663M171.361 125.7178h.663v-.663h-.663M171.361 137.6028h.663v-.664h-.663M171.36 149.4878h.663v-.663h-.663M183.246 90.0618h.663v-.663h-.663M183.246 101.9468h.663v-.663h-.663M183.246 125.7178h.663v-.663h-.663M183.246 137.6028h.663v-.664h-.663M183.246 149.4878h.663v-.663h-.663M195.131 90.0618h.664v-.663h-.664M195.131 101.9468h.664v-.663h-.664M195.131 125.7178h.664v-.663h-.664M195.131 137.6028h.664v-.664h-.664M195.131 149.4878h.664v-.663h-.664M207.016 90.0618h.663v-.663h-.663M207.016 101.9468h.663v-.663h-.663M207.016 125.7178h.663v-.663h-.663M207.016 137.6028h.663v-.664h-.663M207.016 149.4878h.663v-.663h-.663M218.901 90.0628h.664v-.664h-.664M218.901 101.9468h.664v-.663h-.664M88.164 112.9468h.664v-.663h-.664M100.049 112.9468h.663v-.663h-.663M111.935 112.9468h.664v-.663h-.664M123.819 112.9468h.664v-.663h-.664M135.704 112.9468h.663v-.663h-.663M147.59 112.9468h.663v-.663h-.663M159.474 112.9468h.664v-.663h-.664M171.361 112.9468h.663v-.663h-.663M183.246 112.9468h.663v-.663h-.663M195.131 112.9468h.664v-.663h-.664M207.016 112.9468h.663v-.663h-.663M218.901 112.9468h.664v-.663h-.664M218.901 125.7178h.664v-.664h-.664M218.901 137.6028h.664v-.663h-.664M218.901 149.4878h.664v-.663h-.664M4.967 78.1768h.663v-.663h-.663M4.967 90.0618h.663v-.663h-.663M4.967 101.9468h.663v-.663h-.663M4.967 113.8328h.663v-.663h-.663M4.967 125.7178h.663v-.663h-.663M4.967 137.6028h.663v-.664h-.663M4.967 149.4878h.663v-.663h-.663M16.852 78.1768h.664v-.663h-.664M16.852 90.0628h.664v-.664h-.664M16.852 101.9468h.664v-.663h-.664M16.852 113.8328h.664v-.664h-.664M16.852 125.7178h.664v-.664h-.664M16.852 137.6028h.664v-.663h-.664M16.852 149.4878h.664v-.663h-.664M28.738 7.0628h.663v-.664h-.663M28.738 18.9468h.663v-.663h-.663M28.738 30.8328h.663v-.664h-.663M28.738 42.7178h.663v-.664h-.663M28.738 54.6028h.663v-.663h-.663M28.738 66.4878h.663v-.663h-.663M40.623 7.0618h.663v-.663h-.663M40.623 18.9468h.663v-.663h-.663M40.623 30.8328h.663v-.663h-.663M40.623 42.7178h.663v-.663h-.663M40.623 54.6028h.663v-.664h-.663M40.623 66.4878h.664v-.663h-.664M52.508 7.0618h.664v-.663h-.664M52.508 18.9468h.664v-.663h-.664M52.508 30.8328h.664v-.663h-.664M52.508 42.7178h.664v-.663h-.664M52.508 54.6028h.664v-.664h-.664M52.508 66.4878h.664v-.663h-.664M64.393 7.0618h.663v-.663h-.663M64.393 18.9468h.663v-.663h-.663M64.393 30.8328h.663v-.663h-.663M64.393 42.7178h.663v-.663h-.663M64.393 54.6028h.663v-.664h-.663M64.394 66.4878h.663v-.663h-.663M76.278 7.0618h.664v-.663h-.664M76.278 18.9468h.664v-.663h-.664M76.278 29.9468h.664v-.663h-.664M76.278 42.7178h.664v-.663h-.664M76.278 54.6028h.664v-.664h-.664M76.278 66.4878h.663v-.663h-.663M88.164 7.0618h.664v-.663h-.664M88.164 18.9468h.664v-.663h-.664M88.164 42.7178h.664v-.663h-.664M88.164 54.6028h.664v-.664h-.664M88.164 66.4878h.664v-.663h-.664M100.049 7.0618h.663v-.663h-.663M100.049 18.9468h.663v-.663h-.663M100.049 42.7178h.663v-.663h-.663M100.049 54.6028h.663v-.664h-.663M100.049 66.4878h.663v-.663h-.663M111.935 7.0618h.664v-.663h-.664M111.935 18.9468h.664v-.663h-.664M111.935 42.7178h.664v-.663h-.664M111.935 54.6028h.664v-.664h-.664M111.935 66.4878h.663v-.663h-.663M123.819 7.0618h.664v-.663h-.664M123.819 18.9468h.664v-.663h-.664M123.819 42.7178h.664v-.663h-.664M123.819 54.6028h.664v-.664h-.664M123.819 66.4878h.664v-.663h-.664M135.704 7.0618h.663v-.663h-.663M135.704 18.9468h.663v-.663h-.663M135.704 42.7178h.663v-.663h-.663M135.704 54.6028h.663v-.664h-.663M135.704 66.4878h.664v-.663h-.664M147.59 7.0618h.663v-.663h-.663M147.59 18.9468h.663v-.663h-.663M147.59 42.7178h.663v-.663h-.663M147.59 54.6028h.663v-.664h-.663M147.59 66.4878h.663v-.663h-.663M159.474 7.0618h.664v-.663h-.664M159.474 18.9468h.664v-.663h-.664M159.474 42.7178h.664v-.663h-.664M159.474 54.6028h.664v-.664h-.664M159.475 66.4878h.663v-.663h-.663M171.361 7.0618h.663v-.663h-.663M171.361 18.9468h.663v-.663h-.663M171.361 42.7178h.663v-.663h-.663M171.361 54.6028h.663v-.664h-.663M171.36 66.4878h.663v-.663h-.663M183.246 7.0618h.663v-.663h-.663M183.246 18.9468h.663v-.663h-.663M183.246 42.7178h.663v-.663h-.663M183.246 54.6028h.663v-.664h-.663M183.246 66.4878h.663v-.663h-.663M195.131 7.0618h.664v-.663h-.664M195.131 18.9468h.664v-.663h-.664M195.131 42.7178h.664v-.663h-.664M195.131 54.6028h.664v-.664h-.664M195.131 66.4878h.664v-.663h-.664M207.016 7.0618h.663v-.663h-.663M207.016 18.9468h.663v-.663h-.663M207.016 42.7178h.663v-.663h-.663M207.016 54.6028h.663v-.664h-.663M207.016 66.4878h.663v-.663h-.663M218.901 7.0628h.664v-.664h-.664M218.901 18.9468h.664v-.663h-.664M88.164 29.9468h.664v-.663h-.664M100.049 29.9468h.663v-.663h-.663M111.935 29.9468h.664v-.663h-.664M123.819 29.9468h.664v-.663h-.664M135.704 29.9468h.663v-.663h-.663M147.59 29.9468h.663v-.663h-.663M159.474 29.9468h.664v-.663h-.664M171.361 29.9468h.663v-.663h-.663M183.246 29.9468h.663v-.663h-.663M195.131 29.9468h.664v-.663h-.664M207.016 29.9468h.663v-.663h-.663M218.901 29.9468h.664v-.663h-.664M218.901 42.7178h.664v-.664h-.664M218.901 54.6028h.664v-.663h-.664M218.901 66.4878h.664v-.663h-.664M4.967 7.0618h.663v-.663h-.663M4.967 18.9468h.663v-.663h-.663M4.967 30.8328h.663v-.663h-.663M4.967 42.7178h.663v-.663h-.663M4.967 54.6028h.663v-.664h-.663M4.967 66.4878h.663v-.663h-.663M16.852 7.0628h.664v-.664h-.664M16.852 18.9468h.664v-.663h-.664M16.852 30.8328h.664v-.664h-.664M16.852 42.7178h.664v-.664h-.664M16.852 54.6028h.664v-.663h-.664M16.852 66.4878h.664v-.663h-.664"/>
      </g>
    </g>
    <g fill="#000">
      <text font-family="gridnikregular" font-size="12.9199" transform="translate(12 71)">
        <tspan x="59" y="4.6273">VIEW CASE STUDIES</tspan>
      </text>
      <path d="M224.943 76.9763l11.059-5.462-11.065-5.459.006 10.921zm-.534 2.424l-1.398-.865-.011-14.039 1.398-.869 14.223 7.018v1.737l-14.212 7.018z"/>
      <path d="M212 72.5673h11.633v-1.94H212M12 72.5673h46.922v-1.94H12"/>
    </g>
  </g>
</svg>