<svg width="263" height="72" viewBox="0 0 263 72" xmlns="http://www.w3.org/2000/svg"><title>CASE_STUD_BTN</title><g fill="#000" fill-rule="evenodd"><text font-family="Gridnik" font-size="12.92" transform="translate(0 8)"><tspan x="95" y="31.769">VIEW CASE STUDIES</tspan></text><path d="M24.738.664h.663V0h-.662M24.738 12.55h.663v-.664h-.662M24.738 24.434h.663v-.663h-.662M24.738 36.32h.663v-.664h-.662M24.738 48.205h.663v-.664h-.662M24.738 60.09h.663v-.663h-.662M24.738 71.975h.663v-.663h-.662M36.623.664h.663V0h-.663M36.623 12.55h.663v-.664h-.663M36.623 24.434h.663v-.663h-.663M36.623 36.32h.663v-.663h-.663M36.623 48.205h.663v-.663h-.663M36.623 60.09h.663v-.664h-.663M36.623 71.975h.664v-.663h-.664M48.508.664h.664V0h-.664M48.508 12.55h.664v-.664h-.664M48.508 24.434h.664v-.663h-.664M48.508 36.32h.664v-.663h-.664M48.508 48.205h.664v-.663h-.664M48.508 60.09h.664v-.664h-.664M48.508 71.975h.664v-.663h-.664M60.393.664h.663V0h-.663M60.393 12.55h.663v-.664h-.663M60.393 24.434h.663v-.663h-.663M60.393 36.32h.663v-.663h-.663M60.393 48.205h.663v-.663h-.663M60.393 60.09h.663v-.664h-.663M60.394 71.975h.663v-.663h-.663M72.278.664h.664V0h-.664M72.278 12.55h.664v-.664h-.664M72.278 24.434h.664v-.663h-.664M72.278 48.205h.664v-.663h-.664M72.278 60.09h.664v-.664h-.664M72.278 71.975h.663v-.663h-.662M84.164.664h.664V0h-.664M84.164 12.55h.664v-.664h-.664M84.164 24.434h.664v-.663h-.664M84.164 48.205h.664v-.663h-.664M84.164 60.09h.664v-.664h-.664M84.164 71.975h.664v-.663h-.664M96.05.664h.662V0h-.663M96.05 12.55h.662v-.664h-.663M96.05 24.434h.662v-.663h-.663M96.05 48.205h.662v-.663h-.663M96.05 60.09h.662v-.664h-.663M96.05 71.975h.662v-.663h-.663M107.935.664h.664V0h-.665M107.935 12.55h.664v-.664h-.665M107.935 24.434h.664v-.663h-.665M107.935 48.205h.664v-.663h-.665M107.935 60.09h.664v-.664h-.665M107.935 71.975h.663v-.663h-.663M119.82.664h.663V0h-.664M119.82 12.55h.663v-.664h-.664M119.82 24.434h.663v-.663h-.664M119.82 48.205h.663v-.663h-.664M119.82 60.09h.663v-.664h-.664M119.82 71.975h.663v-.663h-.664M131.704.664h.663V0h-.663M131.704 12.55h.663v-.664h-.663M131.704 24.434h.663v-.663h-.663M131.704 48.205h.663v-.663h-.663M131.704 60.09h.663v-.664h-.663M131.704 71.975h.664v-.663h-.664M143.59.664h.663V0h-.663M143.59 12.55h.663v-.664h-.663M143.59 24.434h.663v-.663h-.663M143.59 48.205h.663v-.663h-.663M143.59 60.09h.663v-.664h-.663M143.59 71.975h.663v-.663h-.663M155.474.664h.664V0h-.664M155.474 12.55h.664v-.664h-.664M155.474 24.434h.664v-.663h-.664M155.474 48.205h.664v-.663h-.664M155.474 60.09h.664v-.664h-.664M155.475 71.975h.663v-.663h-.663M167.36.664h.664V0h-.663M167.36 12.55h.664v-.664h-.663M167.36 24.434h.664v-.663h-.663M167.36 48.205h.664v-.663h-.663M167.36 60.09h.664v-.664h-.663M167.36 71.975h.663v-.663h-.663M179.246.664h.663V0h-.664M179.246 12.55h.663v-.664h-.664M179.246 24.434h.663v-.663h-.664M179.246 48.205h.663v-.663h-.664M179.246 60.09h.663v-.664h-.664M179.246 71.975h.663v-.663h-.664M191.13.664h.665V0h-.664M191.13 12.55h.665v-.664h-.664M191.13 24.434h.665v-.663h-.664M191.13 48.205h.665v-.663h-.664M191.13 60.09h.665v-.664h-.664M191.13 71.975h.665v-.663h-.664M203.016.664h.663V0h-.664M203.016 12.55h.663v-.664h-.664M203.016 24.434h.663v-.663h-.664M203.016 48.205h.663v-.663h-.664M203.016 60.09h.663v-.664h-.664M203.016 71.975h.663v-.663h-.664M214.9.664h.665V0h-.664M214.9 12.55h.665v-.664h-.664M214.9 24.434h.665v-.663h-.664M214.9 48.205h.665v-.664h-.664M214.9 60.09h.665v-.663h-.664M214.9 71.975h.665v-.663h-.664M.967.664h.663V0H.967M.967 12.55h.663v-.664H.967M.967 24.434h.663v-.663H.967M.967 36.32h.663v-.663H.967M.967 48.205h.663v-.663H.967M.967 60.09h.663v-.664H.967M.967 71.975h.663v-.663H.967M12.852.664h.664V0h-.664M12.852 12.55h.664v-.664h-.664M12.852 24.434h.664v-.663h-.664M12.852 36.32h.664v-.664h-.664M12.852 48.205h.664v-.664h-.664M12.852 60.09h.664v-.663h-.664M12.852 71.975h.664v-.663h-.664M248.943 41.118l11.06-5.462-11.066-5.46.006 10.922zm-.534 2.424l-1.4-.865-.01-14.04 1.398-.868 14.223 7.017v1.737l-14.21 7.018z"/><path d="M236 36.71h11.633v-1.94H236M36 36.71h46.922v-1.94H36"/></g></svg>